<svg id="Слой_1" xmlns="http://www.w3.org/2000/svg" xmlns:xlink="http://www.w3.org/1999/xlink" viewBox="0 0 240 76.21">
  <style>
    .st12{fill:#fff}.st31{fill:#392b6b}
  </style>
  <defs>
    <path id="SVGID_1_" d="M36.86 15.74c-.54.28-1 .51-1.34.67.22.12.47.21.72.18.39-.03 1.17-.44 1.78-.8-.17-.1-.38-.19-.63-.19-.16 0-.34.04-.53.14"/>
  </defs>
  <clipPath id="SVGID_2_">
    <use xlink:href="#SVGID_1_" overflow="visible"/>
  </clipPath>
  <radialGradient id="SVGID_3_" cx="-245.049" cy="601.166" r=".674" gradientTransform="matrix(1.4131 0 0 -1.4131 383.043 865.589)" gradientUnits="userSpaceOnUse">
    <stop offset="0" stop-color="#a0be36"/>
    <stop offset=".101" stop-color="#a0be36"/>
    <stop offset=".295" stop-color="#93b637"/>
    <stop offset=".646" stop-color="#72a23b"/>
    <stop offset="1" stop-color="#4c8b3f"/>
  </radialGradient>
  <path clip-path="url(#SVGID_2_)" fill="url(#SVGID_3_)" d="M35.52 15.6h2.5v1.02h-2.5z"/>
  <defs>
    <path id="SVGID_4_" d="M21.13 15.04c.25.39.58.68.86.89-.07-.6-.22-1.48-.57-2.27-.34-.77-.82-1.19-1.2-1.42.21.92.56 2.25.91 2.8"/>
  </defs>
  <clipPath id="SVGID_5_">
    <use xlink:href="#SVGID_4_" overflow="visible"/>
  </clipPath>
  <radialGradient id="SVGID_6_" cx="-350.283" cy="539.288" r=".674" gradientTransform="matrix(2.1486 0 0 -2.1486 773.727 1172.791)" gradientUnits="userSpaceOnUse">
    <stop offset="0" stop-color="#a0be36"/>
    <stop offset=".101" stop-color="#a0be36"/>
    <stop offset=".295" stop-color="#93b637"/>
    <stop offset=".646" stop-color="#72a23b"/>
    <stop offset="1" stop-color="#4c8b3f"/>
  </radialGradient>
  <path clip-path="url(#SVGID_5_)" fill="url(#SVGID_6_)" d="M20.23 12.23H22v3.69h-1.77z"/>
  <defs>
    <path id="SVGID_7_" d="M12.57 13.28c.95.77 3.01 2.35 4.16 2.72.89.28 1.78.24 2.36.16-.62-.64-1.81-1.74-3.2-2.44-.87-.44-1.65-.57-2.27-.57-.43 0-.78.06-1.05.13"/>
  </defs>
  <clipPath id="SVGID_8_">
    <use xlink:href="#SVGID_7_" overflow="visible"/>
  </clipPath>
  <radialGradient id="SVGID_9_" cx="-441.401" cy="488.584" r=".674" gradientTransform="matrix(3.7828 0 0 -3.7828 1685.545 1862.878)" gradientUnits="userSpaceOnUse">
    <stop offset="0" stop-color="#a0be36"/>
    <stop offset=".101" stop-color="#a0be36"/>
    <stop offset=".295" stop-color="#93b637"/>
    <stop offset=".646" stop-color="#72a23b"/>
    <stop offset="1" stop-color="#4c8b3f"/>
  </radialGradient>
  <path clip-path="url(#SVGID_8_)" fill="url(#SVGID_9_)" d="M12.57 13.15h6.52v3.13h-6.52z"/>
  <defs>
    <path id="SVGID_10_" d="M14.65 17.1c-1.96.03-2.99 1.1-3.43 1.76 1.32.06 4.4.14 5.76-.29 1.01-.33 1.72-1.07 2.13-1.6-.87.03-2.45.09-4.46.13"/>
  </defs>
  <clipPath id="SVGID_11_">
    <use xlink:href="#SVGID_10_" overflow="visible"/>
  </clipPath>
  <radialGradient id="SVGID_12_" cx="-455.046" cy="481.397" r=".674" gradientTransform="matrix(4.2649 0 0 -4.2649 1955.9 2071.052)" gradientUnits="userSpaceOnUse">
    <stop offset="0" stop-color="#a0be36"/>
    <stop offset=".101" stop-color="#a0be36"/>
    <stop offset=".295" stop-color="#93b637"/>
    <stop offset=".646" stop-color="#72a23b"/>
    <stop offset="1" stop-color="#4c8b3f"/>
  </radialGradient>
  <path clip-path="url(#SVGID_11_)" fill="url(#SVGID_12_)" d="M11.22 16.97h7.89V19h-7.89z"/>
  <defs>
    <path id="SVGID_13_" d="M8.43 28.03c-.36.11-.64.44-.83.72.44.04 1.09.1 1.89.2.72.08 1.15-.4 1.36-.76-.58-.11-1.31-.22-1.86-.22-.22 0-.42.02-.56.06"/>
  </defs>
  <clipPath id="SVGID_14_">
    <use xlink:href="#SVGID_13_" overflow="visible"/>
  </clipPath>
  <radialGradient id="SVGID_15_" cx="-304.106" cy="566.95" r=".674" gradientTransform="matrix(1.7873 0 0 -1.7873 552.747 1041.757)" gradientUnits="userSpaceOnUse">
    <stop offset="0" stop-color="#a0be36"/>
    <stop offset=".101" stop-color="#a0be36"/>
    <stop offset=".295" stop-color="#93b637"/>
    <stop offset=".646" stop-color="#72a23b"/>
    <stop offset="1" stop-color="#4c8b3f"/>
  </radialGradient>
  <path clip-path="url(#SVGID_14_)" fill="url(#SVGID_15_)" d="M7.6 27.97h3.26v1.06H7.6z"/>
  <defs>
    <path id="SVGID_16_" d="M17.16 32.47c.25.7.76 1.2 1.17 1.51-.05-.72-.14-1.91-.22-3.38-.08-1.42-.83-2.18-1.36-2.54 0 1.11.04 3.4.41 4.41"/>
  </defs>
  <clipPath id="SVGID_17_">
    <use xlink:href="#SVGID_16_" overflow="visible"/>
  </clipPath>
  <radialGradient id="SVGID_18_" cx="-420.283" cy="502.817" r=".674" gradientTransform="matrix(3.2163 0 0 -3.2163 1369.294 1648.222)" gradientUnits="userSpaceOnUse">
    <stop offset="0" stop-color="#a0be36"/>
    <stop offset=".101" stop-color="#a0be36"/>
    <stop offset=".295" stop-color="#93b637"/>
    <stop offset=".646" stop-color="#72a23b"/>
    <stop offset="1" stop-color="#4c8b3f"/>
  </radialGradient>
  <path clip-path="url(#SVGID_17_)" fill="url(#SVGID_18_)" d="M16.75 28.06h1.58v5.92h-1.58z"/>
  <defs>
    <path id="SVGID_19_" d="M11.07 53.67c.17.34.31.63.42.87.06-.12.1-.25.09-.36-.01-.24-.25-.75-.5-1.19-.09.18-.14.41-.01.68"/>
  </defs>
  <clipPath id="SVGID_20_">
    <use xlink:href="#SVGID_19_" overflow="visible"/>
  </clipPath>
  <radialGradient id="SVGID_21_" cx="-31.78" cy="734.579" r=".674" gradientTransform="matrix(.8688 0 0 -.8688 38.895 691.938)" gradientUnits="userSpaceOnUse">
    <stop offset="0" stop-color="#a0be36"/>
    <stop offset=".101" stop-color="#a0be36"/>
    <stop offset=".295" stop-color="#93b637"/>
    <stop offset=".646" stop-color="#72a23b"/>
    <stop offset="1" stop-color="#4c8b3f"/>
  </radialGradient>
  <path clip-path="url(#SVGID_20_)" fill="url(#SVGID_21_)" d="M10.94 52.99h.65v1.55h-.65z"/>
  <defs>
    <path id="SVGID_22_" d="M8.19 54c.09.1.19.18.3.25l.21.05.63.14c-.21-.48-.51-1.17-.87-2-.36-.86-1.08-1.1-1.56-1.15.3.86.83 2.23 1.29 2.71"/>
  </defs>
  <clipPath id="SVGID_23_">
    <use xlink:href="#SVGID_22_" overflow="visible"/>
  </clipPath>
  <radialGradient id="SVGID_24_" cx="-341.21" cy="551.631" r=".674" gradientTransform="matrix(2.089 0 0 -2.089 720.908 1205.22)" gradientUnits="userSpaceOnUse">
    <stop offset="0" stop-color="#a0be36"/>
    <stop offset=".101" stop-color="#a0be36"/>
    <stop offset=".295" stop-color="#93b637"/>
    <stop offset=".646" stop-color="#72a23b"/>
    <stop offset="1" stop-color="#4c8b3f"/>
  </radialGradient>
  <path clip-path="url(#SVGID_23_)" fill="url(#SVGID_24_)" d="M6.9 51.28h2.43v3.16H6.9z"/>
  <defs>
    <path id="SVGID_25_" d="M34.02 52.06c-.4.32-.74.72-1 1.07l-.05.25-.01.03c.15-.04.31-.09.5-.14.05-.03.1-.05.16-.08.46-.27 1.19-1.1 1.71-1.72-.36.04-.82.18-1.31.59"/>
  </defs>
  <clipPath id="SVGID_26_">
    <use xlink:href="#SVGID_25_" overflow="visible"/>
  </clipPath>
  <radialGradient id="SVGID_27_" cx="-282.447" cy="590.557" r=".674" gradientTransform="matrix(1.6061 0 0 -1.6061 487.788 1000.953)" gradientUnits="userSpaceOnUse">
    <stop offset="0" stop-color="#a0be36"/>
    <stop offset=".101" stop-color="#a0be36"/>
    <stop offset=".295" stop-color="#93b637"/>
    <stop offset=".646" stop-color="#72a23b"/>
    <stop offset="1" stop-color="#4c8b3f"/>
  </radialGradient>
  <path clip-path="url(#SVGID_26_)" fill="url(#SVGID_27_)" d="M32.96 51.47h2.37v1.94h-2.37z"/>
  <defs>
    <path id="SVGID_28_" d="M36.63 53.13c-1.16.35-2.15.65-2.88.86-.22.1-.44.17-.64.22.46.32 1.18.68 2 .69h.01c1.17 0 3.56-.84 4.64-1.25-.39-.31-1.06-.69-1.99-.69-.35 0-.73.05-1.14.17"/>
  </defs>
  <clipPath id="SVGID_29_">
    <use xlink:href="#SVGID_28_" overflow="visible"/>
  </clipPath>
  <radialGradient id="SVGID_30_" cx="-439.162" cy="496.56" r=".674" gradientTransform="matrix(3.6335 0 0 -3.6335 1632.14 1858.2)" gradientUnits="userSpaceOnUse">
    <stop offset="0" stop-color="#a0be36"/>
    <stop offset=".101" stop-color="#a0be36"/>
    <stop offset=".295" stop-color="#93b637"/>
    <stop offset=".646" stop-color="#72a23b"/>
    <stop offset="1" stop-color="#4c8b3f"/>
  </radialGradient>
  <path clip-path="url(#SVGID_29_)" fill="url(#SVGID_30_)" d="M33.1 52.96h6.65v1.94H33.1z"/>
  <defs>
    <path id="SVGID_31_" d="M31.49 68.18c-.55.24-1.45 1.19-2 1.82.43.12 1.1.17 1.68-.4.63-.62 1.15-1.12 1.5-1.46a2.54 2.54 0 0 0-.57-.07c-.21 0-.42.03-.61.11"/>
  </defs>
  <clipPath id="SVGID_32_">
    <use xlink:href="#SVGID_31_" overflow="visible"/>
  </clipPath>
  <radialGradient id="SVGID_33_" cx="-333.768" cy="563.281" r=".674" gradientTransform="matrix(1.9726 0 0 -1.9726 689.454 1180.187)" gradientUnits="userSpaceOnUse">
    <stop offset="0" stop-color="#a0be36"/>
    <stop offset=".101" stop-color="#a0be36"/>
    <stop offset=".295" stop-color="#93b637"/>
    <stop offset=".646" stop-color="#72a23b"/>
    <stop offset="1" stop-color="#4c8b3f"/>
  </radialGradient>
  <path clip-path="url(#SVGID_32_)" fill="url(#SVGID_33_)" d="M29.48 68.07h3.18v2.1h-3.18z"/>
  <defs>
    <path id="SVGID_34_" d="M27.15 65.74c.37.51 1.14 1.23 2.58 1.27 1.48.04 2.67.09 3.39.12-.32-.4-.84-.9-1.55-1.13-.71-.23-2.03-.29-3.14-.29-.49.01-.94.02-1.28.03"/>
  </defs>
  <clipPath id="SVGID_35_">
    <use xlink:href="#SVGID_34_" overflow="visible"/>
  </clipPath>
  <radialGradient id="SVGID_36_" cx="-422.224" cy="508.122" r=".674" gradientTransform="matrix(3.2173 0 0 -3.2173 1388.564 1701.22)" gradientUnits="userSpaceOnUse">
    <stop offset="0" stop-color="#a0be36"/>
    <stop offset=".101" stop-color="#a0be36"/>
    <stop offset=".295" stop-color="#93b637"/>
    <stop offset=".646" stop-color="#72a23b"/>
    <stop offset="1" stop-color="#4c8b3f"/>
  </radialGradient>
  <path clip-path="url(#SVGID_35_)" fill="url(#SVGID_36_)" d="M27.15 65.72h5.96v1.42h-5.96z"/>
  <path class="st12" d="M17.6 59.53c-.13.31-.12.65.03.95.15.29.43.5.75.57.1.03.19.1.24.19.04.1.04.2 0 .3l-.82 1.67c-.07.13-.2.2-.35.19l-3.99-.46a.33.33 0 0 1-.27-.18.36.36 0 0 1 0-.32l1.94-3.52a.35.35 0 0 1 .3-.18c.02 0 .04 0 .05.01l1.84.3c.1.02.19.08.24.18.08.09.09.2.04.3M10.27 56.9c.09 0 .16.03.23.08.25.23.58.32.91.27.33-.05.61-.25.79-.53.05-.09.14-.15.25-.16.1-.01.2.03.28.1l1.32 1.3c.1.1.13.26.07.4l-1.7 3.63c-.05.1-.14.18-.26.19a.305.305 0 0 1-.3-.11l-2.71-2.96a.349.349 0 0 1-.05-.4l.87-1.64c.05-.1.14-.16.24-.18h.06zM11.34 62.99c0 .02 0 .04-.01.06-.02.12-.09.2-.2.25l-3.67 1.62c-.14.06-.29.03-.39-.08L5.8 63.49a.332.332 0 0 1-.09-.29c.02-.1.08-.19.17-.25.29-.16.49-.45.55-.78.06-.33-.03-.66-.25-.91a.345.345 0 0 1-.08-.29c.02-.1.09-.19.18-.24l1.66-.83c.05-.03.1-.04.15-.04.09 0 .17.03.24.09l2.9 2.78c.08.08.11.16.11.26M8.28 68.48a.302.302 0 0 1-.17-.25l-.28-1.84c-.02-.14.05-.29.18-.35l3.54-1.89c.1-.05.23-.05.33 0s.16.15.18.27l.4 3.99a.35.35 0 0 1-.2.35l-1.68.79a.337.337 0 0 1-.48-.24c-.07-.33-.27-.6-.57-.76-.17-.09-.35-.14-.53-.14-.14 0-.29.03-.42.09a.44.44 0 0 1-.3-.02M17.82 66.75c.02.1-.01.2-.09.29-.07.07-.17.12-.28.1a1.123 1.123 0 0 0-1.21 1.22c.01.1-.03.2-.1.28-.07.07-.18.1-.29.09l-1.84-.26a.352.352 0 0 1-.29-.27l-.8-3.93a.32.32 0 0 1 .09-.31c.07-.07.15-.1.25-.1.02 0 .04.01.06.01l3.95.76c.14.03.25.14.27.29l.28 1.83zM32.13 46.96l-3.03-.01c-.08 0-.12-.04-.14-.07-.01-.03-.04-.09-.01-.16l1.17-2.79c.02-.06.08-.1.15-.1h.01l1.4.08c.07 0 .11.04.12.07.02.02.05.07.03.14-.08.27-.04.55.12.78.16.23.4.38.68.42.07.01.1.05.12.07.01.02.03.07.01.14l-.48 1.32a.15.15 0 0 1-.15.11M29.82 50.95l-.63-1.94h3.24l.11.41-.02.11-.05.22c-.02.01-.03.01-.05.01-.28.01-.54.14-.71.35-.18.22-.25.5-.18.78.01.07-.01.12-.03.14-.02.03-.07.07-.13.06l-1.4-.04c-.06.01-.12-.04-.15-.1M26.6 49.01h1.62l.48 2.24c.01.07-.01.14-.07.17l-1.19.74c-.06.03-.12.02-.14.01a.162.162 0 0 1-.1-.1.973.973 0 0 0-.55-.59c-.12-.04-.23-.06-.35-.06-.16 0-.31.03-.45.11-.06.03-.12.02-.14.01-.03-.01-.07-.04-.1-.11l-.36-1.36c-.01-.06.01-.14.07-.18l1.28-.88zM26.31 42.9c.23.16.52.21.78.14.27-.07.49-.26.61-.51.03-.06.07-.08.11-.09.03-.01.08-.01.14.03l1.1.87c.05.04.07.12.05.18l-.97 2.87c-.03.07-.08.09-.12.1-.03.01-.1.01-.15-.03l-2.28-2c-.05-.05-.07-.12-.05-.18l.52-1.3c.03-.07.07-.09.1-.1.01-.01.03-.01.05-.01.05.01.08.01.11.03M26.83 47.72h-3.28v-.02c.17-.16.29-.38.3-.62a.93.93 0 0 0-.29-.74c0-.01-.01-.01-.01-.01v-.21l.03-.03 1.17-.76c.03-.01.06-.03.09-.03.04 0 .07.01.1.03l2.41 1.84c.06.05.07.11.06.14 0 .03-.01.09-.07.13l-.51.28zM13.82 37.85c.1.26.31.46.57.55.06.02.09.07.1.1.01.03.02.09-.02.14l-.75 1.19c-.03.06-.11.09-.17.07l-2.96-.67c-.07-.02-.1-.07-.12-.1-.01-.03-.03-.1.02-.16l1.74-2.47c.03-.04.08-.07.14-.07.01 0 .03 0 .04.01l1.35.37c.07.02.1.07.11.1.01.03.03.08-.01.14-.12.24-.14.53-.04.8M8.51 34.68c.04-.05.1-.07.12-.07h.01c.03 0 .08.01.12.05.18.21.46.32.73.31.28-.01.54-.14.71-.36.04-.05.1-.07.13-.07s.08.01.13.06l.88 1.09c.05.05.06.13.01.19l-1.57 2.58c-.04.07-.1.07-.14.07-.03 0-.09 0-.14-.06l-1.79-2.45a.165.165 0 0 1-.01-.19l.81-1.15zM5.45 38.19c.07-.27.03-.56-.12-.79-.04-.05-.03-.11-.02-.14.01-.03.03-.08.09-.1l1.32-.49c.02-.01.04-.01.06-.01.04 0 .09.02.12.06l1.94 2.32v.01c.05.05.04.12.03.15-.01.03-.03.08-.11.11l-2.89.91c-.06.02-.14-.01-.18-.06l-.85-1.12c-.04-.05-.03-.11-.03-.14.01-.03.03-.07.09-.1.27-.12.46-.34.55-.61M9.3 40.3l-.03 3.03c0 .07-.05.13-.11.15l-1.33.46c-.07.02-.12-.01-.14-.02-.03-.01-.07-.05-.07-.12a.933.933 0 0 0-.4-.68.918.918 0 0 0-.53-.16c-.08 0-.17.01-.26.03a.15.15 0 0 1-.14-.03c-.03-.01-.07-.05-.07-.12l-.05-1.4c-.01-.07.03-.13.1-.16l2.81-1.13c.07-.03.13 0 .15.01.02.02.07.06.07.14M10.56 43.42c-.07-.02-.12-.07-.12-.14l-.28-3.02c-.01-.07.03-.12.06-.14.01-.01.05-.03.1-.03.02 0 .03 0 .05.01l2.9.89c.06.02.11.08.11.15l.06 1.4c.01.07-.03.11-.05.13-.02.02-.07.05-.14.03a.985.985 0 0 0-.78.19c-.22.18-.34.44-.35.72 0 .07-.03.11-.06.12a.15.15 0 0 1-.14.03l-1.36-.34zM38.28 29.86c-.17.29-.2.63-.09.94.11.31.36.56.67.68.09.03.17.12.2.22s.02.2-.04.29l-1.04 1.55c-.07.12-.23.18-.37.14l-3.89-.98a.352.352 0 0 1-.24-.22.334.334 0 0 1 .05-.32l2.39-3.22a.35.35 0 0 1 .28-.14c.03 0 .07.01.1.01l1.78.55c.1.03.18.1.23.2.03.09.03.2-.03.3M33.14 33.64a.332.332 0 0 1 .32-.05l3.81 1.27c.14.05.23.18.23.32l.03 1.86c0 .1-.05.2-.13.27-.08.06-.18.09-.29.07a1.117 1.117 0 0 0-1.37 1.04c0 .1-.05.2-.14.27-.09.06-.2.07-.3.05l-1.79-.5a.33.33 0 0 1-.25-.31l-.27-4.01c.02-.1.07-.21.15-.28M31.66 33.61c.11-.03.22-.02.32.05s.15.17.14.29l-.14 4.01c-.01.14-.1.27-.24.31l-1.77.57c-.1.03-.21.01-.3-.05a.312.312 0 0 1-.14-.26c-.03-.33-.2-.63-.46-.82-.19-.14-.42-.21-.65-.21-.1 0-.18.01-.28.03a.33.33 0 0 1-.29-.05c-.08-.07-.14-.16-.14-.27l-.03-1.85c-.01-.15.09-.28.22-.33l3.76-1.42zM31.54 32.19c.07.1.1.21.05.32a.32.32 0 0 1-.23.22l-3.85 1.11a.364.364 0 0 1-.38-.12l-1.08-1.51a.342.342 0 0 1-.05-.29c.03-.1.1-.18.2-.23.31-.12.54-.38.64-.7.1-.32.05-.66-.12-.94a.352.352 0 0 1 .18-.51l1.76-.61c.03-.01.07-.01.11-.01.1 0 .2.04.27.13l2.5 3.14zM31.32 26.27c.1 0 .19.05.26.12.22.25.54.39.87.39.33-.01.64-.16.85-.42.07-.08.17-.14.27-.12.1 0 .2.05.27.13l1.14 1.47c.09.12.09.27.01.4l-2.17 3.37c-.06.1-.16.16-.29.16a.37.37 0 0 1-.29-.14l-2.29-3.3a.346.346 0 0 1 .01-.4l1.08-1.51c.06-.08.16-.14.27-.14h.01zM31.22 9c.03-.04.07-.07.13-.07.01 0 .03.01.05.01l1.34.43c.07.02.1.08.1.1.01.03.02.08-.01.14-.14.23-.18.52-.09.79.09.26.29.47.55.57.06.03.09.07.1.1.01.03.01.09-.02.14l-.8 1.15c-.03.06-.11.09-.18.07l-2.92-.79a.168.168 0 0 1-.11-.11.152.152 0 0 1 .03-.15L31.22 9zM29.18 12.51l2.86 1.01c.06.03.11.09.11.16v1.4c0 .07-.04.11-.06.13-.03.01-.08.05-.14.03a.95.95 0 0 0-.78.16.92.92 0 0 0-.38.7c-.01.07-.05.1-.07.12-.03.01-.07.04-.14.02l-1.34-.4c-.07-.02-.12-.07-.12-.14l-.15-3.03c-.01-.08.04-.12.06-.14.02-.01.05-.03.1-.03.01-.01.03 0 .05.01M25.91 15.4a.945.945 0 0 0-.56-.19.97.97 0 0 0-.23.03.142.142 0 0 1-.14-.03c-.03-.02-.06-.06-.06-.13v-1.4c0-.07.04-.13.11-.16l2.86-1.01c.07-.03.12 0 .15.02s.07.07.07.14l-.16 3.03c0 .07-.05.12-.12.14l-1.34.4c-.07.02-.12-.01-.14-.02-.02-.02-.06-.05-.07-.12a.91.91 0 0 0-.37-.7M25.68 8.94c.01-.01.03-.01.05-.01.05 0 .09.03.13.07l1.85 2.4c.05.06.03.12.03.15-.01.03-.04.09-.12.11l-2.92.79a.162.162 0 0 1-.18-.07l-.8-1.15c-.04-.05-.03-.11-.02-.14a.14.14 0 0 1 .1-.1c.26-.1.46-.31.55-.57.09-.27.05-.56-.09-.79-.04-.06-.03-.12-.01-.14a.14.14 0 0 1 .1-.1l1.33-.45zM28.4 10.86l-1.68-2.51a.165.165 0 0 1 0-.19l.84-1.13c.04-.05.1-.07.13-.07h.01c.03 0 .08.01.12.06.18.21.44.34.72.34.28 0 .54-.13.72-.34.04-.05.1-.06.13-.06s.08.01.12.07l.84 1.13c.04.05.05.14.01.19l-1.68 2.51c-.04.07-.1.07-.14.07-.04 0-.1 0-.14-.07"/>
  <g>
    <defs>
      <path id="SVGID_37_" d="M40.25 63.65c-.81.04-1.62.09-2.43.14l-.29.26-1.11 1.01-1.1 1.02-.14.13c-.04.04-.08.07-.12.12-.08.08-.16.16-.23.25-.14.17-.27.36-.36.57-.1.21-.18.41-.24.64l-.18.73-.36 1.46c-.2.79-.39 1.58-.57 2.36h8.36c.25 0 .44-.19.44-.44v-8.32c-.57.02-1.12.04-1.67.07"/>
    </defs>
    <clipPath id="SVGID_38_">
      <use xlink:href="#SVGID_37_" overflow="visible"/>
    </clipPath>
    <radialGradient id="SVGID_39_" cx="-523.015" cy="446.433" r=".674" gradientTransform="matrix(11.285 0 0 -11.285 5939.741 5105.955)" gradientUnits="userSpaceOnUse">
      <stop offset="0" stop-color="#efc957"/>
      <stop offset=".101" stop-color="#efc957"/>
      <stop offset=".338" stop-color="#ebbe4a"/>
      <stop offset=".766" stop-color="#e1a12c"/>
      <stop offset="1" stop-color="#db8f1c"/>
    </radialGradient>
    <path clip-path="url(#SVGID_38_)" fill="url(#SVGID_39_)" d="M33.11 63.58h8.8v8.76h-8.8z"/>
  </g>
  <g>
    <defs>
      <path id="SVGID_40_" d="M23.54 71.9c0 .24.19.44.44.44h8.35c.22-.85.44-1.69.65-2.54l.29-1.16c-.34.33-.89.85-1.55 1.52-.54.53-1.14.7-1.69.7-.57 0-1.08-.18-1.37-.37-.1-.05-.16-.15-.18-.27-.02-.11.01-.22.08-.31.14-.17 1.16-1.42 2.06-2.09l-.91-.03c-2.7-.07-3.54-2.19-3.57-2.28a.398.398 0 0 1 .34-.53c.16-.01 3.82-.21 5.34.28.95.31 1.61.98 1.99 1.49.11-.23.23-.45.37-.66.08-.12.16-.23.25-.33.05-.05.09-.11.14-.16l.13-.14 1.01-1.11.42-.47c-.33 0-.65-.01-.98-.03-.92-.09-1.83-.29-2.69-.61l-2.32-.89-1.15-.44-.57-.22-.28-.12-.14-.06-.18-.08c-.48-.21-.92-.52-1.29-.88-.09-.09-.19-.19-.27-.28l-.2-.23-.4-.46-2.08-2.41V71.9z"/>
    </defs>
    <clipPath id="SVGID_41_">
      <use xlink:href="#SVGID_40_" overflow="visible"/>
    </clipPath>
    <radialGradient id="SVGID_42_" cx="-527.346" cy="443.441" r=".674" gradientTransform="matrix(12.7696 0 0 -12.7696 6763.806 5727.31)" gradientUnits="userSpaceOnUse">
      <stop offset="0" stop-color="#efc957"/>
      <stop offset=".101" stop-color="#efc957"/>
      <stop offset=".338" stop-color="#ebbe4a"/>
      <stop offset=".766" stop-color="#e1a12c"/>
      <stop offset="1" stop-color="#db8f1c"/>
    </radialGradient>
    <path clip-path="url(#SVGID_41_)" fill="url(#SVGID_42_)" d="M23.54 57.18h12.58v15.15H23.54z"/>
  </g>
  <g>
    <defs>
      <path id="SVGID_43_" d="M20.96 49.01l.61 1.73.68 1.91v-3.2c0-.25-.2-.44-.44-.44h-.85z"/>
    </defs>
    <clipPath id="SVGID_44_">
      <use xlink:href="#SVGID_43_" overflow="visible"/>
    </clipPath>
    <radialGradient id="SVGID_45_" cx="-337.557" cy="555.178" r=".674" gradientTransform="matrix(2.0261 0 0 -2.0261 705.536 1175.691)" gradientUnits="userSpaceOnUse">
      <stop offset="0" stop-color="#dcd1dc"/>
      <stop offset=".028" stop-color="#dcd1dc"/>
      <stop offset="1" stop-color="#a785b6"/>
    </radialGradient>
    <path clip-path="url(#SVGID_44_)" fill="url(#SVGID_45_)" d="M20.96 49.01h1.29v3.64h-1.29z"/>
  </g>
  <g>
    <defs>
      <path id="SVGID_46_" d="M23.54 54.54l.14.14 2.85 2.88c.04-.14.09-.27.13-.4l.08-.25c.04-.11.08-.23.13-.35.09-.23.22-.44.37-.63.29-.39.68-.7 1.11-.91.11-.05.22-.09.33-.13.05-.02.11-.03.17-.05.05-.01.12-.03.16-.03l.52-.11 1.03-.23.22-.05c.06-.01.12-.03.17-.05.11-.05.21-.12.31-.19a1.34 1.34 0 0 0 .46-.76l.05-.26.11-.52.21-1.04.02-.09c-.01.01-.01.01-.01.02a.92.92 0 0 1-.72.34h-.02l-1.4-.04a.97.97 0 0 1-.55-.2.95.95 0 0 1-.38.44l-1.19.74a.87.87 0 0 1-.49.14.96.96 0 0 1-.33-.06.93.93 0 0 1-.57-.59.162.162 0 0 0-.1-.1.176.176 0 0 0-.14.01.91.91 0 0 1-.82.04.914.914 0 0 1-.53-.62l-.37-1.36a.99.99 0 0 1 .02-.54.93.93 0 0 1-.5-.21l-.48-.41v5.43z"/>
    </defs>
    <clipPath id="SVGID_47_">
      <use xlink:href="#SVGID_46_" overflow="visible"/>
    </clipPath>
    <radialGradient id="SVGID_48_" cx="-490.965" cy="464.759" r=".674" gradientTransform="matrix(6.313 0 0 -6.313 3127.306 2987.376)" gradientUnits="userSpaceOnUse">
      <stop offset="0" stop-color="#dcd1dc"/>
      <stop offset=".028" stop-color="#dcd1dc"/>
      <stop offset="1" stop-color="#a785b6"/>
    </radialGradient>
    <path clip-path="url(#SVGID_47_)" fill="url(#SVGID_48_)" d="M23.54 49.12h8.57v8.44h-8.57z"/>
  </g>
  <g>
    <defs>
      <path id="SVGID_49_" d="M33.78 49.01l-.14.74-.36 1.92c.08-.07.16-.14.24-.2 1.36-1.12 2.62-.72 2.68-.7a.394.394 0 0 1 .2.6c-.09.12-.58.75-1.15 1.37.36-.11.74-.23 1.15-.35 2.76-.84 4.29 1.08 4.35 1.16.07.1.1.22.07.33-.03.12-.12.22-.23.26-.16.07-3.8 1.53-5.49 1.53h-.01c-1.14 0-2.09-.55-2.63-.96-.11.15-.23.3-.38.42-.17.16-.37.29-.58.4-.1.05-.21.1-.32.14l-.16.05-.13.04-1.02.3-.5.16c-.05.01-.07.03-.1.03-.03.01-.05.02-.08.03-.05.03-.1.05-.15.08a1.32 1.32 0 0 0-.58.78c-.01.06-.02.1-.03.16l-.05.26-.24 1.57c.17.12.34.23.52.31l1.1.44 1.13.47 1.13.48.57.24.28.11c.09.03.17.07.25.1.68.23 1.4.35 2.11.35.36 0 .71-.03 1.06-.09l.58-.09.6-.11c.81-.14 1.61-.29 2.42-.45.67-.13 1.33-.26 2-.4V49.45c0-.25-.2-.44-.44-.44h-7.67z"/>
    </defs>
    <clipPath id="SVGID_50_">
      <use xlink:href="#SVGID_49_" overflow="visible"/>
    </clipPath>
    <radialGradient id="SVGID_51_" cx="-530.428" cy="441.335" r=".674" gradientTransform="matrix(13.9085 0 0 -13.9085 7412.502 6193.65)" gradientUnits="userSpaceOnUse">
      <stop offset="0" stop-color="#efc957"/>
      <stop offset=".101" stop-color="#efc957"/>
      <stop offset=".295" stop-color="#ebbe4a"/>
      <stop offset=".646" stop-color="#e1a12c"/>
      <stop offset=".838" stop-color="#db8f1c"/>
      <stop offset="1" stop-color="#db8f1c"/>
    </radialGradient>
    <path clip-path="url(#SVGID_50_)" fill="url(#SVGID_51_)" d="M28.16 49.01h13.75v12.63H28.16z"/>
  </g>
  <g>
    <defs>
      <path id="SVGID_52_" d="M18.48 55.24l-1.74 1.01-.25.14c-.09.05-.18.09-.28.13a3.587 3.587 0 0 1-1.81.26c-.19-.03-.38-.06-.56-.12l.76.76c.19.18.3.44.33.7.21-.12.46-.16.71-.12l1.83.3c.34.05.63.26.8.57.16.3.18.65.05.97a.345.345 0 0 0 .24.47c.33.07.61.3.76.61.15.31.15.67 0 .98l-.82 1.67c-.13.25-.34.44-.59.55.21.17.35.42.39.7l.29 1.83c.05.34-.05.68-.29.93-.23.25-.56.38-.91.35a.343.343 0 0 0-.27.09c-.04.05-.12.14-.1.28.03.34-.09.68-.33.91-.21.2-.48.31-.77.31-.05 0-.11-.01-.16-.01l-1.84-.26c-.31-.04-.57-.21-.74-.45-.1.28-.3.52-.58.65l-1.68.79c-.15.07-.31.11-.48.11a1.115 1.115 0 0 1-1.09-.9.32.32 0 0 0-.18-.23c-.06-.02-.17-.06-.3-.01-.32.13-.68.11-.97-.06-.3-.17-.5-.46-.55-.81l-.27-1.83c-.05-.28.02-.56.17-.78-.27-.02-.53-.14-.73-.35l-1.28-1.35c-.24-.26-.35-.6-.3-.94.05-.34.25-.63.55-.8.12-.07.16-.18.16-.24a.38.38 0 0 0-.07-.28c-.23-.27-.31-.61-.24-.95.07-.33.28-.62.59-.77l1.66-.84c.23-.12.48-.14.71-.1-.05-.25-.02-.52.1-.76l.87-1.64c.16-.31.45-.52.79-.58.34-.06.68.03.94.27.1.1.22.09.28.08a.33.33 0 0 0 .24-.16c.07-.1.15-.19.24-.27l-1.34-.4-1.11-.32c-.27-.04-.58-.12-.89-.25l-.18-.05c-.07-.02-.14-.04-.22-.05-.14-.03-.29-.05-.44-.07-.28-.02-.58.01-.87.07-.95.32-1.89.64-2.83.97V71.9c0 .24.2.44.44.44h17.5c.24 0 .44-.19.44-.44V55.68l-.67-.77c-.16-.2-.31-.42-.43-.65-.06-.12-.12-.23-.16-.36l-.03-.09c-.84.48-1.67.95-2.49 1.43"/>
    </defs>
    <clipPath id="SVGID_53_">
      <use xlink:href="#SVGID_52_" overflow="visible"/>
    </clipPath>
    <radialGradient id="SVGID_54_" cx="-537.368" cy="436.982" r=".674" gradientTransform="matrix(18.1282 0 0 -18.1282 9754.554 7984.746)" gradientUnits="userSpaceOnUse">
      <stop offset="0" stop-color="#efc957"/>
      <stop offset=".101" stop-color="#efc957"/>
      <stop offset=".338" stop-color="#ebbe4a"/>
      <stop offset=".766" stop-color="#e1a12c"/>
      <stop offset="1" stop-color="#db8f1c"/>
    </radialGradient>
    <path clip-path="url(#SVGID_53_)" fill="url(#SVGID_54_)" d="M3.88 53.82h18.37v18.52H3.88z"/>
  </g>
  <g>
    <defs>
      <path id="SVGID_55_" d="M4.31 49.01c-.24 0-.44.2-.44.44v5.7c.87-.29 1.74-.59 2.61-.89h.02l.02-.01c.26-.07.53-.11.8-.12C6.65 53.1 6.07 51.24 6 51a.427.427 0 0 1 .05-.33c.06-.09.16-.16.27-.17.72-.1 2.23.12 2.86 1.63.52 1.23.93 2.14 1.1 2.52l.39.09.07.02-.36-.75c-.44-.91.15-1.69.53-1.98.08-.07.19-.09.3-.07.11.02.21.08.26.17.14.23.86 1.36.89 2.02.02.35-.12.67-.27.92l.54.12.99.21.49.11c.14.03.27.04.4.05.27.01.53-.03.78-.1.12-.04.24-.09.35-.15.06-.03.12-.07.17-.09l.18-.12 1.65-1.15c.92-.64 1.83-1.28 2.74-1.92l-.24-.79-.7-2.2H4.31z"/>
    </defs>
    <clipPath id="SVGID_56_">
      <use xlink:href="#SVGID_55_" overflow="visible"/>
    </clipPath>
    <radialGradient id="SVGID_57_" cx="-513.286" cy="450.841" r=".674" gradientTransform="matrix(9.3146 0 0 -9.3146 4793.16 4251.668)" gradientUnits="userSpaceOnUse">
      <stop offset="0" stop-color="#eedbe0"/>
      <stop offset=".162" stop-color="#eedbe0"/>
      <stop offset=".331" stop-color="#e9c9cf"/>
      <stop offset=".697" stop-color="#e0a7b2"/>
      <stop offset=".899" stop-color="#dd9ba8"/>
      <stop offset="1" stop-color="#dd9ba8"/>
    </radialGradient>
    <path clip-path="url(#SVGID_56_)" fill="url(#SVGID_57_)" d="M3.88 49.01h16.5v6.55H3.88z"/>
  </g>
  <g>
    <defs>
      <path id="SVGID_58_" d="M14.55 37.43c-.03.05-.02.11-.01.14.01.03.03.07.1.09.28.09.49.3.59.57.1.27.06.57-.09.82l-.75 1.19c-.1.16-.25.28-.41.35.1.14.17.32.18.5l.06 1.4a.94.94 0 0 1-.33.75c-.22.19-.5.27-.79.21-.07-.01-.12.01-.14.03-.02.01-.06.05-.06.12 0 .29-.14.56-.37.74a.952.952 0 0 1-.8.16l-1.36-.35a.904.904 0 0 1-.49-.31c-.12.16-.27.29-.46.36l-1.33.46c-.1.03-.2.05-.31.05a.89.89 0 0 1-.5-.15.946.946 0 0 1-.43-.7c-.01-.07-.05-.1-.07-.12a.196.196 0 0 0-.14-.03c-.28.08-.57.03-.81-.14a.923.923 0 0 1-.39-.72l-.05-1.4a.85.85 0 0 1 .14-.52.913.913 0 0 1-.44-.31l-.85-1.12a.952.952 0 0 1-.19-.57h-.17v8.34c0 .25.2.44.44.44h14.7c-.03-.06-.05-.12-.08-.17l-.14-.26-.31-.53-1.23-2.13-.61-1.06c-.09-.18-.2-.34-.31-.58a3.52 3.52 0 0 1-.25-.71c-.11-.48-.12-.99-.03-1.47.03-.12.05-.24.09-.35.04-.12.07-.2.1-.31l.2-.58.25-.74c-.17-.16-.34-.31-.52-.46-.27-.22-.55-.46-.82-.68-.24-.18-.48-.37-.72-.57-.01.13-.03.23-.09.32"/>
    </defs>
    <clipPath id="SVGID_59_">
      <use xlink:href="#SVGID_58_" overflow="visible"/>
    </clipPath>
    <radialGradient id="SVGID_60_" cx="-530.557" cy="440.337" r=".674" gradientTransform="matrix(14.3193 0 0 -14.3193 7608.67 6347.764)" gradientUnits="userSpaceOnUse">
      <stop offset="0" stop-color="#eedbe0"/>
      <stop offset=".162" stop-color="#eedbe0"/>
      <stop offset=".331" stop-color="#e9c9cf"/>
      <stop offset=".697" stop-color="#e0a7b2"/>
      <stop offset=".899" stop-color="#dd9ba8"/>
      <stop offset="1" stop-color="#dd9ba8"/>
    </radialGradient>
    <path clip-path="url(#SVGID_59_)" fill="url(#SVGID_60_)" d="M3.88 37.14h15.14v10.58H3.88z"/>
  </g>
  <g>
    <defs>
      <path id="SVGID_61_" d="M4.31 24.39c-.24 0-.44.2-.44.44v14.11h.16a.956.956 0 0 1 .56-.87c.06-.03.08-.07.09-.1a.15.15 0 0 0-.02-.14.97.97 0 0 1-.12-.81c.09-.28.3-.49.57-.59l1.32-.49c.15-.05.32-.07.48-.04a.9.9 0 0 1 .16-.5l.79-1.16c.16-.24.42-.39.71-.41.29-.02.57.1.76.31.04.05.1.05.13.05s.08-.01.12-.07c.18-.23.44-.36.73-.37h.01c.29 0 .55.13.73.35l.89 1.09c.11.14.18.31.2.48.16-.04.32-.04.48 0l.27.08c-.31-.34-.56-.74-.72-1.15-.29-.73-.41-1.48-.44-2.22-.02-.74.03-1.47.16-2.19.14-.61 0-1.19-.31-1.72-.32.59-.95 1.25-1.93 1.25-.08 0-.16-.01-.25-.01-1.47-.17-2.45-.25-2.46-.25a.416.416 0 0 1-.3-.18.396.396 0 0 1-.03-.35c.03-.05.55-1.33 1.59-1.66.57-.18 1.56-.08 2.31.05-.14-.11-.29-.21-.44-.31-.57-.38-1.2-.68-1.85-.94-.16-.06-.32-.13-.49-.18l-.51-.18c-.35-.12-.69-.28-1.01-.47l-1.41-.85h-.49z"/>
    </defs>
    <clipPath id="SVGID_62_">
      <use xlink:href="#SVGID_61_" overflow="visible"/>
    </clipPath>
    <radialGradient id="SVGID_63_" cx="-526.453" cy="442.231" r=".674" gradientTransform="matrix(12.7415 0 0 -12.7415 6716.191 5666.361)" gradientUnits="userSpaceOnUse">
      <stop offset="0" stop-color="#eedbe0"/>
      <stop offset=".162" stop-color="#eedbe0"/>
      <stop offset=".331" stop-color="#e9c9cf"/>
      <stop offset=".697" stop-color="#e0a7b2"/>
      <stop offset=".899" stop-color="#dd9ba8"/>
      <stop offset="1" stop-color="#dd9ba8"/>
    </radialGradient>
    <path clip-path="url(#SVGID_62_)" fill="url(#SVGID_63_)" d="M3.88 24.39h9.02v14.55H3.88z"/>
  </g>
  <g>
    <defs>
      <path id="SVGID_64_" d="M6.1 24.39c.15.11.3.2.45.31.29.17.59.33.9.45l.24.09.26.09c.17.06.33.14.5.2.67.28 1.32.61 1.94 1.01.61.4 1.2.88 1.64 1.52.11.16.21.32.29.51.09.17.14.36.2.56.03.1.03.19.05.29l.03.3-.02.3c-.01.1-.01.21-.04.29-.09.68-.12 1.37-.07 2.04.06.68.19 1.35.48 1.92.27.58.72 1.02 1.27 1.25l.05.03.92.52c.31.18.61.35.93.52.31.18.63.33.93.5.08.03.15.07.22.11.13-.37.25-.76.37-1.13.06-.18.13-.42.23-.63.1-.2.2-.4.33-.59.01-.01.01-.01.01-.02-.52-.33-1.38-1.02-1.77-2.11-.54-1.49-.44-5.17-.44-5.32 0-.13.06-.24.16-.31s.23-.09.35-.05c.09.03 2.22.8 2.38 3.5.08 1.38.16 2.51.21 3.24l.73-.82 2.41-2.7v-5.43c0-.25-.2-.44-.44-.44H6.1z"/>
    </defs>
    <clipPath id="SVGID_65_">
      <use xlink:href="#SVGID_64_" overflow="visible"/>
    </clipPath>
    <radialGradient id="SVGID_66_" cx="-536.457" cy="436.652" r=".674" gradientTransform="matrix(17.4801 0 0 -17.4801 9391.523 7663.551)" gradientUnits="userSpaceOnUse">
      <stop offset="0" stop-color="#eedbe0"/>
      <stop offset=".162" stop-color="#eedbe0"/>
      <stop offset=".331" stop-color="#e9c9cf"/>
      <stop offset=".697" stop-color="#e0a7b2"/>
      <stop offset=".899" stop-color="#dd9ba8"/>
      <stop offset="1" stop-color="#dd9ba8"/>
    </radialGradient>
    <path clip-path="url(#SVGID_65_)" fill="url(#SVGID_66_)" d="M6.1 24.39h16.15v12.82H6.1z"/>
  </g>
  <g>
    <defs>
      <path id="SVGID_67_" d="M20.4 33.47l-.81.92-.4.46c-.07.07-.14.15-.19.22-.05.07-.11.14-.16.22-.09.16-.18.31-.25.48-.07.17-.12.33-.17.54-.1.4-.21.79-.31 1.19l-.59 2.39-.15.59c-.02.09-.05.21-.07.29a2.591 2.591 0 0 0 .04 1.21c.04.15.1.3.18.44.06.12.18.32.29.49l.63 1.05 1.24 2.12.31.53.16.27c.05.11.12.23.16.33.05.12.1.23.14.35l.05.16h1.31c.24 0 .44-.2.44-.44V31.36l-1.85 2.11z"/>
    </defs>
    <clipPath id="SVGID_68_">
      <use xlink:href="#SVGID_67_" overflow="visible"/>
    </clipPath>
    <radialGradient id="SVGID_69_" cx="-511.857" cy="451.237" r=".674" gradientTransform="matrix(8.9805 0 0 -8.9805 4616.483 4091.884)" gradientUnits="userSpaceOnUse">
      <stop offset="0" stop-color="#dcd1dc"/>
      <stop offset=".028" stop-color="#dcd1dc"/>
      <stop offset="1" stop-color="#a785b6"/>
    </radialGradient>
    <path clip-path="url(#SVGID_68_)" fill="url(#SVGID_69_)" d="M17.22 31.36h5.02v16.36h-5.02z"/>
  </g>
  <g>
    <defs>
      <path id="SVGID_70_" d="M41.9 41.06c-.14.06-.31.15-.46.23-.32.18-.63.37-.94.57-.31.2-.61.42-.9.63-.29.22-.58.45-.8.68l-.01.02-.03.03c-.61.5-1.23 1-1.85 1.49-.59.48-1.2.96-1.8 1.44l-.03.03-.05.09-.12.21c-.08.14-.16.3-.24.45-.14.26-.27.52-.39.79h7.2c.25 0 .44-.2.44-.44l-.02-6.22z"/>
    </defs>
    <clipPath id="SVGID_71_">
      <use xlink:href="#SVGID_70_" overflow="visible"/>
    </clipPath>
    <radialGradient id="SVGID_72_" cx="-510.802" cy="452.717" r=".674" gradientTransform="matrix(8.6272 0 0 -8.6272 4444.895 3950.092)" gradientUnits="userSpaceOnUse">
      <stop offset="0" stop-color="#efc957"/>
      <stop offset=".101" stop-color="#efc957"/>
      <stop offset=".338" stop-color="#ebbe4a"/>
      <stop offset=".766" stop-color="#e1a12c"/>
      <stop offset="1" stop-color="#db8f1c"/>
    </radialGradient>
    <path clip-path="url(#SVGID_71_)" fill="url(#SVGID_72_)" d="M34.27 41.06h7.64v6.66h-7.64z"/>
  </g>
  <g>
    <defs>
      <path id="SVGID_73_" d="M23.98 24.39c-.25 0-.44.2-.44.44v4.02c0-.01.01-.01.01-.01l.45-.42.89-.84 1.79-1.68 1.6-1.51h-4.3z"/>
    </defs>
    <clipPath id="SVGID_74_">
      <use xlink:href="#SVGID_73_" overflow="visible"/>
    </clipPath>
    <radialGradient id="SVGID_75_" cx="-491.644" cy="462.239" r=".674" gradientTransform="matrix(6.3863 0 0 -6.3863 3165.696 2978.627)" gradientUnits="userSpaceOnUse">
      <stop offset="0" stop-color="#eedbe0"/>
      <stop offset=".162" stop-color="#eedbe0"/>
      <stop offset=".331" stop-color="#e9c9cf"/>
      <stop offset=".697" stop-color="#e0a7b2"/>
      <stop offset=".899" stop-color="#dd9ba8"/>
      <stop offset="1" stop-color="#dd9ba8"/>
    </radialGradient>
    <path clip-path="url(#SVGID_74_)" fill="url(#SVGID_75_)" d="M23.54 24.39h4.74v4.46h-4.74z"/>
  </g>
  <g>
    <defs>
      <path id="SVGID_76_" d="M29.25 24.39l-2.11 2-1.77 1.7-.89.85-.44.42c-.16.16-.26.25-.4.42l-.09.11v15.29l.78-.51c.14-.09.3-.14.46-.15-.03-.17-.01-.35.05-.52l.52-1.3a.93.93 0 0 1 .61-.55c.28-.09.57-.03.81.13.05.04.11.03.14.03.03-.01.07-.03.1-.09.12-.27.35-.46.63-.52.29-.07.57 0 .8.18l1.1.87c.14.12.25.26.3.42a.95.95 0 0 1 .47-.1l1.4.07c.29.01.55.16.72.4.17.24.22.53.14.81-.02.06 0 .12.02.14.01.03.05.07.12.07.29.03.54.18.69.43.16.24.18.55.09.82l-.47 1.32c-.07.18-.18.33-.33.43.05.05.11.11.15.18h.2c.05-.12.1-.23.15-.33.16-.33.32-.65.48-.97.09-.16.17-.32.27-.48.04-.07.1-.16.14-.25l.09-.13c.03-.04.08-.11.12-.16l.03-.03.05-.03c.63-.49 1.25-.97 1.89-1.45.63-.48 1.26-.97 1.9-1.45.03-.03.06-.05.09-.08l-.39-2.66-1.36-1a1.12 1.12 0 0 1-1.08.84c-.1 0-.2-.01-.3-.04l-1.79-.5c-.3-.08-.54-.29-.68-.55-.13.27-.36.48-.65.57l-1.78.56a1.132 1.132 0 0 1-.96-.14c-.29-.2-.46-.5-.49-.85a.37.37 0 0 0-.14-.26c-.05-.03-.15-.09-.29-.05-.33.09-.68.02-.95-.19-.27-.21-.44-.52-.44-.87l-.03-1.86c-.01-.28.1-.55.28-.75-.27-.05-.51-.2-.67-.44l-1.09-1.51c-.2-.28-.26-.63-.16-.96.1-.33.33-.59.65-.72.13-.05.18-.16.2-.22.01-.05.03-.17-.04-.29-.18-.29-.23-.64-.11-.97.11-.33.36-.58.69-.69l1.76-.61c.24-.08.49-.08.72 0-.02-.26.04-.52.2-.74l1.09-1.51c.2-.28.51-.45.85-.46.36-.01.68.12.9.38.09.11.2.12.27.12.06 0 .17-.02.26-.13.22-.27.53-.42.89-.42.34 0 .66.16.87.44l1.14 1.47c.16.21.24.47.23.73.23-.08.48-.09.72-.03l.52.16 1.73-3.84h-9.58z"/>
    </defs>
    <clipPath id="SVGID_77_">
      <use xlink:href="#SVGID_76_" overflow="visible"/>
    </clipPath>
    <radialGradient id="SVGID_78_" cx="-531.886" cy="439.736" r=".674" gradientTransform="matrix(14.6261 0 0 -14.6261 7810.555 6467.665)" gradientUnits="userSpaceOnUse">
      <stop offset="0" stop-color="#dcd1dc"/>
      <stop offset=".028" stop-color="#dcd1dc"/>
      <stop offset="1" stop-color="#a785b6"/>
    </radialGradient>
    <path clip-path="url(#SVGID_77_)" fill="url(#SVGID_78_)" d="M23.54 24.39h15.25v23.33H23.54z"/>
  </g>
  <g>
    <defs>
      <path id="SVGID_79_" d="M39.63 24.39l-1.83 4.06.51.16c.33.1.59.35.72.67.12.32.09.67-.08.97-.07.12-.05.23-.03.29.02.05.07.16.2.2.32.12.57.37.68.7.11.33.06.68-.13.97l-1.04 1.55c-.16.24-.4.4-.66.46.18.2.3.46.31.74l.03 1.86c0 .34-.14.67-.42.89-.23.19-.53.28-.83.24l1.51 1.11.37 2.55c.03-.03.07-.05.11-.07.32-.22.65-.42.97-.62.33-.2.67-.38 1.02-.56.18-.09.35-.16.56-.24.12-.05.2-.06.29-.09v-15.4c0-.25-.2-.44-.44-.44h-1.82z"/>
    </defs>
    <clipPath id="SVGID_80_">
      <use xlink:href="#SVGID_79_" overflow="visible"/>
    </clipPath>
    <radialGradient id="SVGID_81_" cx="-515.59" cy="449.329" r=".674" gradientTransform="matrix(9.4885 0 0 -9.4885 4931.639 4296.543)" gradientUnits="userSpaceOnUse">
      <stop offset="0" stop-color="#dcd1dc"/>
      <stop offset=".028" stop-color="#dcd1dc"/>
      <stop offset="1" stop-color="#a785b6"/>
    </radialGradient>
    <path clip-path="url(#SVGID_80_)" fill="url(#SVGID_81_)" d="M37.07 24.39h4.84v17.42h-4.84z"/>
  </g>
  <g>
    <defs>
      <path id="SVGID_82_" d="M35.48 15.57c.29-.14.63-.32 1.02-.52 1.11-.57 2.11.09 2.47.53.07.08.11.19.09.31-.01.11-.07.2-.16.27-.18.12-1.73 1.14-2.59 1.22-.05 0-.1.01-.15.01-.55 0-1.05-.28-1.35-.5-.38.72-.74 1.44-1.11 2.16-.19.37-.36.72-.57 1.1-.14.24-.29.47-.44.7h8.59c.27 0 .47-.23.44-.49-.46-3.47-1.87-6.63-3.95-9.24-.76 1.47-1.53 2.96-2.29 4.45"/>
    </defs>
    <clipPath id="SVGID_83_">
      <use xlink:href="#SVGID_82_" overflow="visible"/>
    </clipPath>
    <radialGradient id="SVGID_84_" cx="-498.377" cy="458.112" r=".674" gradientTransform="matrix(6.969 0 0 -6.969 3510.424 3208.571)" gradientUnits="userSpaceOnUse">
      <stop offset="0" stop-color="#dcd1dc"/>
      <stop offset=".028" stop-color="#dcd1dc"/>
      <stop offset="1" stop-color="#a785b6"/>
    </radialGradient>
    <path clip-path="url(#SVGID_83_)" fill="url(#SVGID_84_)" d="M32.7 11.1h9.06v9.73H32.7z"/>
  </g>
  <g>
    <defs>
      <path id="SVGID_85_" d="M4.06 20.34c-.03.26.17.49.44.49H31.37l-.38-.54c-.26-.37-.52-.76-.78-1.13-.24-.34-.52-.6-.88-.83-.34-.22-.73-.4-1.13-.57-1.41-.16-2.82-.35-4.23-.53-1.25-.16-2.51-.34-3.76-.53 0 .01 0 .01-.01.01-.03.08-1.02 1.95-2.98 2.58-.94.3-2.56.37-3.97.37-1.4 0-2.59-.07-2.69-.08a.416.416 0 0 1-.3-.18.362.362 0 0 1-.03-.35c.04-.11 1.08-2.69 4.41-2.75.31-.01.61-.01.9-.02-1.7-.93-3.88-2.76-3.99-2.86a.377.377 0 0 1 .06-.63c.08-.05 2-1.11 4.62.2 2.19 1.1 3.84 3.05 3.91 3.13.01.02.03.04.03.06.35.03.69.05 1.04.08-.25-.22-.52-.5-.74-.83-.64-1-1.13-3.67-1.15-3.79-.02-.12.01-.25.1-.34.1-.09.22-.13.35-.11.06.01 1.55.29 2.36 2.12.54 1.23.65 2.6.68 3.09l1.23.12c.57.05 1.14.12 1.71.17a.927.927 0 0 1-.25-.59c0-.07-.04-.11-.06-.12-.03-.02-.07-.05-.14-.03-.28.07-.57 0-.81-.18a.924.924 0 0 1-.35-.74v-1.4c0-.19.06-.37.16-.52-.16-.07-.31-.18-.42-.33l-.8-1.15a.934.934 0 0 1 .43-1.41c.06-.03.09-.08.09-.1.01-.03.02-.08-.01-.14a.946.946 0 0 1 .51-1.39l1.33-.44c.16-.05.33-.05.48-.02a.92.92 0 0 1 .18-.49l.84-1.13c.18-.23.44-.37.73-.37.29-.01.56.12.74.33.05.05.1.06.13.06s.08-.01.12-.06c.19-.23.46-.35.75-.33.22.01.41.08.58.22.05.05.1.09.15.16l.84 1.13c.1.15.16.32.18.49.16-.03.32-.03.48.02l1.34.44c.28.09.49.3.59.57.1.27.07.57-.08.82-.03.05-.03.11-.01.14.01.03.03.07.09.1.27.1.47.32.56.6.08.28.03.57-.13.81l-.8 1.15c-.11.16-.26.27-.43.33.1.15.16.33.16.52v1.4c0 .29-.13.56-.36.74-.22.18-.52.25-.8.18a.142.142 0 0 0-.14.03c-.02.01-.06.05-.07.12a.92.92 0 0 1-.4.72c-.16.12-.35.17-.54.17-.09 0-.18-.01-.27-.04l-1.34-.4a.91.91 0 0 1-.48-.33c-.12.16-.29.28-.48.33l-.95.29c.41.04.82.08 1.23.13l.07.02.05.02c.43.18.87.36 1.3.62.44.25.84.63 1.12 1.05.27.4.53.76.78 1.15l.45.67c.16-.23.31-.46.45-.71.18-.33.37-.72.55-1.08 1.39-2.75 2.77-5.51 4.15-8.27a19.353 19.353 0 0 0-6.86-5.03 18.683 18.683 0 0 0-7.5-1.56c-9.52.01-17.58 7.15-18.82 16.48"/>
    </defs>
    <clipPath id="SVGID_86_">
      <use xlink:href="#SVGID_85_" overflow="visible"/>
    </clipPath>
    <radialGradient id="SVGID_87_" cx="-547.746" cy="430.019" r=".674" gradientTransform="matrix(30.4067 0 0 -30.4067 16675.79 13087.824)" gradientUnits="userSpaceOnUse">
      <stop offset="0" stop-color="#eedbe0"/>
      <stop offset=".162" stop-color="#eedbe0"/>
      <stop offset=".331" stop-color="#e9c9cf"/>
      <stop offset=".697" stop-color="#e0a7b2"/>
      <stop offset=".899" stop-color="#dd9ba8"/>
      <stop offset="1" stop-color="#dd9ba8"/>
    </radialGradient>
    <path clip-path="url(#SVGID_86_)" fill="url(#SVGID_87_)" d="M4.02 3.87h33.23v16.96H4.02z"/>
  </g>
  <path d="M29.65 23.1H3.03c-.25 0-.44.2-.44.44v49.65c0 .25.2.44.44.44h39.73c.24 0 .44-.2.44-.44V23.54c0-.24-.2-.44-.44-.44H29.65zM8.14 7.12a21.49 21.49 0 0 1 14.75-5.83c5.5 0 10.73 2.07 14.75 5.83a21.5 21.5 0 0 1 6.77 14.09l.07 2.86v50.42c0 .25-.2.44-.44.44H1.73c-.24 0-.44-.19-.44-.44v-50.4l.07-2.88c.43-5.39 2.83-10.39 6.78-14.09m14.75-4.54c-10.61 0-19.51 8.28-20.25 18.86l-.01.22c-.02.25.18.47.44.47h39.65c.25 0 .46-.22.44-.47l-.01-.22C42.39 10.86 33.5 2.58 22.89 2.58" fill="#e5b040"/>
  <path class="st31" d="M33.74 53.99c-.22.1-.44.17-.64.22.46.32 1.18.68 2 .69h.01c1.17 0 3.56-.84 4.64-1.25-.54-.42-1.59-.98-3.12-.51-1.16.35-2.15.64-2.89.85m-4.01 13.03c1.48.04 2.67.09 3.39.12-.32-.4-.85-.9-1.55-1.13-1.02-.33-3.31-.31-4.42-.27.37.51 1.15 1.24 2.58 1.28m1.76 1.16c-.55.24-1.45 1.19-2 1.82.43.12 1.1.17 1.68-.4.63-.62 1.15-1.12 1.5-1.46-.35-.08-.79-.12-1.18.04m1.48-14.79l-.01.03c.15-.04.31-.09.5-.14.05-.03.1-.05.16-.08.46-.27 1.19-1.1 1.71-1.72-.35.04-.82.18-1.31.59-.4.32-.74.72-1 1.07l-.05.25zm-3.26 14.4c-2.71-.07-3.54-2.19-3.57-2.28a.398.398 0 0 1 .34-.53c.16-.01 3.82-.21 5.34.28.95.31 1.61.98 1.99 1.49.11-.23.23-.45.37-.66.08-.12.16-.23.25-.33.05-.05.1-.11.14-.16l.13-.14 1.01-1.11.42-.47c-.33 0-.65-.01-.98-.03-.92-.09-1.83-.29-2.69-.61l-2.32-.89-1.15-.44-.57-.22-.28-.12-.14-.06-.18-.08c-.48-.21-.92-.52-1.29-.88-.09-.09-.19-.19-.27-.28l-.2-.23-.4-.46-2.08-2.41v-2.64l.14.14 2.85 2.88c.04-.14.09-.27.13-.4l.08-.25c.03-.11.07-.23.13-.35.09-.23.22-.44.37-.63.29-.39.67-.7 1.11-.91.11-.05.22-.09.33-.13.05-.02.11-.03.17-.05.05-.01.12-.03.16-.03l.52-.11 1.03-.23.22-.05c.06-.01.12-.03.17-.05.11-.05.21-.12.31-.19a1.34 1.34 0 0 0 .46-.76l.05-.26.11-.52.21-1.04.02-.09c-.01.01-.01.01-.01.02a.92.92 0 0 1-.72.34h-.02l-1.4-.04a.97.97 0 0 1-.55-.2c-.07.18-.2.33-.38.44l-1.19.74c-.15.09-.32.14-.49.14a.96.96 0 0 1-.33-.06.93.93 0 0 1-.57-.59.18.18 0 0 0-.09-.1.176.176 0 0 0-.14.01.91.91 0 0 1-.82.04.914.914 0 0 1-.53-.62l-.37-1.36a.99.99 0 0 1 .02-.54.964.964 0 0 1-.5-.21l-.48-.41v-.11h3.07l-1.29.89c-.05.04-.08.12-.07.18l.36 1.36c.02.07.07.1.09.11.03.01.08.03.14-.01.14-.08.29-.11.45-.11.12 0 .23.02.35.06.26.11.46.32.55.59.02.06.07.09.09.1.03.01.08.02.14-.01l1.19-.74c.06-.03.09-.1.08-.17L28.25 49h.98l.63 1.94c.02.06.08.11.15.11l1.4.04c.06.01.11-.03.13-.06.02-.02.05-.07.03-.14-.06-.27.01-.56.18-.78.17-.22.43-.35.71-.36.02 0 .03-.01.05-.01l.05-.23.02-.11-.11-.41h1.34l-.14.74-.36 1.92c.07-.07.16-.14.24-.2 1.36-1.12 2.62-.72 2.68-.69.12.03.21.13.25.25.04.12.02.25-.05.35-.09.12-.58.75-1.15 1.37.36-.11.74-.23 1.15-.35 2.76-.84 4.29 1.08 4.35 1.16.08.1.1.22.07.33-.03.12-.12.22-.23.26-.16.07-3.8 1.53-5.49 1.53h-.01c-1.15 0-2.09-.55-2.63-.96a2.603 2.603 0 0 1-.95.82c-.1.05-.21.1-.32.14l-.16.05-.13.04-1.02.3-.5.16c-.05.01-.07.03-.09.03-.03.01-.05.02-.08.03-.05.03-.1.05-.15.08a1.32 1.32 0 0 0-.58.78c-.01.05-.02.1-.03.16l-.05.26-.24 1.57c.17.12.34.23.52.31l1.1.44 1.13.47 1.13.48.57.24.28.11c.09.03.17.07.25.1.68.23 1.4.35 2.11.35.36 0 .71-.03 1.06-.09l.58-.09.6-.11c.81-.14 1.62-.29 2.42-.45.67-.13 1.33-.26 2-.4v3.08c-.56.03-1.11.05-1.66.07-.81.04-1.62.09-2.43.14l-.29.26-1.11 1.01-1.1 1.02-.14.13c-.04.04-.08.07-.12.12-.08.08-.16.16-.23.25-.14.17-.27.36-.36.57-.1.21-.18.41-.24.64l-.18.73-.36 1.46c-.2.79-.39 1.58-.57 2.36h-.78c.22-.85.44-1.69.65-2.54l.29-1.16c-.34.33-.89.85-1.55 1.52-.54.53-1.15.7-1.69.7-.57 0-1.08-.18-1.37-.37a.38.38 0 0 1-.18-.27c-.02-.11.01-.22.08-.31.14-.17 1.16-1.42 2.07-2.09-.34.01-.64 0-.96-.01M3.07 22.13h39.65c.25 0 .46-.22.44-.47l-.01-.22C42.39 10.86 33.5 2.58 22.89 2.58c-10.61 0-19.51 8.28-20.25 18.86l-.01.22c-.02.25.18.47.44.47m38.66-1.79c.03.27-.17.49-.44.49H32.7c.15-.23.3-.46.44-.7.2-.38.38-.73.57-1.1.37-.72.74-1.45 1.11-2.16.3.22.8.5 1.35.5.05 0 .1-.01.15-.01.86-.08 2.41-1.1 2.59-1.22.09-.06.15-.16.16-.27a.344.344 0 0 0-.09-.31c-.37-.44-1.36-1.1-2.47-.53-.39.2-.74.38-1.02.52.76-1.49 1.53-2.98 2.3-4.47 2.07 2.63 3.48 5.8 3.94 9.26m-6.21-3.93c.33-.16.8-.39 1.34-.68.47-.24.89-.12 1.16.06-.61.36-1.39.77-1.78.8-.25.03-.5-.06-.72-.18M22.89 3.87c2.65 0 5.19.55 7.5 1.56 2.64 1.15 5 2.88 6.86 5.03-1.38 2.77-2.76 5.52-4.15 8.27-.18.36-.37.74-.55 1.08-.14.25-.29.48-.45.71l-.45-.68c-.25-.39-.51-.76-.78-1.15-.29-.42-.69-.8-1.12-1.05-.43-.26-.87-.44-1.3-.62l-.06-.02h-.05c-.41-.05-.82-.09-1.23-.13l.95-.29a.95.95 0 0 0 .48-.33c.12.16.28.28.48.33l1.34.4c.09.03.18.04.27.04.19 0 .38-.05.54-.17.24-.16.38-.43.4-.72.01-.07.05-.11.07-.12.02-.02.07-.05.14-.03.28.07.57 0 .8-.18.23-.18.36-.45.36-.74v-1.4c-.01-.19-.06-.37-.16-.52.17-.07.32-.18.43-.33l.8-1.15c.16-.24.21-.53.13-.81a.93.93 0 0 0-.56-.6.23.23 0 0 1-.1-.1.176.176 0 0 1 .01-.14.95.95 0 0 0 .08-.82.93.93 0 0 0-.59-.57l-1.35-.42a.872.872 0 0 0-.48-.02.92.92 0 0 0-.18-.49l-.84-1.12c-.05-.06-.1-.11-.15-.16a.925.925 0 0 0-.58-.22.94.94 0 0 0-.75.33c-.04.05-.09.06-.12.06s-.08-.01-.13-.06a.92.92 0 0 0-.74-.33c-.29.01-.55.14-.73.38l-.83 1.12c-.11.15-.16.32-.18.49a.977.977 0 0 0-.48.02l-1.33.44a.93.93 0 0 0-.59.57c-.1.27-.07.57.08.82.03.05.02.11.01.14-.01.03-.03.07-.1.1a.934.934 0 0 0-.43 1.41l.8 1.15c.11.16.26.27.42.33a.94.94 0 0 0-.16.52v1.4c0 .29.13.56.35.74.23.18.52.25.8.18.06-.02.11.01.14.03.02.01.06.05.06.12.01.22.1.43.25.59-.57-.06-1.15-.12-1.71-.17l-1.23-.12c-.02-.49-.14-1.87-.68-3.09-.8-1.83-2.3-2.11-2.36-2.12a.415.415 0 0 0-.35.11c-.09.09-.12.22-.1.34.02.12.51 2.79 1.15 3.79.22.33.48.61.74.83-.34-.03-.69-.05-1.04-.08l-.03-.06c-.07-.08-1.72-2.03-3.91-3.13-2.62-1.32-4.54-.25-4.62-.2-.11.06-.18.17-.2.3-.01.12.04.25.14.33.11.1 2.29 1.93 3.99 2.86-.29.01-.59.01-.9.02-3.33.06-4.37 2.64-4.41 2.75a.39.39 0 0 0 .03.35c.07.1.18.17.3.18.1.01 1.29.08 2.69.08 1.41 0 3.03-.07 3.97-.37 1.96-.63 2.94-2.5 2.98-2.58l.01-.01c1.25.18 2.51.36 3.76.52 1.41.18 2.81.37 4.23.53.4.17.79.35 1.13.57.35.23.64.48.88.82.25.37.52.76.78 1.13l.38.54H4.49c-.27 0-.47-.23-.44-.49 1.25-9.36 9.31-16.5 18.84-16.5m1.37 5.75c-.04-.06-.03-.12-.01-.14a.14.14 0 0 1 .1-.1l1.34-.43c.01-.01.03-.01.05-.01.05 0 .1.03.13.07l1.85 2.4c.05.06.03.12.03.15-.01.03-.04.09-.12.11l-2.92.79a.162.162 0 0 1-.18-.07l-.8-1.15c-.04-.05-.03-.11-.02-.14a.14.14 0 0 1 .1-.1c.26-.1.46-.31.55-.57.07-.29.04-.58-.1-.81m8.47.79c.09.26.29.47.55.57.06.03.09.07.1.1.01.03.01.09-.02.14l-.8 1.15c-.03.06-.11.09-.18.07l-2.92-.79a.168.168 0 0 1-.11-.11.152.152 0 0 1 .03-.15L31.21 9c.03-.04.07-.07.13-.07.01 0 .03.01.05.01l1.34.43c.07.02.1.07.1.1.01.03.02.08-.01.14-.15.24-.18.53-.09.8m-.58 3.26v1.4c0 .07-.04.11-.06.13-.03.01-.07.05-.14.03a.95.95 0 0 0-.78.16.88.88 0 0 0-.37.7c-.01.07-.05.1-.07.12-.03.01-.08.04-.14.02l-1.34-.4c-.07-.02-.12-.07-.12-.14l-.15-3.03c-.01-.07.04-.12.06-.14.02-.01.06-.03.1-.03.01 0 .03.01.05.01l2.86 1.01c.05.03.1.09.1.16m-1.79-5.33l-1.68 2.51c-.04.07-.1.07-.14.07-.03 0-.1-.01-.14-.07l-1.68-2.51a.165.165 0 0 1 0-.19l.84-1.12c.04-.06.1-.07.13-.07h.01c.03 0 .08.01.12.06.18.21.44.34.72.34.28 0 .54-.13.72-.34.04-.05.09-.06.13-.06.03 0 .08.01.12.07l.84 1.12c.04.06.05.14.01.19m-5.44 5.33c0-.07.04-.13.11-.16l2.86-1.01c.07-.03.12 0 .15.02s.07.07.07.14l-.16 3.03c0 .07-.05.12-.12.14l-1.34.4c-.07.02-.12-.01-.14-.02-.02-.02-.06-.05-.07-.12a.91.91 0 0 0-.37-.7.908.908 0 0 0-.79-.16.142.142 0 0 1-.14-.03c-.03-.02-.06-.06-.06-.13v-1.4zm-2.93 2.26c-.28-.2-.61-.5-.86-.89-.36-.55-.7-1.88-.91-2.81.38.23.86.65 1.2 1.42.36.8.51 1.68.57 2.28m-2.87 1.04c-.41.53-1.12 1.27-2.13 1.6-1.36.43-4.44.35-5.76.29.44-.65 1.47-1.72 3.43-1.76 2-.04 3.59-.1 4.46-.13M16.73 16c-1.16-.37-3.21-1.95-4.16-2.72.67-.17 1.86-.29 3.32.44 1.39.7 2.58 1.8 3.2 2.44-.58.07-1.47.12-2.36-.16"/>
  <path class="st31" d="M42.76 23.11H3.03c-.25 0-.44.2-.44.44V73.2c0 .25.2.44.44.44h39.73c.24 0 .44-.2.44-.44V23.54c0-.24-.2-.43-.44-.43m-19.22 1.73c0-.25.19-.44.44-.44h4.3l-1.6 1.51-1.79 1.68-.89.83-.45.42-.01.01v-4.01zm0 5.05l.1-.11c.14-.17.24-.27.4-.42l.44-.42.89-.85 1.77-1.7 2.11-2h9.54l-1.73 3.84-.52-.16c-.25-.07-.5-.05-.72.03.01-.26-.06-.52-.23-.73l-1.14-1.47a1.114 1.114 0 0 0-1.76-.02c-.08.1-.19.12-.25.12-.06-.01-.18-.01-.27-.12-.23-.26-.55-.4-.9-.38-.34.01-.65.18-.85.46l-1.09 1.51c-.16.22-.22.48-.2.74a1.18 1.18 0 0 0-.72 0l-1.76.61c-.33.11-.58.36-.69.69-.12.33-.07.68.11.97.07.12.05.23.04.29-.02.06-.07.16-.2.22-.32.13-.56.4-.65.72-.09.33-.03.68.16.96l1.09 1.51c.16.23.41.38.68.44-.18.2-.29.47-.28.75l.03 1.86c.01.35.17.66.44.87.27.21.63.28.95.19.14-.03.24.02.29.05.05.03.14.12.14.26.03.34.2.65.49.84a1.132 1.132 0 0 0 .96.14l1.78-.56c.29-.09.52-.31.65-.57.14.26.38.46.68.55l1.79.5c.09.03.2.04.3.04.24 0 .46-.07.66-.22.21-.15.35-.37.42-.62l1.36 1 .39 2.66c-.03.03-.06.05-.09.08-.64.48-1.27.96-1.9 1.45-.63.48-1.26.96-1.89 1.45l-.05.03-.03.03c-.04.05-.09.12-.12.16l-.09.13c-.05.08-.1.17-.14.25-.1.16-.18.32-.27.48-.16.32-.33.64-.48.97l-.15.33h-.2c-.04-.07-.1-.12-.15-.18.14-.1.26-.25.33-.43l.47-1.32c.09-.27.07-.57-.09-.82a.927.927 0 0 0-.69-.43.161.161 0 0 1-.12-.08c-.02-.02-.04-.07-.02-.14.08-.28.03-.57-.14-.81a.923.923 0 0 0-.72-.39l-1.4-.08a.95.95 0 0 0-.47.1.887.887 0 0 0-.3-.42l-1.1-.87c-.23-.18-.52-.25-.8-.18s-.51.26-.63.52c-.03.05-.07.08-.1.09-.03.01-.08.01-.14-.03a.934.934 0 0 0-.81-.13.93.93 0 0 0-.61.55l-.52 1.3c-.06.17-.07.35-.05.52-.16.01-.31.05-.46.15l-.78.51V29.89zm14.65.91c.11.31.36.56.67.67.1.03.17.12.2.22.03.09.02.2-.04.29l-1.04 1.55c-.07.12-.23.18-.37.14l-3.89-.98a.352.352 0 0 1-.24-.22.334.334 0 0 1 .05-.32l2.39-3.22a.35.35 0 0 1 .28-.14c.03 0 .07.01.1.01l1.78.55c.1.03.18.1.23.2.03.1.03.2-.03.3-.17.3-.2.64-.09.95m-11.47-.74a.352.352 0 0 1-.03-.3c.03-.1.11-.18.21-.21l1.76-.61c.03-.01.07-.01.11-.01.1 0 .2.04.27.13l2.5 3.13c.07.1.09.21.05.32-.03.11-.12.19-.23.23l-3.85 1.11a.364.364 0 0 1-.38-.12l-1.08-1.51a.342.342 0 0 1-.05-.29c.03-.1.1-.18.2-.23.31-.12.54-.38.64-.7.11-.32.06-.66-.12-.94m1.18 4.97l3.76-1.41c.11-.03.22-.02.32.05.09.07.15.17.14.29l-.14 4.01c-.01.14-.1.27-.24.31l-1.77.57c-.1.03-.21.01-.3-.05a.312.312 0 0 1-.14-.26c-.03-.33-.2-.63-.46-.82-.19-.14-.42-.21-.65-.21-.1 0-.18.01-.28.03a.33.33 0 0 1-.29-.05c-.08-.07-.14-.16-.14-.27l-.03-1.85c0-.17.09-.3.22-.34m2.05-6.71a.346.346 0 0 1 .01-.4l1.08-1.51c.06-.08.16-.14.27-.14h.01c.1 0 .19.05.26.12.22.25.54.39.87.39.33-.01.64-.16.85-.42.07-.08.17-.14.27-.12.1 0 .2.05.27.13l1.14 1.47c.09.12.09.27.01.4l-2.17 3.37c-.06.1-.16.16-.29.16a.37.37 0 0 1-.29-.14l-2.29-3.31zm3.19 5.32a.332.332 0 0 1 .32-.05l3.81 1.27c.14.05.23.18.23.32l.03 1.86c0 .1-.05.2-.13.27-.08.06-.18.09-.29.07a1.117 1.117 0 0 0-1.37 1.04c0 .1-.05.2-.14.27-.09.06-.2.07-.3.05l-1.79-.5a.33.33 0 0 1-.25-.31l-.27-4.01c.02-.1.06-.21.15-.28m-1.2 11.26c.16.23.4.38.68.42.07.01.1.05.12.07.01.02.03.08.01.14l-.48 1.32a.15.15 0 0 1-.15.11l-3.03-.01c-.07 0-.12-.04-.14-.07-.01-.03-.04-.09-.01-.16l1.17-2.79c.02-.06.08-.1.15-.1h.01l1.4.07c.07 0 .11.04.12.07.02.02.05.07.03.14a.92.92 0 0 0 .12.79m-2.82-1.38l-.97 2.87c-.03.07-.08.09-.12.1-.03.01-.1.01-.15-.03l-2.28-2c-.05-.05-.07-.12-.05-.18l.52-1.3c.03-.07.07-.09.1-.1.01-.01.03-.01.05-.01.03 0 .06.01.1.03.23.16.52.21.78.14.27-.07.49-.26.61-.51.03-.06.07-.08.11-.09.03-.01.08-.01.14.03l1.1.87c.06.04.08.12.06.18m-5.58 4.18c.17-.16.29-.38.3-.62a.93.93 0 0 0-.29-.74c0-.01-.01-.01-.01-.01v-.21l.03-.03 1.17-.76c.03-.01.06-.03.09-.03.04 0 .07.01.1.03l2.41 1.84c.06.05.07.11.06.14 0 .03-.01.09-.08.13l-.5.29h-3.29v-.03zM3.88 38.94v-14.1c0-.25.2-.44.44-.44h.49l1.41.87c.32.19.66.35 1.01.47l.51.18c.17.05.33.12.49.18.65.26 1.27.56 1.85.94.14.09.29.2.44.31-.75-.12-1.74-.23-2.31-.05-1.04.33-1.56 1.6-1.59 1.66-.04.12-.03.25.03.35.07.1.18.17.3.18.01 0 1 .07 2.46.25.09.01.17.01.25.01.98 0 1.61-.67 1.93-1.25.31.52.46 1.11.31 1.72-.13.73-.18 1.45-.16 2.19.03.74.15 1.49.44 2.22.16.41.41.8.72 1.14l-.27-.07a.975.975 0 0 0-.48 0 .934.934 0 0 0-.2-.48l-.89-1.09a.934.934 0 0 0-.73-.35h-.01c-.29.01-.55.14-.73.37-.04.05-.1.07-.12.07-.03 0-.09-.01-.13-.05a.969.969 0 0 0-.76-.31c-.29.02-.55.17-.71.41l-.79 1.16c-.1.15-.15.32-.16.5a.975.975 0 0 0-.48.04l-1.32.49a.93.93 0 0 0-.57.59c-.09.27-.04.57.12.81.04.05.03.11.02.14-.01.03-.03.08-.09.1a.93.93 0 0 0-.53.63c-.02.08-.03.16-.03.24 0 .2.07.4.19.57l.85 1.12c.12.15.27.25.44.31-.1.16-.14.33-.14.52l.05 1.4c.01.29.16.56.39.72.24.17.53.22.81.14.06-.01.11.01.14.03.02.01.06.05.07.12.03.29.18.55.43.7.15.1.33.15.5.15.1 0 .2-.02.31-.05l1.33-.46a.95.95 0 0 0 .46-.35c.12.15.29.27.49.31l1.36.35c.07.02.15.03.23.03.2 0 .4-.07.57-.19.23-.18.37-.44.37-.74 0-.07.04-.11.06-.12.02-.02.07-.05.14-.03.29.05.57-.02.79-.21a.94.94 0 0 0 .33-.75l-.06-1.4a.895.895 0 0 0-.18-.5c.16-.07.31-.2.41-.35l.75-1.19c.16-.25.19-.55.1-.82a.93.93 0 0 0-.59-.57.162.162 0 0 1-.1-.1c-.01-.03-.03-.08.01-.14.05-.1.08-.19.1-.29l.72.57.82.67c.18.15.35.3.52.46l-.25.74-.2.58c-.03.1-.06.18-.1.31l-.09.35c-.1.48-.08.99.03 1.47.05.25.14.48.25.71.12.24.22.4.31.58l.61 1.06 1.23 2.13.31.53.14.26c.03.05.06.11.08.17H4.31c-.24 0-.44-.2-.44-.44v-8.39zm6.98-10.75c-.21.36-.64.84-1.36.76-.8-.1-1.46-.16-1.89-.2.19-.29.47-.61.83-.72.46-.15 1.59 0 2.42.16m2.96 9.66c.1.26.31.46.57.55.06.02.09.07.1.09.01.03.02.09-.02.14l-.75 1.19c-.03.06-.11.09-.17.07l-2.96-.67c-.07-.02-.1-.07-.12-.1-.01-.03-.03-.1.02-.16l1.74-2.47c.03-.04.08-.07.14-.07.01 0 .03 0 .04.01l1.35.37c.07.02.1.07.11.1.01.03.03.08-.01.14-.12.26-.14.54-.04.81m-8.5-.45c-.04-.05-.03-.11-.02-.14a.14.14 0 0 1 .1-.1l1.32-.49c.02-.01.04-.01.06-.01.04 0 .09.02.12.06l1.94 2.32v.01c.05.05.04.12.03.15-.01.03-.03.08-.11.11l-2.89.91c-.06.02-.14-.01-.18-.06l-.84-1.12c-.04-.05-.03-.11-.03-.14.01-.03.03-.07.09-.1.26-.12.45-.33.53-.6.08-.27.03-.56-.12-.8m.94 3.88l2.81-1.13c.07-.03.13 0 .15.01.03.02.08.06.08.14l-.03 3.03c0 .07-.05.13-.11.15l-1.33.46c-.07.02-.12-.01-.14-.02-.03-.01-.07-.05-.07-.12a.933.933 0 0 0-.4-.68.918.918 0 0 0-.53-.16c-.08 0-.17.01-.26.03a.15.15 0 0 1-.14-.03c-.03-.01-.07-.05-.07-.12l-.05-1.4c-.02-.08.02-.14.09-.16m1.47-5.25a.165.165 0 0 1-.01-.19l.79-1.16c.04-.05.1-.07.12-.07h.01c.03 0 .08.01.12.05.18.21.46.32.73.31.28-.01.54-.14.71-.36.04-.05.1-.07.13-.07s.08.01.13.06l.88 1.09c.05.05.05.13.01.19l-1.57 2.58c-.04.07-.1.07-.14.07-.03 0-.1 0-.14-.06l-1.77-2.44zm2.49 4.09c.01-.01.05-.03.09-.03.02 0 .03 0 .05.01l2.9.89c.06.02.11.08.11.15l.06 1.4c.01.07-.03.11-.05.13-.02.02-.07.05-.14.03a.985.985 0 0 0-.78.19c-.22.18-.34.44-.35.72 0 .07-.03.11-.06.12-.02.02-.07.05-.14.03l-1.36-.35c-.07-.02-.12-.08-.12-.14l-.28-3.02c0-.07.04-.11.07-.13m-6.34 9.33c0-.25.2-.44.44-.44h15.13l.7 2.2.23.79c-.91.64-1.82 1.28-2.74 1.92l-1.65 1.15-.18.12c-.05.03-.11.06-.17.1-.12.05-.23.11-.35.15-.25.07-.52.12-.78.1-.13-.01-.26-.02-.4-.05l-.49-.11-.99-.21-.54-.12c.15-.25.29-.57.27-.92-.03-.66-.75-1.79-.89-2.02a.369.369 0 0 0-.26-.17.436.436 0 0 0-.3.07c-.38.29-.97 1.08-.53 1.98.14.29.27.54.36.75l-.07-.02-.39-.09c-.17-.38-.58-1.29-1.1-2.51-.63-1.51-2.15-1.72-2.86-1.63-.11.01-.21.08-.27.17-.07.12-.08.23-.05.34.08.24.65 2.1 1.32 3.14-.27.01-.54.05-.8.12l-.02.01h-.01c-.87.31-1.74.6-2.61.89v-5.71zm13.76 11.03c.15.29.43.5.75.57.1.03.19.1.24.19.04.09.04.2 0 .3l-.82 1.67c-.07.13-.2.2-.35.19l-3.99-.46a.33.33 0 0 1-.27-.18.36.36 0 0 1 0-.32l1.94-3.52a.35.35 0 0 1 .3-.18c.02 0 .04 0 .05.01l1.84.3c.1.02.19.08.24.18.05.09.06.2.02.29-.11.31-.1.66.05.96m.18 6.27c.02.1-.01.2-.09.29-.07.07-.17.12-.28.1a1.123 1.123 0 0 0-1.21 1.22c.01.1-.03.2-.1.28-.08.07-.18.1-.29.09l-1.84-.26a.352.352 0 0 1-.29-.27l-.8-3.93a.32.32 0 0 1 .09-.31c.07-.07.15-.1.25-.1.02 0 .04.01.06.01l3.95.76c.14.03.25.14.27.29l.28 1.83zm-3.7-8.39l-1.7 3.63c-.05.1-.14.18-.26.19a.305.305 0 0 1-.3-.11l-2.71-2.96c-.09-.11-.12-.27-.05-.39l.87-1.64c.05-.1.14-.16.24-.18h.06c.09 0 .16.03.23.08.25.23.58.32.91.27.33-.05.61-.25.79-.53.05-.09.14-.15.25-.16.1-.01.2.03.28.1l1.32 1.3c.11.11.13.27.07.4m-7.95 2.91c-.07-.08-.1-.19-.07-.29.02-.1.09-.19.18-.24l1.66-.83a.325.325 0 0 1 .39.06l2.9 2.78c.07.07.11.15.11.25 0 .02 0 .04-.01.06-.02.12-.1.2-.2.25l-3.67 1.62c-.14.06-.29.03-.39-.08L5.8 63.49a.383.383 0 0 1-.1-.29c.02-.1.08-.19.17-.24.29-.16.49-.45.55-.78.06-.32-.03-.66-.25-.91m1.84 4.77l3.54-1.89c.1-.06.23-.06.33 0 .1.05.16.15.18.27l.4 3.99a.35.35 0 0 1-.2.35l-1.68.79c-.1.05-.21.05-.3 0a.365.365 0 0 1-.18-.24c-.07-.33-.27-.6-.57-.76-.17-.09-.35-.14-.53-.14-.14 0-.29.03-.42.09-.09.03-.2.03-.29-.02a.302.302 0 0 1-.17-.25l-.28-1.84c-.03-.14.04-.29.17-.35m3.57-11.86c.01.12-.03.25-.09.36-.11-.24-.25-.53-.42-.87-.13-.27-.07-.5.01-.68.25.44.49.94.5 1.19m-2.25.26l-.63-.15-.21-.05c-.11-.07-.21-.15-.3-.25-.46-.48-1-1.85-1.29-2.72.48.05 1.2.29 1.56 1.15.36.84.66 1.54.87 2.02M22.25 71.9c0 .25-.2.44-.44.44H4.31c-.24 0-.44-.19-.44-.44V55.95c.94-.33 1.89-.65 2.83-.97.3-.06.6-.09.89-.07.15.01.3.03.44.07.08.01.14.03.22.05l.18.05c.31.13.62.21.89.25l1.11.32 1.34.4c-.09.07-.17.16-.24.27-.07.12-.18.16-.24.16a.34.34 0 0 1-.28-.08c-.26-.23-.6-.33-.94-.27-.34.06-.63.27-.79.58l-.87 1.64c-.12.24-.16.5-.1.76-.23-.05-.48-.02-.71.1l-1.66.84c-.31.15-.52.44-.59.77-.07.34.01.68.24.95.09.11.09.22.07.28-.01.06-.05.17-.16.24-.3.17-.5.46-.55.8-.06.34.05.68.28.94l1.27 1.35c.2.21.46.33.73.35-.15.22-.22.5-.17.78l.27 1.83c.05.35.25.64.55.81.3.17.65.19.97.06.15-.05.26-.01.31.02.05.03.14.1.18.23.07.34.29.62.59.78.16.07.33.12.5.12.16 0 .33-.03.48-.11l1.68-.79c.28-.14.48-.37.58-.65.17.24.44.41.74.45l1.84.26a1.153 1.153 0 0 0 .93-.3c.25-.24.37-.57.33-.91-.01-.14.06-.23.1-.28.04-.04.14-.11.27-.1.35.03.68-.1.91-.35.24-.25.34-.59.29-.93l-.29-1.83a1.09 1.09 0 0 0-.4-.7c.25-.1.46-.29.59-.55l.82-1.67c.15-.31.15-.67 0-.98-.15-.31-.43-.53-.76-.61a.32.32 0 0 1-.23-.18.343.343 0 0 1-.01-.29c.13-.32.11-.67-.05-.97-.16-.31-.46-.51-.8-.57l-1.83-.3c-.25-.04-.5.01-.71.12-.03-.26-.14-.51-.33-.7l-.76-.76c.18.05.37.09.56.12a3.587 3.587 0 0 0 1.81-.26c.1-.04.18-.08.28-.13l.25-.14 1.74-1.01c.82-.48 1.65-.95 2.47-1.42l.03.09c.05.12.1.24.16.35.12.23.27.44.43.65l.67.77V71.9zm0-19.25l-.68-1.91-.61-1.73h.85c.24 0 .44.2.44.44v3.2zm0-5.37c0 .25-.2.44-.44.44H20.5l-.05-.16c-.04-.12-.09-.23-.14-.35-.05-.11-.11-.23-.16-.33l-.16-.27-.31-.53-1.24-2.12-.64-1.06c-.1-.17-.23-.37-.29-.49a2.397 2.397 0 0 1-.26-1.4c.01-.08.02-.16.04-.25.01-.07.05-.19.07-.29l.15-.59.59-2.39c.1-.4.2-.79.31-1.19.05-.21.1-.37.17-.54.07-.17.16-.33.25-.48.05-.07.1-.15.16-.22.05-.07.12-.14.19-.22l.4-.46.81-.92 1.85-2.11v15.93zm0-17.02l-2.41 2.71-.74.82c-.05-.73-.13-1.85-.21-3.24-.16-2.7-2.29-3.47-2.38-3.5a.394.394 0 0 0-.35.05.37.37 0 0 0-.16.31c-.01.15-.1 3.83.44 5.32.4 1.08 1.25 1.77 1.77 2.11-.01.01-.01.01-.01.02-.13.19-.24.39-.33.59-.09.2-.16.44-.23.63-.12.37-.25.76-.37 1.13-.07-.04-.14-.07-.22-.11-.31-.17-.63-.33-.93-.5-.31-.17-.62-.34-.93-.52l-.92-.52-.06-.03c-.55-.22-1-.67-1.27-1.25-.29-.57-.42-1.24-.48-1.92-.05-.68-.02-1.37.07-2.04.02-.07.03-.19.03-.29l.02-.3-.03-.3c-.01-.1-.02-.2-.05-.29-.05-.2-.1-.39-.2-.56-.07-.19-.18-.35-.29-.51-.44-.64-1.03-1.12-1.64-1.52-.62-.4-1.27-.73-1.94-1.01-.17-.06-.33-.14-.5-.2l-.26-.09-.24-.09c-.31-.12-.61-.28-.9-.45-.15-.1-.3-.2-.45-.31h15.71c.24 0 .44.2.44.44v5.42zm-3.92 3.72c-.41-.31-.92-.82-1.17-1.51-.37-1.01-.41-3.3-.4-4.41.52.36 1.28 1.12 1.36 2.54.08 1.47.16 2.66.21 3.38m23.58 26.51v11.4c0 .25-.2.44-.44.44H23.98c-.25 0-.44-.19-.44-.44V49.01h17.93c.25 0 .44.2.44.44v11.04zm0-13.21c0 .25-.2.44-.44.44h-7.2c.12-.27.25-.53.39-.79.07-.15.16-.31.24-.45l.12-.21.05-.09c.01-.02.02-.03.03-.03.6-.48 1.21-.95 1.8-1.44.62-.5 1.24-.99 1.85-1.49l.03-.03.01-.02c.22-.23.51-.46.8-.67.29-.22.59-.43.9-.63.31-.2.62-.39.94-.57.16-.08.32-.17.46-.23h.01v6.21zm0-7.05c-.1.03-.18.04-.29.09-.2.08-.37.15-.56.24-.35.18-.69.36-1.02.56-.33.2-.65.4-.97.62-.03.03-.07.05-.11.07l-.37-2.55-1.51-1.11c.3.04.6-.05.83-.24.27-.22.42-.55.42-.89l-.03-1.86c-.01-.29-.12-.55-.31-.74.27-.06.5-.23.66-.46l1.04-1.55c.19-.29.24-.63.13-.97a1.11 1.11 0 0 0-.67-.7.344.344 0 0 1-.2-.2.313.313 0 0 1 .03-.29c.18-.3.2-.65.08-.97a1.14 1.14 0 0 0-.72-.67l-.51-.16 1.83-4.06h1.83c.25 0 .44.2.44.44v15.4z"/>
  <path class="st31" d="M45.71 21.15v-.03a22.82 22.82 0 0 0-7.18-14.94A22.771 22.771 0 0 0 22.89 0C17.07 0 11.51 2.19 7.26 6.18A22.82 22.82 0 0 0 .08 21.12L0 24.07v51.71c0 .24.2.44.44.44h44.9c.24 0 .44-.2.44-.44V24.05l-.07-2.9zm-1.22 18.41v34.93c0 .25-.2.44-.44.44H1.73c-.24 0-.44-.19-.44-.44v-50.4l.08-2.88c.41-5.38 2.82-10.39 6.77-14.09a21.49 21.49 0 0 1 14.75-5.83c5.5 0 10.73 2.07 14.75 5.83a21.5 21.5 0 0 1 6.77 14.09l.07 2.86v15.49zM61.02 51.87a.574.574 0 0 1 .5.3l1.86 2.57c.11.15.22.25.34.3.12.05.26.08.42.08h.74v-3.25h.95v3.25h.74c.16 0 .29-.02.41-.08.12-.05.23-.15.34-.3l1.86-2.57c.06-.09.13-.17.22-.22.09-.05.19-.08.29-.08h.79l-2.16 2.97c-.1.14-.2.26-.3.36-.1.09-.23.17-.38.22.17.05.32.13.45.24.13.11.25.25.36.43l2.2 3.21h-.67c-.15 0-.27-.03-.38-.09a.72.72 0 0 1-.26-.26l-1.88-2.63a.857.857 0 0 0-.32-.31.998.998 0 0 0-.45-.1h-.86v3.39h-.95v-3.39h-.85c-.19 0-.34.03-.46.1-.12.06-.23.17-.32.31l-1.88 2.63c-.06.11-.15.2-.25.26-.11.06-.23.09-.38.09h-.67l2.2-3.21c.11-.18.23-.32.36-.43s.28-.18.44-.24a.986.986 0 0 1-.37-.22c-.1-.09-.2-.21-.3-.36l-2.16-2.97h.78zM78.1 52.18c.05-.08.11-.15.19-.22s.16-.1.26-.1h.75v7.42h-1v-5.27c0-.14 0-.3.01-.46.01-.16.02-.33.05-.51-.06.15-.12.3-.19.43s-.13.25-.2.35l-3.48 5.14c-.05.08-.11.15-.19.22a.37.37 0 0 1-.26.1h-.75v-7.42h1v5.27c0 .15 0 .3-.01.46-.01.16-.02.33-.05.52.06-.16.12-.3.19-.44.07-.13.13-.25.2-.36l3.48-5.13zM88.42 51.87v7.42h-1v-6.62h-2.45c-.05.95-.11 1.78-.19 2.48s-.18 1.3-.29 1.8c-.12.5-.25.9-.39 1.21-.15.31-.31.56-.48.74-.17.18-.36.3-.56.37-.2.07-.41.1-.64.1-.19 0-.33-.02-.43-.05-.1-.03-.15-.08-.15-.15v-.64h.36c.14 0 .27-.03.41-.08.13-.05.26-.16.39-.32.12-.16.24-.39.35-.69.11-.3.21-.7.3-1.19s.17-1.1.23-1.81.12-1.56.15-2.55h4.39zM98.78 55.58c0 .56-.09 1.07-.26 1.53-.18.46-.43.86-.75 1.2-.32.33-.71.59-1.16.78-.45.19-.95.28-1.49.28-.55 0-1.04-.09-1.49-.28-.45-.18-.83-.44-1.15-.78-.32-.33-.57-.73-.75-1.2-.18-.46-.26-.97-.26-1.53s.09-1.07.26-1.53c.18-.46.42-.86.75-1.2.32-.34.71-.6 1.15-.78.45-.19.95-.28 1.49-.28.55 0 1.04.09 1.49.28.45.19.84.45 1.16.78.32.34.57.74.75 1.2.17.46.26.97.26 1.53m-1.03 0c0-.45-.06-.86-.19-1.23-.12-.36-.3-.67-.53-.92-.23-.25-.5-.44-.83-.58a2.9 2.9 0 0 0-1.09-.2c-.4 0-.76.07-1.08.2-.32.13-.6.33-.83.58-.23.25-.41.56-.53.92-.12.36-.19.77-.19 1.23 0 .46.06.86.19 1.22.12.36.3.67.53.92s.51.44.83.57c.32.13.69.2 1.08.2.4 0 .76-.07 1.09-.2.32-.13.6-.32.83-.57.23-.25.4-.56.53-.92.12-.36.19-.77.19-1.22M106.64 52.18c.05-.08.11-.15.19-.22s.16-.1.26-.1h.75v7.42h-1v-5.27c0-.15 0-.3.01-.46.01-.16.02-.33.05-.51-.06.16-.12.3-.19.43s-.13.25-.2.35l-3.48 5.14c-.05.08-.11.15-.19.22a.37.37 0 0 1-.26.1h-.75v-7.42h1v5.27c0 .15 0 .3-.01.46-.01.16-.02.33-.05.51.06-.16.12-.3.19-.44.07-.13.13-.25.2-.36l3.48-5.12zm-1.79-1.27c.14 0 .26-.02.36-.05.1-.03.17-.08.24-.15.06-.07.1-.16.13-.27.03-.11.04-.25.04-.42h.54c.06 0 .11.03.15.09.03.06.05.12.05.19 0 .34-.13.61-.4.8-.27.19-.64.28-1.11.28-.47 0-.84-.09-1.11-.28-.27-.19-.4-.45-.4-.8 0-.07.02-.14.05-.19.04-.06.08-.09.15-.09h.54c0 .17.01.3.04.42.03.11.07.2.13.27s.14.12.24.15c.1.04.22.05.36.05M116.6 55.12h.77c.15 0 .29-.02.4-.07.11-.05.22-.14.32-.28l1.94-2.61c.05-.08.11-.15.19-.2.07-.05.16-.08.26-.08h.84l-2.24 3.05c-.09.12-.18.23-.29.31-.11.08-.23.14-.36.19.18.05.34.13.46.23.12.11.24.25.36.44l2.27 3.21h-.9c-.1 0-.19-.03-.26-.08a.708.708 0 0 1-.2-.24l-1.96-2.72a.845.845 0 0 0-.29-.28.98.98 0 0 0-.42-.08h-.89v3.39h-1v-7.42h1v3.24zM130.66 55.58c0 .56-.09 1.07-.26 1.53-.18.46-.43.86-.75 1.2-.32.33-.71.59-1.16.78-.45.19-.95.28-1.49.28-.55 0-1.04-.09-1.49-.28-.45-.18-.83-.44-1.15-.78-.32-.33-.57-.73-.75-1.2-.18-.46-.26-.97-.26-1.53s.09-1.07.26-1.53c.18-.46.42-.86.75-1.2.32-.34.71-.6 1.15-.78.45-.19.95-.28 1.49-.28.55 0 1.04.09 1.49.28.45.19.84.45 1.16.78.32.34.57.74.75 1.2.17.46.26.97.26 1.53m-1.03 0c0-.45-.06-.86-.19-1.23-.12-.36-.3-.67-.53-.92-.23-.25-.5-.44-.83-.58a2.9 2.9 0 0 0-1.09-.2c-.4 0-.76.07-1.08.2-.32.13-.6.33-.83.58-.23.25-.41.56-.53.92-.12.36-.19.77-.19 1.23 0 .46.06.86.19 1.22.12.36.3.67.53.92s.51.44.83.57c.32.13.69.2 1.08.2.4 0 .76-.07 1.09-.2.32-.13.6-.32.83-.57.23-.25.4-.56.53-.92s.19-.77.19-1.22M137.48 56.87c.04.09.08.18.11.27.03-.09.07-.19.11-.28.04-.09.08-.18.12-.26l2.51-4.56c.04-.08.09-.13.14-.14.05-.02.12-.03.21-.03h.74v7.42h-.88v-5.45c0-.07 0-.15.01-.23 0-.08.01-.17.01-.25L138.02 58c-.08.15-.2.23-.36.23h-.15c-.16 0-.28-.08-.36-.23l-2.6-4.65c.01.09.02.18.02.26 0 .09.01.17.01.24v5.45h-.88v-7.42h.74c.09 0 .16.01.21.03.05.02.1.07.14.14l2.56 4.56c.05.08.09.16.13.26M150.65 59.28h-1.01v-6.62h-3.7v6.62h-1.01v-7.41h5.72zM159.77 51.87v7.42h-1v-6.62h-2.45c-.05.95-.11 1.78-.19 2.48s-.18 1.3-.29 1.8c-.12.5-.25.9-.39 1.21-.15.31-.31.56-.48.74-.17.18-.36.3-.56.37-.2.07-.41.1-.64.1-.19 0-.33-.02-.43-.05-.1-.03-.15-.08-.15-.15v-.64h.36c.14 0 .27-.03.41-.08.13-.05.26-.16.39-.32.12-.16.24-.39.35-.69.11-.3.21-.7.3-1.19s.17-1.1.23-1.81.12-1.56.15-2.55h4.39zM167.85 51.87v.82h-3.56v2.46h2.88v.79h-2.88v2.53h3.57l-.01.81h-4.57v-7.41zM171.87 55.12h.77c.16 0 .29-.02.4-.07.11-.05.22-.14.32-.28l1.94-2.61c.05-.08.11-.15.19-.2.07-.05.16-.08.26-.08h.84l-2.24 3.05c-.09.12-.18.23-.29.31-.11.08-.23.14-.36.19.18.05.34.13.46.23.12.11.24.25.36.44l2.27 3.21h-.9c-.1 0-.19-.03-.26-.08a.708.708 0 0 1-.2-.24l-1.96-2.72a.845.845 0 0 0-.29-.28.98.98 0 0 0-.42-.08h-.89v3.39h-1v-7.42h1v3.24zM184.29 57.75c.06 0 .1.02.14.07l.4.43c-.3.35-.67.63-1.1.82-.43.2-.96.3-1.57.3-.53 0-1.01-.09-1.45-.28-.44-.19-.81-.44-1.11-.78a3.27 3.27 0 0 1-.71-1.2c-.17-.46-.25-.98-.25-1.54s.09-1.07.26-1.54c.18-.47.42-.87.74-1.2.32-.33.7-.59 1.15-.78.44-.18.94-.28 1.47-.28s.99.08 1.4.25c.4.17.76.4 1.07.69l-.33.46c-.02.04-.05.06-.08.09a.25.25 0 0 1-.13.03.4.4 0 0 1-.23-.1c-.09-.07-.21-.14-.35-.23-.15-.08-.33-.16-.54-.23-.22-.07-.48-.1-.8-.1-.38 0-.73.07-1.05.2-.32.13-.59.33-.82.58-.23.25-.41.56-.54.92-.13.36-.19.77-.19 1.23 0 .46.07.87.2 1.24.13.36.31.67.54.92.23.25.5.44.81.57.31.13.65.2 1.01.2.22 0 .42-.01.6-.04s.34-.07.49-.12c.15-.06.29-.12.42-.21.13-.08.26-.19.39-.3.04-.04.1-.07.16-.07M72.06 30.37c-1.6-.7-3.77-.86-6.36-.47v-5.6h3.62c.57.02 1.01.13 1.31.33.3.2.52.51.68.94.17.46.32 1.13.47 2 .02.16.11.38.45.54.4.19.92.25 1.31-.04.2-.14.3-.35.3-.59l-.08-3.85c0-.57-.34-.89-.95-.89h-8.78c-.96 0-2.05-.03-3.23-.08-.3 0-.47.15-.56.28-.11.16-.16.34-.16.58.02.33.09.53.22.64.12.1.29.15.54.15H61c.47 0 .82.08 1.04.24.21.16.34.35.39.58.06.26.1.62.12 1.06v10.85c-.02.44-.06.8-.12 1.07a.93.93 0 0 1-.39.57c-.22.16-.56.24-1.04.24-.31 0-.51.04-.64.11-.22.13-.26.43-.28.69 0 .21.05.4.16.56.09.13.26.28.57.28 1.23-.06 2.3-.08 3.24-.08l3.37.03c1.25 0 2.48-.17 3.65-.5 1.19-.34 2.19-.93 2.98-1.75.81-.84 1.22-1.93 1.22-3.27 0-1.01-.27-1.93-.81-2.73s-1.35-1.44-2.4-1.89m-.31 4.64c0 2.59-1.39 3.86-4.25 3.9-.71 0-1.19-.13-1.43-.39-.17-.18-.36-.61-.36-1.65v-5.39c.39-.08.89-.12 1.49-.12 1.27 0 2.37.3 3.26.9.87.6 1.29 1.49 1.29 2.75M93.72 35.36c-.76-.11-1.07.23-1.19.55-.27.9-.5 1.55-.68 1.94-.17.36-.4.62-.69.79-.29.17-.74.27-1.33.28H87.3c-.52.02-.92-.05-1.15-.21-.22-.14-.35-.3-.39-.47-.05-.22-.1-.52-.13-.86v-4.94h4.72c.21 0 .38-.09.5-.27.1-.15.15-.32.15-.51 0-.21-.05-.39-.14-.55a.65.65 0 0 0-.5-.32h-4.72V24.3h3.42c.57.02 1.02.13 1.31.33.3.2.52.51.68.93.17.45.32 1.1.47 1.98.02.17.1.4.4.55.36.18.86.23 1.29-.04.3-.18.36-.42.36-.6l-.08-3.83c0-.57-.34-.89-.95-.89h-8.59c-.95 0-2.04-.03-3.26-.08-.22 0-.41.1-.54.28-.11.16-.17.34-.17.58.02.33.09.53.22.64.12.11.29.16.54.16h.16c.48 0 .82.08 1.04.24.21.16.34.35.39.58.06.26.1.62.12 1.06v10.85c-.02.44-.06.8-.12 1.07a.93.93 0 0 1-.39.57c-.22.16-.56.24-1.04.24-.3 0-.51.04-.64.11-.22.13-.26.45-.28.7 0 .21.05.4.17.56.13.18.31.28.54.28 1.25-.06 2.32-.08 3.27-.08H93c.31 0 .53-.05.68-.15.17-.11.28-.31.35-.63l.55-3.46a.678.678 0 0 0-.26-.62c-.18-.14-.37-.23-.6-.27M115.72 24.71c.2-.27.6-.41 1.19-.41.31 0 .51-.04.64-.12.16-.1.25-.31.27-.69 0-.21-.06-.4-.17-.56-.09-.13-.26-.28-.57-.28-1.17.05-2.26.08-3.22.08h-6.9c-.96 0-2.05-.03-3.23-.08-.31 0-.48.15-.56.28-.11.16-.17.35-.17.58.02.33.09.53.22.64.12.1.29.15.54.15h.16c.57 0 .97.09 1.17.27.19.17.29.51.29 1 0 .24-.01.43-.03.58-.35 3.04-.65 5.36-.89 6.88-.24 1.52-.57 2.77-.97 3.69-.37.86-.84 1.28-1.41 1.28-.64 0-.92-.25-.92-.83 0-.22.04-.4.12-.54.16-.28.18-.39.18-.47v-.07l-.04-.06c-.06-.09-.18-.17-.36-.25-.17-.07-.37-.1-.59-.1-.63 0-1.16.22-1.58.65-.42.43-.63.98-.63 1.64 0 .8.31 1.47.93 2 .6.52 1.45.78 2.5.78 1.27 0 2.28-.65 3.01-1.94.69-1.23 1.21-2.85 1.54-4.8.33-1.93.67-4.62 1.01-8 .05-.52.13-.91.24-1.15.09-.2.2-.33.32-.38.1-.04.32-.09.73-.09h3.59v12.64c-.02.44-.06.8-.12 1.07-.05.23-.18.42-.39.58-.21.16-.56.24-1.04.24-.3 0-.5.04-.64.11-.22.13-.26.45-.28.7 0 .21.06.4.17.56.09.13.25.28.57.28 1.23-.05 2.34-.08 3.38-.08.97 0 2.03.03 3.26.08.3 0 .47-.15.56-.28.11-.16.17-.35.17-.57-.02-.33-.09-.53-.22-.64-.12-.1-.29-.15-.54-.15h-.17c-.47 0-.82-.08-1.04-.24a.979.979 0 0 1-.39-.58c-.06-.27-.1-.63-.12-1.06V26.18c.09-.68.21-1.17.43-1.47M136.34 32.2c-.48-.83-1.22-1.5-2.19-1.99-.96-.49-2.14-.74-3.5-.74-.77 0-1.64.07-2.58.21v-3.49c.02-.44.06-.8.12-1.07.05-.23.18-.42.39-.58.21-.16.56-.24 1.04-.24.3 0 .51-.03.64-.11.25-.13.27-.46.27-.7 0-.21-.06-.4-.16-.56a.648.648 0 0 0-.56-.28c-.45 0-1.05.02-1.78.05l-1.64.03c-1.35 0-2.43-.03-3.2-.08a.59.59 0 0 0-.59.27c-.11.17-.16.36-.16.57 0 .34.07.55.21.66.13.1.3.14.54.14h.17c.48 0 .82.08 1.04.24.21.16.34.34.39.57.06.26.1.62.12 1.06v10.85c-.02.44-.06.8-.12 1.07-.05.23-.18.42-.39.58-.21.16-.56.24-1.03.24-.3 0-.51.04-.65.11-.25.13-.27.46-.27.7 0 .21.05.4.16.56.09.13.26.28.56.28.4 0 .95-.02 1.7-.05l1.55-.03h3.37c1.17 0 2.31-.17 3.39-.5 1.1-.34 2.04-.92 2.77-1.73.75-.83 1.13-1.92 1.13-3.25-.02-1.03-.26-1.97-.74-2.79m-2.78 2.81c0 1.43-.36 2.45-1.06 3.02-.72.58-1.75.88-3.08.88-.54 0-.91-.11-1.09-.34-.13-.17-.29-.57-.26-1.59v-5.72c.4-.08.89-.12 1.49-.12 1.09 0 2.04.33 2.83.99.77.64 1.17 1.61 1.17 2.88"/>
  <path class="st31" d="M142.66 25.12c.05-.23.18-.42.39-.58.21-.16.56-.24 1.03-.24.3 0 .51-.04.64-.12.16-.1.25-.31.27-.69 0-.21-.06-.4-.17-.56-.09-.13-.26-.28-.57-.28-1.17.05-2.26.08-3.24.08-1.05 0-2.19-.03-3.39-.08-.31 0-.47.15-.56.28-.11.16-.16.34-.16.57.02.33.1.54.24.65.13.1.29.15.51.15h.16c.48 0 .82.08 1.04.24.21.16.34.35.39.58.06.26.1.62.12 1.06v10.85c-.02.44-.06.8-.12 1.07a.93.93 0 0 1-.39.57c-.22.16-.56.24-1.04.24-.28 0-.48.04-.62.11-.18.1-.27.32-.3.7 0 .21.06.4.16.56.09.13.26.28.57.28 1.23-.06 2.35-.08 3.41-.08.95 0 2 .03 3.23.08.31 0 .48-.15.56-.28.11-.16.17-.34.17-.58-.02-.33-.09-.53-.22-.64-.12-.11-.29-.16-.54-.16h-.17c-.47 0-.83-.08-1.04-.24-.21-.16-.34-.34-.39-.57-.06-.27-.1-.63-.12-1.06V26.19c.04-.44.08-.8.15-1.07M155.33 20.85c1.07.52 2.35.78 3.8.78 1.45 0 2.73-.26 3.8-.78 1.12-.54 1.69-1.34 1.69-2.36 0-.5-.15-.9-.44-1.19-.29-.29-.68-.44-1.14-.44-.47 0-.84.15-1.13.46-.26.28-.5.67-.75 1.2-.28.56-.57 1-.86 1.3-.26.27-.66.41-1.17.41-.52 0-.91-.14-1.17-.41-.29-.3-.58-.74-.86-1.29-.25-.54-.5-.93-.75-1.21-.28-.3-.66-.46-1.13-.46-.46 0-.85.15-1.14.44-.29.29-.44.69-.44 1.19 0 1.02.57 1.82 1.69 2.36M166.35 25.12c.05-.23.18-.42.39-.58.21-.16.56-.24 1.04-.24.3 0 .51-.04.64-.12.22-.13.26-.45.28-.69 0-.76-.51-.84-.73-.84-.52 0-.98.02-1.42.05-.43.04-.81.14-1.13.3-.32.16-.7.45-1.12.86-.41.41-.96 1.06-1.66 1.94l-7.43 9.38v-9c.02-.44.06-.8.12-1.07.05-.23.18-.42.39-.58.21-.16.56-.24 1.03-.24.31 0 .51-.04.64-.12.17-.1.25-.31.28-.69 0-.21-.06-.4-.17-.56-.09-.13-.26-.28-.57-.28-1.19.05-2.34.08-3.41.08-.96 0-2.05-.03-3.23-.08-.3 0-.47.15-.56.28-.11.16-.17.34-.17.57.02.33.09.53.22.64.12.1.29.15.54.15h.16c.48 0 .83.08 1.04.24.21.16.34.35.39.58.06.26.1.62.12 1.06v10.85c-.02.44-.06.8-.12 1.07-.05.23-.18.42-.39.58-.21.16-.56.24-1.04.24-.3 0-.51.04-.64.11-.22.13-.26.45-.28.68v.01c0 .51.26.81.72.84.12 0 .24.01.36.01.37 0 .8-.02 1.26-.06.4-.04.76-.16 1.07-.35.3-.19.65-.48 1.03-.89.38-.4.91-1.01 1.62-1.89l7.46-9.33v8.98c-.02.44-.06.79-.12 1.07-.05.23-.18.42-.39.58-.21.16-.56.24-1.03.24-.28 0-.48.04-.62.11-.24.13-.28.45-.3.7 0 .21.06.4.17.56.09.13.26.28.57.28 1.23-.06 2.34-.08 3.38-.08.95 0 2 .03 3.23.08.3 0 .47-.15.56-.28.11-.16.17-.34.17-.57-.02-.32-.09-.53-.22-.64-.12-.1-.29-.15-.54-.15h-.16c-.47 0-.82-.08-1.04-.24a.979.979 0 0 1-.39-.58c-.06-.27-.1-.63-.12-1.06V26.19c.02-.44.06-.8.12-1.07M197.15 36.56c-.52-.31-.98-.24-1.2.16-.54.87-1.15 1.51-1.82 1.91-.66.39-1.47.58-2.41.58-1.16 0-2.21-.34-3.12-1.01-.91-.67-1.63-1.6-2.13-2.75-.5-1.16-.76-2.47-.76-3.89 0-1.64.24-3.07.71-4.25.47-1.17 1.12-2.06 1.95-2.66.82-.6 1.77-.9 2.83-.9.92 0 1.65.22 2.16.67.51.44.75 1.02.75 1.78 0 .37-.09.68-.26.93-.18.26-.39.47-.62.62-.39.25-.49.35-.49.45-.03.16.02.33.17.56.13.19.33.36.59.5.26.14.58.21.94.21.92 0 1.67-.32 2.23-.94.55-.62.82-1.38.8-2.25 0-1.4-.66-2.45-1.96-3.12-1.25-.64-2.7-.97-4.29-.97-1.84 0-3.47.4-4.85 1.19-1.38.8-2.46 1.93-3.21 3.37-.74 1.43-1.12 3.11-1.12 4.98 0 1.85.39 3.5 1.16 4.9.78 1.4 1.84 2.5 3.15 3.25 1.32.76 2.79 1.14 4.37 1.14 1.09 0 2.01-.08 2.74-.25a5.51 5.51 0 0 0 2.07-.96c.63-.46 1.3-1.14 1.98-2.01.12-.12.18-.27.18-.44.01-.28-.17-.54-.54-.8M218.42 38.91h-.15c-.44-.02-.76-.16-.97-.45-.24-.33-.5-.84-.76-1.51l-4.6-11.33c-.36-.86-.75-1.52-1.17-1.95-.43-.44-.94-.74-1.52-.88-.56-.14-1.29-.21-2.23-.21-.3 0-.53.05-.68.14-.13.08-.29.26-.29.64 0 .34.06.55.2.65.08.06.21.13.67.21.43.09.76.2.99.33.18.1.27.27.27.51 0 .09-.03.26-.15.56l-4.79 11.33-.31.72c-.14.33-.34.63-.58.89-.21.23-.55.35-1.03.35h-.25c-.17 0-.32.04-.45.11-.21.13-.26.43-.28.7 0 .21.05.4.17.56.09.13.26.28.57.28 1.25-.06 2.09-.08 2.64-.08.78 0 1.76.03 2.98.08.31 0 .47-.15.56-.28.11-.16.16-.34.16-.58-.02-.33-.09-.53-.22-.64-.12-.1-.29-.15-.54-.15h-.16c-.91 0-1.31-.07-1.48-.14-.18-.07-.26-.19-.26-.4 0-.1.04-.4.32-1.3.01-.04.04-.12.09-.26.04-.12.2-.54.72-1.81h6.44l.87 2.11c.26.74.32 1.06.32 1.21 0 .22-.08.35-.25.43-.15.07-.49.16-1.21.16-.25 0-.42.05-.54.15-.13.11-.19.31-.22.65 0 .21.06.4.17.56.09.13.26.28.57.28 1.21-.06 2.32-.08 3.38-.08.8 0 1.78.03 3.01.08.31 0 .48-.15.56-.28.11-.16.17-.34.17-.58-.02-.33-.09-.53-.22-.64-.1-.09-.27-.14-.52-.14m-6.75-5.55h-5.05l2.59-6.27 2.46 6.27zM238.86 38.83c-.65 0-1.12-.08-1.39-.23a.9.9 0 0 1-.47-.62c-.08-.32-.12-.83-.12-1.52V26.19c.02-.44.06-.79.12-1.07.05-.23.18-.42.39-.58.21-.16.56-.24 1.04-.24.28 0 .48-.03.62-.11.23-.13.28-.45.3-.7 0-.21-.06-.4-.17-.56-.09-.13-.26-.28-.57-.28-1.17.05-2.26.08-3.25.08h-6.84c-.96 0-2.02-.03-3.26-.08-.22 0-.41.1-.53.28-.11.16-.17.34-.17.57.02.33.09.53.22.64.12.1.29.15.54.15h.17c.47 0 .82.08 1.03.24.21.16.34.35.39.58.06.26.1.62.12 1.05-.02 2.21-.34 4.58-.95 7.03-.6 2.38-1.44 4.27-2.51 5.62h-.87c-.73 0-1.14.39-1.14 1.11v4.52c0 .27.12.51.36.68.21.16.47.24.76.24.84 0 1.09-.43 1.16-.8.18-1.17.36-2.04.55-2.59.17-.51.44-.9.8-1.14.36-.25.92-.37 1.67-.37h7.85c.75 0 1.31.12 1.67.37.36.24.62.62.8 1.14.19.55.37 1.39.55 2.59.07.36.34.79 1.24.79.25 0 .48-.08.69-.24.22-.17.34-.41.34-.68v-4.52c0-.69-.4-1.08-1.14-1.08m-5.16-14.44v12.84c0 .51-.05.89-.16 1.12-.09.21-.21.33-.35.38-.19.06-.46.1-.81.1h-6.68c1.01-1.43 1.75-3.17 2.2-5.19.49-2.18.8-4.75.91-7.66 0-.51.05-.89.16-1.12.09-.21.21-.33.36-.38.18-.06.46-.1.81-.1h3.56z"/>
</svg>
