<?xml version="1.0" encoding="utf-8"?>
<!-- Generator: Adobe Illustrator 23.0.1, SVG Export Plug-In . SVG Version: 6.00 Build 0)  -->
<svg version="1.1" id="Слой_1" xmlns="http://www.w3.org/2000/svg" xmlns:xlink="http://www.w3.org/1999/xlink" x="0px" y="0px"
	 viewBox="0 0 240 48" style="enable-background:new 0 0 240 48;" xml:space="preserve">
<style type="text/css">
	.st0{fill:#00947F;}
	.st1{fill:#FF1100;}
	.st2{fill:#FFFFFF;}
</style>
<g>
	<path class="st0" d="M28.36,0C11.88,0,0,9.05,0,29.38V42.7h229.88c6.3-4.68,10.12-12.57,10.12-24.09V0H28.36z"/>
	<path class="st1" d="M211.63,48c7.15,0,13.43-1.71,18.25-5.29H0V48H211.63z"/>
	<path class="st2" d="M197.07,30.23c3.88,0,5.6-0.69,5.6-2.23c0-1.54-2.88-1.95-6.35-2.28c-6.16-0.62-8.79-2.61-8.79-6.68
		c0-4.16,3.18-6.55,8.73-6.55c0.46-0.01,4.8,0.08,6.28,0.18l0.04,0c2.1,0.16,3.21,0.97,3.21,2.33c0,1.33-1.01,2.18-2.57,2.18
		c-1.71,0-3.7-0.18-6.15-0.18c-4.31,0-4.91,0.94-4.91,1.95c0,1.44,0.98,1.9,5.26,2.44c7.01,0.87,9.87,2.77,9.87,6.55
		c0,1.77-0.56,3.46-2.2,4.77c-1.66,1.32-4.14,1.99-7.37,1.99c-2.87,0-5.86-0.04-8.19-0.48c-1.31-0.26-2.1-1.11-2.1-2.27
		c0-1.32,0.98-2.15,2.54-2.15C191.3,29.81,194,30.23,197.07,30.23 M48.49,23.28l3.15,8.11c0.82,2.12,2.79,3.49,5.01,3.49
		c2.3,0,4.31-1.42,5-3.64l4.89-15.77c0.4-1.28-0.32-2.65-1.61-3.05c-1.23-0.38-2.63,0.26-3.05,1.61l-4.83,15.58
		c-0.08,0.25-0.24,0.41-0.43,0.41c-0.19,0-0.35-0.15-0.45-0.4l-4.06-10.45c-0.61-1.58-1.38-3.56-3.63-3.56
		c-2.25,0-3.02,1.97-3.63,3.56L40.8,29.64c-0.09,0.25-0.26,0.4-0.45,0.4c-0.19,0-0.35-0.16-0.43-0.41l-4.83-15.58
		c-0.39-1.27-1.74-2.01-3.04-1.61c-1.28,0.4-2,1.77-1.61,3.05l4.89,15.77c0.69,2.24,2.71,3.64,5,3.64c2.22,0,4.18-1.37,5.01-3.49
		L48.49,23.28z M146.91,30.35c-4.47,0-7.59-2.77-7.59-6.75c0-3.97,3.12-6.74,7.59-6.74c4.47,0,7.59,2.77,7.59,6.74
		C154.5,27.58,151.38,30.35,146.91,30.35 M146.91,12.38c-7.12,0-12.28,4.72-12.28,11.22c0,6.51,5.17,11.23,12.28,11.23
		s12.28-4.72,12.28-11.23C159.19,17.1,154.03,12.38,146.91,12.38 M99.02,8.99c-1.49,0-2.45,1.18-2.45,3V27.7c0,4.58,2.71,7,7.85,7
		c1,0,1.94-0.09,2.7-0.27c1.7-0.35,2.55-1.12,2.55-2.3c0-1.18-0.72-2.26-2.66-2.15c-0.22,0.01-1.96,0.18-2.53,0.18
		c-2.6,0-3.13-1.35-3.13-3.37v-8.98h5.06c1.9,0,2.9-0.76,2.9-2.21c0-1.36-1.08-2.18-2.9-2.18h-5.06v-1.41
		C101.35,10.18,100.44,8.99,99.02,8.99 M173.48,17.01c4.16,0,6.15,1.84,6.15,5.6v9.26c0,1.82,0.96,2.99,2.45,2.99
		c1.2,0,2.42-0.94,2.42-3.02v-9.89c0-5.74-4.31-9.45-10.99-9.45c-6.77,0-11.14,3.71-11.14,9.45v9.92c0,1.82,0.96,2.99,2.45,2.99
		c1.2,0,2.42-0.94,2.42-3.02v-9.23C167.24,18.9,169.34,17.01,173.48,17.01 M115.06,29.81c-1.57,0-2.54,0.82-2.54,2.15
		c0,1.17,0.79,2.02,2.1,2.27c2.33,0.44,5.33,0.48,8.19,0.48c3.23,0,5.71-0.67,7.37-1.99c1.64-1.31,2.2-2.99,2.2-4.77
		c0-3.78-2.86-5.68-9.87-6.55c-4.28-0.54-5.26-0.99-5.26-2.44c0-1.01,0.59-1.95,4.91-1.95c2.45,0,4.45,0.18,6.15,0.18
		c1.56,0,2.57-0.85,2.57-2.18c0-1.36-1.11-2.17-3.21-2.33l-0.04,0c-1.49-0.1-5.83-0.19-6.29-0.18c-5.55,0-8.73,2.38-8.73,6.55
		c0,4.06,2.63,6.06,8.79,6.68c3.47,0.34,6.35,0.74,6.35,2.28c0,1.54-1.73,2.23-5.6,2.23C119.08,30.23,116.38,29.81,115.06,29.81
		 M80.44,30.38c-4.44,0-7.53-2.76-7.53-6.72v-0.09c0-3.97,3.1-6.75,7.53-6.75c5,0,7.86,2.44,7.86,6.69
		C88.31,27.62,85.06,30.38,80.44,30.38 M88.1,31.78c0,1.23,0.17,1.76,0.68,2.29c0.45,0.47,1.09,0.73,1.8,0.73
		c1.41,0,2.33-1.19,2.33-3.02v-8.08c0-7.1-4.64-11.34-12.4-11.34c-7.12,0-12.28,4.72-12.28,11.23c0,6.45,5.06,11.32,11.77,11.32
		c3.92,0,6.61-1.72,8.03-3.19L88.1,31.78z"/>
</g>
</svg>
