<svg id="Слой_1" xmlns="http://www.w3.org/2000/svg" viewBox="0 0 240 240">
  <style>
    .st1{fill:#fff}
  </style>
  <path d="M0 120C0 53.73 53.73 0 120.02 0 186.27 0 240 53.73 240 120s-53.73 120-119.98 120C53.73 240 0 186.27 0 120" fill="#d51717"/>
  <path class="st1" d="M39.69 139.39v-10.71l-11.13-21.77h8.95l6.13 11.97 6.18-11.97h8.94l-11.18 21.77v10.71zM92.63 123.15c0 9.18-7.44 16.57-16.56 16.57-9.15 0-16.52-7.39-16.52-16.57 0-9.15 7.37-16.57 16.52-16.57 9.12 0 16.56 7.44 16.56 16.57m-25.19 0c0 5.62 3.8 9.1 8.63 9.1 4.88 0 8.67-3.48 8.67-9.1 0-5.57-3.8-9.15-8.67-9.15-4.84.02-8.63 3.57-8.63 9.15M98.9 139.39v-32.48h7.89v25.01h13.56v7.47zM138.24 128.87c-1.02-1.57-1.76-2.09-3.39-2.09h-1.77v12.63h-7.89v-32.49h7.89v12.25h1.73c1.63 0 2.38-.55 3.4-2.08l6.49-10.17h8.88l-7.94 12.49c-1.77 2.41-2.78 3.01-3.39 3.43.64.36 1.66.93 3.42 3.7l8.22 12.85h-8.91l-6.74-10.52zM171.83 128.87c-1.02-1.57-1.77-2.09-3.39-2.09h-1.77v12.63h-7.89v-32.49h7.89v12.25h1.71c1.63 0 2.37-.55 3.39-2.08l6.49-10.17h8.86l-7.94 12.49c-1.77 2.41-2.78 3.01-3.39 3.43.66.36 1.66.93 3.44 3.7l8.22 12.85h-8.91l-6.71-10.52zM208.14 131.92v7.47h-15.76v-7.47h3.93v-17.59h-3.93v-7.43h15.76v7.43h-3.94v17.59zM49.84 172.43l-10.5-25.58h6.9l5.38 14.21 5.34-14.21h6.9l-10.35 25.58zM80.28 166.54v5.89H67.86v-5.89h3.1v-13.85h-3.1v-5.84h12.42v5.84h-3.09v13.85zM86.79 172.43v-25.58H93v19.69h10.67v5.89zM107.65 172.43v-25.58h6.22v19.69h10.66v5.89zM134.38 172.43h-6.92l10.46-25.57h3.72l10.31 25.57h-6.9l-1.32-3.54h-8.05l-1.3 3.54zm3.47-9.44h3.73l-1.87-4.98-1.86 4.98zM175.95 150.87l-4.03 3.73c-1.54-1.39-3.47-2.11-5.63-2.11-3.8 0-6.79 2.82-6.79 7.2 0 4.38 3 7.15 6.79 7.15 1.25 0 2.43-.25 3.44-.72v-3.51h-3.44v-4.68h9.66v10.55c-2.42 2.6-5.85 4.25-9.66 4.25-7.18 0-13-5.86-13-13.04 0-7.2 5.8-13.06 13-13.06 3.83 0 7.25 1.64 9.66 4.24M198.84 156.66l-2.23 5.89h-8.06v3.99h12.81l-2.22 5.89h-16.8v-25.58h19.71l-2.22 5.84h-11.28v3.97zM62.93 191.92c-.52-.79-.8-1.07-1.63-1.07h-.49v3.35h-2.18v-3.35h-.52c-.82 0-1.11.3-1.63 1.07l-1.47 2.28H52.6l2.05-3.13c.39-.6.86-1.15 1.3-1.28-.38-.16-.86-.69-1.22-1.24l-1.91-2.88h2.42l1.33 2.03c.52.8.8 1.07 1.62 1.07h.45v-3.12h2.18v3.12h.42c.82 0 1.11-.28 1.62-1.07l1.32-2.03h2.42l-1.9 2.88c-.38.57-.83 1.1-1.22 1.24.44.14.89.68 1.3 1.28l2.05 3.13h-2.42l-1.48-2.28zM73.76 194.19v-5.04l-4.36 5.04h-1.42v-8.55h2.17v5.05l4.38-5.05h1.41v8.55zM79.42 194.19H77.1l3.95-8.55h1.41l3.94 8.55h-2.29l-2.35-5.36zM95.29 189.92c0 2.43-1.96 4.38-4.41 4.38-2.42 0-4.36-1.95-4.36-4.38s1.95-4.39 4.36-4.39c2.47 0 4.41 1.95 4.41 4.39m-6.6 0c0 1.4 1.07 2.27 2.2 2.27 1.13 0 2.21-.87 2.21-2.27s-1.08-2.28-2.21-2.28c-1.13-.02-2.2.88-2.2 2.28M102.62 194.19v-5.04l-4.38 5.04h-1.4v-8.55H99v5.04l4.39-5.04h1.41v8.55h-2.18zm-4.47-11.88h1.51c0 .61.52 1.09 1.18 1.09s1.19-.47 1.19-1.09h1.49c0 1.51-1.19 2.6-2.67 2.6-1.49-.01-2.7-1.1-2.7-2.6M116.22 191.92c-.5-.79-.8-1.07-1.62-1.07h-.6v3.35h-2.16v-8.55h2.18v3.12h.53c.82 0 1.1-.28 1.6-1.07l1.35-2.03h2.4l-1.91 2.88c-.36.57-.85 1.1-1.22 1.26.42.14.91.68 1.3 1.28l2.05 3.13h-2.42l-1.48-2.3zM129.29 189.92c0 2.43-1.98 4.38-4.39 4.38-2.43 0-4.39-1.95-4.39-4.38s1.96-4.39 4.39-4.39a4.39 4.39 0 0 1 4.39 4.39m-6.61 0c0 1.4 1.07 2.27 2.21 2.27 1.13 0 2.2-.87 2.2-2.27s-1.07-2.28-2.2-2.28c-1.16-.02-2.21.88-2.21 2.28M137.79 194.19v-5.04l-2.4 2.76-2.4-2.76v5.04h-2.17v-8.55h1.42l3.15 3.67 3.17-3.67h1.39v8.55zM147.92 194.19v-6.44h-3.72v6.44h-2.18v-8.55h8.07v8.55zM153.58 194.19h-2.3l3.95-8.55h1.4l3.95 8.55h-2.29l-2.35-5.36zM168.78 187.83c.36.79.38 1.95.14 2.69h-5.98c0 1.17.97 1.8 2.12 1.8.89 0 1.82-.2 2.59-.6l1.15 1.26c-.93.68-2.21 1.34-3.73 1.34-2.59 0-4.36-1.89-4.36-4.38 0-2.43 1.63-4.39 4.31-4.39 1.83-.02 3.12.84 3.76 2.28m-5.74 1.32h3.91c0-.2-.06-.47-.2-.68-.3-.55-.91-.96-1.73-.96-1.18 0-1.95.82-1.98 1.64M175.28 191.92c-.52-.79-.8-1.07-1.63-1.07h-.6v3.35h-2.18v-8.55h2.18v3.12h.53c.8 0 1.08-.28 1.6-1.07l1.33-2.03h2.4l-1.91 2.88c-.36.57-.83 1.1-1.21 1.24.42.14.91.69 1.29 1.28l2.05 3.13h-2.42l-1.43-2.28zM187.42 187.12l-1.3 1.42c-.71-.65-1.32-.87-2.07-.87-1.15 0-2.21.87-2.21 2.27s1.07 2.28 2.21 2.28c.75 0 1.36-.22 2.07-.87l1.3 1.4c-.82.96-2.02 1.57-3.37 1.57-2.43 0-4.38-1.95-4.38-4.38s1.95-4.36 4.38-4.36c1.35-.04 2.55.58 3.37 1.54M158.16 91.57v-8.31l13.97 3.67-16.52-49.13-16.52 49.13 13.96-3.67v8.31h-30.1v-8.89l16.14 4.25-19.07-56.74-19.09 56.74 16.12-4.25v8.89h-30.1v-8.31l13.98 3.67L84.39 37.8 67.87 86.93l13.97-3.67v8.31H52.85v2.67h134.11v-2.67z"/>
</svg>
