<?xml version="1.0" encoding="utf-8"?>
<!-- Generator: Adobe Illustrator 23.0.1, SVG Export Plug-In . SVG Version: 6.00 Build 0)  -->
<svg version="1.1" id="Слой_1" xmlns="http://www.w3.org/2000/svg" xmlns:xlink="http://www.w3.org/1999/xlink" x="0px" y="0px"
	 viewBox="0 0 250 60.63" style="enable-background:new 0 0 250 60.63;" xml:space="preserve">
<style type="text/css">
	.st0{fill:#0E0C0D;}
	.st1{fill:#333333;}
	.st2{fill:#FF0500;}
</style>
<g>
	<g>
		<path class="st0" d="M28.54,15.76h-5.39v-13h-4.07V23.3h6.09v1.22h-6.09v23.21h1.69v1.22h-8.8v-1.22h1.69V2.77h-1.69V1.54h16.57
			V15.76z"/>
		<path class="st0" d="M70.21,48.96h-8.8v-1.22h1.69l-1.22-13.76h-4.86l-1.36,13.76h1.69v1.22h-5.09v-1.22h1.69l4.76-46.2h5.42
			l4.4,46.2h1.69V48.96z M61.81,32.79L59.56,7.16l-2.48,25.63H61.81z"/>
		<path class="st0" d="M113.2,48.96h-2.35c-3.18,0-4.76-1.65-4.76-4.96V27.24c0-0.75-0.26-1.39-0.79-1.92
			c-0.53-0.53-1.17-0.79-1.92-0.79h-2.35v23.21h1.69v1.22h-8.8v-1.22h1.69V2.77h-1.69V1.54h9.46c2.25,0,4.17,0.68,5.76,2.03
			c1.59,1.36,2.38,2.98,2.38,4.88v9.16c0,2.95-1.58,5.05-4.73,6.28c3.15,1.32,4.73,3.43,4.73,6.32v15.71c0,1.21,0.52,1.82,1.55,1.82
			h0.13V48.96z M106.09,20.59V5.48c0-0.75-0.26-1.39-0.79-1.92c-0.53-0.53-1.17-0.79-1.92-0.79h-2.35V23.3h2.35
			c0.75,0,1.39-0.26,1.92-0.79C105.83,21.98,106.09,21.34,106.09,20.59z"/>
		<path class="st0" d="M154.87,2.77h-1.69v46.2h-4.33l-8.2-36.9v35.68h1.69v1.22h-5.06v-1.22h1.69V2.77h-1.69V1.54h6.85l7.38,32.94
			V2.77h-1.69V1.54h5.06V2.77z"/>
		<path class="st0" d="M196.21,48.96h-16.93v-1.22h1.69V2.77h-1.69V1.54h16.93v14.22h-5.42v-13h-4.4V23.3h6.42v1.22h-6.42v23.21h4.4
			v-13h5.42V48.96z"/>
		<path class="st0" d="M238.54,42.38c0,1.9-0.79,3.52-2.38,4.88c-1.59,1.36-3.51,2.03-5.76,2.03c-2.23,0-4.14-0.68-5.74-2.03
			c-1.6-1.36-2.4-2.98-2.4-4.88V8.12c0-1.9,0.8-3.52,2.4-4.88c1.6-1.36,3.51-2.03,5.74-2.03c2.25,0,4.17,0.68,5.76,2.03
			c1.59,1.36,2.38,2.98,2.38,4.88V42.38z M233.12,45.36V5.15c0-0.75-0.26-1.39-0.79-1.92c-0.53-0.53-1.17-0.79-1.92-0.79
			c-0.75,0-1.39,0.26-1.92,0.79c-0.53,0.53-0.79,1.17-0.79,1.92v40.21c0,0.75,0.27,1.39,0.79,1.92c0.53,0.53,1.17,0.79,1.92,0.79
			c0.75,0,1.39-0.26,1.92-0.79C232.86,46.75,233.12,46.11,233.12,45.36z"/>
	</g>
	<g>
		<path class="st1" d="M7.88,54.16c0,0.05,0,0.1-0.01,0.14c-0.01,0.04-0.02,0.07-0.03,0.1c-0.01,0.02-0.03,0.04-0.05,0.05
			c-0.02,0.01-0.04,0.02-0.06,0.02H5.73v1.86h1.9c0.02,0,0.04,0.01,0.06,0.02c0.02,0.01,0.03,0.03,0.05,0.05
			c0.01,0.02,0.02,0.05,0.03,0.09c0.01,0.04,0.01,0.09,0.01,0.15c0,0.05,0,0.1-0.01,0.14c-0.01,0.04-0.02,0.07-0.03,0.09
			c-0.01,0.02-0.03,0.04-0.05,0.05c-0.02,0.01-0.04,0.02-0.06,0.02h-1.9v2.29c0,0.02-0.01,0.04-0.02,0.06
			c-0.01,0.02-0.03,0.03-0.06,0.04c-0.03,0.01-0.07,0.02-0.11,0.03c-0.05,0.01-0.11,0.01-0.18,0.01c-0.07,0-0.13,0-0.17-0.01
			c-0.05-0.01-0.09-0.02-0.11-0.03c-0.03-0.01-0.05-0.02-0.06-0.04C5.01,59.26,5,59.24,5,59.22v-5.08c0-0.11,0.03-0.19,0.09-0.23
			c0.06-0.04,0.12-0.07,0.18-0.07h2.47c0.02,0,0.04,0.01,0.06,0.02c0.02,0.01,0.03,0.03,0.05,0.05c0.01,0.03,0.02,0.06,0.03,0.1
			C7.88,54.06,7.88,54.11,7.88,54.16z"/>
		<path class="st1" d="M13.95,59.22c0,0.02,0,0.04-0.01,0.06c-0.01,0.02-0.03,0.03-0.06,0.04c-0.03,0.01-0.07,0.02-0.12,0.03
			c-0.05,0.01-0.12,0.01-0.2,0.01c-0.07,0-0.13,0-0.18-0.01c-0.05-0.01-0.08-0.02-0.11-0.03c-0.03-0.01-0.05-0.03-0.07-0.05
			c-0.02-0.02-0.03-0.05-0.04-0.09l-0.5-1.29c-0.06-0.15-0.12-0.28-0.18-0.41c-0.06-0.12-0.14-0.23-0.23-0.32
			c-0.09-0.09-0.19-0.16-0.31-0.21c-0.12-0.05-0.26-0.08-0.43-0.08h-0.49v2.34c0,0.02-0.01,0.04-0.02,0.06
			c-0.01,0.02-0.03,0.03-0.06,0.04c-0.03,0.01-0.06,0.02-0.11,0.03c-0.05,0.01-0.11,0.01-0.18,0.01c-0.07,0-0.13,0-0.18-0.01
			c-0.05-0.01-0.08-0.02-0.11-0.03c-0.03-0.01-0.05-0.02-0.06-0.04c-0.01-0.02-0.02-0.04-0.02-0.06v-5.08
			c0-0.11,0.03-0.19,0.09-0.23c0.06-0.04,0.12-0.07,0.18-0.07h1.17c0.14,0,0.25,0,0.35,0.01c0.09,0.01,0.17,0.01,0.25,0.02
			c0.21,0.04,0.4,0.09,0.56,0.17c0.16,0.08,0.3,0.18,0.41,0.3c0.11,0.12,0.19,0.26,0.25,0.42c0.05,0.16,0.08,0.33,0.08,0.52
			c0,0.18-0.02,0.35-0.07,0.49c-0.05,0.15-0.12,0.27-0.21,0.39c-0.09,0.11-0.2,0.21-0.34,0.29c-0.13,0.08-0.28,0.15-0.44,0.21
			c0.09,0.04,0.17,0.09,0.25,0.15c0.07,0.06,0.14,0.13,0.21,0.22c0.06,0.09,0.12,0.18,0.18,0.29c0.06,0.11,0.11,0.23,0.17,0.37
			l0.49,1.21c0.04,0.1,0.07,0.17,0.08,0.21C13.95,59.17,13.95,59.2,13.95,59.22z M12.85,55.37c0-0.22-0.05-0.4-0.14-0.55
			c-0.1-0.15-0.26-0.26-0.48-0.32c-0.07-0.02-0.15-0.03-0.24-0.04c-0.09-0.01-0.21-0.01-0.35-0.01h-0.62v1.85h0.71
			c0.19,0,0.36-0.02,0.5-0.07c0.14-0.05,0.26-0.11,0.35-0.2c0.09-0.08,0.16-0.18,0.21-0.29C12.83,55.62,12.85,55.5,12.85,55.37z"/>
		<path class="st1" d="M20.82,56.53c0,0.44-0.05,0.84-0.16,1.2c-0.1,0.36-0.26,0.66-0.47,0.91c-0.21,0.25-0.47,0.44-0.78,0.58
			c-0.31,0.14-0.68,0.2-1.1,0.2c-0.41,0-0.77-0.06-1.07-0.19c-0.3-0.12-0.55-0.3-0.75-0.54c-0.2-0.23-0.34-0.52-0.44-0.87
			c-0.1-0.35-0.14-0.75-0.14-1.2c0-0.43,0.05-0.83,0.16-1.18c0.1-0.35,0.26-0.65,0.47-0.9c0.21-0.25,0.47-0.44,0.78-0.57
			c0.31-0.13,0.68-0.2,1.1-0.2c0.4,0,0.76,0.06,1.06,0.18c0.3,0.12,0.55,0.3,0.75,0.53c0.2,0.23,0.35,0.52,0.45,0.87
			C20.77,55.69,20.82,56.08,20.82,56.53z M20.05,56.58c0-0.31-0.03-0.6-0.08-0.87c-0.05-0.27-0.15-0.5-0.28-0.7
			c-0.13-0.2-0.3-0.35-0.52-0.46c-0.21-0.11-0.48-0.17-0.8-0.17c-0.32,0-0.58,0.06-0.8,0.18c-0.21,0.12-0.39,0.28-0.52,0.47
			c-0.13,0.2-0.23,0.43-0.29,0.69c-0.06,0.26-0.09,0.54-0.09,0.83c0,0.32,0.03,0.62,0.08,0.89c0.05,0.27,0.14,0.51,0.27,0.7
			c0.13,0.2,0.3,0.35,0.51,0.46c0.21,0.11,0.48,0.16,0.8,0.16c0.32,0,0.59-0.06,0.8-0.18c0.22-0.12,0.39-0.28,0.53-0.48
			c0.13-0.2,0.23-0.44,0.28-0.7C20.02,57.15,20.05,56.87,20.05,56.58z"/>
		<path class="st1" d="M29.25,59.22c0,0.02-0.01,0.04-0.02,0.06c-0.01,0.02-0.03,0.03-0.06,0.04c-0.03,0.01-0.07,0.02-0.11,0.03
			c-0.05,0.01-0.1,0.01-0.18,0.01c-0.07,0-0.12,0-0.17-0.01c-0.05-0.01-0.09-0.02-0.11-0.03c-0.03-0.01-0.05-0.02-0.06-0.04
			c-0.01-0.02-0.02-0.04-0.02-0.06v-4.78h-0.01l-1.93,4.8c-0.01,0.02-0.02,0.04-0.04,0.05c-0.02,0.01-0.04,0.03-0.07,0.04
			c-0.03,0.01-0.07,0.02-0.11,0.02c-0.04,0.01-0.09,0.01-0.15,0.01c-0.06,0-0.11,0-0.15-0.01c-0.04-0.01-0.08-0.01-0.11-0.02
			c-0.03-0.01-0.05-0.02-0.07-0.04c-0.02-0.01-0.03-0.03-0.03-0.05l-1.85-4.8h0v4.78c0,0.02-0.01,0.04-0.02,0.06
			c-0.01,0.02-0.03,0.03-0.06,0.04c-0.03,0.01-0.07,0.02-0.11,0.03c-0.05,0.01-0.11,0.01-0.18,0.01c-0.07,0-0.13,0-0.17-0.01
			c-0.05-0.01-0.08-0.02-0.11-0.03c-0.03-0.01-0.05-0.02-0.06-0.04c-0.01-0.02-0.02-0.04-0.02-0.06v-5.05c0-0.12,0.03-0.2,0.1-0.25
			c0.06-0.05,0.13-0.08,0.21-0.08h0.45c0.09,0,0.17,0.01,0.24,0.03c0.07,0.02,0.13,0.04,0.18,0.08c0.05,0.04,0.09,0.08,0.13,0.14
			c0.03,0.06,0.06,0.12,0.09,0.2l1.57,3.97h0.02l1.63-3.96c0.03-0.09,0.07-0.16,0.1-0.22c0.04-0.06,0.08-0.11,0.12-0.14
			c0.04-0.04,0.09-0.06,0.15-0.08c0.05-0.02,0.12-0.02,0.19-0.02h0.47c0.04,0,0.08,0.01,0.12,0.02c0.04,0.01,0.07,0.03,0.1,0.06
			c0.03,0.03,0.05,0.06,0.07,0.1c0.02,0.04,0.03,0.09,0.03,0.15V59.22z"/>
		<path class="st1" d="M38.22,57.79c0,0.26-0.05,0.49-0.14,0.69c-0.1,0.2-0.23,0.37-0.4,0.51c-0.17,0.14-0.37,0.25-0.59,0.32
			c-0.23,0.07-0.47,0.11-0.74,0.11c-0.18,0-0.35-0.02-0.51-0.05c-0.16-0.03-0.3-0.07-0.42-0.11c-0.12-0.04-0.23-0.09-0.31-0.14
			c-0.08-0.05-0.14-0.09-0.17-0.12c-0.03-0.03-0.06-0.08-0.07-0.13c-0.02-0.05-0.02-0.12-0.02-0.21c0-0.06,0-0.11,0.01-0.16
			c0.01-0.04,0.01-0.07,0.03-0.1c0.01-0.03,0.03-0.04,0.04-0.05c0.02-0.01,0.04-0.01,0.06-0.01c0.04,0,0.1,0.02,0.17,0.07
			c0.07,0.05,0.16,0.1,0.28,0.16c0.11,0.06,0.25,0.11,0.41,0.16c0.16,0.05,0.34,0.07,0.55,0.07c0.16,0,0.3-0.02,0.43-0.06
			c0.13-0.04,0.24-0.1,0.34-0.18c0.09-0.08,0.17-0.17,0.22-0.29c0.05-0.11,0.08-0.24,0.08-0.39c0-0.16-0.04-0.29-0.11-0.4
			c-0.07-0.11-0.16-0.21-0.28-0.29c-0.12-0.08-0.25-0.16-0.4-0.23c-0.15-0.07-0.3-0.14-0.46-0.21c-0.16-0.07-0.31-0.15-0.45-0.24
			c-0.15-0.09-0.28-0.19-0.39-0.31c-0.12-0.12-0.21-0.26-0.28-0.42c-0.07-0.16-0.11-0.35-0.11-0.57c0-0.23,0.04-0.43,0.13-0.61
			c0.08-0.18,0.2-0.33,0.35-0.45c0.15-0.12,0.33-0.21,0.53-0.28c0.2-0.06,0.43-0.1,0.66-0.1c0.12,0,0.24,0.01,0.37,0.03
			c0.12,0.02,0.24,0.05,0.35,0.08c0.11,0.04,0.21,0.08,0.29,0.12c0.08,0.04,0.14,0.08,0.17,0.11c0.03,0.03,0.04,0.05,0.05,0.06
			c0.01,0.02,0.02,0.03,0.02,0.06c0.01,0.02,0.01,0.05,0.01,0.09c0,0.03,0,0.08,0,0.13c0,0.05,0,0.1-0.01,0.14
			c0,0.04-0.01,0.07-0.02,0.1c-0.01,0.03-0.02,0.05-0.04,0.06c-0.02,0.01-0.03,0.02-0.05,0.02c-0.03,0-0.08-0.02-0.15-0.06
			c-0.07-0.04-0.15-0.08-0.24-0.13c-0.1-0.05-0.21-0.09-0.34-0.14c-0.13-0.04-0.28-0.06-0.44-0.06c-0.15,0-0.29,0.02-0.4,0.06
			c-0.11,0.04-0.21,0.1-0.28,0.16c-0.07,0.07-0.13,0.15-0.17,0.24c-0.04,0.09-0.05,0.19-0.05,0.3c0,0.15,0.04,0.28,0.11,0.39
			c0.07,0.11,0.17,0.21,0.28,0.29c0.12,0.09,0.25,0.16,0.4,0.23c0.15,0.07,0.3,0.14,0.46,0.21c0.16,0.07,0.31,0.15,0.46,0.24
			c0.15,0.09,0.28,0.19,0.4,0.31c0.12,0.12,0.21,0.26,0.28,0.42C38.18,57.39,38.22,57.58,38.22,57.79z"/>
		<path class="st1" d="M44.61,59.07c0.02,0.06,0.04,0.11,0.04,0.15c0,0.04-0.01,0.07-0.03,0.09c-0.02,0.02-0.06,0.03-0.11,0.04
			c-0.05,0.01-0.12,0.01-0.21,0.01c-0.09,0-0.16,0-0.21-0.01c-0.05,0-0.09-0.01-0.12-0.02c-0.03-0.01-0.05-0.02-0.06-0.04
			c-0.01-0.02-0.02-0.04-0.04-0.06l-0.47-1.34h-2.28l-0.45,1.32c-0.01,0.03-0.02,0.05-0.03,0.07c-0.01,0.02-0.04,0.03-0.06,0.05
			c-0.03,0.01-0.07,0.02-0.11,0.03c-0.05,0.01-0.11,0.01-0.19,0.01c-0.08,0-0.15,0-0.2-0.01c-0.05-0.01-0.09-0.02-0.11-0.04
			c-0.02-0.02-0.03-0.05-0.03-0.09c0-0.04,0.01-0.09,0.04-0.15l1.84-5.1c0.01-0.03,0.03-0.06,0.04-0.08
			c0.02-0.02,0.05-0.04,0.08-0.05c0.04-0.01,0.08-0.02,0.14-0.02c0.05,0,0.13-0.01,0.21-0.01c0.09,0,0.17,0,0.22,0.01
			c0.06,0.01,0.11,0.01,0.14,0.02c0.04,0.01,0.07,0.03,0.08,0.05c0.02,0.02,0.04,0.05,0.05,0.08L44.61,59.07z M42.25,54.57
			L42.25,54.57l-0.95,2.74h1.91L42.25,54.57z"/>
		<path class="st1" d="M47.56,59.22c0,0.02-0.01,0.04-0.02,0.06c-0.01,0.02-0.03,0.03-0.06,0.04c-0.03,0.01-0.07,0.02-0.11,0.03
			c-0.05,0.01-0.11,0.01-0.18,0.01c-0.07,0-0.13,0-0.17-0.01c-0.05-0.01-0.09-0.02-0.11-0.03c-0.03-0.01-0.05-0.02-0.06-0.04
			c-0.01-0.02-0.02-0.04-0.02-0.06v-5.27c0-0.02,0.01-0.04,0.02-0.06c0.01-0.02,0.03-0.03,0.06-0.04c0.03-0.01,0.07-0.02,0.11-0.03
			c0.05-0.01,0.1-0.01,0.17-0.01c0.07,0,0.13,0,0.18,0.01c0.05,0.01,0.08,0.02,0.11,0.03c0.03,0.01,0.05,0.02,0.06,0.04
			c0.01,0.02,0.02,0.04,0.02,0.06V59.22z"/>
		<path class="st1" d="M54.47,59.03c0,0.06-0.01,0.1-0.03,0.14c-0.02,0.04-0.04,0.07-0.07,0.1c-0.03,0.03-0.06,0.04-0.1,0.06
			c-0.04,0.01-0.08,0.02-0.11,0.02h-0.24c-0.08,0-0.14-0.01-0.2-0.02c-0.06-0.02-0.11-0.04-0.16-0.09c-0.05-0.04-0.1-0.1-0.15-0.17
			c-0.05-0.07-0.11-0.16-0.16-0.27l-1.67-3.12c-0.09-0.16-0.18-0.33-0.26-0.51c-0.09-0.18-0.17-0.35-0.25-0.52h-0.01
			c0.01,0.2,0.01,0.41,0.01,0.62c0,0.21,0,0.42,0,0.63v3.31c0,0.02-0.01,0.04-0.02,0.06c-0.01,0.02-0.03,0.03-0.06,0.04
			c-0.03,0.01-0.07,0.02-0.11,0.03c-0.05,0.01-0.1,0.01-0.18,0.01c-0.07,0-0.13,0-0.18-0.01c-0.05-0.01-0.08-0.02-0.11-0.03
			c-0.03-0.01-0.05-0.02-0.06-0.04c-0.01-0.02-0.02-0.04-0.02-0.06v-5.06c0-0.11,0.03-0.19,0.1-0.24c0.06-0.05,0.13-0.07,0.21-0.07
			h0.36c0.08,0,0.16,0.01,0.21,0.02c0.06,0.01,0.11,0.04,0.15,0.07c0.05,0.03,0.09,0.08,0.13,0.14c0.04,0.06,0.09,0.13,0.13,0.22
			l1.29,2.41c0.08,0.15,0.16,0.29,0.23,0.43c0.07,0.14,0.14,0.28,0.21,0.41c0.07,0.14,0.14,0.27,0.2,0.4
			c0.07,0.13,0.13,0.26,0.2,0.4h0c-0.01-0.22-0.01-0.46-0.01-0.7s0-0.47,0-0.7v-2.98c0-0.02,0.01-0.04,0.02-0.05
			c0.01-0.02,0.03-0.03,0.06-0.04c0.03-0.01,0.07-0.02,0.11-0.03c0.05-0.01,0.11-0.01,0.18-0.01c0.07,0,0.12,0,0.17,0.01
			c0.05,0.01,0.09,0.02,0.11,0.03c0.03,0.01,0.05,0.03,0.06,0.04c0.01,0.02,0.02,0.04,0.02,0.05V59.03z"/>
		<path class="st1" d="M60.67,54.16c0,0.05,0,0.1-0.01,0.14c-0.01,0.04-0.01,0.07-0.03,0.1c-0.01,0.02-0.03,0.04-0.05,0.05
			c-0.02,0.01-0.04,0.02-0.06,0.02h-1.54v4.76c0,0.02-0.01,0.04-0.02,0.06c-0.01,0.02-0.03,0.03-0.06,0.04
			c-0.03,0.01-0.07,0.02-0.11,0.03c-0.05,0.01-0.11,0.01-0.18,0.01c-0.07,0-0.13,0-0.17-0.01c-0.05-0.01-0.09-0.02-0.11-0.03
			c-0.03-0.01-0.05-0.02-0.06-0.04c-0.01-0.02-0.02-0.04-0.02-0.06v-4.76h-1.54c-0.02,0-0.04-0.01-0.06-0.02
			c-0.02-0.01-0.03-0.03-0.04-0.05c-0.01-0.02-0.02-0.06-0.03-0.1c-0.01-0.04-0.01-0.09-0.01-0.14c0-0.05,0-0.1,0.01-0.14
			c0.01-0.04,0.02-0.08,0.03-0.1c0.01-0.02,0.03-0.04,0.04-0.05c0.02-0.01,0.04-0.02,0.06-0.02h3.82c0.02,0,0.04,0.01,0.06,0.02
			c0.02,0.01,0.03,0.03,0.05,0.05c0.01,0.03,0.02,0.06,0.03,0.1C60.66,54.06,60.67,54.11,60.67,54.16z"/>
		<path class="st1" d="M63.72,57.19c0,0.11-0.01,0.18-0.04,0.23c-0.03,0.04-0.06,0.06-0.11,0.06H61.8c-0.05,0-0.09-0.02-0.11-0.07
			c-0.03-0.04-0.04-0.12-0.04-0.23c0-0.11,0.01-0.18,0.04-0.23c0.03-0.04,0.06-0.06,0.11-0.06h1.77c0.02,0,0.04,0.01,0.06,0.01
			c0.02,0.01,0.03,0.02,0.05,0.05c0.01,0.02,0.02,0.05,0.03,0.09C63.72,57.09,63.72,57.14,63.72,57.19z"/>
		<path class="st1" d="M69.42,55.45c0,0.27-0.05,0.52-0.14,0.74c-0.09,0.22-0.22,0.41-0.39,0.56c-0.17,0.16-0.37,0.28-0.62,0.36
			c-0.24,0.09-0.54,0.13-0.88,0.13h-0.62v1.98c0,0.02-0.01,0.04-0.02,0.06c-0.01,0.02-0.03,0.03-0.06,0.04
			c-0.03,0.01-0.06,0.02-0.11,0.03c-0.05,0.01-0.11,0.01-0.18,0.01c-0.07,0-0.13,0-0.18-0.01c-0.05-0.01-0.08-0.02-0.11-0.03
			c-0.03-0.01-0.05-0.02-0.06-0.04c-0.01-0.02-0.02-0.04-0.02-0.06v-5.06c0-0.11,0.03-0.19,0.09-0.24c0.06-0.05,0.13-0.07,0.2-0.07
			h1.17c0.12,0,0.23,0.01,0.34,0.02c0.11,0.01,0.24,0.03,0.39,0.06c0.15,0.03,0.3,0.09,0.45,0.18c0.15,0.09,0.29,0.2,0.39,0.33
			c0.11,0.13,0.19,0.28,0.25,0.45C69.39,55.06,69.42,55.25,69.42,55.45z M68.65,55.51c0-0.22-0.04-0.41-0.13-0.56
			c-0.08-0.15-0.19-0.26-0.31-0.33c-0.12-0.07-0.25-0.12-0.38-0.14c-0.13-0.02-0.26-0.03-0.38-0.03h-0.67v2.2h0.66
			c0.22,0,0.4-0.03,0.55-0.09c0.15-0.06,0.27-0.13,0.37-0.23c0.1-0.1,0.17-0.22,0.22-0.36C68.62,55.83,68.65,55.68,68.65,55.51z"/>
		<path class="st1" d="M74.89,59.03c0,0.05,0,0.1-0.01,0.13c-0.01,0.04-0.02,0.07-0.03,0.1c-0.01,0.03-0.03,0.04-0.05,0.05
			c-0.02,0.01-0.04,0.02-0.06,0.02h-2.63c-0.07,0-0.13-0.02-0.18-0.07c-0.06-0.04-0.09-0.12-0.09-0.23v-4.89
			c0-0.11,0.03-0.19,0.09-0.23c0.06-0.04,0.12-0.07,0.18-0.07h2.6c0.02,0,0.04,0.01,0.06,0.02c0.02,0.01,0.03,0.03,0.04,0.05
			c0.01,0.03,0.02,0.06,0.03,0.1c0.01,0.04,0.01,0.09,0.01,0.14c0,0.05,0,0.1-0.01,0.13c-0.01,0.04-0.02,0.07-0.03,0.09
			c-0.01,0.02-0.03,0.04-0.04,0.05c-0.02,0.01-0.04,0.02-0.06,0.02h-2.15v1.72h1.84c0.02,0,0.04,0.01,0.06,0.02
			c0.02,0.01,0.03,0.03,0.05,0.05c0.01,0.02,0.02,0.05,0.03,0.09c0.01,0.04,0.01,0.09,0.01,0.14c0,0.05,0,0.09-0.01,0.13
			c-0.01,0.04-0.01,0.07-0.03,0.09c-0.01,0.02-0.03,0.04-0.05,0.05c-0.02,0.01-0.04,0.02-0.06,0.02h-1.84v1.96h2.18
			c0.02,0,0.04,0.01,0.06,0.02c0.02,0.01,0.03,0.03,0.05,0.05c0.01,0.02,0.02,0.05,0.03,0.09C74.89,58.93,74.89,58.97,74.89,59.03z"
			/>
		<path class="st1" d="M80.82,54.16c0,0.05,0,0.1-0.01,0.14c-0.01,0.04-0.01,0.07-0.03,0.1s-0.03,0.04-0.05,0.05
			c-0.02,0.01-0.04,0.02-0.06,0.02h-1.54v4.76c0,0.02-0.01,0.04-0.02,0.06c-0.01,0.02-0.03,0.03-0.06,0.04
			c-0.03,0.01-0.07,0.02-0.11,0.03c-0.05,0.01-0.11,0.01-0.18,0.01c-0.07,0-0.13,0-0.17-0.01c-0.05-0.01-0.09-0.02-0.11-0.03
			c-0.03-0.01-0.05-0.02-0.06-0.04c-0.01-0.02-0.02-0.04-0.02-0.06v-4.76h-1.54c-0.02,0-0.04-0.01-0.06-0.02
			c-0.02-0.01-0.03-0.03-0.04-0.05c-0.01-0.02-0.02-0.06-0.03-0.1c-0.01-0.04-0.01-0.09-0.01-0.14c0-0.05,0-0.1,0.01-0.14
			c0.01-0.04,0.02-0.08,0.03-0.1c0.01-0.02,0.03-0.04,0.04-0.05c0.02-0.01,0.04-0.02,0.06-0.02h3.82c0.02,0,0.04,0.01,0.06,0.02
			c0.02,0.01,0.03,0.03,0.05,0.05c0.01,0.03,0.02,0.06,0.03,0.1C80.81,54.06,80.82,54.11,80.82,54.16z"/>
		<path class="st1" d="M85.97,59.03c0,0.05,0,0.1-0.01,0.13c-0.01,0.04-0.02,0.07-0.03,0.1c-0.01,0.03-0.03,0.04-0.05,0.05
			c-0.02,0.01-0.04,0.02-0.06,0.02h-2.63c-0.07,0-0.13-0.02-0.18-0.07c-0.06-0.04-0.09-0.12-0.09-0.23v-4.89
			c0-0.11,0.03-0.19,0.09-0.23c0.06-0.04,0.12-0.07,0.18-0.07h2.6c0.02,0,0.04,0.01,0.06,0.02c0.02,0.01,0.03,0.03,0.04,0.05
			c0.01,0.03,0.02,0.06,0.03,0.1c0.01,0.04,0.01,0.09,0.01,0.14c0,0.05,0,0.1-0.01,0.13c-0.01,0.04-0.02,0.07-0.03,0.09
			c-0.01,0.02-0.03,0.04-0.04,0.05c-0.02,0.01-0.04,0.02-0.06,0.02h-2.15v1.72h1.84c0.02,0,0.04,0.01,0.06,0.02
			c0.02,0.01,0.03,0.03,0.05,0.05c0.01,0.02,0.02,0.05,0.03,0.09c0.01,0.04,0.01,0.09,0.01,0.14c0,0.05,0,0.09-0.01,0.13
			c-0.01,0.04-0.01,0.07-0.03,0.09c-0.01,0.02-0.03,0.04-0.05,0.05c-0.02,0.01-0.04,0.02-0.06,0.02h-1.84v1.96h2.18
			c0.02,0,0.04,0.01,0.06,0.02c0.02,0.01,0.03,0.03,0.05,0.05c0.01,0.02,0.02,0.05,0.03,0.09C85.96,58.93,85.97,58.97,85.97,59.03z"
			/>
		<path class="st1" d="M92.12,59.22c0,0.02,0,0.04-0.01,0.06c-0.01,0.02-0.03,0.03-0.06,0.04c-0.03,0.01-0.07,0.02-0.12,0.03
			c-0.05,0.01-0.12,0.01-0.2,0.01c-0.07,0-0.13,0-0.18-0.01c-0.05-0.01-0.08-0.02-0.11-0.03c-0.03-0.01-0.05-0.03-0.07-0.05
			c-0.02-0.02-0.03-0.05-0.04-0.09l-0.5-1.29c-0.06-0.15-0.12-0.28-0.18-0.41c-0.06-0.12-0.14-0.23-0.23-0.32
			c-0.09-0.09-0.19-0.16-0.31-0.21c-0.12-0.05-0.26-0.08-0.43-0.08h-0.49v2.34c0,0.02-0.01,0.04-0.02,0.06
			c-0.01,0.02-0.03,0.03-0.06,0.04c-0.03,0.01-0.06,0.02-0.11,0.03c-0.05,0.01-0.11,0.01-0.18,0.01c-0.07,0-0.13,0-0.18-0.01
			c-0.05-0.01-0.08-0.02-0.11-0.03c-0.03-0.01-0.05-0.02-0.06-0.04c-0.01-0.02-0.02-0.04-0.02-0.06v-5.08
			c0-0.11,0.03-0.19,0.09-0.23c0.06-0.04,0.12-0.07,0.18-0.07h1.17c0.14,0,0.25,0,0.35,0.01c0.09,0.01,0.17,0.01,0.25,0.02
			c0.21,0.04,0.4,0.09,0.56,0.17c0.16,0.08,0.3,0.18,0.41,0.3c0.11,0.12,0.19,0.26,0.25,0.42c0.05,0.16,0.08,0.33,0.08,0.52
			c0,0.18-0.02,0.35-0.07,0.49c-0.05,0.15-0.12,0.27-0.21,0.39c-0.09,0.11-0.2,0.21-0.34,0.29c-0.13,0.08-0.28,0.15-0.44,0.21
			c0.09,0.04,0.17,0.09,0.25,0.15c0.07,0.06,0.14,0.13,0.21,0.22c0.06,0.09,0.12,0.18,0.18,0.29c0.06,0.11,0.11,0.23,0.17,0.37
			l0.49,1.21c0.04,0.1,0.07,0.17,0.08,0.21C92.11,59.17,92.12,59.2,92.12,59.22z M91.02,55.37c0-0.22-0.05-0.4-0.14-0.55
			c-0.1-0.15-0.26-0.26-0.48-0.32c-0.07-0.02-0.15-0.03-0.24-0.04c-0.09-0.01-0.21-0.01-0.35-0.01h-0.62v1.85h0.71
			c0.19,0,0.36-0.02,0.5-0.07c0.14-0.05,0.26-0.11,0.35-0.2c0.09-0.08,0.16-0.18,0.21-0.29C90.99,55.62,91.02,55.5,91.02,55.37z"/>
		<path class="st1" d="M97.31,57.79c0,0.26-0.05,0.49-0.14,0.69c-0.1,0.2-0.23,0.37-0.4,0.51c-0.17,0.14-0.37,0.25-0.59,0.32
			c-0.23,0.07-0.47,0.11-0.74,0.11c-0.18,0-0.35-0.02-0.51-0.05c-0.16-0.03-0.3-0.07-0.42-0.11c-0.12-0.04-0.23-0.09-0.31-0.14
			c-0.08-0.05-0.14-0.09-0.17-0.12c-0.03-0.03-0.06-0.08-0.07-0.13c-0.02-0.05-0.02-0.12-0.02-0.21c0-0.06,0-0.11,0.01-0.16
			c0.01-0.04,0.01-0.07,0.03-0.1c0.01-0.03,0.03-0.04,0.04-0.05c0.02-0.01,0.04-0.01,0.06-0.01c0.04,0,0.1,0.02,0.17,0.07
			c0.07,0.05,0.16,0.1,0.28,0.16c0.11,0.06,0.25,0.11,0.41,0.16c0.16,0.05,0.34,0.07,0.55,0.07c0.16,0,0.3-0.02,0.43-0.06
			c0.13-0.04,0.24-0.1,0.34-0.18c0.09-0.08,0.17-0.17,0.22-0.29c0.05-0.11,0.08-0.24,0.08-0.39c0-0.16-0.04-0.29-0.11-0.4
			c-0.07-0.11-0.16-0.21-0.28-0.29c-0.12-0.08-0.25-0.16-0.4-0.23c-0.15-0.07-0.3-0.14-0.46-0.21c-0.16-0.07-0.31-0.15-0.45-0.24
			c-0.15-0.09-0.28-0.19-0.39-0.31c-0.12-0.12-0.21-0.26-0.28-0.42c-0.07-0.16-0.11-0.35-0.11-0.57c0-0.23,0.04-0.43,0.13-0.61
			c0.08-0.18,0.2-0.33,0.35-0.45c0.15-0.12,0.33-0.21,0.53-0.28c0.2-0.06,0.43-0.1,0.66-0.1c0.12,0,0.24,0.01,0.37,0.03
			c0.12,0.02,0.24,0.05,0.35,0.08c0.11,0.04,0.21,0.08,0.29,0.12c0.08,0.04,0.14,0.08,0.17,0.11c0.03,0.03,0.04,0.05,0.05,0.06
			c0.01,0.02,0.02,0.03,0.02,0.06c0.01,0.02,0.01,0.05,0.01,0.09c0,0.03,0,0.08,0,0.13c0,0.05,0,0.1-0.01,0.14
			c0,0.04-0.01,0.07-0.02,0.1c-0.01,0.03-0.02,0.05-0.04,0.06c-0.02,0.01-0.03,0.02-0.05,0.02c-0.03,0-0.08-0.02-0.15-0.06
			c-0.07-0.04-0.15-0.08-0.24-0.13c-0.1-0.05-0.21-0.09-0.34-0.14c-0.13-0.04-0.28-0.06-0.44-0.06c-0.15,0-0.29,0.02-0.4,0.06
			c-0.11,0.04-0.21,0.1-0.28,0.16c-0.07,0.07-0.13,0.15-0.17,0.24c-0.04,0.09-0.05,0.19-0.05,0.3c0,0.15,0.04,0.28,0.11,0.39
			c0.07,0.11,0.17,0.21,0.28,0.29c0.12,0.09,0.25,0.16,0.4,0.23c0.15,0.07,0.3,0.14,0.46,0.21c0.16,0.07,0.31,0.15,0.46,0.24
			c0.15,0.09,0.28,0.19,0.4,0.31c0.12,0.12,0.21,0.26,0.28,0.42C97.27,57.39,97.31,57.58,97.31,57.79z"/>
		<path class="st1" d="M103.27,57.76c0,0.17-0.02,0.33-0.07,0.48c-0.04,0.15-0.1,0.28-0.18,0.39c-0.08,0.12-0.17,0.22-0.29,0.31
			c-0.11,0.09-0.24,0.16-0.38,0.22c-0.14,0.06-0.29,0.1-0.45,0.13c-0.16,0.03-0.34,0.04-0.55,0.04h-1.43
			c-0.07,0-0.13-0.02-0.18-0.07c-0.06-0.04-0.09-0.12-0.09-0.23v-4.89c0-0.11,0.03-0.19,0.09-0.23c0.06-0.04,0.12-0.07,0.18-0.07
			h1.25c0.33,0,0.6,0.03,0.81,0.09c0.21,0.06,0.38,0.15,0.52,0.27c0.14,0.12,0.24,0.26,0.32,0.44c0.07,0.17,0.11,0.37,0.11,0.58
			c0,0.13-0.02,0.26-0.05,0.37c-0.03,0.12-0.08,0.23-0.14,0.33c-0.06,0.1-0.14,0.19-0.23,0.27c-0.09,0.08-0.2,0.14-0.32,0.2
			c0.15,0.03,0.29,0.08,0.42,0.15c0.13,0.08,0.24,0.17,0.34,0.29c0.1,0.12,0.17,0.25,0.23,0.41
			C103.24,57.4,103.27,57.57,103.27,57.76z M102.17,55.3c0-0.13-0.02-0.25-0.05-0.36c-0.04-0.11-0.09-0.2-0.17-0.27
			c-0.08-0.08-0.18-0.13-0.31-0.17c-0.13-0.04-0.29-0.06-0.5-0.06h-0.75v1.78h0.83c0.19,0,0.34-0.02,0.46-0.07s0.21-0.11,0.29-0.2
			c0.08-0.08,0.13-0.18,0.17-0.29C102.15,55.54,102.17,55.42,102.17,55.3z M102.5,57.8c0-0.16-0.03-0.31-0.08-0.43
			c-0.05-0.12-0.13-0.23-0.23-0.31c-0.1-0.08-0.23-0.15-0.38-0.19c-0.15-0.04-0.34-0.07-0.57-0.07h-0.87v1.93h1.06
			c0.17,0,0.31-0.02,0.44-0.06c0.12-0.04,0.23-0.1,0.33-0.18c0.1-0.08,0.17-0.17,0.22-0.29C102.48,58.09,102.5,57.95,102.5,57.8z"/>
		<path class="st1" d="M109.8,57.3c0,0.33-0.05,0.63-0.15,0.89c-0.1,0.26-0.24,0.48-0.42,0.66c-0.18,0.18-0.4,0.32-0.66,0.41
			c-0.26,0.09-0.56,0.14-0.89,0.14c-0.3,0-0.58-0.04-0.83-0.13c-0.25-0.09-0.46-0.22-0.64-0.39c-0.18-0.17-0.31-0.39-0.41-0.64
			c-0.1-0.26-0.14-0.55-0.14-0.89v-3.4c0-0.02,0.01-0.04,0.02-0.06c0.01-0.02,0.03-0.03,0.06-0.04c0.03-0.01,0.07-0.02,0.11-0.03
			c0.05-0.01,0.1-0.01,0.18-0.01c0.07,0,0.13,0,0.17,0.01c0.05,0.01,0.08,0.02,0.11,0.03c0.03,0.01,0.05,0.02,0.06,0.04
			c0.01,0.02,0.02,0.04,0.02,0.06v3.32c0,0.25,0.03,0.47,0.09,0.66c0.06,0.19,0.15,0.35,0.27,0.47c0.12,0.13,0.26,0.22,0.42,0.28
			c0.17,0.06,0.35,0.09,0.56,0.09c0.21,0,0.4-0.03,0.57-0.09c0.17-0.06,0.31-0.16,0.42-0.28c0.11-0.13,0.2-0.28,0.26-0.46
			c0.06-0.18,0.09-0.4,0.09-0.64v-3.35c0-0.02,0.01-0.04,0.02-0.06c0.01-0.02,0.03-0.03,0.06-0.04c0.03-0.01,0.07-0.02,0.11-0.03
			c0.05-0.01,0.11-0.01,0.18-0.01c0.07,0,0.13,0,0.17,0.01c0.05,0.01,0.08,0.02,0.11,0.03c0.03,0.01,0.05,0.02,0.06,0.04
			c0.01,0.02,0.02,0.04,0.02,0.06V57.3z"/>
		<path class="st1" d="M116.21,59.22c0,0.02,0,0.04-0.01,0.06c-0.01,0.02-0.03,0.03-0.06,0.04c-0.03,0.01-0.07,0.02-0.12,0.03
			c-0.05,0.01-0.12,0.01-0.2,0.01c-0.07,0-0.13,0-0.18-0.01c-0.05-0.01-0.08-0.02-0.11-0.03c-0.03-0.01-0.05-0.03-0.07-0.05
			c-0.02-0.02-0.03-0.05-0.04-0.09l-0.5-1.29c-0.06-0.15-0.12-0.28-0.18-0.41c-0.06-0.12-0.14-0.23-0.23-0.32
			c-0.09-0.09-0.19-0.16-0.31-0.21c-0.12-0.05-0.26-0.08-0.43-0.08h-0.49v2.34c0,0.02-0.01,0.04-0.02,0.06
			c-0.01,0.02-0.03,0.03-0.06,0.04c-0.03,0.01-0.06,0.02-0.11,0.03c-0.05,0.01-0.11,0.01-0.18,0.01c-0.07,0-0.13,0-0.18-0.01
			c-0.05-0.01-0.08-0.02-0.11-0.03c-0.03-0.01-0.05-0.02-0.06-0.04c-0.01-0.02-0.02-0.04-0.02-0.06v-5.08
			c0-0.11,0.03-0.19,0.09-0.23c0.06-0.04,0.12-0.07,0.18-0.07h1.17c0.14,0,0.25,0,0.35,0.01c0.09,0.01,0.17,0.01,0.25,0.02
			c0.21,0.04,0.4,0.09,0.56,0.17c0.16,0.08,0.3,0.18,0.41,0.3c0.11,0.12,0.19,0.26,0.25,0.42c0.05,0.16,0.08,0.33,0.08,0.52
			c0,0.18-0.02,0.35-0.07,0.49c-0.05,0.15-0.12,0.27-0.21,0.39c-0.09,0.11-0.2,0.21-0.34,0.29c-0.13,0.08-0.28,0.15-0.44,0.21
			c0.09,0.04,0.17,0.09,0.25,0.15c0.07,0.06,0.14,0.13,0.21,0.22c0.06,0.09,0.12,0.18,0.18,0.29c0.06,0.11,0.11,0.23,0.17,0.37
			l0.49,1.21c0.04,0.1,0.07,0.17,0.08,0.21C116.21,59.17,116.21,59.2,116.21,59.22z M115.11,55.37c0-0.22-0.05-0.4-0.14-0.55
			c-0.1-0.15-0.26-0.26-0.48-0.32c-0.07-0.02-0.15-0.03-0.24-0.04c-0.09-0.01-0.21-0.01-0.35-0.01h-0.62v1.85H114
			c0.19,0,0.36-0.02,0.5-0.07c0.14-0.05,0.26-0.11,0.35-0.2c0.09-0.08,0.16-0.18,0.21-0.29C115.09,55.62,115.11,55.5,115.11,55.37z"
			/>
		<path class="st1" d="M122.61,54.59c0,0.05,0,0.1-0.01,0.14c-0.01,0.04-0.01,0.07-0.03,0.1c-0.01,0.03-0.02,0.05-0.04,0.06
			c-0.02,0.01-0.04,0.02-0.05,0.02c-0.03,0-0.09-0.03-0.17-0.08c-0.08-0.05-0.18-0.11-0.32-0.18c-0.13-0.06-0.29-0.12-0.48-0.18
			c-0.19-0.05-0.41-0.08-0.66-0.08c-0.3,0-0.57,0.05-0.81,0.16c-0.24,0.11-0.44,0.26-0.61,0.46c-0.17,0.2-0.29,0.43-0.38,0.7
			c-0.09,0.27-0.13,0.56-0.13,0.87c0,0.35,0.05,0.66,0.15,0.93c0.1,0.27,0.23,0.5,0.4,0.69c0.17,0.19,0.38,0.33,0.62,0.42
			c0.24,0.1,0.5,0.14,0.79,0.14c0.17,0,0.34-0.02,0.51-0.06c0.17-0.04,0.34-0.1,0.49-0.19v-1.6h-1.27c-0.05,0-0.08-0.02-0.11-0.07
			c-0.02-0.05-0.04-0.12-0.04-0.22c0-0.05,0-0.1,0.01-0.14c0.01-0.04,0.01-0.07,0.03-0.09c0.01-0.02,0.03-0.04,0.04-0.05
			c0.02-0.01,0.04-0.02,0.06-0.02h1.74c0.03,0,0.06,0.01,0.09,0.02c0.03,0.01,0.06,0.03,0.08,0.05c0.03,0.02,0.05,0.05,0.06,0.09
			c0.01,0.04,0.02,0.09,0.02,0.14v2.09c0,0.07-0.01,0.14-0.04,0.19c-0.03,0.05-0.08,0.1-0.16,0.14c-0.08,0.04-0.19,0.09-0.32,0.13
			c-0.13,0.05-0.26,0.09-0.4,0.12c-0.14,0.03-0.28,0.06-0.42,0.08c-0.14,0.02-0.28,0.03-0.42,0.03c-0.42,0-0.8-0.07-1.14-0.2
			c-0.33-0.13-0.62-0.32-0.85-0.56c-0.23-0.24-0.41-0.53-0.53-0.87c-0.12-0.34-0.18-0.72-0.18-1.14c0-0.44,0.07-0.83,0.2-1.18
			c0.13-0.35,0.32-0.65,0.56-0.9c0.24-0.25,0.53-0.44,0.86-0.58c0.34-0.14,0.71-0.21,1.11-0.21c0.21,0,0.41,0.02,0.59,0.05
			c0.18,0.04,0.35,0.08,0.49,0.13c0.14,0.05,0.26,0.1,0.36,0.16c0.1,0.06,0.16,0.11,0.2,0.14c0.04,0.04,0.06,0.08,0.08,0.13
			C122.6,54.43,122.61,54.5,122.61,54.59z"/>
	</g>
	<g>
		<g>
			<path class="st2" d="M129.1,59.33l-0.6-0.48l0.07-0.27c0.04-0.18,0.2-0.68,0.96-2.79c-0.05,0.03-0.1,0.06-0.14,0.1
				c-1.34,0.89-3.01,1.99-4.56,2.67l-0.61,0.27v-1.57l0.26-0.11c3.29-1.42,5.61-3.21,6.17-4.01c0.95-2.12,2.39-5.29,4.27-9.45
				c3.59-7.64,5.34-8.57,6.35-8.61l0.18-0.01l0.13,0.12c0.61,0.57,0.92,1.35,0.92,2.32c0,1.97-0.87,4.19-2.59,6.6
				c-1.12,1.49-2.82,3.74-5.08,6.7c-1.69,2.24-2.88,4.2-3.55,5.86l2.63-1.46c1.44-0.78,2.73-1.17,3.84-1.17
				c0.54,0,0.82,0.24,0.95,0.44c0.14,0.2,0.27,0.53,0.41,1.03l0.03,0.09l-0.02,0.1c-0.03,0.18-0.11,0.52-0.43,1.45l3.61-0.84v1.49
				l-0.3,0.1c-2.24,0.71-3.75,1.06-4.59,1.06h-0.07l-0.83-0.26l-0.2-0.66l0.05-0.13c0.16-0.45,0.33-1.13,0.52-2.01
				c-0.86,0.28-2.03,0.81-3.49,1.61c-1.79,0.97-3.13,1.56-4.1,1.8L129.1,59.33z M141.02,36.56c-0.26,0.06-1.3,0.76-4.19,7.22
				c-0.55,1.29-1.32,3.06-2.29,5.33c1.07-1.3,2.15-2.82,3.25-4.54c2.16-3.36,3.25-5.98,3.25-7.77
				C141.05,36.68,141.03,36.6,141.02,36.56z"/>
		</g>
		<g>
			<path class="st2" d="M145.99,59.23c-1.11,0-1.74-0.7-1.74-1.91c0-0.02,0-0.03,0-0.05l-2.89,0.83v-1.53l0.26,0.06
				c1.39-0.61,2.49-1.09,3.28-1.42c1.52-0.63,2.72-0.93,3.65-0.93c0.53,0,1.02,0.09,1.45,0.28l0.31,0.13l-0.05,0.33
				c-0.02,0.17-0.06,0.31-0.1,0.43c0.05,0.1,0.1,0.2,0.13,0.3l0.05,0.14l-0.05,0.14c-0.02,0.06-0.08,0.22-0.32,0.79
				c-0.07,0.17-0.12,0.3-0.14,0.41c0.03,0.01,0.05,0.01,0.07,0l3.41-0.74v1.49l-0.32,0.09c-2.53,0.72-3.14,0.81-3.39,0.81
				c-0.43,0-0.97-0.13-1.36-0.69C147.36,58.89,146.62,59.23,145.99,59.23z M148.64,55.89c-0.47,0-0.98,0.15-1.49,0.44
				c-0.55,0.32-0.83,0.71-0.87,1.21c0.23-0.01,0.66-0.15,1.38-0.71C148.08,56.51,148.41,56.19,148.64,55.89L148.64,55.89z"/>
		</g>
		<g>
			<path class="st2" d="M164.45,58.77c-1.08,0-1.3-1.29-1.35-2.17l-6.97,2.05l-0.63-0.18l-0.09-0.65c0-0.06,0-0.16,0.13-0.85
				c-0.62,0.28-1.27,0.65-2.32,1.03l-0.75,0.17v-1.5l4.83-2.14c0.32-0.14,0.55-0.05,0.66,0.02c0.34,0.22,0.34,0.67,0.34,0.83
				c0,0.09-0.01,0.22-0.19,0.75c-0.04,0.12-0.07,0.22-0.09,0.3c0.71-0.13,1.67-0.46,2.87-0.97c1.59-0.65,2.8-0.97,3.7-0.97
				c0.47,0,0.77,0.32,0.77,0.8c0,0.14-0.03,0.42-0.25,1.29c0.04,0.08,0.1,0.17,0.16,0.3c0.03,0.06,0.06,0.11,0.08,0.14
				c0.34-0.03,1.01-0.16,2.29-0.53l0.56-0.16v1.52l-0.3,0.1C166.22,58.51,165.09,58.77,164.45,58.77z M164.32,56.96L164.32,56.96
				L164.32,56.96z"/>
		</g>
		<g>
			<path class="st2" d="M172.96,58.84c-0.74,0-1.28-0.25-1.61-0.75c-0.22-0.33-0.36-0.8-0.41-1.41c-0.76,0.33-1.56,0.72-2.82,1.2
				l-0.81,0.26V56.6l0.65-0.19c1.12-0.45,1.65-0.85,3.82-2.05c1.61-0.88,3.05-1.33,4.29-1.33c0.36,0,0.73,0.03,1.11,0.1
				c0.35-1.58,1.06-3.74,2.11-6.44c1.87-4.76,2.78-5.43,3.42-5.45l0.21-0.01l0.14,0.16c0.24,0.29,0.36,0.62,0.36,1
				c0,1.13-0.69,3.18-2.1,6.25c-0.13,0.28-0.88,1.86-2.31,4.85c0.01,1.14,0.15,1.98,0.42,2.49c0.28,0.52,0.74,0.77,1.44,0.77
				c0.23,0,0.77-0.07,2-0.4l0.55-0.15v1.52l-0.28,0.11c-1.07,0.41-1.94,0.62-2.65,0.62c-1.3,0-2.32-0.83-3.04-2.46
				C175.89,57.91,174.41,58.84,172.96,58.84z M173.06,57.15L173.06,57.15L173.06,57.15z M172.92,57.05
				c0.01,0.01,0.02,0.02,0.03,0.03c0.05,0.04,0.09,0.06,0.1,0.06c0.56-0.01,1.25-0.33,2.06-0.95c0.61-0.46,1.12-0.96,1.52-1.49
				c-0.06,0-0.13-0.01-0.19-0.01c-0.7,0-1.43,0.19-2.17,0.57C173.38,55.74,172.94,56.32,172.92,57.05z"/>
		</g>
		<g>
			<path class="st2" d="M205.79,58.84c-0.75,0-1.02-0.91-1.13-1.65c-1.88,0.96-3.55,1.44-4.99,1.44c-0.66,0-1.16-0.18-1.5-0.53
				c-0.26-0.28-0.45-0.72-0.55-1.34c-1.61,0.43-3.95,1.05-6.97,1.82l-0.26,0.07l-0.52-0.6l0.04-0.21c0.04-0.22,0.17-0.63,0.38-1.25
				c-0.19,0.08-0.46,0.23-0.85,0.48c-0.68,0.46-1.19,0.75-1.54,0.88l-0.58,0.21v-1.54l0.28-0.11c0.22-0.09,0.74-0.36,1.99-1.17
				c1-0.65,1.77-0.97,2.35-0.97h0.11l0.58,0.32l0.12,0.52l-0.04,0.12c-0.08,0.22-0.19,0.53-0.31,0.91c1.59-0.44,3.82-0.99,6.63-1.65
				l0.24-0.06l0.65,0.67l-0.03,0.21c-0.03,0.24-0.1,0.62-0.21,1.16c0.24,0.15,0.54,0.22,0.92,0.22c0.67,0,2.04-0.38,4.81-2.17
				l0.11-0.07h0.13c0.36,0,0.79,0.22,0.79,1.26c0,0.47-0.05,0.89-0.14,1.25c0.29-0.03,0.99-0.15,2.68-0.57l0.54-0.13v1.49l-0.3,0.1
				C206.8,58.75,206.1,58.84,205.79,58.84z"/>
		</g>
		<g>
			<path class="st2" d="M213.28,59.22c-1.11,0-1.74-0.7-1.74-1.91c0-0.02,0-0.03,0-0.05l-2.89,0.87v-1.39l0.26-0.11
				c1.38-0.61,2.48-1.09,3.28-1.42c1.52-0.63,2.72-0.93,3.65-0.93c0.53,0,1.02,0.09,1.45,0.28l0.31,0.13l-0.05,0.33
				c-0.02,0.17-0.06,0.31-0.1,0.43c0.05,0.1,0.1,0.2,0.13,0.3l0.05,0.14l-0.05,0.14c-0.03,0.1-0.13,0.34-0.32,0.79
				c-0.07,0.17-0.12,0.3-0.14,0.41c0.03,0.01,0.05,0.01,0.07,0l3.41-0.74v1.49l-0.32,0.09c-2.53,0.72-3.14,0.81-3.39,0.81
				c-0.43,0-0.97-0.13-1.36-0.69C214.65,58.88,213.91,59.22,213.28,59.22z M215.93,55.88c-0.47,0-0.98,0.15-1.49,0.44
				c-0.55,0.32-0.83,0.71-0.87,1.21c0.23-0.01,0.66-0.15,1.38-0.71C215.37,56.5,215.7,56.18,215.93,55.88L215.93,55.88z"/>
		</g>
		<g>
			<path class="st2" d="M225.34,58.84c-0.74,0-1.28-0.25-1.61-0.75c-0.22-0.33-0.36-0.8-0.41-1.41c-0.76,0.33-1.52,0.82-2.78,1.3
				l-0.85,0.16v-1.46l0.47-0.14c1.79-0.66,1.82-0.97,4-2.17c1.61-0.88,3.05-1.33,4.29-1.33c0.36,0,0.73,0.03,1.11,0.1
				c0.35-1.58,1.06-3.74,2.11-6.44c1.87-4.76,2.78-5.43,3.42-5.45l0.21-0.01l0.14,0.16c0.24,0.29,0.36,0.62,0.36,1
				c0,1.13-0.69,3.18-2.1,6.25c-0.13,0.28-0.9,1.91-2.31,4.85c0.01,1.14,0.15,1.98,0.42,2.49c0.28,0.52,0.74,0.77,1.44,0.77
				c0.23,0,0.77-0.07,2-0.4l0.55-0.13v1.5l-0.28,0.11c-1.07,0.41-1.94,0.62-2.65,0.62c-1.3,0-2.32-0.83-3.04-2.46
				C228.27,57.91,226.79,58.84,225.34,58.84z M225.44,57.15L225.44,57.15L225.44,57.15z M225.3,57.05c0.01,0.01,0.02,0.02,0.03,0.03
				c0.05,0.04,0.09,0.06,0.1,0.06c0.56-0.01,1.25-0.33,2.06-0.94c0.61-0.46,1.12-0.96,1.52-1.49c-0.06,0-0.13-0.01-0.19-0.01
				c-0.7,0-1.43,0.19-2.17,0.57C225.76,55.74,225.32,56.32,225.3,57.05z"/>
		</g>
		<g>
			<path class="st2" d="M240.2,59.08c-1.33,0-2.29-0.51-2.86-1.52l-2.41,0.5l0.06-1.63l2.09-0.5c0.22-0.99,0.69-1.79,1.4-2.38
				c0.68-0.57,1.46-0.86,2.34-0.86c1.08,0,1.69,0.59,1.69,1.61c0,0.92-0.55,1.64-1.65,2.15l-0.06,0.02
				c-0.56,0.17-1.12,0.34-1.67,0.53c0.13,0.17,0.45,0.35,1.29,0.35c0.95,0,2.3-0.27,4.02-0.81l0.57-0.18v1.53l-0.31,0.1
				C242.34,58.73,240.87,59.08,240.2,59.08z M240.55,54.36c-0.13,0-0.42,0.07-0.95,0.55c-0.2,0.17-0.35,0.33-0.46,0.49
				c0.2-0.07,0.45-0.17,0.75-0.31c0.49-0.24,0.81-0.49,0.91-0.71C240.74,54.36,240.66,54.36,240.55,54.36z"/>
		</g>
	</g>
</g>
</svg>
