<svg id="Слой_1" xmlns="http://www.w3.org/2000/svg" viewBox="0 0 240 96.85">
  <style>
    .st0{fill:#723287}.st1{fill:#df1d26}.st4{fill:#fff}
  </style>
  <path class="st0" d="M154.62 47.53l-49.1-.01c.07 1.06.42 2.03.98 2.84l2.69 3.94 3.11 4.56c.51.74 1.2 1.38 2.05 1.83.86.45 1.77.66 2.67.66h41.88c.9 0 1.82-.21 2.67-.66l-6.95-13.16z"/>
  <path class="st1" d="M161.57 60.69c.85-.45 1.54-1.08 2.05-1.82l5.82-8.5c.57-.83.92-1.82.98-2.89.06-1.07-.18-2.09-.64-2.97L147.89 2.99a5.769 5.769 0 0 0-2-2.11l-7.93 15.04 23.61 44.77z"/>
  <path d="M127.99 3.06l-15.22 28.88-6.6 12.53c-.47.89-.71 1.91-.65 2.99 0 .02.01.03.01.05h15.79l16.65-31.6L145.9.87c-.02-.01-.03-.02-.05-.03-.92-.56-1.94-.82-2.95-.82h-9.84c-1.01 0-2.03.26-2.95.82-.94.56-1.65 1.33-2.12 2.22" fill="#f8a445"/>
  <path d="M0 91.45v3.35c0 .52.2 1.04.6 1.44.39.4.92.6 1.44.6h235.92c.52 0 1.05-.21 1.45-.6.39-.4.59-.92.59-1.44v-3.35H0z" fill="#0a0a0a"/>
  <path class="st1" d="M0 91.46c0 .52.2 1.05.6 1.44.4.4.92.6 1.44.6h235.92c.52 0 1.05-.2 1.45-.59.39-.4.59-.92.59-1.44V72.83c0-.52-.2-1.04-.59-1.44-.4-.4-.92-.6-1.45-.6H2.04c-.52 0-1.04.2-1.44.6-.4.4-.6.92-.6 1.44v18.63z"/>
  <path class="st0" d="M20.98 27.48h-5.74V13.85h5.74c2.63 0 7.67 1.5 7.67 6.64 0 4.37-2.91 6.99-7.67 6.99M19.54.03H2.04C1.52.03 1 .23.6.63c-.4.39-.6.92-.6 1.44v57.24c0 .52.2 1.05.6 1.44.4.4.92.6 1.44.6H13.2c.53 0 1.05-.2 1.45-.6.4-.4.6-.92.6-1.44V41.45h4.29c19.45 0 24.44-11.41 24.44-20.26C43.98 2 26.49.03 19.54.03zM193.09 47.52l4.94-.04c2.64 0 7.68-1.5 7.68-6.64 0-4.36-2.92-6.98-7.68-6.98h-4.94v13.66zM177.83 2.08c0-.52.21-1.04.6-1.44.4-.4.92-.64 1.44-.64h11.18c.52 0 1.05.24 1.44.64.4.4.6.92.6 1.44v17.96h3.8c19.45 0 24.45 11.4 24.45 20.25 0 8.76-4.91 21.05-24.45 21.05h-17.02c-.52 0-1.04-.2-1.44-.6-.4-.4-.6-.92-.6-1.44V2.08zM240 47.64V2.1c0-.52-.2-1.04-.59-1.44-.4-.39-.93-.64-1.45-.64H226.8c-.53 0-1.05.25-1.44.64-.4.4-.59.92-.59 1.44v57.21c0 .52.19 1.05.59 1.44.4.4.92.6 1.44.6h11.16c.52 0 1.05-.2 1.45-.6.4-.4.59-.92.59-1.44V47.64z"/>
  <path class="st4" d="M20.72 85.69c1.53 0 2.42-1.47 2.42-3.61 0-2.03-.91-3.58-2.46-3.58-1.52 0-2.46 1.55-2.46 3.6-.02 2.12.94 3.6 2.46 3.6h.04zm-.16 2.52c-3.66 0-5.68-2.76-5.68-6.04 0-3.44 2.25-6.18 5.88-6.18 3.81 0 5.74 2.82 5.74 5.98 0 3.8-2.28 6.23-5.91 6.23h-.03zM55.08 76.18v11.83H51.9v-9.23h-3.64v9.23h-3.18V76.18zM76.41 78.85H73.4v-2.67h9.27v2.67h-3.08v9.16h-3.18zM106.25 85.69c1.53 0 2.42-1.47 2.42-3.61 0-2.03-.91-3.58-2.46-3.58-1.52 0-2.45 1.55-2.45 3.6-.02 2.12.93 3.6 2.45 3.6h.04zm-.16 2.52c-3.67 0-5.69-2.76-5.69-6.04 0-3.44 2.25-6.18 5.88-6.18 3.81 0 5.74 2.82 5.74 5.98 0 3.8-2.28 6.23-5.91 6.23h-.02zM133.74 76.18v4.78h.14l2.91-4.78h3.86l-3.98 5.18c1.35.42 1.99 1.4 2.44 2.76.42 1.3.83 2.65 1.39 3.89h-3.4c-.39-.81-.58-1.67-.82-2.52-.35-1.23-.83-2.23-2.02-2.23h-.51v4.76h-3.13V76.18h3.12zM168.63 76.18v11.83h-3.17v-9.23h-2.14v2.47c0 3.25-.49 5.37-2.33 6.37-.67.37-1.52.6-2.6.6l-.39-2.54c.63-.09 1.07-.31 1.39-.65.64-.66.84-1.84.84-3.58v-5.26h8.4zM190.38 76.14l1.44 3.92c.33.88.56 1.61.82 2.33h.06c.12-.47.32-1.3.62-2.38l1.03-3.87h3.33l-2.11 5.73c-.75 1.95-1.49 3.72-2.38 4.81-.78.98-1.81 1.62-3.35 1.62-.7 0-1.1-.09-1.51-.23l.21-2.55c.26.07.56.1 1.02.1.65 0 1.14-.27 1.3-.68a.49.49 0 0 0-.05-.47l-4-8.32h3.57zM218.9 85.73c.28.03.61.05.93.05.52 0 1.03-.16 1.41-.47.34-.28.55-.7.55-1.21 0-.45-.2-.82-.5-1.08-.42-.35-1.03-.5-1.56-.5-.28 0-.53.04-.84.07v3.14zm5.26-9.55v2.58h-5.24v1.53c.44-.06.95-.09 1.44-.09 1.24 0 2.55.34 3.45 1.04.79.61 1.32 1.54 1.32 2.8 0 1.18-.47 2.11-1.2 2.72-1.18 1.03-3.19 1.38-5.07 1.38-1.44 0-2.46-.09-3.1-.21V76.18h8.4z"/>
  <path class="st0" d="M82.49 27.45h-6.82c-1.78 0-2.91-.03-4.41-.21-3.34-.42-5.26-3.14-5.26-6.73 0-3.23 2.09-5.61 5.47-6.34 1.35-.29 2.91-.33 4.3-.33h6.71v13.61zM97.72 2.17c0-.52-.2-1.11-.6-1.51-.4-.39-.92-.64-1.44-.64H76.65C67.4.02 49.76 2.18 49.76 21.2c0 6.09 3.62 13.62 10.48 17.18L47.9 59.33c-.23.39-.25.91 0 1.34.24.44.7.68 1.16.68H63.4c.59 0 1.18-.16 1.72-.48.54-.33.94-.79 1.21-1.32L76 41.26l6.48.02v18.03c0 .52.2 1.05.6 1.44.4.4.92.6 1.44.6h11.16c.52 0 1.04-.2 1.45-.6.39-.4.6-1.07.6-1.59l-.01-56.99z"/>
</svg>
