<?xml version="1.0" encoding="utf-8"?>
<!-- Generator: Adobe Illustrator 23.0.1, SVG Export Plug-In . SVG Version: 6.00 Build 0)  -->
<svg version="1.1" id="Layer_1" xmlns="http://www.w3.org/2000/svg" xmlns:xlink="http://www.w3.org/1999/xlink" x="0px" y="0px"
	 viewBox="0 0 353.1 68.3" style="enable-background:new 0 0 353.1 68.3;" xml:space="preserve">
<style type="text/css">
	.st0{fill:#BC0054;}
	.st1{fill:#FFFFFF;}
</style>
<g>
	<rect class="st0" width="353.1" height="68.3"/>
	<g>
		<g>
			<path class="st1" d="M271.6,47.8c-3.8,3.5-8.8,5.3-14.9,5.3h-15.9v-38h16.3c6,0,10.8,1.8,14.6,5.3c3.7,3.5,5.6,8.1,5.6,13.7
				C277.3,39.7,275.4,44.3,271.6,47.8z"/>
			<path class="st0" d="M256.9,22.8h-6.5v22.6h6.9c3,0,5.4-1,7.3-3.1c1.9-2.1,2.9-4.8,2.9-8.1s-1-6-3-8.2S260,22.8,256.9,22.8z"/>
		</g>
		<g>
			<path class="st1" d="M122.2,47.6c-3.8,3.7-8.6,5.5-14.4,5.5c-5.7,0-10.5-1.8-14.4-5.5s-5.8-8.2-5.8-13.7c0-5.4,1.9-9.9,5.8-13.5
				s8.6-5.4,14.4-5.4c5.8,0,10.6,1.8,14.4,5.4c3.8,3.6,5.8,8.1,5.8,13.5C128,39.5,126.1,44,122.2,47.6z"/>
			<path class="st0" d="M107.9,23.1c-2.9,0-5.4,1.1-7.4,3.2s-3.1,4.7-3.1,7.9s1,5.8,3.1,7.9s4.6,3.2,7.4,3.2c2.9,0,5.3-1.1,7.3-3.2
				c2-2.1,3-4.8,3-7.9c0-3.1-1-5.7-3-7.9C113.3,24.1,110.8,23.1,107.9,23.1z"/>
		</g>
		<g>
			<path class="st1" d="M158.2,38.7c-2.7,2.5-6.4,3.7-11.3,3.7h-6.9v10.7h-9.7v-38h16.6c4.9,0,8.6,1.2,11.3,3.4s4,5.6,4,9.8
				C162.3,32.8,160.9,36.3,158.2,38.7z"/>
			<path class="st0" d="M146.5,22.7h-6.4v12.1h6.4c2.1,0,3.8-0.5,4.9-1.6s1.7-2.6,1.7-4.6c0-2-0.6-3.4-1.7-4.4
				C150.2,23.2,148.6,22.7,146.5,22.7z"/>
		</g>
		<g>
			<polygon class="st1" points="313.6,53.1 310.9,46.1 294.3,46.1 291.5,53.1 291.5,30.1 298,15.1 307.9,15.1 323.9,53.1 			"/>
			<polygon class="st0" points="297.1,38.8 308.1,38.8 302.6,24.7 			"/>
		</g>
		<polygon class="st1" points="238.2,15.1 238.2,22.7 218.1,22.7 218.1,30.3 236.3,30.3 236.3,37.9 220.8,37.9 208.6,15.1 		"/>
		<path class="st1" d="M57,51.3c-2.8,1.2-5.5,1.9-8.2,1.9c-5.6,0-10.3-1.8-14-5.5c-3.7-3.7-5.6-8.2-5.6-13.7c0-5.4,1.9-9.8,5.7-13.4
			c3.8-3.6,8.5-5.4,14.2-5.4c1,0,2,0.1,2.9,0.2l6.5,12.5c-1.2-1.5-2.6-2.6-4.3-3.5c-1.7-0.9-3.4-1.3-5-1.3c-3,0-5.4,1-7.4,3.1
			s-3,4.6-3,7.7c0,3.1,1,5.7,3,7.8c2,2.1,4.5,3.1,7.4,3.1c1.6,0,3.2-0.4,4.9-1.2c1.7-0.8,3.2-1.8,4.5-3.2l0.1,0.1l3.8,7.3
			C60.9,49.2,59,50.3,57,51.3z"/>
		<path class="st1" d="M75.4,53.1l-9.7-18.3h3.8c2.1,0,3.7-0.5,4.9-1.6c1.2-1,1.7-2.6,1.7-4.6c0-2-0.6-3.4-1.7-4.4
			c-1.2-1-2.8-1.5-4.9-1.5h-7.3v5.4l-6.8-13h14.1c5,0,8.9,1.1,11.7,3.5s4.1,5.6,4.1,9.8c0,5.9-2.3,9.9-6.9,12.2l8,12.5L75.4,53.1
			L75.4,53.1z"/>
		<polygon class="st1" points="207.8,49.3 201.5,49.3 192.4,28.5 192.4,53.1 183.8,53.1 183.8,15.1 194.4,15.1 204.6,37.7 210.4,25 
			214.8,33.2 		"/>
		<polygon class="st1" points="225.4,53.1 216.9,53.1 216.9,37 225.4,52.8 		"/>
		<polygon class="st1" points="238.8,53.1 229.1,53.1 225,45.5 238.8,45.5 		"/>
		<rect x="279.5" y="15.1" class="st1" width="9.7" height="38"/>
	</g>
</g>
</svg>
