<?xml version="1.0" encoding="utf-8"?>
<!-- Generator: Adobe Illustrator 23.0.1, SVG Export Plug-In . SVG Version: 6.00 Build 0)  -->
<svg version="1.1" id="Var1" xmlns="http://www.w3.org/2000/svg" xmlns:xlink="http://www.w3.org/1999/xlink" x="0px" y="0px"
	 viewBox="0 0 148.95 148.95" style="enable-background:new 0 0 148.95 148.95;" xml:space="preserve">
<style type="text/css">
	.st0{fill:#FFFFFF;}
</style>
<g id="instagram_1_">
	<path class="st0" d="M74.47,13.42c19.89,0,22.24,0.08,30.09,0.43c7.26,0.33,11.2,1.54,13.83,2.56c3.48,1.35,5.96,2.97,8.56,5.57
		c2.61,2.61,4.22,5.09,5.57,8.56c1.02,2.62,2.23,6.57,2.56,13.83c0.36,7.85,0.43,10.21,0.43,30.09s-0.08,22.24-0.43,30.09
		c-0.33,7.26-1.54,11.2-2.56,13.83c-1.35,3.48-2.96,5.96-5.57,8.56c-2.61,2.61-5.09,4.22-8.56,5.57c-2.62,1.02-6.57,2.23-13.83,2.56
		c-7.85,0.36-10.21,0.43-30.09,0.43s-22.24-0.08-30.09-0.43c-7.26-0.33-11.2-1.54-13.83-2.56c-3.48-1.35-5.96-2.96-8.56-5.57
		c-2.61-2.61-4.22-5.09-5.57-8.56c-1.02-2.62-2.23-6.57-2.56-13.83c-0.36-7.85-0.43-10.21-0.43-30.09s0.08-22.24,0.43-30.09
		c0.33-7.26,1.54-11.2,2.56-13.83c1.35-3.48,2.96-5.96,5.57-8.56c2.61-2.61,5.09-4.22,8.56-5.57c2.62-1.02,6.57-2.23,13.83-2.56
		C52.23,13.49,54.59,13.42,74.47,13.42 M74.47,0C54.25,0,51.71,0.09,43.77,0.45c-7.93,0.36-13.34,1.62-18.08,3.46
		c-4.9,1.9-9.05,4.45-13.19,8.59s-6.69,8.29-8.59,13.19c-1.84,4.74-3.1,10.15-3.46,18.08C0.09,51.71,0,54.25,0,74.47
		c0,20.23,0.09,22.76,0.45,30.71c0.36,7.93,1.62,13.34,3.46,18.08c1.9,4.9,4.45,9.05,8.59,13.19c4.14,4.14,8.29,6.69,13.19,8.59
		c4.74,1.84,10.15,3.1,18.08,3.46c7.94,0.36,10.48,0.45,30.71,0.45s22.76-0.09,30.71-0.45c7.93-0.36,13.34-1.62,18.08-3.46
		c4.9-1.9,9.05-4.45,13.19-8.59c4.14-4.14,6.69-8.29,8.59-13.19c1.84-4.74,3.1-10.15,3.46-18.08c0.36-7.94,0.45-10.48,0.45-30.71
		s-0.09-22.76-0.45-30.71c-0.36-7.93-1.62-13.34-3.46-18.08c-1.9-4.9-4.45-9.05-8.59-13.19c-4.14-4.14-8.29-6.69-13.19-8.59
		c-4.74-1.84-10.15-3.1-18.08-3.46C97.24,0.09,94.7,0,74.47,0L74.47,0z"/>
	<path class="st0" d="M74.47,36.23c-21.12,0-38.24,17.12-38.24,38.24s17.12,38.24,38.24,38.24s38.24-17.12,38.24-38.24
		S95.6,36.23,74.47,36.23z M74.47,99.3c-13.71,0-24.82-11.11-24.82-24.82s11.11-24.82,24.82-24.82S99.3,60.76,99.3,74.47
		S88.18,99.3,74.47,99.3z"/>
	<circle class="st0" cx="114.23" cy="34.72" r="8.94"/>
</g>
</svg>
