<?xml version="1.0" encoding="utf-8"?>
<!-- Generator: Adobe Illustrator 23.0.1, SVG Export Plug-In . SVG Version: 6.00 Build 0)  -->
<svg version="1.1" id="Var1" xmlns="http://www.w3.org/2000/svg" xmlns:xlink="http://www.w3.org/1999/xlink" x="0px" y="0px"
	 viewBox="0 0 191.57 109.29" style="enable-background:new 0 0 191.57 109.29;" xml:space="preserve">
<style type="text/css">
	.st0{fill-rule:evenodd;clip-rule:evenodd;fill:#FFFFFF;}
</style>
<path id="vk_x5F_alt_1_" class="st0" d="M93.73,108.83h11.45c0,0,3.46-0.38,5.23-2.28c1.63-1.75,1.57-5.03,1.57-5.03
	s-0.22-15.36,6.91-17.63c7.03-2.23,16.06,14.85,25.62,21.42c7.24,4.97,12.73,3.88,12.73,3.88l25.58-0.36c0,0,13.38-0.83,7.04-11.35
	c-0.52-0.86-3.7-7.78-19.02-22.01c-16.04-14.89-13.89-12.48,5.43-38.23c11.77-15.68,16.47-25.26,15-29.36
	C189.87,3.97,181.21,5,181.21,5l-28.8,0.18c0,0-2.14-0.29-3.72,0.66c-1.55,0.93-2.54,3.09-2.54,3.09s-4.56,12.14-10.64,22.46
	c-12.83,21.78-17.96,22.93-20.05,21.58c-4.88-3.15-3.66-12.66-3.66-19.42c0-21.11,3.2-29.91-6.23-32.19
	c-3.13-0.76-5.44-1.25-13.45-1.34c-10.28-0.1-18.98,0.03-23.9,2.45c-3.28,1.6-5.81,5.18-4.26,5.39c1.9,0.25,6.21,1.16,8.5,4.27
	c2.95,4.02,2.85,13.03,2.85,13.03S77,50.01,71.34,53.1c-3.88,2.12-9.21-2.2-20.64-21.97C44.84,21.01,40.41,9.82,40.41,9.82
	s-0.85-2.09-2.37-3.21c-1.85-1.36-4.42-1.79-4.42-1.79L6.24,5c0,0-4.11,0.11-5.62,1.9c-1.34,1.59-0.11,4.88-0.11,4.88
	s21.43,50.14,45.69,75.4C68.46,110.35,93.73,108.83,93.73,108.83L93.73,108.83L93.73,108.83z"/>
</svg>
