<svg id="Слой_1" xmlns="http://www.w3.org/2000/svg" viewBox="0 0 250 60.63">
  <path class="st0" d="M28.54 15.76h-5.39v-13h-4.07V23.3h6.09v1.22h-6.09v23.21h1.69v1.22h-8.8v-1.22h1.69V2.77h-1.69V1.54h16.57v14.22zM70.21 48.96h-8.8v-1.22h1.69l-1.22-13.76h-4.86l-1.36 13.76h1.69v1.22h-5.09v-1.22h1.69l4.76-46.2h5.42l4.4 46.2h1.69v1.22zm-8.4-16.17L59.56 7.16l-2.48 25.63h4.73zM113.2 48.96h-2.35c-3.18 0-4.76-1.65-4.76-4.96V27.24c0-.75-.26-1.39-.79-1.92s-1.17-.79-1.92-.79h-2.35v23.21h1.69v1.22h-8.8v-1.22h1.69V2.77h-1.69V1.54h9.46c2.25 0 4.17.68 5.76 2.03 1.59 1.36 2.38 2.98 2.38 4.88v9.16c0 2.95-1.58 5.05-4.73 6.28 3.15 1.32 4.73 3.43 4.73 6.32v15.71c0 1.21.52 1.82 1.55 1.82h.13v1.22zm-7.11-28.37V5.48c0-.75-.26-1.39-.79-1.92s-1.17-.79-1.92-.79h-2.35V23.3h2.35c.75 0 1.39-.26 1.92-.79s.79-1.17.79-1.92zM154.87 2.77h-1.69v46.2h-4.33l-8.2-36.9v35.68h1.69v1.22h-5.06v-1.22h1.69V2.77h-1.69V1.54h6.85l7.38 32.94V2.77h-1.69V1.54h5.06v1.23zM196.21 48.96h-16.93v-1.22h1.69V2.77h-1.69V1.54h16.93v14.22h-5.42v-13h-4.4V23.3h6.42v1.22h-6.42v23.21h4.4v-13h5.42v14.23zM238.54 42.38c0 1.9-.79 3.52-2.38 4.88-1.59 1.36-3.51 2.03-5.76 2.03-2.23 0-4.14-.68-5.74-2.03-1.6-1.36-2.4-2.98-2.4-4.88V8.12c0-1.9.8-3.52 2.4-4.88 1.6-1.36 3.51-2.03 5.74-2.03 2.25 0 4.17.68 5.76 2.03 1.59 1.36 2.38 2.98 2.38 4.88v34.26zm-5.42 2.98V5.15c0-.75-.26-1.39-.79-1.92s-1.17-.79-1.92-.79-1.39.26-1.92.79-.79 1.17-.79 1.92v40.21c0 .75.27 1.39.79 1.92.53.53 1.17.79 1.92.79s1.39-.26 1.92-.79.79-1.17.79-1.92z"/>
  <g>
    <path class="st1" d="M7.88 54.16c0 .05 0 .1-.01.14-.01.04-.02.07-.03.1a.12.12 0 0 1-.05.05c-.02.01-.04.02-.06.02h-2v1.86h1.9c.02 0 .04.01.06.02.02.01.03.03.05.05.01.02.02.05.03.09.01.04.01.09.01.15 0 .05 0 .1-.01.14-.01.04-.02.07-.03.09a.12.12 0 0 1-.05.05c-.02.01-.04.02-.06.02h-1.9v2.29c0 .02-.01.04-.02.06-.01.02-.03.03-.06.04-.03.01-.07.02-.11.03-.05.01-.11.01-.18.01-.07 0-.13 0-.17-.01a.53.53 0 0 1-.11-.03c-.03-.01-.05-.02-.06-.04-.01-.03-.02-.05-.02-.07v-5.08c0-.11.03-.19.09-.23a.34.34 0 0 1 .18-.07h2.47c.02 0 .04.01.06.02.02.01.03.03.05.05.01.03.02.06.03.1v.15zM13.95 59.22c0 .02 0 .04-.01.06-.01.02-.03.03-.06.04-.03.01-.07.02-.12.03-.05.01-.12.01-.2.01-.07 0-.13 0-.18-.01-.05-.01-.08-.02-.11-.03-.03-.01-.05-.03-.07-.05-.02-.02-.03-.05-.04-.09l-.5-1.29c-.06-.15-.12-.28-.18-.41-.06-.12-.14-.23-.23-.32a.945.945 0 0 0-.31-.21 1.1 1.1 0 0 0-.43-.08h-.49v2.34c0 .02-.01.04-.02.06-.01.02-.03.03-.06.04-.03.01-.06.02-.11.03-.05.01-.11.01-.18.01-.07 0-.13 0-.18-.01-.05-.01-.08-.02-.11-.03-.03-.01-.05-.02-.06-.04-.01-.02-.02-.04-.02-.06v-5.08c0-.11.03-.19.09-.23a.34.34 0 0 1 .18-.07h1.17c.14 0 .25 0 .35.01.09.01.17.01.25.02.21.04.4.09.56.17.16.08.3.18.41.3.11.12.19.26.25.42.05.16.08.33.08.52 0 .18-.02.35-.07.49a1.214 1.214 0 0 1-.55.68c-.13.08-.28.15-.44.21.09.04.17.09.25.15.07.06.14.13.21.22.06.09.12.18.18.29.06.11.11.23.17.37l.49 1.21c.04.1.07.17.08.21.01.07.01.1.01.12zm-1.1-3.85c0-.22-.05-.4-.14-.55a.808.808 0 0 0-.48-.32c-.07-.02-.15-.03-.24-.04-.09-.01-.21-.01-.35-.01h-.62v1.85h.71c.19 0 .36-.02.5-.07a.92.92 0 0 0 .35-.2c.09-.08.16-.18.21-.29.04-.12.06-.24.06-.37zM20.82 56.53c0 .44-.05.84-.16 1.2-.1.36-.26.66-.47.91-.21.25-.47.44-.78.58-.31.14-.68.2-1.1.2-.41 0-.77-.06-1.07-.19-.3-.12-.55-.3-.75-.54-.2-.23-.34-.52-.44-.87-.1-.35-.14-.75-.14-1.2 0-.43.05-.83.16-1.18.1-.35.26-.65.47-.9.21-.25.47-.44.78-.57.31-.13.68-.2 1.1-.2.4 0 .76.06 1.06.18.3.12.55.3.75.53.2.23.35.52.45.87.09.34.14.73.14 1.18zm-.77.05c0-.31-.03-.6-.08-.87s-.15-.5-.28-.7c-.13-.2-.3-.35-.52-.46-.21-.11-.48-.17-.8-.17-.32 0-.58.06-.8.18-.21.12-.39.28-.52.47-.13.2-.23.43-.29.69-.06.26-.09.54-.09.83 0 .32.03.62.08.89s.14.51.27.7c.13.2.3.35.51.46.21.11.48.16.8.16.32 0 .59-.06.8-.18.22-.12.39-.28.53-.48.13-.2.23-.44.28-.7.08-.25.11-.53.11-.82zM29.25 59.22c0 .02-.01.04-.02.06-.01.02-.03.03-.06.04-.03.01-.07.02-.11.03-.05.01-.1.01-.18.01-.07 0-.12 0-.17-.01a.53.53 0 0 1-.11-.03c-.03-.01-.05-.02-.06-.04-.01-.02-.02-.04-.02-.06v-4.78h-.01l-1.93 4.8c-.01.02-.02.04-.04.05-.02.01-.04.03-.07.04a.36.36 0 0 1-.11.02c-.04.01-.09.01-.15.01s-.11 0-.15-.01c-.04-.01-.08-.01-.11-.02a.161.161 0 0 1-.07-.04.055.055 0 0 1-.03-.05L24 54.44v4.78c0 .02-.01.04-.02.06-.01.02-.03.03-.06.04-.03.01-.07.02-.11.03-.05.01-.11.01-.18.01-.07 0-.13 0-.17-.01-.05-.01-.08-.02-.11-.03-.03-.01-.05-.02-.06-.04-.01-.02-.02-.04-.02-.06v-5.05c0-.12.03-.2.1-.25.06-.05.13-.08.21-.08h.45c.09 0 .17.01.24.03a.494.494 0 0 1 .31.22c.03.06.06.12.09.2l1.57 3.97h.02l1.63-3.96c.03-.09.07-.16.1-.22a.58.58 0 0 1 .12-.14.36.36 0 0 1 .15-.08c.05-.02.12-.02.19-.02h.47c.04 0 .08.01.12.02.04.01.07.03.1.06s.05.06.07.1c.02.04.03.09.03.15v5.05zM38.22 57.79c0 .26-.05.49-.14.69-.1.2-.23.37-.4.51s-.37.25-.59.32c-.23.07-.47.11-.74.11-.18 0-.35-.02-.51-.05-.16-.03-.3-.07-.42-.11a1.505 1.505 0 0 1-.48-.26.273.273 0 0 1-.07-.13c-.02-.05-.02-.12-.02-.21 0-.06 0-.11.01-.16.01-.04.01-.07.03-.1.01-.03.03-.04.04-.05.02-.01.04-.01.06-.01.04 0 .1.02.17.07s.16.1.28.16c.11.06.25.11.41.16.16.05.34.07.55.07.16 0 .3-.02.43-.06.13-.04.24-.1.34-.18.09-.08.17-.17.22-.29.05-.11.08-.24.08-.39 0-.16-.04-.29-.11-.4a.964.964 0 0 0-.28-.29c-.12-.08-.25-.16-.4-.23-.15-.07-.3-.14-.46-.21-.16-.07-.31-.15-.45-.24-.15-.09-.28-.19-.39-.31-.12-.12-.21-.26-.28-.42-.07-.16-.11-.35-.11-.57 0-.23.04-.43.13-.61.08-.18.2-.33.35-.45.15-.12.33-.21.53-.28.2-.06.43-.1.66-.1.12 0 .24.01.37.03.12.02.24.05.35.08.11.04.21.08.29.12.08.04.14.08.17.11s.04.05.05.06c.01.02.02.03.02.06.01.02.01.05.01.09v.13c0 .05 0 .1-.01.14 0 .04-.01.07-.02.1s-.02.05-.04.06c-.02.01-.03.02-.05.02-.03 0-.08-.02-.15-.06-.07-.04-.15-.08-.24-.13-.1-.05-.21-.09-.34-.14a1.51 1.51 0 0 0-.44-.06c-.15 0-.29.02-.4.06-.11.04-.21.1-.28.16-.07.07-.13.15-.17.24-.04.09-.05.19-.05.3 0 .15.04.28.11.39.07.11.17.21.28.29.12.09.25.16.4.23.15.07.3.14.46.21.16.07.31.15.46.24.15.09.28.19.4.31s.21.26.28.42c.06.16.1.35.1.56zM44.61 59.07c.02.06.04.11.04.15 0 .04-.01.07-.03.09-.02.02-.06.03-.11.04-.05.01-.12.01-.21.01s-.16 0-.21-.01c-.05 0-.09-.01-.12-.02s-.05-.02-.06-.04a.21.21 0 0 0-.04-.06l-.47-1.34h-2.28l-.45 1.32c-.01.03-.02.05-.03.07-.01.02-.04.03-.06.05-.03.01-.07.02-.11.03-.05.01-.11.01-.19.01s-.15 0-.2-.01c-.05-.01-.09-.02-.11-.04-.02-.02-.03-.05-.03-.09 0-.04.01-.09.04-.15l1.84-5.1c.01-.03.03-.06.04-.08.02-.02.05-.04.08-.05.04-.01.08-.02.14-.02.05 0 .13-.01.21-.01.09 0 .17 0 .22.01.06.01.11.01.14.02.04.01.07.03.08.05.02.02.04.05.05.08l1.83 5.09zm-2.36-4.5l-.95 2.74h1.91l-.96-2.74zM47.56 59.22c0 .02-.01.04-.02.06-.01.02-.03.03-.06.04-.03.01-.07.02-.11.03-.05.01-.11.01-.18.01-.07 0-.13 0-.17-.01a.53.53 0 0 1-.11-.03c-.03-.01-.05-.02-.06-.04-.01-.02-.02-.04-.02-.06v-5.27c0-.02.01-.04.02-.06.01-.02.03-.03.06-.04.03-.01.07-.02.11-.03.05-.01.1-.01.17-.01s.13 0 .18.01c.05.01.08.02.11.03.03.01.05.02.06.04.01.02.02.04.02.06v5.27zM54.47 59.03c0 .06-.01.1-.03.14a.36.36 0 0 1-.07.1c-.03.03-.06.04-.1.06-.04.01-.08.02-.11.02h-.24c-.08 0-.14-.01-.2-.02a.367.367 0 0 1-.16-.09c-.05-.04-.1-.1-.15-.17-.05-.07-.11-.16-.16-.27l-1.67-3.12c-.09-.16-.18-.33-.26-.51-.09-.18-.17-.35-.25-.52h-.01c.01.2.01.41.01.62v3.94c0 .02-.01.04-.02.06-.01.02-.03.03-.06.04-.03.01-.07.02-.11.03-.05.01-.1.01-.18.01-.07 0-.13 0-.18-.01-.05-.01-.08-.02-.11-.03-.03-.01-.05-.02-.06-.04-.01-.02-.02-.04-.02-.06v-5.06c0-.11.03-.19.1-.24.06-.05.13-.07.21-.07H51c.08 0 .16.01.21.02.06.01.11.04.15.07.05.03.09.08.13.14.04.06.09.13.13.22l1.29 2.41c.08.15.16.29.23.43s.14.28.21.41c.07.14.14.27.2.4.07.13.13.26.2.4-.01-.22-.01-.46-.01-.7V53.96c0-.02.01-.04.02-.05.01-.02.03-.03.06-.04.03-.01.07-.02.11-.03.05-.01.11-.01.18-.01.07 0 .12 0 .17.01.05.01.09.02.11.03.03.01.05.03.06.04.01.02.02.04.02.05v5.07zM60.67 54.16c0 .05 0 .1-.01.14-.01.04-.01.07-.03.1a.12.12 0 0 1-.05.05c-.02.01-.04.02-.06.02h-1.54v4.76c0 .02-.01.04-.02.06-.01.02-.03.03-.06.04-.03.01-.07.02-.11.03-.05.01-.11.01-.18.01-.07 0-.13 0-.17-.01a.53.53 0 0 1-.11-.03c-.03-.01-.05-.02-.06-.04-.01-.02-.02-.04-.02-.06v-4.76h-1.54c-.02 0-.04-.01-.06-.02-.02-.01-.03-.03-.04-.05a.621.621 0 0 1-.03-.1c-.01-.04-.01-.09-.01-.14 0-.05 0-.1.01-.14.01-.04.02-.08.03-.1.01-.02.03-.04.04-.05.02-.01.04-.02.06-.02h3.82c.02 0 .04.01.06.02.02.01.03.03.05.05.01.03.02.06.03.1-.01.04 0 .09 0 .14zM63.72 57.19c0 .11-.01.18-.04.23-.03.04-.06.06-.11.06H61.8c-.05 0-.09-.02-.11-.07-.03-.04-.04-.12-.04-.23 0-.11.01-.18.04-.23.03-.04.06-.06.11-.06h1.77c.02 0 .04.01.06.01.02.01.03.02.05.05a.465.465 0 0 1 .04.24zM69.42 55.45c0 .27-.05.52-.14.74-.09.22-.22.41-.39.56-.17.16-.37.28-.62.36-.24.09-.54.13-.88.13h-.62v1.98c0 .02-.01.04-.02.06-.01.02-.03.03-.06.04-.03.01-.06.02-.11.03-.05.01-.11.01-.18.01-.07 0-.13 0-.18-.01-.05-.01-.08-.02-.11-.03-.03-.01-.05-.02-.06-.04-.01-.02-.02-.04-.02-.06v-5.06c0-.11.03-.19.09-.24.06-.05.13-.07.2-.07h1.17a3.77 3.77 0 0 1 .73.08c.15.03.3.09.45.18a1.41 1.41 0 0 1 .64.78c.08.17.11.36.11.56zm-.77.06c0-.22-.04-.41-.13-.56a.828.828 0 0 0-.31-.33c-.12-.07-.25-.12-.38-.14-.13-.02-.26-.03-.38-.03h-.67v2.2h.66c.22 0 .4-.03.55-.09.15-.06.27-.13.37-.23.1-.1.17-.22.22-.36.04-.14.07-.29.07-.46zM74.89 59.03c0 .05 0 .1-.01.13-.01.04-.02.07-.03.1-.01.03-.03.04-.05.05-.02.01-.04.02-.06.02h-2.63c-.07 0-.13-.02-.18-.07-.06-.04-.09-.12-.09-.23v-4.89c0-.11.03-.19.09-.23a.34.34 0 0 1 .18-.07h2.6c.02 0 .04.01.06.02.02.01.03.03.04.05.01.03.02.06.03.1.01.04.01.09.01.14 0 .05 0 .1-.01.13-.01.04-.02.07-.03.09-.01.02-.03.04-.04.05-.02.01-.04.02-.06.02h-2.15v1.72h1.84c.02 0 .04.01.06.02.02.01.03.03.05.05.01.02.02.05.03.09.01.04.01.09.01.14 0 .05 0 .09-.01.13-.01.04-.01.07-.03.09a.12.12 0 0 1-.05.05c-.02.01-.04.02-.06.02h-1.84v1.96h2.18c.02 0 .04.01.06.02.02.01.03.03.05.05.01.02.02.05.03.09.01.06.01.1.01.16zM80.82 54.16c0 .05 0 .1-.01.14-.01.04-.01.07-.03.1s-.03.04-.05.05c-.02.01-.04.02-.06.02h-1.54v4.76c0 .02-.01.04-.02.06-.01.02-.03.03-.06.04-.03.01-.07.02-.11.03-.05.01-.11.01-.18.01-.07 0-.13 0-.17-.01a.53.53 0 0 1-.11-.03c-.03-.01-.05-.02-.06-.04-.01-.02-.02-.04-.02-.06v-4.76h-1.54c-.02 0-.04-.01-.06-.02-.02-.01-.03-.03-.04-.05a.621.621 0 0 1-.03-.1c-.01-.04-.01-.09-.01-.14 0-.05 0-.1.01-.14.01-.04.02-.08.03-.1.01-.02.03-.04.04-.05.02-.01.04-.02.06-.02h3.82c.02 0 .04.01.06.02.02.01.03.03.05.05.01.03.02.06.03.1-.01.04 0 .09 0 .14zM85.97 59.03c0 .05 0 .1-.01.13-.01.04-.02.07-.03.1-.01.03-.03.04-.05.05-.02.01-.04.02-.06.02h-2.63c-.07 0-.13-.02-.18-.07-.06-.04-.09-.12-.09-.23v-4.89c0-.11.03-.19.09-.23a.34.34 0 0 1 .18-.07h2.6c.02 0 .04.01.06.02.02.01.03.03.04.05.01.03.02.06.03.1.01.04.01.09.01.14 0 .05 0 .1-.01.13-.01.04-.02.07-.03.09-.01.02-.03.04-.04.05-.02.01-.04.02-.06.02h-2.15v1.72h1.84c.02 0 .04.01.06.02.02.01.03.03.05.05.01.02.02.05.03.09.01.04.01.09.01.14 0 .05 0 .09-.01.13-.01.04-.01.07-.03.09a.12.12 0 0 1-.05.05c-.02.01-.04.02-.06.02h-1.84v1.96h2.18c.02 0 .04.01.06.02.02.01.03.03.05.05.01.02.02.05.03.09 0 .06.01.1.01.16zM92.12 59.22c0 .02 0 .04-.01.06-.01.02-.03.03-.06.04-.03.01-.07.02-.12.03-.05.01-.12.01-.2.01-.07 0-.13 0-.18-.01-.05-.01-.08-.02-.11-.03-.03-.01-.05-.03-.07-.05-.02-.02-.03-.05-.04-.09l-.5-1.29c-.06-.15-.12-.28-.18-.41-.06-.12-.14-.23-.23-.32a.945.945 0 0 0-.31-.21 1.1 1.1 0 0 0-.43-.08h-.49v2.34c0 .02-.01.04-.02.06-.01.02-.03.03-.06.04-.03.01-.06.02-.11.03-.05.01-.11.01-.18.01-.07 0-.13 0-.18-.01-.05-.01-.08-.02-.11-.03-.03-.01-.05-.02-.06-.04-.01-.02-.02-.04-.02-.06v-5.08c0-.11.03-.19.09-.23a.34.34 0 0 1 .18-.07h1.17c.14 0 .25 0 .35.01.09.01.17.01.25.02.21.04.4.09.56.17.16.08.3.18.41.3.11.12.19.26.25.42.05.16.08.33.08.52 0 .18-.02.35-.07.49a1.214 1.214 0 0 1-.55.68c-.13.08-.28.15-.44.21.09.04.17.09.25.15.07.06.14.13.21.22.06.09.12.18.18.29.06.11.11.23.17.37l.49 1.21c.04.1.07.17.08.21 0 .07.01.1.01.12zm-1.1-3.85c0-.22-.05-.4-.14-.55a.808.808 0 0 0-.48-.32c-.07-.02-.15-.03-.24-.04-.09-.01-.21-.01-.35-.01h-.62v1.85h.71c.19 0 .36-.02.5-.07a.92.92 0 0 0 .35-.2c.09-.08.16-.18.21-.29.03-.12.06-.24.06-.37zM97.31 57.79c0 .26-.05.49-.14.69-.1.2-.23.37-.4.51s-.37.25-.59.32c-.23.07-.47.11-.74.11-.18 0-.35-.02-.51-.05-.16-.03-.3-.07-.42-.11a1.505 1.505 0 0 1-.48-.26.273.273 0 0 1-.07-.13c-.02-.05-.02-.12-.02-.21 0-.06 0-.11.01-.16.01-.04.01-.07.03-.1.01-.03.03-.04.04-.05.02-.01.04-.01.06-.01.04 0 .1.02.17.07s.16.1.28.16c.11.06.25.11.41.16.16.05.34.07.55.07.16 0 .3-.02.43-.06.13-.04.24-.1.34-.18.09-.08.17-.17.22-.29.05-.11.08-.24.08-.39 0-.16-.04-.29-.11-.4a.964.964 0 0 0-.28-.29c-.12-.08-.25-.16-.4-.23-.15-.07-.3-.14-.46-.21-.16-.07-.31-.15-.45-.24-.15-.09-.28-.19-.39-.31-.12-.12-.21-.26-.28-.42-.07-.16-.11-.35-.11-.57 0-.23.04-.43.13-.61.08-.18.2-.33.35-.45.15-.12.33-.21.53-.28.2-.06.43-.1.66-.1.12 0 .24.01.37.03.12.02.24.05.35.08.11.04.21.08.29.12.08.04.14.08.17.11s.04.05.05.06c.01.02.02.03.02.06.01.02.01.05.01.09v.13c0 .05 0 .1-.01.14 0 .04-.01.07-.02.1s-.02.05-.04.06c-.02.01-.03.02-.05.02-.03 0-.08-.02-.15-.06-.07-.04-.15-.08-.24-.13-.1-.05-.21-.09-.34-.14a1.51 1.51 0 0 0-.44-.06c-.15 0-.29.02-.4.06-.11.04-.21.1-.28.16-.07.07-.13.15-.17.24-.04.09-.05.19-.05.3 0 .15.04.28.11.39.07.11.17.21.28.29.12.09.25.16.4.23.15.07.3.14.46.21.16.07.31.15.46.24.15.09.28.19.4.31s.21.26.28.42c.06.16.1.35.1.56zM103.27 57.76c0 .17-.02.33-.07.48-.04.15-.1.28-.18.39-.08.12-.17.22-.29.31-.11.09-.24.16-.38.22s-.29.1-.45.13c-.16.03-.34.04-.55.04h-1.43c-.07 0-.13-.02-.18-.07-.06-.04-.09-.12-.09-.23v-4.89c0-.11.03-.19.09-.23a.34.34 0 0 1 .18-.07h1.25c.33 0 .6.03.81.09.21.06.38.15.52.27.14.12.24.26.32.44a1.537 1.537 0 0 1 .06.95 1.178 1.178 0 0 1-.69.8c.15.03.29.08.42.15.13.08.24.17.34.29.1.12.17.25.23.41.06.16.09.33.09.52zm-1.1-2.46c0-.13-.02-.25-.05-.36a.625.625 0 0 0-.17-.27.714.714 0 0 0-.31-.17c-.13-.04-.29-.06-.5-.06h-.75v1.78h.83c.19 0 .34-.02.46-.07s.21-.11.29-.2c.08-.08.13-.18.17-.29.01-.12.03-.24.03-.36zm.33 2.5c0-.16-.03-.31-.08-.43a.788.788 0 0 0-.23-.31c-.1-.08-.23-.15-.38-.19-.15-.04-.34-.07-.57-.07h-.87v1.93h1.06c.17 0 .31-.02.44-.06.12-.04.23-.1.33-.18.1-.08.17-.17.22-.29.06-.11.08-.25.08-.4zM109.8 57.3c0 .33-.05.63-.15.89-.1.26-.24.48-.42.66-.18.18-.4.32-.66.41-.26.09-.56.14-.89.14-.3 0-.58-.04-.83-.13s-.46-.22-.64-.39-.31-.39-.41-.64c-.1-.26-.14-.55-.14-.89v-3.4c0-.02.01-.04.02-.06.01-.02.03-.03.06-.04.03-.01.07-.02.11-.03.05-.01.1-.01.18-.01.07 0 .13 0 .17.01.05.01.08.02.11.03.03.01.05.02.06.04.01.02.02.04.02.06v3.32c0 .25.03.47.09.66a1.141 1.141 0 0 0 .69.75c.17.06.35.09.56.09.21 0 .4-.03.57-.09.17-.06.31-.16.42-.28.11-.13.2-.28.26-.46s.09-.4.09-.64v-3.35c0-.02.01-.04.02-.06.01-.02.03-.03.06-.04.03-.01.07-.02.11-.03.05-.01.11-.01.18-.01.07 0 .13 0 .17.01.05.01.08.02.11.03.03.01.05.02.06.04.01.02.02.04.02.06v3.35zM116.21 59.22c0 .02 0 .04-.01.06-.01.02-.03.03-.06.04-.03.01-.07.02-.12.03-.05.01-.12.01-.2.01-.07 0-.13 0-.18-.01-.05-.01-.08-.02-.11-.03-.03-.01-.05-.03-.07-.05-.02-.02-.03-.05-.04-.09l-.5-1.29c-.06-.15-.12-.28-.18-.41-.06-.12-.14-.23-.23-.32a.945.945 0 0 0-.31-.21 1.1 1.1 0 0 0-.43-.08h-.49v2.34c0 .02-.01.04-.02.06-.01.02-.03.03-.06.04-.03.01-.06.02-.11.03-.05.01-.11.01-.18.01-.07 0-.13 0-.18-.01-.05-.01-.08-.02-.11-.03-.03-.01-.05-.02-.06-.04-.01-.02-.02-.04-.02-.06v-5.08c0-.11.03-.19.09-.23a.34.34 0 0 1 .18-.07h1.17c.14 0 .25 0 .35.01.09.01.17.01.25.02.21.04.4.09.56.17.16.08.3.18.41.3.11.12.19.26.25.42.05.16.08.33.08.52 0 .18-.02.35-.07.49a1.214 1.214 0 0 1-.55.68c-.13.08-.28.15-.44.21.09.04.17.09.25.15.07.06.14.13.21.22.06.09.12.18.18.29.06.11.11.23.17.37l.49 1.21c.04.1.07.17.08.21.01.07.01.1.01.12zm-1.1-3.85c0-.22-.05-.4-.14-.55a.808.808 0 0 0-.48-.32c-.07-.02-.15-.03-.24-.04-.09-.01-.21-.01-.35-.01h-.62v1.85h.72c.19 0 .36-.02.5-.07a.92.92 0 0 0 .35-.2c.09-.08.16-.18.21-.29.03-.12.05-.24.05-.37zM122.61 54.59c0 .05 0 .1-.01.14-.01.04-.01.07-.03.1-.01.03-.02.05-.04.06-.02.01-.04.02-.05.02-.03 0-.09-.03-.17-.08-.08-.05-.18-.11-.32-.18-.13-.06-.29-.12-.48-.18-.19-.05-.41-.08-.66-.08-.3 0-.57.05-.81.16-.24.11-.44.26-.61.46-.17.2-.29.43-.38.7-.09.27-.13.56-.13.87 0 .35.05.66.15.93.1.27.23.5.4.69.17.19.38.33.62.42.24.1.5.14.79.14.17 0 .34-.02.51-.06.17-.04.34-.1.49-.19v-1.6h-1.27c-.05 0-.08-.02-.11-.07a.574.574 0 0 1-.04-.22c0-.05 0-.1.01-.14.01-.04.01-.07.03-.09.01-.02.03-.04.04-.05.02-.01.04-.02.06-.02h1.74c.03 0 .06.01.09.02s.06.03.08.05c.03.02.05.05.06.09.01.04.02.09.02.14v2.09c0 .07-.01.14-.04.19-.03.05-.08.1-.16.14-.08.04-.19.09-.32.13-.13.05-.26.09-.4.12s-.28.06-.42.08a3.17 3.17 0 0 1-1.56-.17c-.33-.13-.62-.32-.85-.56-.23-.24-.41-.53-.53-.87-.12-.34-.18-.72-.18-1.14 0-.44.07-.83.2-1.18s.32-.65.56-.9c.24-.25.53-.44.86-.58.34-.14.71-.21 1.11-.21.21 0 .41.02.59.05.18.04.35.08.49.13s.26.1.36.16c.1.06.16.11.2.14.04.04.06.08.08.13.02.06.03.13.03.22z"/>
  </g>
  <g>
    <path class="st2" d="M129.1 59.33l-.6-.48.07-.27c.04-.18.2-.68.96-2.79a.71.71 0 0 0-.14.1c-1.34.89-3.01 1.99-4.56 2.67l-.61.27v-1.57l.26-.11c3.29-1.42 5.61-3.21 6.17-4.01.95-2.12 2.39-5.29 4.27-9.45 3.59-7.64 5.34-8.57 6.35-8.61l.18-.01.13.12c.61.57.92 1.35.92 2.32 0 1.97-.87 4.19-2.59 6.6-1.12 1.49-2.82 3.74-5.08 6.7-1.69 2.24-2.88 4.2-3.55 5.86l2.63-1.46c1.44-.78 2.73-1.17 3.84-1.17.54 0 .82.24.95.44.14.2.27.53.41 1.03l.03.09-.02.1c-.03.18-.11.52-.43 1.45l3.61-.84v1.49l-.3.1c-2.24.71-3.75 1.06-4.59 1.06h-.07l-.83-.26-.2-.66.05-.13c.16-.45.33-1.13.52-2.01-.86.28-2.03.81-3.49 1.61-1.79.97-3.13 1.56-4.1 1.8l-.19.02zm11.92-22.77c-.26.06-1.3.76-4.19 7.22-.55 1.29-1.32 3.06-2.29 5.33 1.07-1.3 2.15-2.82 3.25-4.54 2.16-3.36 3.25-5.98 3.25-7.77.01-.12-.01-.2-.02-.24z"/>
    <path class="st2" d="M145.99 59.23c-1.11 0-1.74-.7-1.74-1.91v-.05l-2.89.83v-1.53l.26.06c1.39-.61 2.49-1.09 3.28-1.42 1.52-.63 2.72-.93 3.65-.93.53 0 1.02.09 1.45.28l.31.13-.05.33c-.02.17-.06.31-.1.43.05.1.1.2.13.3l.05.14-.05.14c-.02.06-.08.22-.32.79-.07.17-.12.3-.14.41.03.01.05.01.07 0l3.41-.74v1.49l-.32.09c-2.53.72-3.14.81-3.39.81-.43 0-.97-.13-1.36-.69-.88.7-1.62 1.04-2.25 1.04zm2.65-3.34c-.47 0-.98.15-1.49.44-.55.32-.83.71-.87 1.21.23-.01.66-.15 1.38-.71.42-.32.75-.64.98-.94z"/>
    <path class="st2" d="M164.45 58.77c-1.08 0-1.3-1.29-1.35-2.17l-6.97 2.05-.63-.18-.09-.65c0-.06 0-.16.13-.85-.62.28-1.27.65-2.32 1.03l-.75.17v-1.5l4.83-2.14c.32-.14.55-.05.66.02.34.22.34.67.34.83 0 .09-.01.22-.19.75-.04.12-.07.22-.09.3.71-.13 1.67-.46 2.87-.97 1.59-.65 2.8-.97 3.7-.97.47 0 .77.32.77.8 0 .14-.03.42-.25 1.29.04.08.1.17.16.3.03.06.06.11.08.14.34-.03 1.01-.16 2.29-.53l.56-.16v1.52l-.3.1c-1.68.56-2.81.82-3.45.82zm-.13-1.81z"/>
    <path class="st2" d="M172.96 58.84c-.74 0-1.28-.25-1.61-.75-.22-.33-.36-.8-.41-1.41-.76.33-1.56.72-2.82 1.2l-.81.26V56.6l.65-.19c1.12-.45 1.65-.85 3.82-2.05 1.61-.88 3.05-1.33 4.29-1.33.36 0 .73.03 1.11.1.35-1.58 1.06-3.74 2.11-6.44 1.87-4.76 2.78-5.43 3.42-5.45l.21-.01.14.16c.24.29.36.62.36 1 0 1.13-.69 3.18-2.1 6.25-.13.28-.88 1.86-2.31 4.85.01 1.14.15 1.98.42 2.49.28.52.74.77 1.44.77.23 0 .77-.07 2-.4l.55-.15v1.52l-.28.11c-1.07.41-1.94.62-2.65.62-1.3 0-2.32-.83-3.04-2.46-1.56 1.92-3.04 2.85-4.49 2.85zm.1-1.69zm-.14-.1l.03.03c.05.04.09.06.1.06.56-.01 1.25-.33 2.06-.95.61-.46 1.12-.96 1.52-1.49-.06 0-.13-.01-.19-.01-.7 0-1.43.19-2.17.57-.89.48-1.33 1.06-1.35 1.79zM205.79 58.84c-.75 0-1.02-.91-1.13-1.65-1.88.96-3.55 1.44-4.99 1.44-.66 0-1.16-.18-1.5-.53-.26-.28-.45-.72-.55-1.34-1.61.43-3.95 1.05-6.97 1.82l-.26.07-.52-.6.04-.21c.04-.22.17-.63.38-1.25-.19.08-.46.23-.85.48-.68.46-1.19.75-1.54.88l-.58.21v-1.54l.28-.11c.22-.09.74-.36 1.99-1.17 1-.65 1.77-.97 2.35-.97h.11l.58.32.12.52-.04.12c-.08.22-.19.53-.31.91 1.59-.44 3.82-.99 6.63-1.65l.24-.06.65.67-.03.21c-.03.24-.1.62-.21 1.16.24.15.54.22.92.22.67 0 2.04-.38 4.81-2.17l.11-.07h.13c.36 0 .79.22.79 1.26 0 .47-.05.89-.14 1.25.29-.03.99-.15 2.68-.57l.54-.13v1.49l-.3.1c-2.42.8-3.12.89-3.43.89z"/>
    <path class="st2" d="M213.28 59.22c-1.11 0-1.74-.7-1.74-1.91v-.05l-2.89.87v-1.39l.26-.11c1.38-.61 2.48-1.09 3.28-1.42 1.52-.63 2.72-.93 3.65-.93.53 0 1.02.09 1.45.28l.31.13-.05.33c-.02.17-.06.31-.1.43.05.1.1.2.13.3l.05.14-.05.14c-.03.1-.13.34-.32.79-.07.17-.12.3-.14.41.03.01.05.01.07 0l3.41-.74v1.49l-.32.09c-2.53.72-3.14.81-3.39.81-.43 0-.97-.13-1.36-.69-.88.69-1.62 1.03-2.25 1.03zm2.65-3.34c-.47 0-.98.15-1.49.44-.55.32-.83.71-.87 1.21.23-.01.66-.15 1.38-.71.42-.32.75-.64.98-.94z"/>
    <path class="st2" d="M225.34 58.84c-.74 0-1.28-.25-1.61-.75-.22-.33-.36-.8-.41-1.41-.76.33-1.52.82-2.78 1.3l-.85.16v-1.46l.47-.14c1.79-.66 1.82-.97 4-2.17 1.61-.88 3.05-1.33 4.29-1.33.36 0 .73.03 1.11.1.35-1.58 1.06-3.74 2.11-6.44 1.87-4.76 2.78-5.43 3.42-5.45l.21-.01.14.16c.24.29.36.62.36 1 0 1.13-.69 3.18-2.1 6.25-.13.28-.9 1.91-2.31 4.85.01 1.14.15 1.98.42 2.49.28.52.74.77 1.44.77.23 0 .77-.07 2-.4l.55-.13v1.5l-.28.11c-1.07.41-1.94.62-2.65.62-1.3 0-2.32-.83-3.04-2.46-1.56 1.91-3.04 2.84-4.49 2.84zm.1-1.69zm-.14-.1l.03.03c.05.04.09.06.1.06.56-.01 1.25-.33 2.06-.94.61-.46 1.12-.96 1.52-1.49-.06 0-.13-.01-.19-.01-.7 0-1.43.19-2.17.57-.89.47-1.33 1.05-1.35 1.78z"/>
    <path class="st2" d="M240.2 59.08c-1.33 0-2.29-.51-2.86-1.52l-2.41.5.06-1.63 2.09-.5c.22-.99.69-1.79 1.4-2.38.68-.57 1.46-.86 2.34-.86 1.08 0 1.69.59 1.69 1.61 0 .92-.55 1.64-1.65 2.15l-.06.02c-.56.17-1.12.34-1.67.53.13.17.45.35 1.29.35.95 0 2.3-.27 4.02-.81l.57-.18v1.53l-.31.1c-2.36.74-3.83 1.09-4.5 1.09zm.35-4.72c-.13 0-.42.07-.95.55-.2.17-.35.33-.46.49.2-.07.45-.17.75-.31.49-.24.81-.49.91-.71-.06-.02-.14-.02-.25-.02z"/>
  </g>
</svg>
