<?xml version="1.0" encoding="utf-8"?>
<!-- Generator: Adobe Illustrator 23.0.1, SVG Export Plug-In . SVG Version: 6.00 Build 0)  -->
<svg version="1.1" id="Слой_1" xmlns="http://www.w3.org/2000/svg" xmlns:xlink="http://www.w3.org/1999/xlink" x="0px" y="0px"
	 viewBox="0 0 240 76.21" style="enable-background:new 0 0 240 76.21;" xml:space="preserve">
<style type="text/css">
	.st0{clip-path:url(#SVGID_2_);fill:url(#SVGID_3_);}
	.st1{clip-path:url(#SVGID_5_);fill:url(#SVGID_6_);}
	.st2{clip-path:url(#SVGID_8_);fill:url(#SVGID_9_);}
	.st3{clip-path:url(#SVGID_11_);fill:url(#SVGID_12_);}
	.st4{clip-path:url(#SVGID_14_);fill:url(#SVGID_15_);}
	.st5{clip-path:url(#SVGID_17_);fill:url(#SVGID_18_);}
	.st6{clip-path:url(#SVGID_20_);fill:url(#SVGID_21_);}
	.st7{clip-path:url(#SVGID_23_);fill:url(#SVGID_24_);}
	.st8{clip-path:url(#SVGID_26_);fill:url(#SVGID_27_);}
	.st9{clip-path:url(#SVGID_29_);fill:url(#SVGID_30_);}
	.st10{clip-path:url(#SVGID_32_);fill:url(#SVGID_33_);}
	.st11{clip-path:url(#SVGID_35_);fill:url(#SVGID_36_);}
	.st12{fill:#FFFFFF;}
	.st13{clip-path:url(#SVGID_38_);fill:url(#SVGID_39_);}
	.st14{clip-path:url(#SVGID_41_);fill:url(#SVGID_42_);}
	.st15{clip-path:url(#SVGID_44_);fill:url(#SVGID_45_);}
	.st16{clip-path:url(#SVGID_47_);fill:url(#SVGID_48_);}
	.st17{clip-path:url(#SVGID_50_);fill:url(#SVGID_51_);}
	.st18{clip-path:url(#SVGID_53_);fill:url(#SVGID_54_);}
	.st19{clip-path:url(#SVGID_56_);fill:url(#SVGID_57_);}
	.st20{clip-path:url(#SVGID_59_);fill:url(#SVGID_60_);}
	.st21{clip-path:url(#SVGID_62_);fill:url(#SVGID_63_);}
	.st22{clip-path:url(#SVGID_65_);fill:url(#SVGID_66_);}
	.st23{clip-path:url(#SVGID_68_);fill:url(#SVGID_69_);}
	.st24{clip-path:url(#SVGID_71_);fill:url(#SVGID_72_);}
	.st25{clip-path:url(#SVGID_74_);fill:url(#SVGID_75_);}
	.st26{clip-path:url(#SVGID_77_);fill:url(#SVGID_78_);}
	.st27{clip-path:url(#SVGID_80_);fill:url(#SVGID_81_);}
	.st28{clip-path:url(#SVGID_83_);fill:url(#SVGID_84_);}
	.st29{clip-path:url(#SVGID_86_);fill:url(#SVGID_87_);}
	.st30{fill:#E5B040;}
	.st31{fill:#392B6B;}
</style>
<g>
	<g>
		<defs>
			<path id="SVGID_1_" d="M36.86,15.74c-0.54,0.28-1,0.51-1.34,0.67c0.22,0.12,0.47,0.21,0.72,0.18c0.39-0.03,1.17-0.44,1.78-0.8
				c-0.17-0.1-0.38-0.19-0.63-0.19C37.23,15.6,37.05,15.64,36.86,15.74"/>
		</defs>
		<clipPath id="SVGID_2_">
			<use xlink:href="#SVGID_1_"  style="overflow:visible;"/>
		</clipPath>
		
			<radialGradient id="SVGID_3_" cx="-245.0492" cy="601.1663" r="0.6736" gradientTransform="matrix(1.4131 0 0 -1.4131 383.0433 865.5889)" gradientUnits="userSpaceOnUse">
			<stop  offset="0" style="stop-color:#A0BE36"/>
			<stop  offset="0.1006" style="stop-color:#A0BE36"/>
			<stop  offset="0.2947" style="stop-color:#93B637"/>
			<stop  offset="0.6465" style="stop-color:#72A23B"/>
			<stop  offset="1" style="stop-color:#4C8B3F"/>
		</radialGradient>
		<rect x="35.52" y="15.6" class="st0" width="2.5" height="1.02"/>
	</g>
	<g>
		<defs>
			<path id="SVGID_4_" d="M21.13,15.04c0.25,0.39,0.58,0.68,0.86,0.89c-0.07-0.6-0.22-1.48-0.57-2.27c-0.34-0.77-0.82-1.19-1.2-1.42
				C20.43,13.16,20.78,14.49,21.13,15.04"/>
		</defs>
		<clipPath id="SVGID_5_">
			<use xlink:href="#SVGID_4_"  style="overflow:visible;"/>
		</clipPath>
		
			<radialGradient id="SVGID_6_" cx="-350.2833" cy="539.2875" r="0.6737" gradientTransform="matrix(2.1486 0 0 -2.1486 773.7275 1172.7913)" gradientUnits="userSpaceOnUse">
			<stop  offset="0" style="stop-color:#A0BE36"/>
			<stop  offset="0.1006" style="stop-color:#A0BE36"/>
			<stop  offset="0.2947" style="stop-color:#93B637"/>
			<stop  offset="0.6465" style="stop-color:#72A23B"/>
			<stop  offset="1" style="stop-color:#4C8B3F"/>
		</radialGradient>
		<rect x="20.23" y="12.23" class="st1" width="1.77" height="3.69"/>
	</g>
	<g>
		<defs>
			<path id="SVGID_7_" d="M12.57,13.28c0.95,0.77,3.01,2.35,4.16,2.72c0.89,0.28,1.78,0.24,2.36,0.16c-0.62-0.64-1.81-1.74-3.2-2.44
				c-0.87-0.44-1.65-0.57-2.27-0.57C13.19,13.15,12.84,13.21,12.57,13.28"/>
		</defs>
		<clipPath id="SVGID_8_">
			<use xlink:href="#SVGID_7_"  style="overflow:visible;"/>
		</clipPath>
		
			<radialGradient id="SVGID_9_" cx="-441.4008" cy="488.5837" r="0.6736" gradientTransform="matrix(3.7828 0 0 -3.7828 1685.5449 1862.8783)" gradientUnits="userSpaceOnUse">
			<stop  offset="0" style="stop-color:#A0BE36"/>
			<stop  offset="0.1006" style="stop-color:#A0BE36"/>
			<stop  offset="0.2947" style="stop-color:#93B637"/>
			<stop  offset="0.6465" style="stop-color:#72A23B"/>
			<stop  offset="1" style="stop-color:#4C8B3F"/>
		</radialGradient>
		<rect x="12.57" y="13.15" class="st2" width="6.52" height="3.13"/>
	</g>
	<g>
		<defs>
			<path id="SVGID_10_" d="M14.65,17.1c-1.96,0.03-2.99,1.1-3.43,1.76c1.32,0.06,4.4,0.14,5.76-0.29c1.01-0.33,1.72-1.07,2.13-1.6
				C18.24,17,16.66,17.06,14.65,17.1"/>
		</defs>
		<clipPath id="SVGID_11_">
			<use xlink:href="#SVGID_10_"  style="overflow:visible;"/>
		</clipPath>
		
			<radialGradient id="SVGID_12_" cx="-455.0465" cy="481.3973" r="0.6737" gradientTransform="matrix(4.2649 0 0 -4.2649 1955.9003 2071.0525)" gradientUnits="userSpaceOnUse">
			<stop  offset="0" style="stop-color:#A0BE36"/>
			<stop  offset="0.1006" style="stop-color:#A0BE36"/>
			<stop  offset="0.2947" style="stop-color:#93B637"/>
			<stop  offset="0.6465" style="stop-color:#72A23B"/>
			<stop  offset="1" style="stop-color:#4C8B3F"/>
		</radialGradient>
		<rect x="11.22" y="16.97" class="st3" width="7.89" height="2.03"/>
	</g>
	<g>
		<defs>
			<path id="SVGID_13_" d="M8.43,28.03c-0.36,0.11-0.64,0.44-0.83,0.72c0.44,0.04,1.09,0.1,1.89,0.2c0.72,0.08,1.15-0.4,1.36-0.76
				c-0.58-0.11-1.31-0.22-1.86-0.22C8.77,27.97,8.57,27.99,8.43,28.03"/>
		</defs>
		<clipPath id="SVGID_14_">
			<use xlink:href="#SVGID_13_"  style="overflow:visible;"/>
		</clipPath>
		
			<radialGradient id="SVGID_15_" cx="-304.1058" cy="566.95" r="0.6737" gradientTransform="matrix(1.7873 0 0 -1.7873 552.7469 1041.7573)" gradientUnits="userSpaceOnUse">
			<stop  offset="0" style="stop-color:#A0BE36"/>
			<stop  offset="0.1006" style="stop-color:#A0BE36"/>
			<stop  offset="0.2947" style="stop-color:#93B637"/>
			<stop  offset="0.6465" style="stop-color:#72A23B"/>
			<stop  offset="1" style="stop-color:#4C8B3F"/>
		</radialGradient>
		<rect x="7.6" y="27.97" class="st4" width="3.26" height="1.06"/>
	</g>
	<g>
		<defs>
			<path id="SVGID_16_" d="M17.16,32.47c0.25,0.7,0.76,1.2,1.17,1.51c-0.05-0.72-0.14-1.91-0.22-3.38
				c-0.08-1.42-0.83-2.18-1.36-2.54C16.75,29.17,16.79,31.46,17.16,32.47"/>
		</defs>
		<clipPath id="SVGID_17_">
			<use xlink:href="#SVGID_16_"  style="overflow:visible;"/>
		</clipPath>
		
			<radialGradient id="SVGID_18_" cx="-420.2831" cy="502.8175" r="0.6737" gradientTransform="matrix(3.2163 0 0 -3.2163 1369.2936 1648.2222)" gradientUnits="userSpaceOnUse">
			<stop  offset="0" style="stop-color:#A0BE36"/>
			<stop  offset="0.1006" style="stop-color:#A0BE36"/>
			<stop  offset="0.2947" style="stop-color:#93B637"/>
			<stop  offset="0.6465" style="stop-color:#72A23B"/>
			<stop  offset="1" style="stop-color:#4C8B3F"/>
		</radialGradient>
		<rect x="16.75" y="28.06" class="st5" width="1.58" height="5.92"/>
	</g>
	<g>
		<defs>
			<path id="SVGID_19_" d="M11.07,53.67c0.17,0.34,0.31,0.63,0.42,0.87c0.06-0.12,0.1-0.25,0.09-0.36c-0.01-0.24-0.25-0.75-0.5-1.19
				C10.99,53.17,10.94,53.4,11.07,53.67"/>
		</defs>
		<clipPath id="SVGID_20_">
			<use xlink:href="#SVGID_19_"  style="overflow:visible;"/>
		</clipPath>
		
			<radialGradient id="SVGID_21_" cx="-31.7803" cy="734.579" r="0.6738" gradientTransform="matrix(0.8688 0 0 -0.8688 38.8953 691.9382)" gradientUnits="userSpaceOnUse">
			<stop  offset="0" style="stop-color:#A0BE36"/>
			<stop  offset="0.1006" style="stop-color:#A0BE36"/>
			<stop  offset="0.2947" style="stop-color:#93B637"/>
			<stop  offset="0.6465" style="stop-color:#72A23B"/>
			<stop  offset="1" style="stop-color:#4C8B3F"/>
		</radialGradient>
		<rect x="10.94" y="52.99" class="st6" width="0.65" height="1.55"/>
	</g>
	<g>
		<defs>
			<path id="SVGID_22_" d="M8.19,54c0.09,0.1,0.19,0.18,0.3,0.25l0.21,0.05l0.63,0.14c-0.21-0.48-0.51-1.17-0.87-2
				c-0.36-0.86-1.08-1.1-1.56-1.15C7.2,52.15,7.73,53.52,8.19,54"/>
		</defs>
		<clipPath id="SVGID_23_">
			<use xlink:href="#SVGID_22_"  style="overflow:visible;"/>
		</clipPath>
		
			<radialGradient id="SVGID_24_" cx="-341.2098" cy="551.6315" r="0.6737" gradientTransform="matrix(2.089 0 0 -2.089 720.9075 1205.2209)" gradientUnits="userSpaceOnUse">
			<stop  offset="0" style="stop-color:#A0BE36"/>
			<stop  offset="0.1006" style="stop-color:#A0BE36"/>
			<stop  offset="0.2947" style="stop-color:#93B637"/>
			<stop  offset="0.6465" style="stop-color:#72A23B"/>
			<stop  offset="1" style="stop-color:#4C8B3F"/>
		</radialGradient>
		<rect x="6.9" y="51.28" class="st7" width="2.43" height="3.16"/>
	</g>
	<g>
		<defs>
			<path id="SVGID_25_" d="M34.02,52.06c-0.4,0.32-0.74,0.72-1,1.07l-0.05,0.25l-0.01,0.03c0.15-0.04,0.31-0.09,0.5-0.14
				c0.05-0.03,0.1-0.05,0.16-0.08c0.46-0.27,1.19-1.1,1.71-1.72C34.97,51.51,34.51,51.65,34.02,52.06"/>
		</defs>
		<clipPath id="SVGID_26_">
			<use xlink:href="#SVGID_25_"  style="overflow:visible;"/>
		</clipPath>
		
			<radialGradient id="SVGID_27_" cx="-282.4471" cy="590.5574" r="0.6737" gradientTransform="matrix(1.6061 0 0 -1.6061 487.7883 1000.9531)" gradientUnits="userSpaceOnUse">
			<stop  offset="0" style="stop-color:#A0BE36"/>
			<stop  offset="0.1006" style="stop-color:#A0BE36"/>
			<stop  offset="0.2947" style="stop-color:#93B637"/>
			<stop  offset="0.6465" style="stop-color:#72A23B"/>
			<stop  offset="1" style="stop-color:#4C8B3F"/>
		</radialGradient>
		<rect x="32.96" y="51.47" class="st8" width="2.37" height="1.94"/>
	</g>
	<g>
		<defs>
			<path id="SVGID_28_" d="M36.63,53.13c-1.16,0.35-2.15,0.65-2.88,0.86c-0.22,0.1-0.44,0.17-0.64,0.22c0.46,0.32,1.18,0.68,2,0.69
				h0.01c1.17,0,3.56-0.84,4.64-1.25c-0.39-0.31-1.06-0.69-1.99-0.69C37.42,52.96,37.04,53.01,36.63,53.13"/>
		</defs>
		<clipPath id="SVGID_29_">
			<use xlink:href="#SVGID_28_"  style="overflow:visible;"/>
		</clipPath>
		
			<radialGradient id="SVGID_30_" cx="-439.1622" cy="496.5604" r="0.6737" gradientTransform="matrix(3.6335 0 0 -3.6335 1632.14 1858.2006)" gradientUnits="userSpaceOnUse">
			<stop  offset="0" style="stop-color:#A0BE36"/>
			<stop  offset="0.1006" style="stop-color:#A0BE36"/>
			<stop  offset="0.2947" style="stop-color:#93B637"/>
			<stop  offset="0.6465" style="stop-color:#72A23B"/>
			<stop  offset="1" style="stop-color:#4C8B3F"/>
		</radialGradient>
		<rect x="33.1" y="52.96" class="st9" width="6.65" height="1.94"/>
	</g>
	<g>
		<defs>
			<path id="SVGID_31_" d="M31.49,68.18c-0.55,0.24-1.45,1.19-2,1.82c0.43,0.12,1.1,0.17,1.68-0.4c0.63-0.62,1.15-1.12,1.5-1.46
				c-0.17-0.04-0.37-0.07-0.57-0.07C31.89,68.07,31.68,68.1,31.49,68.18"/>
		</defs>
		<clipPath id="SVGID_32_">
			<use xlink:href="#SVGID_31_"  style="overflow:visible;"/>
		</clipPath>
		
			<radialGradient id="SVGID_33_" cx="-333.768" cy="563.2807" r="0.6736" gradientTransform="matrix(1.9726 0 0 -1.9726 689.454 1180.1873)" gradientUnits="userSpaceOnUse">
			<stop  offset="0" style="stop-color:#A0BE36"/>
			<stop  offset="0.1006" style="stop-color:#A0BE36"/>
			<stop  offset="0.2947" style="stop-color:#93B637"/>
			<stop  offset="0.6465" style="stop-color:#72A23B"/>
			<stop  offset="1" style="stop-color:#4C8B3F"/>
		</radialGradient>
		<rect x="29.48" y="68.07" class="st10" width="3.18" height="2.1"/>
	</g>
	<g>
		<defs>
			<path id="SVGID_34_" d="M27.15,65.74c0.37,0.51,1.14,1.23,2.58,1.27c1.48,0.04,2.67,0.09,3.39,0.12c-0.32-0.4-0.84-0.9-1.55-1.13
				c-0.71-0.23-2.03-0.29-3.14-0.29C27.94,65.72,27.49,65.73,27.15,65.74"/>
		</defs>
		<clipPath id="SVGID_35_">
			<use xlink:href="#SVGID_34_"  style="overflow:visible;"/>
		</clipPath>
		
			<radialGradient id="SVGID_36_" cx="-422.2244" cy="508.1222" r="0.6737" gradientTransform="matrix(3.2173 0 0 -3.2173 1388.5641 1701.2191)" gradientUnits="userSpaceOnUse">
			<stop  offset="0" style="stop-color:#A0BE36"/>
			<stop  offset="0.1006" style="stop-color:#A0BE36"/>
			<stop  offset="0.2947" style="stop-color:#93B637"/>
			<stop  offset="0.6465" style="stop-color:#72A23B"/>
			<stop  offset="1" style="stop-color:#4C8B3F"/>
		</radialGradient>
		<rect x="27.15" y="65.72" class="st11" width="5.96" height="1.42"/>
	</g>
	<g>
		<path class="st12" d="M17.6,59.53c-0.13,0.31-0.12,0.65,0.03,0.95c0.15,0.29,0.43,0.5,0.75,0.57c0.1,0.03,0.19,0.1,0.24,0.19
			c0.04,0.1,0.04,0.2,0,0.3l-0.82,1.67c-0.07,0.13-0.2,0.2-0.35,0.19l-3.99-0.46c-0.12-0.01-0.22-0.08-0.27-0.18
			c-0.05-0.1-0.05-0.22,0-0.32l1.94-3.52c0.06-0.11,0.18-0.18,0.3-0.18c0.02,0,0.04,0,0.05,0.01l1.84,0.3
			c0.1,0.02,0.19,0.08,0.24,0.18C17.64,59.32,17.65,59.43,17.6,59.53"/>
		<path class="st12" d="M10.27,56.9c0.09,0,0.16,0.03,0.23,0.08c0.25,0.23,0.58,0.32,0.91,0.27c0.33-0.05,0.61-0.25,0.79-0.53
			c0.05-0.09,0.14-0.15,0.25-0.16c0.1-0.01,0.2,0.03,0.28,0.1l1.32,1.3c0.1,0.1,0.13,0.26,0.07,0.4l-1.7,3.63
			c-0.05,0.1-0.14,0.18-0.26,0.19c-0.12,0.02-0.23-0.02-0.3-0.11l-2.71-2.96c-0.1-0.11-0.12-0.27-0.05-0.4l0.87-1.64
			c0.05-0.1,0.14-0.16,0.24-0.18H10.27z"/>
		<path class="st12" d="M11.34,62.99c0,0.02,0,0.04-0.01,0.06c-0.02,0.12-0.09,0.2-0.2,0.25l-3.67,1.62
			c-0.14,0.06-0.29,0.03-0.39-0.08L5.8,63.49c-0.07-0.07-0.11-0.18-0.09-0.29c0.02-0.1,0.08-0.19,0.17-0.25
			c0.29-0.16,0.49-0.45,0.55-0.78c0.06-0.33-0.03-0.66-0.25-0.91c-0.07-0.08-0.1-0.19-0.08-0.29c0.02-0.1,0.09-0.19,0.18-0.24
			l1.66-0.83c0.05-0.03,0.1-0.04,0.15-0.04c0.09,0,0.17,0.03,0.24,0.09l2.9,2.78C11.31,62.81,11.34,62.89,11.34,62.99"/>
		<path class="st12" d="M8.28,68.48c-0.1-0.05-0.16-0.14-0.17-0.25l-0.28-1.84c-0.02-0.14,0.05-0.29,0.18-0.35l3.54-1.89
			c0.1-0.05,0.23-0.05,0.33,0c0.1,0.05,0.16,0.15,0.18,0.27l0.4,3.99c0.01,0.14-0.06,0.29-0.2,0.35l-1.68,0.79
			c-0.09,0.05-0.21,0.05-0.3,0c-0.1-0.05-0.16-0.14-0.18-0.24c-0.07-0.33-0.27-0.6-0.57-0.76C9.36,68.46,9.18,68.41,9,68.41
			c-0.14,0-0.29,0.03-0.42,0.09C8.48,68.53,8.37,68.52,8.28,68.48"/>
		<path class="st12" d="M17.82,66.75c0.02,0.1-0.01,0.2-0.09,0.29c-0.07,0.07-0.17,0.12-0.28,0.1c-0.33-0.03-0.65,0.09-0.89,0.33
			c-0.23,0.23-0.35,0.56-0.32,0.89c0.01,0.1-0.03,0.2-0.1,0.28c-0.07,0.07-0.18,0.1-0.29,0.09l-1.84-0.26
			c-0.14-0.02-0.26-0.13-0.29-0.27l-0.8-3.93c-0.03-0.12,0.01-0.23,0.09-0.31c0.07-0.07,0.15-0.1,0.25-0.1
			c0.02,0,0.04,0.01,0.06,0.01l3.95,0.76c0.14,0.03,0.25,0.14,0.27,0.29L17.82,66.75z"/>
		<path class="st12" d="M32.13,46.96l-3.03-0.01c-0.08,0-0.12-0.04-0.14-0.07c-0.01-0.03-0.04-0.09-0.01-0.16l1.17-2.79
			c0.02-0.06,0.08-0.1,0.15-0.1h0.01l1.4,0.08c0.07,0,0.11,0.04,0.12,0.07c0.02,0.02,0.05,0.07,0.03,0.14
			c-0.08,0.27-0.04,0.55,0.12,0.78c0.16,0.23,0.4,0.38,0.68,0.42c0.07,0.01,0.1,0.05,0.12,0.07c0.01,0.02,0.03,0.07,0.01,0.14
			l-0.48,1.32C32.26,46.92,32.2,46.96,32.13,46.96"/>
		<path class="st12" d="M29.82,50.95l-0.63-1.94h3.24l0.11,0.41l-0.02,0.11l-0.05,0.22c-0.02,0.01-0.03,0.01-0.05,0.01
			c-0.28,0.01-0.54,0.14-0.71,0.35c-0.18,0.22-0.25,0.5-0.18,0.78c0.01,0.07-0.01,0.12-0.03,0.14c-0.02,0.03-0.07,0.07-0.13,0.06
			l-1.4-0.04C29.91,51.06,29.85,51.01,29.82,50.95"/>
		<path class="st12" d="M26.6,49.01h1.62l0.48,2.24c0.01,0.07-0.01,0.14-0.07,0.17l-1.19,0.74c-0.06,0.03-0.12,0.02-0.14,0.01
			c-0.03-0.01-0.08-0.04-0.1-0.1c-0.09-0.27-0.29-0.48-0.55-0.59c-0.12-0.04-0.23-0.06-0.35-0.06c-0.16,0-0.31,0.03-0.45,0.11
			c-0.06,0.03-0.12,0.02-0.14,0.01c-0.03-0.01-0.07-0.04-0.1-0.11l-0.36-1.36c-0.01-0.06,0.01-0.14,0.07-0.18L26.6,49.01z"/>
		<path class="st12" d="M26.31,42.9c0.23,0.16,0.52,0.21,0.78,0.14c0.27-0.07,0.49-0.26,0.61-0.51c0.03-0.06,0.07-0.08,0.11-0.09
			c0.03-0.01,0.08-0.01,0.14,0.03l1.1,0.87c0.05,0.04,0.07,0.12,0.05,0.18l-0.97,2.87c-0.03,0.07-0.08,0.09-0.12,0.1
			c-0.03,0.01-0.1,0.01-0.15-0.03l-2.28-2c-0.05-0.05-0.07-0.12-0.05-0.18l0.52-1.3c0.03-0.07,0.07-0.09,0.1-0.1
			c0.01-0.01,0.03-0.01,0.05-0.01C26.25,42.88,26.28,42.88,26.31,42.9"/>
		<path class="st12" d="M26.83,47.72h-3.28V47.7c0.17-0.16,0.29-0.38,0.3-0.62c0.02-0.28-0.09-0.55-0.29-0.74
			c0-0.01-0.01-0.01-0.01-0.01v-0.21c0.01-0.01,0.02-0.02,0.03-0.03l1.17-0.76c0.03-0.01,0.06-0.03,0.09-0.03
			c0.04,0,0.07,0.01,0.1,0.03l2.41,1.84c0.06,0.05,0.07,0.11,0.06,0.14c0,0.03-0.01,0.09-0.07,0.13L26.83,47.72z"/>
		<path class="st12" d="M13.82,37.85c0.1,0.26,0.31,0.46,0.57,0.55c0.06,0.02,0.09,0.07,0.1,0.1c0.01,0.03,0.02,0.09-0.02,0.14
			l-0.75,1.19c-0.03,0.06-0.11,0.09-0.17,0.07l-2.96-0.67c-0.07-0.02-0.1-0.07-0.12-0.1c-0.01-0.03-0.03-0.1,0.02-0.16l1.74-2.47
			c0.03-0.04,0.08-0.07,0.14-0.07c0.01,0,0.03,0,0.04,0.01l1.35,0.37c0.07,0.02,0.1,0.07,0.11,0.1c0.01,0.03,0.03,0.08-0.01,0.14
			C13.74,37.29,13.72,37.58,13.82,37.85"/>
		<path class="st12" d="M8.51,34.68c0.04-0.05,0.1-0.07,0.12-0.07h0.01c0.03,0,0.08,0.01,0.12,0.05c0.18,0.21,0.46,0.32,0.73,0.31
			c0.28-0.01,0.54-0.14,0.71-0.36c0.04-0.05,0.1-0.07,0.13-0.07c0.03,0,0.08,0.01,0.13,0.06l0.88,1.09
			c0.05,0.05,0.06,0.13,0.01,0.19l-1.57,2.58c-0.04,0.07-0.1,0.07-0.14,0.07c-0.03,0-0.09,0-0.14-0.06l-1.79-2.45
			c-0.04-0.05-0.05-0.13-0.01-0.19L8.51,34.68z"/>
		<path class="st12" d="M5.45,38.19c0.07-0.27,0.03-0.56-0.12-0.79c-0.04-0.05-0.03-0.11-0.02-0.14c0.01-0.03,0.03-0.08,0.09-0.1
			l1.32-0.49c0.02-0.01,0.04-0.01,0.06-0.01c0.04,0,0.09,0.02,0.12,0.06l1.94,2.32v0.01c0.05,0.05,0.04,0.12,0.03,0.15
			c-0.01,0.03-0.03,0.08-0.11,0.11l-2.89,0.91c-0.06,0.02-0.14-0.01-0.18-0.06l-0.85-1.12c-0.04-0.05-0.03-0.11-0.03-0.14
			c0.01-0.03,0.03-0.07,0.09-0.1C5.17,38.68,5.36,38.46,5.45,38.19"/>
		<path class="st12" d="M9.3,40.3l-0.03,3.03c0,0.07-0.05,0.13-0.11,0.15l-1.33,0.46c-0.07,0.02-0.12-0.01-0.14-0.02
			c-0.03-0.01-0.07-0.05-0.07-0.12c-0.03-0.28-0.17-0.52-0.4-0.68c-0.16-0.11-0.34-0.16-0.53-0.16c-0.08,0-0.17,0.01-0.26,0.03
			c-0.06,0.02-0.12-0.01-0.14-0.03c-0.03-0.01-0.07-0.05-0.07-0.12l-0.05-1.4c-0.01-0.07,0.03-0.13,0.1-0.16l2.81-1.13
			c0.07-0.03,0.13,0,0.15,0.01C9.25,40.18,9.3,40.22,9.3,40.3"/>
		<path class="st12" d="M10.56,43.42c-0.07-0.02-0.12-0.07-0.12-0.14l-0.28-3.02c-0.01-0.07,0.03-0.12,0.06-0.14
			c0.01-0.01,0.05-0.03,0.1-0.03c0.02,0,0.03,0,0.05,0.01l2.9,0.89c0.06,0.02,0.11,0.08,0.11,0.15l0.06,1.4
			c0.01,0.07-0.03,0.11-0.05,0.13c-0.02,0.02-0.07,0.05-0.14,0.03c-0.28-0.05-0.56,0.02-0.78,0.19c-0.22,0.18-0.34,0.44-0.35,0.72
			c0,0.07-0.03,0.11-0.06,0.12c-0.02,0.02-0.08,0.05-0.14,0.03L10.56,43.42z"/>
		<path class="st12" d="M38.28,29.86c-0.17,0.29-0.2,0.63-0.09,0.94c0.11,0.31,0.36,0.56,0.67,0.68c0.09,0.03,0.17,0.12,0.2,0.22
			c0.03,0.1,0.02,0.2-0.04,0.29l-1.04,1.55c-0.07,0.12-0.23,0.18-0.37,0.14l-3.89-0.98c-0.11-0.03-0.2-0.11-0.24-0.22
			c-0.04-0.11-0.02-0.23,0.05-0.32l2.39-3.22c0.07-0.09,0.17-0.14,0.28-0.14c0.03,0,0.07,0.01,0.1,0.01l1.78,0.55
			c0.1,0.03,0.18,0.1,0.23,0.2C38.34,29.65,38.34,29.76,38.28,29.86"/>
		<path class="st12" d="M33.14,33.64c0.06-0.05,0.14-0.07,0.21-0.07c0.03,0,0.08,0.01,0.11,0.02l3.81,1.27
			c0.14,0.05,0.23,0.18,0.23,0.32l0.03,1.86c0,0.1-0.05,0.2-0.13,0.27c-0.08,0.06-0.18,0.09-0.29,0.07c-0.33-0.07-0.67,0-0.93,0.2
			c-0.27,0.2-0.42,0.51-0.44,0.84c0,0.1-0.05,0.2-0.14,0.27c-0.09,0.06-0.2,0.07-0.3,0.05l-1.79-0.5c-0.14-0.04-0.25-0.16-0.25-0.31
			l-0.27-4.01C33.01,33.82,33.06,33.71,33.14,33.64"/>
		<path class="st12" d="M31.66,33.61c0.11-0.03,0.22-0.02,0.32,0.05c0.1,0.07,0.15,0.17,0.14,0.29l-0.14,4.01
			c-0.01,0.14-0.1,0.27-0.24,0.31l-1.77,0.57c-0.1,0.03-0.21,0.01-0.3-0.05c-0.08-0.05-0.14-0.15-0.14-0.26
			c-0.03-0.33-0.2-0.63-0.46-0.82c-0.19-0.14-0.42-0.21-0.65-0.21c-0.1,0-0.18,0.01-0.28,0.03c-0.1,0.03-0.21,0.01-0.29-0.05
			c-0.08-0.07-0.14-0.16-0.14-0.27l-0.03-1.85c-0.01-0.15,0.09-0.28,0.22-0.33L31.66,33.61z"/>
		<path class="st12" d="M31.54,32.19c0.07,0.1,0.1,0.21,0.05,0.32c-0.03,0.11-0.12,0.19-0.23,0.22l-3.85,1.11
			c-0.14,0.04-0.29-0.01-0.38-0.12l-1.08-1.51c-0.06-0.09-0.08-0.2-0.05-0.29c0.03-0.1,0.1-0.18,0.2-0.23
			c0.31-0.12,0.54-0.38,0.64-0.7c0.1-0.32,0.05-0.66-0.12-0.94c-0.05-0.09-0.07-0.2-0.03-0.3c0.03-0.09,0.11-0.18,0.21-0.21
			l1.76-0.61c0.03-0.01,0.07-0.01,0.11-0.01c0.1,0,0.2,0.04,0.27,0.13L31.54,32.19z"/>
		<path class="st12" d="M31.32,26.27c0.1,0,0.19,0.05,0.26,0.12c0.22,0.25,0.54,0.39,0.87,0.39c0.33-0.01,0.64-0.16,0.85-0.42
			c0.07-0.08,0.17-0.14,0.27-0.12c0.1,0,0.2,0.05,0.27,0.13l1.14,1.47c0.09,0.12,0.09,0.27,0.01,0.4l-2.17,3.37
			c-0.06,0.1-0.16,0.16-0.29,0.16c-0.11,0-0.22-0.05-0.29-0.14l-2.29-3.3c-0.08-0.12-0.08-0.28,0.01-0.4l1.08-1.51
			c0.06-0.08,0.16-0.14,0.27-0.14H31.32z"/>
		<path class="st12" d="M31.22,9c0.03-0.04,0.07-0.07,0.13-0.07c0.01,0,0.03,0.01,0.05,0.01l1.34,0.43c0.07,0.02,0.1,0.08,0.1,0.1
			c0.01,0.03,0.02,0.08-0.01,0.14c-0.14,0.23-0.18,0.52-0.09,0.79c0.09,0.26,0.29,0.47,0.55,0.57c0.06,0.03,0.09,0.07,0.1,0.1
			c0.01,0.03,0.01,0.09-0.02,0.14l-0.8,1.15c-0.03,0.06-0.11,0.09-0.18,0.07l-2.92-0.79c-0.07-0.02-0.1-0.08-0.11-0.11
			c-0.01-0.03-0.02-0.09,0.03-0.15L31.22,9z"/>
		<path class="st12" d="M29.18,12.51l2.86,1.01c0.06,0.03,0.11,0.09,0.11,0.16v1.4c0,0.07-0.04,0.11-0.06,0.13
			c-0.03,0.01-0.08,0.05-0.14,0.03c-0.27-0.06-0.55-0.01-0.78,0.16c-0.23,0.16-0.36,0.42-0.38,0.7c-0.01,0.07-0.05,0.1-0.07,0.12
			c-0.03,0.01-0.07,0.04-0.14,0.02l-1.34-0.4c-0.07-0.02-0.12-0.07-0.12-0.14l-0.15-3.03c-0.01-0.08,0.04-0.12,0.06-0.14
			c0.02-0.01,0.05-0.03,0.1-0.03C29.14,12.49,29.16,12.5,29.18,12.51"/>
		<path class="st12" d="M25.91,15.4c-0.16-0.12-0.36-0.19-0.56-0.19c-0.07,0-0.15,0.01-0.23,0.03c-0.07,0.02-0.12-0.01-0.14-0.03
			c-0.03-0.02-0.06-0.06-0.06-0.13v-1.4c0-0.07,0.04-0.13,0.11-0.16l2.86-1.01c0.07-0.03,0.12,0,0.15,0.02
			c0.03,0.02,0.07,0.07,0.07,0.14l-0.16,3.03c0,0.07-0.05,0.12-0.12,0.14l-1.34,0.4c-0.07,0.02-0.12-0.01-0.14-0.02
			c-0.02-0.02-0.06-0.05-0.07-0.12C26.27,15.82,26.13,15.56,25.91,15.4"/>
		<path class="st12" d="M25.68,8.94c0.01-0.01,0.03-0.01,0.05-0.01c0.05,0,0.09,0.03,0.13,0.07l1.85,2.4
			c0.05,0.06,0.03,0.12,0.03,0.15c-0.01,0.03-0.04,0.09-0.12,0.11l-2.92,0.79c-0.07,0.02-0.14-0.01-0.18-0.07l-0.8-1.15
			c-0.04-0.05-0.03-0.11-0.02-0.14c0.01-0.03,0.03-0.08,0.1-0.1c0.26-0.1,0.46-0.31,0.55-0.57c0.09-0.27,0.05-0.56-0.09-0.79
			c-0.04-0.06-0.03-0.12-0.01-0.14c0.01-0.03,0.03-0.08,0.1-0.1L25.68,8.94z"/>
		<path class="st12" d="M28.4,10.86l-1.68-2.51c-0.04-0.05-0.04-0.14,0-0.19l0.84-1.13c0.04-0.05,0.1-0.07,0.13-0.07h0.01
			c0.03,0,0.08,0.01,0.12,0.06c0.18,0.21,0.44,0.34,0.72,0.34c0.28,0,0.54-0.13,0.72-0.34c0.04-0.05,0.1-0.06,0.13-0.06
			c0.03,0,0.08,0.01,0.12,0.07l0.84,1.13c0.04,0.05,0.05,0.14,0.01,0.19l-1.68,2.51c-0.04,0.07-0.1,0.07-0.14,0.07
			C28.5,10.93,28.44,10.93,28.4,10.86"/>
	</g>
	<g>
		<defs>
			<path id="SVGID_37_" d="M40.25,63.65c-0.81,0.04-1.62,0.09-2.43,0.14l-0.29,0.26l-1.11,1.01l-1.1,1.02l-0.14,0.13
				c-0.04,0.04-0.08,0.07-0.12,0.12c-0.08,0.08-0.16,0.16-0.23,0.25c-0.14,0.17-0.27,0.36-0.36,0.57c-0.1,0.21-0.18,0.41-0.24,0.64
				l-0.18,0.73l-0.36,1.46c-0.2,0.79-0.39,1.58-0.57,2.36h8.36c0.25,0,0.44-0.19,0.44-0.44v-8.32C41.35,63.6,40.8,63.62,40.25,63.65
				"/>
		</defs>
		<clipPath id="SVGID_38_">
			<use xlink:href="#SVGID_37_"  style="overflow:visible;"/>
		</clipPath>
		
			<radialGradient id="SVGID_39_" cx="-523.0155" cy="446.4332" r="0.6737" gradientTransform="matrix(11.285 0 0 -11.285 5939.7412 5105.9551)" gradientUnits="userSpaceOnUse">
			<stop  offset="0" style="stop-color:#EFC957"/>
			<stop  offset="0.1006" style="stop-color:#EFC957"/>
			<stop  offset="0.3378" style="stop-color:#EBBE4A"/>
			<stop  offset="0.7662" style="stop-color:#E1A12C"/>
			<stop  offset="1" style="stop-color:#DB8F1C"/>
		</radialGradient>
		<rect x="33.11" y="63.58" class="st13" width="8.8" height="8.76"/>
	</g>
	<g>
		<defs>
			<path id="SVGID_40_" d="M23.54,71.9c0,0.24,0.19,0.44,0.44,0.44h8.35c0.22-0.85,0.44-1.69,0.65-2.54l0.29-1.16
				c-0.34,0.33-0.89,0.85-1.55,1.52c-0.54,0.53-1.14,0.7-1.69,0.7c-0.57,0-1.08-0.18-1.37-0.37c-0.1-0.05-0.16-0.15-0.18-0.27
				c-0.02-0.11,0.01-0.22,0.08-0.31c0.14-0.17,1.16-1.42,2.06-2.09c-0.29-0.01-0.59-0.02-0.91-0.03c-2.7-0.07-3.54-2.19-3.57-2.28
				c-0.04-0.12-0.03-0.25,0.04-0.35c0.06-0.1,0.18-0.17,0.3-0.18c0.16-0.01,3.82-0.21,5.34,0.28c0.95,0.31,1.61,0.98,1.99,1.49
				c0.11-0.23,0.23-0.45,0.37-0.66c0.08-0.12,0.16-0.23,0.25-0.33c0.05-0.05,0.09-0.11,0.14-0.16l0.13-0.14l1.01-1.11l0.42-0.47
				c-0.33,0-0.65-0.01-0.98-0.03c-0.92-0.09-1.83-0.29-2.69-0.61l-2.32-0.89l-1.15-0.44l-0.57-0.22l-0.28-0.12l-0.14-0.06
				l-0.18-0.08c-0.48-0.21-0.92-0.52-1.29-0.88c-0.09-0.09-0.19-0.19-0.27-0.28l-0.2-0.23l-0.4-0.46l-2.08-2.41V71.9z"/>
		</defs>
		<clipPath id="SVGID_41_">
			<use xlink:href="#SVGID_40_"  style="overflow:visible;"/>
		</clipPath>
		
			<radialGradient id="SVGID_42_" cx="-527.3456" cy="443.4412" r="0.6737" gradientTransform="matrix(12.7696 0 0 -12.7696 6763.8062 5727.3091)" gradientUnits="userSpaceOnUse">
			<stop  offset="0" style="stop-color:#EFC957"/>
			<stop  offset="0.1006" style="stop-color:#EFC957"/>
			<stop  offset="0.3378" style="stop-color:#EBBE4A"/>
			<stop  offset="0.7662" style="stop-color:#E1A12C"/>
			<stop  offset="1" style="stop-color:#DB8F1C"/>
		</radialGradient>
		<rect x="23.54" y="57.18" class="st14" width="12.58" height="15.15"/>
	</g>
	<g>
		<defs>
			<path id="SVGID_43_" d="M20.96,49.01l0.61,1.73l0.68,1.91v-3.2c0-0.25-0.2-0.44-0.44-0.44H20.96z"/>
		</defs>
		<clipPath id="SVGID_44_">
			<use xlink:href="#SVGID_43_"  style="overflow:visible;"/>
		</clipPath>
		
			<radialGradient id="SVGID_45_" cx="-337.5573" cy="555.1779" r="0.6738" gradientTransform="matrix(2.0261 0 0 -2.0261 705.5358 1175.6915)" gradientUnits="userSpaceOnUse">
			<stop  offset="0" style="stop-color:#DCD1DC"/>
			<stop  offset="0.0279" style="stop-color:#DCD1DC"/>
			<stop  offset="1" style="stop-color:#A785B6"/>
		</radialGradient>
		<rect x="20.96" y="49.01" class="st15" width="1.29" height="3.64"/>
	</g>
	<g>
		<defs>
			<path id="SVGID_46_" d="M23.54,54.54l0.14,0.14l2.85,2.88c0.04-0.14,0.09-0.27,0.13-0.4l0.08-0.25c0.04-0.11,0.08-0.23,0.13-0.35
				c0.09-0.23,0.22-0.44,0.37-0.63c0.29-0.39,0.68-0.7,1.11-0.91c0.11-0.05,0.22-0.09,0.33-0.13c0.05-0.02,0.11-0.03,0.17-0.05
				c0.05-0.01,0.12-0.03,0.16-0.03l0.52-0.11l1.03-0.23l0.22-0.05c0.06-0.01,0.12-0.03,0.17-0.05c0.11-0.05,0.21-0.12,0.31-0.19
				c0.18-0.15,0.33-0.35,0.41-0.58c0.02-0.06,0.04-0.12,0.05-0.18l0.05-0.26l0.11-0.52l0.21-1.04l0.02-0.09
				c-0.01,0.01-0.01,0.01-0.01,0.02c-0.18,0.22-0.44,0.34-0.72,0.34h-0.02l-1.4-0.04c-0.2-0.01-0.4-0.08-0.55-0.2
				c-0.08,0.18-0.2,0.33-0.38,0.44l-1.19,0.74c-0.15,0.1-0.32,0.14-0.49,0.14c-0.11,0-0.22-0.02-0.33-0.06
				c-0.27-0.1-0.48-0.31-0.57-0.59c-0.02-0.06-0.07-0.09-0.1-0.1c-0.03-0.01-0.08-0.02-0.14,0.01c-0.25,0.14-0.55,0.16-0.82,0.04
				c-0.27-0.12-0.46-0.34-0.53-0.62l-0.37-1.36c-0.05-0.18-0.03-0.37,0.02-0.54c-0.18-0.02-0.36-0.09-0.5-0.21l-0.48-0.41V54.54z"/>
		</defs>
		<clipPath id="SVGID_47_">
			<use xlink:href="#SVGID_46_"  style="overflow:visible;"/>
		</clipPath>
		
			<radialGradient id="SVGID_48_" cx="-490.9652" cy="464.7589" r="0.6737" gradientTransform="matrix(6.313 0 0 -6.313 3127.3062 2987.376)" gradientUnits="userSpaceOnUse">
			<stop  offset="0" style="stop-color:#DCD1DC"/>
			<stop  offset="0.0279" style="stop-color:#DCD1DC"/>
			<stop  offset="1" style="stop-color:#A785B6"/>
		</radialGradient>
		<rect x="23.54" y="49.12" class="st16" width="8.57" height="8.44"/>
	</g>
	<g>
		<defs>
			<path id="SVGID_49_" d="M33.78,49.01l-0.14,0.74l-0.36,1.92c0.08-0.07,0.16-0.14,0.24-0.2c1.36-1.12,2.62-0.72,2.68-0.7
				c0.12,0.04,0.21,0.13,0.25,0.25c0.04,0.12,0.02,0.25-0.05,0.35c-0.09,0.12-0.58,0.75-1.15,1.37c0.36-0.11,0.74-0.23,1.15-0.35
				c2.76-0.84,4.29,1.08,4.35,1.16c0.07,0.1,0.1,0.22,0.07,0.33c-0.03,0.12-0.12,0.22-0.23,0.26c-0.16,0.07-3.8,1.53-5.49,1.53
				h-0.01c-1.14,0-2.09-0.55-2.63-0.96c-0.11,0.15-0.23,0.3-0.38,0.42c-0.17,0.16-0.37,0.29-0.58,0.4c-0.1,0.05-0.21,0.1-0.32,0.14
				l-0.16,0.05l-0.13,0.04l-1.02,0.3l-0.5,0.16c-0.05,0.01-0.07,0.03-0.1,0.03c-0.03,0.01-0.05,0.02-0.08,0.03
				c-0.05,0.03-0.1,0.05-0.15,0.08c-0.2,0.12-0.35,0.29-0.46,0.48c-0.05,0.09-0.1,0.2-0.12,0.3c-0.01,0.06-0.02,0.1-0.03,0.16
				l-0.05,0.26c-0.08,0.52-0.16,1.05-0.24,1.57c0.17,0.12,0.34,0.23,0.52,0.31l1.1,0.44l1.13,0.47l1.13,0.48l0.57,0.24l0.28,0.11
				c0.09,0.03,0.17,0.07,0.25,0.1c0.68,0.23,1.4,0.35,2.11,0.35c0.36,0,0.71-0.03,1.06-0.09l0.58-0.09l0.6-0.11
				c0.81-0.14,1.61-0.29,2.42-0.45c0.67-0.13,1.33-0.26,2-0.4V49.45c0-0.25-0.2-0.44-0.44-0.44H33.78z"/>
		</defs>
		<clipPath id="SVGID_50_">
			<use xlink:href="#SVGID_49_"  style="overflow:visible;"/>
		</clipPath>
		
			<radialGradient id="SVGID_51_" cx="-530.4276" cy="441.3354" r="0.6738" gradientTransform="matrix(13.9085 0 0 -13.9085 7412.5024 6193.6509)" gradientUnits="userSpaceOnUse">
			<stop  offset="0" style="stop-color:#EFC957"/>
			<stop  offset="0.1006" style="stop-color:#EFC957"/>
			<stop  offset="0.2951" style="stop-color:#EBBE4A"/>
			<stop  offset="0.6463" style="stop-color:#E1A12C"/>
			<stop  offset="0.838" style="stop-color:#DB8F1C"/>
			<stop  offset="1" style="stop-color:#DB8F1C"/>
		</radialGradient>
		<rect x="28.16" y="49.01" class="st17" width="13.75" height="12.63"/>
	</g>
	<g>
		<defs>
			<path id="SVGID_52_" d="M18.48,55.24l-1.74,1.01l-0.25,0.14c-0.09,0.05-0.18,0.09-0.28,0.13c-0.19,0.08-0.39,0.14-0.59,0.19
				c-0.4,0.09-0.82,0.12-1.22,0.07c-0.19-0.03-0.38-0.06-0.56-0.12l0.76,0.76c0.19,0.18,0.3,0.44,0.33,0.7
				c0.21-0.12,0.46-0.16,0.71-0.12l1.83,0.3c0.34,0.05,0.63,0.26,0.8,0.57c0.16,0.3,0.18,0.65,0.05,0.97
				c-0.05,0.13-0.02,0.24,0.01,0.29c0.03,0.05,0.09,0.15,0.23,0.18c0.33,0.07,0.61,0.3,0.76,0.61c0.15,0.31,0.15,0.67,0,0.98
				l-0.82,1.67c-0.13,0.25-0.34,0.44-0.59,0.55c0.21,0.17,0.35,0.42,0.39,0.7l0.29,1.83c0.05,0.34-0.05,0.68-0.29,0.93
				c-0.23,0.25-0.56,0.38-0.91,0.35c-0.14-0.01-0.23,0.05-0.27,0.09c-0.04,0.05-0.12,0.14-0.1,0.28c0.03,0.34-0.09,0.68-0.33,0.91
				c-0.21,0.2-0.48,0.31-0.77,0.31c-0.05,0-0.11-0.01-0.16-0.01l-1.84-0.26c-0.31-0.04-0.57-0.21-0.74-0.45
				c-0.1,0.28-0.3,0.52-0.58,0.65l-1.68,0.79c-0.15,0.07-0.31,0.11-0.48,0.11c-0.17,0-0.34-0.04-0.5-0.12
				c-0.31-0.16-0.53-0.44-0.59-0.78c-0.03-0.14-0.12-0.2-0.18-0.23C9.11,69.2,9,69.16,8.87,69.21c-0.32,0.13-0.68,0.11-0.97-0.06
				c-0.3-0.17-0.5-0.46-0.55-0.81l-0.27-1.83c-0.05-0.28,0.02-0.56,0.17-0.78c-0.27-0.02-0.53-0.14-0.73-0.35l-1.28-1.35
				C5,63.77,4.89,63.43,4.94,63.09c0.05-0.34,0.25-0.63,0.55-0.8c0.12-0.07,0.16-0.18,0.16-0.24c0.01-0.05,0.01-0.17-0.07-0.28
				c-0.23-0.27-0.31-0.61-0.24-0.95c0.07-0.33,0.28-0.62,0.59-0.77l1.66-0.84c0.23-0.12,0.48-0.14,0.71-0.1
				c-0.05-0.25-0.02-0.52,0.1-0.76l0.87-1.64c0.16-0.31,0.45-0.52,0.79-0.58c0.34-0.06,0.68,0.03,0.94,0.27
				c0.1,0.1,0.22,0.09,0.28,0.08c0.06-0.01,0.17-0.04,0.24-0.16c0.07-0.1,0.15-0.19,0.24-0.27l-1.34-0.4l-1.11-0.32
				c-0.27-0.04-0.58-0.12-0.89-0.25l-0.18-0.05c-0.07-0.02-0.14-0.04-0.22-0.05c-0.14-0.03-0.29-0.05-0.44-0.07
				C7.3,54.89,7,54.92,6.71,54.98c-0.95,0.32-1.89,0.64-2.83,0.97V71.9c0,0.24,0.2,0.44,0.44,0.44h17.5c0.24,0,0.44-0.19,0.44-0.44
				V55.68l-0.67-0.77c-0.16-0.2-0.31-0.42-0.43-0.65c-0.06-0.12-0.12-0.23-0.16-0.36c-0.01-0.03-0.02-0.06-0.03-0.09
				C20.13,54.29,19.3,54.76,18.48,55.24"/>
		</defs>
		<clipPath id="SVGID_53_">
			<use xlink:href="#SVGID_52_"  style="overflow:visible;"/>
		</clipPath>
		
			<radialGradient id="SVGID_54_" cx="-537.368" cy="436.9817" r="0.6737" gradientTransform="matrix(18.1282 0 0 -18.1282 9754.5537 7984.7461)" gradientUnits="userSpaceOnUse">
			<stop  offset="0" style="stop-color:#EFC957"/>
			<stop  offset="0.1006" style="stop-color:#EFC957"/>
			<stop  offset="0.3378" style="stop-color:#EBBE4A"/>
			<stop  offset="0.7662" style="stop-color:#E1A12C"/>
			<stop  offset="1" style="stop-color:#DB8F1C"/>
		</radialGradient>
		<rect x="3.88" y="53.82" class="st18" width="18.37" height="18.52"/>
	</g>
	<g>
		<defs>
			<path id="SVGID_55_" d="M4.31,49.01c-0.24,0-0.44,0.2-0.44,0.44v5.7c0.87-0.29,1.74-0.59,2.61-0.89H6.5l0.02-0.01
				c0.26-0.07,0.53-0.11,0.8-0.12C6.65,53.1,6.07,51.24,6,51c-0.03-0.11-0.01-0.23,0.05-0.33c0.06-0.09,0.16-0.16,0.27-0.17
				c0.72-0.1,2.23,0.12,2.86,1.63c0.52,1.23,0.93,2.14,1.1,2.52l0.39,0.09l0.07,0.02c-0.1-0.21-0.22-0.46-0.36-0.75
				c-0.44-0.91,0.15-1.69,0.53-1.98c0.08-0.07,0.19-0.09,0.3-0.07c0.11,0.02,0.21,0.08,0.26,0.17c0.14,0.23,0.86,1.36,0.89,2.02
				c0.02,0.35-0.12,0.67-0.27,0.92l0.54,0.12l0.99,0.21l0.49,0.11c0.14,0.03,0.27,0.04,0.4,0.05c0.27,0.01,0.53-0.03,0.78-0.1
				c0.12-0.04,0.24-0.09,0.35-0.15c0.06-0.03,0.12-0.07,0.17-0.09l0.18-0.12l1.65-1.15c0.92-0.64,1.83-1.28,2.74-1.92l-0.24-0.79
				l-0.7-2.2H4.31z"/>
		</defs>
		<clipPath id="SVGID_56_">
			<use xlink:href="#SVGID_55_"  style="overflow:visible;"/>
		</clipPath>
		
			<radialGradient id="SVGID_57_" cx="-513.2863" cy="450.8411" r="0.6738" gradientTransform="matrix(9.3146 0 0 -9.3146 4793.1592 4251.668)" gradientUnits="userSpaceOnUse">
			<stop  offset="0" style="stop-color:#EEDBE0"/>
			<stop  offset="0.162" style="stop-color:#EEDBE0"/>
			<stop  offset="0.3306" style="stop-color:#E9C9CF"/>
			<stop  offset="0.6967" style="stop-color:#E0A7B2"/>
			<stop  offset="0.8994" style="stop-color:#DD9BA8"/>
			<stop  offset="1" style="stop-color:#DD9BA8"/>
		</radialGradient>
		<rect x="3.88" y="49.01" class="st19" width="16.5" height="6.55"/>
	</g>
	<g>
		<defs>
			<path id="SVGID_58_" d="M14.55,37.43c-0.03,0.05-0.02,0.11-0.01,0.14c0.01,0.03,0.03,0.07,0.1,0.09c0.28,0.09,0.49,0.3,0.59,0.57
				c0.1,0.27,0.06,0.57-0.09,0.82l-0.75,1.19c-0.1,0.16-0.25,0.28-0.41,0.35c0.1,0.14,0.17,0.32,0.18,0.5l0.06,1.4
				c0.01,0.29-0.11,0.56-0.33,0.75c-0.22,0.19-0.5,0.27-0.79,0.21c-0.07-0.01-0.12,0.01-0.14,0.03c-0.02,0.01-0.06,0.05-0.06,0.12
				c0,0.29-0.14,0.56-0.37,0.74c-0.16,0.12-0.36,0.19-0.57,0.19c-0.08,0-0.16-0.01-0.23-0.03l-1.36-0.35
				c-0.2-0.05-0.37-0.16-0.49-0.31c-0.12,0.16-0.27,0.29-0.46,0.36l-1.33,0.46c-0.1,0.03-0.2,0.05-0.31,0.05
				c-0.18,0-0.35-0.05-0.5-0.15c-0.25-0.16-0.4-0.42-0.43-0.7c-0.01-0.07-0.05-0.1-0.07-0.12c-0.03-0.02-0.08-0.04-0.14-0.03
				c-0.28,0.08-0.57,0.03-0.81-0.14c-0.23-0.16-0.38-0.43-0.39-0.72l-0.05-1.4c-0.01-0.19,0.04-0.37,0.14-0.52
				c-0.17-0.06-0.33-0.16-0.44-0.31l-0.85-1.12c-0.12-0.16-0.19-0.36-0.19-0.57H3.88v8.34c0,0.25,0.2,0.44,0.44,0.44h14.7
				c-0.03-0.06-0.05-0.12-0.08-0.17l-0.14-0.26l-0.31-0.53l-1.23-2.13l-0.61-1.06c-0.09-0.18-0.2-0.34-0.31-0.58
				c-0.11-0.23-0.19-0.46-0.25-0.71c-0.11-0.48-0.12-0.99-0.03-1.47c0.03-0.12,0.05-0.24,0.09-0.35c0.04-0.12,0.07-0.2,0.1-0.31
				l0.2-0.58l0.25-0.74c-0.17-0.16-0.34-0.31-0.52-0.46c-0.27-0.22-0.55-0.46-0.82-0.68c-0.24-0.18-0.48-0.37-0.72-0.57
				C14.63,37.24,14.61,37.34,14.55,37.43"/>
		</defs>
		<clipPath id="SVGID_59_">
			<use xlink:href="#SVGID_58_"  style="overflow:visible;"/>
		</clipPath>
		
			<radialGradient id="SVGID_60_" cx="-530.5574" cy="440.3373" r="0.6737" gradientTransform="matrix(14.3193 0 0 -14.3193 7608.6704 6347.7637)" gradientUnits="userSpaceOnUse">
			<stop  offset="0" style="stop-color:#EEDBE0"/>
			<stop  offset="0.162" style="stop-color:#EEDBE0"/>
			<stop  offset="0.3306" style="stop-color:#E9C9CF"/>
			<stop  offset="0.6967" style="stop-color:#E0A7B2"/>
			<stop  offset="0.8994" style="stop-color:#DD9BA8"/>
			<stop  offset="1" style="stop-color:#DD9BA8"/>
		</radialGradient>
		<rect x="3.88" y="37.14" class="st20" width="15.14" height="10.58"/>
	</g>
	<g>
		<defs>
			<path id="SVGID_61_" d="M4.31,24.39c-0.24,0-0.44,0.2-0.44,0.44v14.11h0.16c0-0.08,0.01-0.16,0.03-0.24
				c0.07-0.28,0.27-0.51,0.53-0.63c0.06-0.03,0.08-0.07,0.09-0.1c0.01-0.03,0.02-0.08-0.02-0.14c-0.16-0.24-0.2-0.54-0.12-0.81
				c0.09-0.28,0.3-0.49,0.57-0.59l1.32-0.49c0.15-0.05,0.32-0.07,0.48-0.04c0.01-0.18,0.05-0.35,0.16-0.5l0.79-1.16
				c0.16-0.24,0.42-0.39,0.71-0.41c0.29-0.02,0.57,0.1,0.76,0.31c0.04,0.05,0.1,0.05,0.13,0.05c0.03,0,0.08-0.01,0.12-0.07
				c0.18-0.23,0.44-0.36,0.73-0.37h0.01c0.29,0,0.55,0.13,0.73,0.35l0.89,1.09c0.11,0.14,0.18,0.31,0.2,0.48
				c0.16-0.04,0.32-0.04,0.48,0l0.27,0.08c-0.31-0.34-0.56-0.74-0.72-1.15c-0.29-0.73-0.41-1.48-0.44-2.22
				c-0.02-0.74,0.03-1.47,0.16-2.19c0.14-0.61,0-1.19-0.31-1.72c-0.32,0.59-0.95,1.25-1.93,1.25c-0.08,0-0.16-0.01-0.25-0.01
				c-1.47-0.17-2.45-0.25-2.46-0.25c-0.12-0.01-0.23-0.08-0.3-0.18c-0.07-0.11-0.07-0.24-0.03-0.35c0.03-0.05,0.55-1.33,1.59-1.66
				c0.57-0.18,1.56-0.08,2.31,0.05c-0.14-0.11-0.29-0.21-0.44-0.31c-0.57-0.38-1.2-0.68-1.85-0.94c-0.16-0.06-0.32-0.13-0.49-0.18
				l-0.51-0.18c-0.35-0.12-0.69-0.28-1.01-0.47L4.8,24.39H4.31z"/>
		</defs>
		<clipPath id="SVGID_62_">
			<use xlink:href="#SVGID_61_"  style="overflow:visible;"/>
		</clipPath>
		
			<radialGradient id="SVGID_63_" cx="-526.4526" cy="442.2311" r="0.6737" gradientTransform="matrix(12.7415 0 0 -12.7415 6716.1914 5666.3613)" gradientUnits="userSpaceOnUse">
			<stop  offset="0" style="stop-color:#EEDBE0"/>
			<stop  offset="0.162" style="stop-color:#EEDBE0"/>
			<stop  offset="0.3306" style="stop-color:#E9C9CF"/>
			<stop  offset="0.6967" style="stop-color:#E0A7B2"/>
			<stop  offset="0.8994" style="stop-color:#DD9BA8"/>
			<stop  offset="1" style="stop-color:#DD9BA8"/>
		</radialGradient>
		<rect x="3.88" y="24.39" class="st21" width="9.02" height="14.55"/>
	</g>
	<g>
		<defs>
			<path id="SVGID_64_" d="M6.1,24.39c0.15,0.11,0.3,0.2,0.45,0.31c0.29,0.17,0.59,0.33,0.9,0.45l0.24,0.09l0.26,0.09
				c0.17,0.06,0.33,0.14,0.5,0.2c0.67,0.28,1.32,0.61,1.94,1.01c0.61,0.4,1.2,0.88,1.64,1.52c0.11,0.16,0.21,0.32,0.29,0.51
				c0.09,0.17,0.14,0.36,0.2,0.56c0.03,0.1,0.03,0.19,0.05,0.29c0.01,0.1,0.02,0.2,0.03,0.3l-0.02,0.3
				c-0.01,0.1-0.01,0.21-0.04,0.29c-0.09,0.68-0.12,1.37-0.07,2.04c0.06,0.68,0.19,1.35,0.48,1.92c0.27,0.58,0.72,1.02,1.27,1.25
				l0.05,0.03l0.92,0.52c0.31,0.18,0.61,0.35,0.93,0.52c0.31,0.18,0.63,0.33,0.93,0.5c0.08,0.03,0.15,0.07,0.22,0.11
				c0.13-0.37,0.25-0.76,0.37-1.13c0.06-0.18,0.13-0.42,0.23-0.63c0.1-0.2,0.2-0.4,0.33-0.59c0.01-0.01,0.01-0.01,0.01-0.02
				c-0.52-0.33-1.38-1.02-1.77-2.11c-0.54-1.49-0.44-5.17-0.44-5.32c0-0.13,0.06-0.24,0.16-0.31c0.1-0.07,0.23-0.09,0.35-0.05
				c0.09,0.03,2.22,0.8,2.38,3.5c0.08,1.38,0.16,2.51,0.21,3.24l0.73-0.82l2.41-2.7v-5.43c0-0.25-0.2-0.44-0.44-0.44H6.1z"/>
		</defs>
		<clipPath id="SVGID_65_">
			<use xlink:href="#SVGID_64_"  style="overflow:visible;"/>
		</clipPath>
		
			<radialGradient id="SVGID_66_" cx="-536.4573" cy="436.6525" r="0.6737" gradientTransform="matrix(17.4801 0 0 -17.4801 9391.5234 7663.5513)" gradientUnits="userSpaceOnUse">
			<stop  offset="0" style="stop-color:#EEDBE0"/>
			<stop  offset="0.162" style="stop-color:#EEDBE0"/>
			<stop  offset="0.3306" style="stop-color:#E9C9CF"/>
			<stop  offset="0.6967" style="stop-color:#E0A7B2"/>
			<stop  offset="0.8994" style="stop-color:#DD9BA8"/>
			<stop  offset="1" style="stop-color:#DD9BA8"/>
		</radialGradient>
		<rect x="6.1" y="24.39" class="st22" width="16.15" height="12.82"/>
	</g>
	<g>
		<defs>
			<path id="SVGID_67_" d="M20.4,33.47l-0.81,0.92l-0.4,0.46c-0.07,0.07-0.14,0.15-0.19,0.22c-0.05,0.07-0.11,0.14-0.16,0.22
				c-0.09,0.16-0.18,0.31-0.25,0.48c-0.07,0.17-0.12,0.33-0.17,0.54c-0.1,0.4-0.21,0.79-0.31,1.19l-0.59,2.39l-0.15,0.59
				c-0.02,0.09-0.05,0.21-0.07,0.29c-0.02,0.08-0.03,0.16-0.04,0.25c-0.03,0.32-0.01,0.65,0.08,0.96c0.04,0.15,0.1,0.3,0.18,0.44
				c0.06,0.12,0.18,0.32,0.29,0.49l0.63,1.05l1.24,2.12l0.31,0.53l0.16,0.27c0.05,0.11,0.12,0.23,0.16,0.33
				c0.05,0.12,0.1,0.23,0.14,0.35l0.05,0.16h1.31c0.24,0,0.44-0.2,0.44-0.44V31.36L20.4,33.47z"/>
		</defs>
		<clipPath id="SVGID_68_">
			<use xlink:href="#SVGID_67_"  style="overflow:visible;"/>
		</clipPath>
		
			<radialGradient id="SVGID_69_" cx="-511.8566" cy="451.237" r="0.6737" gradientTransform="matrix(8.9805 0 0 -8.9805 4616.4829 4091.884)" gradientUnits="userSpaceOnUse">
			<stop  offset="0" style="stop-color:#DCD1DC"/>
			<stop  offset="0.0279" style="stop-color:#DCD1DC"/>
			<stop  offset="1" style="stop-color:#A785B6"/>
		</radialGradient>
		<rect x="17.22" y="31.36" class="st23" width="5.02" height="16.36"/>
	</g>
	<g>
		<defs>
			<path id="SVGID_70_" d="M41.9,41.06c-0.14,0.06-0.31,0.15-0.46,0.23c-0.32,0.18-0.63,0.37-0.94,0.57
				c-0.31,0.2-0.61,0.42-0.9,0.63c-0.29,0.22-0.58,0.45-0.8,0.68l-0.01,0.02l-0.03,0.03c-0.61,0.5-1.23,1-1.85,1.49
				c-0.59,0.48-1.2,0.96-1.8,1.44c-0.01,0.01-0.01,0.01-0.03,0.03l-0.05,0.09l-0.12,0.21c-0.08,0.14-0.16,0.3-0.24,0.45
				c-0.14,0.26-0.27,0.52-0.39,0.79h7.2c0.25,0,0.44-0.2,0.44-0.44L41.9,41.06L41.9,41.06z"/>
		</defs>
		<clipPath id="SVGID_71_">
			<use xlink:href="#SVGID_70_"  style="overflow:visible;"/>
		</clipPath>
		
			<radialGradient id="SVGID_72_" cx="-510.8018" cy="452.7173" r="0.6737" gradientTransform="matrix(8.6272 0 0 -8.6272 4444.8955 3950.092)" gradientUnits="userSpaceOnUse">
			<stop  offset="0" style="stop-color:#EFC957"/>
			<stop  offset="0.1006" style="stop-color:#EFC957"/>
			<stop  offset="0.3378" style="stop-color:#EBBE4A"/>
			<stop  offset="0.7662" style="stop-color:#E1A12C"/>
			<stop  offset="1" style="stop-color:#DB8F1C"/>
		</radialGradient>
		<rect x="34.27" y="41.06" class="st24" width="7.64" height="6.66"/>
	</g>
	<g>
		<defs>
			<path id="SVGID_73_" d="M23.98,24.39c-0.25,0-0.44,0.2-0.44,0.44v4.02c0-0.01,0.01-0.01,0.01-0.01L24,28.42l0.89-0.84l1.79-1.68
				l1.6-1.51H23.98z"/>
		</defs>
		<clipPath id="SVGID_74_">
			<use xlink:href="#SVGID_73_"  style="overflow:visible;"/>
		</clipPath>
		
			<radialGradient id="SVGID_75_" cx="-491.6435" cy="462.2393" r="0.6736" gradientTransform="matrix(6.3863 0 0 -6.3863 3165.6956 2978.6267)" gradientUnits="userSpaceOnUse">
			<stop  offset="0" style="stop-color:#EEDBE0"/>
			<stop  offset="0.162" style="stop-color:#EEDBE0"/>
			<stop  offset="0.3306" style="stop-color:#E9C9CF"/>
			<stop  offset="0.6967" style="stop-color:#E0A7B2"/>
			<stop  offset="0.8994" style="stop-color:#DD9BA8"/>
			<stop  offset="1" style="stop-color:#DD9BA8"/>
		</radialGradient>
		<rect x="23.54" y="24.39" class="st25" width="4.74" height="4.46"/>
	</g>
	<g>
		<defs>
			<path id="SVGID_76_" d="M29.25,24.39l-2.11,2l-1.77,1.7l-0.89,0.85l-0.44,0.42c-0.16,0.16-0.26,0.25-0.4,0.42l-0.09,0.11v15.29
				l0.78-0.51c0.14-0.09,0.3-0.14,0.46-0.15c-0.03-0.17-0.01-0.35,0.05-0.52l0.52-1.3c0.11-0.27,0.33-0.47,0.61-0.55
				c0.28-0.09,0.57-0.03,0.81,0.13c0.05,0.04,0.11,0.03,0.14,0.03c0.03-0.01,0.07-0.03,0.1-0.09c0.12-0.27,0.35-0.46,0.63-0.52
				c0.29-0.07,0.57,0,0.8,0.18l1.1,0.87c0.14,0.12,0.25,0.26,0.3,0.42c0.14-0.07,0.31-0.11,0.47-0.1l1.4,0.07
				c0.29,0.01,0.55,0.16,0.72,0.4c0.17,0.24,0.22,0.53,0.14,0.81c-0.02,0.06,0,0.12,0.02,0.14c0.01,0.03,0.05,0.07,0.12,0.07
				c0.29,0.03,0.54,0.18,0.69,0.43c0.16,0.24,0.18,0.55,0.09,0.82l-0.47,1.32c-0.07,0.18-0.18,0.33-0.33,0.43
				c0.05,0.05,0.11,0.11,0.15,0.18h0.2c0.05-0.12,0.1-0.23,0.15-0.33c0.16-0.33,0.32-0.65,0.48-0.97c0.09-0.16,0.17-0.32,0.27-0.48
				c0.04-0.07,0.1-0.16,0.14-0.25l0.09-0.13c0.03-0.04,0.08-0.11,0.12-0.16l0.03-0.03l0.05-0.03c0.63-0.49,1.25-0.97,1.89-1.45
				c0.63-0.48,1.26-0.97,1.9-1.45c0.03-0.03,0.06-0.05,0.09-0.08l-0.39-2.66l-1.36-1c-0.07,0.25-0.21,0.47-0.42,0.62
				c-0.2,0.14-0.42,0.22-0.66,0.22c-0.1,0-0.2-0.01-0.3-0.04l-1.79-0.5c-0.3-0.08-0.54-0.29-0.68-0.55
				c-0.13,0.27-0.36,0.48-0.65,0.57l-1.78,0.56c-0.11,0.03-0.23,0.05-0.34,0.05c-0.22,0-0.44-0.07-0.62-0.19
				c-0.29-0.2-0.46-0.5-0.49-0.85c-0.01-0.14-0.1-0.23-0.14-0.26c-0.05-0.03-0.15-0.09-0.29-0.05c-0.33,0.09-0.68,0.02-0.95-0.19
				c-0.27-0.21-0.44-0.52-0.44-0.87l-0.03-1.86c-0.01-0.28,0.1-0.55,0.28-0.75c-0.27-0.05-0.51-0.2-0.67-0.44l-1.09-1.51
				c-0.2-0.28-0.26-0.63-0.16-0.96c0.1-0.33,0.33-0.59,0.65-0.72c0.13-0.05,0.18-0.16,0.2-0.22c0.01-0.05,0.03-0.17-0.04-0.29
				c-0.18-0.29-0.23-0.64-0.11-0.97c0.11-0.33,0.36-0.58,0.69-0.69l1.76-0.61c0.24-0.08,0.49-0.08,0.72,0
				c-0.02-0.26,0.04-0.52,0.2-0.74l1.09-1.51c0.2-0.28,0.51-0.45,0.85-0.46c0.36-0.01,0.68,0.12,0.9,0.38
				c0.09,0.11,0.2,0.12,0.27,0.12c0.06,0,0.17-0.02,0.26-0.13c0.22-0.27,0.53-0.42,0.89-0.42c0.34,0,0.66,0.16,0.87,0.44l1.14,1.47
				c0.16,0.21,0.24,0.47,0.23,0.73c0.23-0.08,0.48-0.09,0.72-0.03l0.52,0.16l1.73-3.84H29.25z"/>
		</defs>
		<clipPath id="SVGID_77_">
			<use xlink:href="#SVGID_76_"  style="overflow:visible;"/>
		</clipPath>
		
			<radialGradient id="SVGID_78_" cx="-531.8859" cy="439.7363" r="0.6737" gradientTransform="matrix(14.6261 0 0 -14.6261 7810.5552 6467.6646)" gradientUnits="userSpaceOnUse">
			<stop  offset="0" style="stop-color:#DCD1DC"/>
			<stop  offset="0.0279" style="stop-color:#DCD1DC"/>
			<stop  offset="1" style="stop-color:#A785B6"/>
		</radialGradient>
		<rect x="23.54" y="24.39" class="st26" width="15.25" height="23.33"/>
	</g>
	<g>
		<defs>
			<path id="SVGID_79_" d="M39.63,24.39l-1.83,4.06l0.51,0.16c0.33,0.1,0.59,0.35,0.72,0.67c0.12,0.32,0.09,0.67-0.08,0.97
				c-0.07,0.12-0.05,0.23-0.03,0.29c0.02,0.05,0.07,0.16,0.2,0.2c0.32,0.12,0.57,0.37,0.68,0.7c0.11,0.33,0.06,0.68-0.13,0.97
				l-1.04,1.55c-0.16,0.24-0.4,0.4-0.66,0.46c0.18,0.2,0.3,0.46,0.31,0.74l0.03,1.86c0,0.34-0.14,0.67-0.42,0.89
				c-0.23,0.19-0.53,0.28-0.83,0.24l1.51,1.11l0.37,2.55c0.03-0.03,0.07-0.05,0.11-0.07c0.32-0.22,0.65-0.42,0.97-0.62
				c0.33-0.2,0.67-0.38,1.02-0.56c0.18-0.09,0.35-0.16,0.56-0.24c0.12-0.05,0.2-0.06,0.29-0.09v-15.4c0-0.25-0.2-0.44-0.44-0.44
				H39.63z"/>
		</defs>
		<clipPath id="SVGID_80_">
			<use xlink:href="#SVGID_79_"  style="overflow:visible;"/>
		</clipPath>
		
			<radialGradient id="SVGID_81_" cx="-515.59" cy="449.3294" r="0.6737" gradientTransform="matrix(9.4885 0 0 -9.4885 4931.6387 4296.5435)" gradientUnits="userSpaceOnUse">
			<stop  offset="0" style="stop-color:#DCD1DC"/>
			<stop  offset="0.0279" style="stop-color:#DCD1DC"/>
			<stop  offset="1" style="stop-color:#A785B6"/>
		</radialGradient>
		<rect x="37.07" y="24.39" class="st27" width="4.84" height="17.42"/>
	</g>
	<g>
		<defs>
			<path id="SVGID_82_" d="M35.48,15.57c0.29-0.14,0.63-0.32,1.02-0.52c1.11-0.57,2.11,0.09,2.47,0.53
				c0.07,0.08,0.11,0.19,0.09,0.31c-0.01,0.11-0.07,0.2-0.16,0.27c-0.18,0.12-1.73,1.14-2.59,1.22c-0.05,0-0.1,0.01-0.15,0.01
				c-0.55,0-1.05-0.28-1.35-0.5c-0.38,0.72-0.74,1.44-1.11,2.16c-0.19,0.37-0.36,0.72-0.57,1.1c-0.14,0.24-0.29,0.47-0.44,0.7h8.59
				c0.27,0,0.47-0.23,0.44-0.49c-0.46-3.47-1.87-6.63-3.95-9.24C37.01,12.59,36.24,14.08,35.48,15.57"/>
		</defs>
		<clipPath id="SVGID_83_">
			<use xlink:href="#SVGID_82_"  style="overflow:visible;"/>
		</clipPath>
		
			<radialGradient id="SVGID_84_" cx="-498.3767" cy="458.1123" r="0.6737" gradientTransform="matrix(6.969 0 0 -6.969 3510.4243 3208.571)" gradientUnits="userSpaceOnUse">
			<stop  offset="0" style="stop-color:#DCD1DC"/>
			<stop  offset="0.0279" style="stop-color:#DCD1DC"/>
			<stop  offset="1" style="stop-color:#A785B6"/>
		</radialGradient>
		<rect x="32.7" y="11.1" class="st28" width="9.06" height="9.73"/>
	</g>
	<g>
		<defs>
			<path id="SVGID_85_" d="M4.06,20.34c-0.03,0.26,0.17,0.49,0.44,0.49h8.76h18.11l-0.38-0.54c-0.26-0.37-0.52-0.76-0.78-1.13
				c-0.24-0.34-0.52-0.6-0.88-0.83c-0.34-0.22-0.73-0.4-1.13-0.57c-1.41-0.16-2.82-0.35-4.23-0.53c-1.25-0.16-2.51-0.34-3.76-0.53
				c0,0.01,0,0.01-0.01,0.01c-0.03,0.08-1.02,1.95-2.98,2.58c-0.94,0.3-2.56,0.37-3.97,0.37c-1.4,0-2.59-0.07-2.69-0.08
				c-0.12-0.01-0.23-0.08-0.3-0.18c-0.07-0.1-0.08-0.23-0.03-0.35c0.04-0.11,1.08-2.69,4.41-2.75c0.31-0.01,0.61-0.01,0.9-0.02
				c-1.7-0.93-3.88-2.76-3.99-2.86c-0.1-0.08-0.15-0.2-0.14-0.33c0.01-0.13,0.09-0.24,0.2-0.3c0.08-0.05,2-1.11,4.62,0.2
				c2.19,1.1,3.84,3.05,3.91,3.13c0.01,0.02,0.03,0.04,0.03,0.06c0.35,0.03,0.69,0.05,1.04,0.08c-0.25-0.22-0.52-0.5-0.74-0.83
				c-0.64-1-1.13-3.67-1.15-3.79c-0.02-0.12,0.01-0.25,0.1-0.34c0.1-0.09,0.22-0.13,0.35-0.11c0.06,0.01,1.55,0.29,2.36,2.12
				c0.54,1.23,0.65,2.6,0.68,3.09c0.41,0.04,0.82,0.08,1.23,0.12c0.57,0.05,1.14,0.12,1.71,0.17c-0.15-0.16-0.24-0.37-0.25-0.59
				c0-0.07-0.04-0.11-0.06-0.12c-0.03-0.02-0.07-0.05-0.14-0.03c-0.28,0.07-0.57,0-0.81-0.18c-0.23-0.18-0.35-0.45-0.35-0.74v-1.4
				c0-0.19,0.06-0.37,0.16-0.52c-0.16-0.07-0.31-0.18-0.42-0.33l-0.8-1.15c-0.17-0.24-0.21-0.53-0.13-0.81
				c0.09-0.28,0.29-0.5,0.56-0.6c0.06-0.03,0.09-0.08,0.09-0.1c0.01-0.03,0.02-0.08-0.01-0.14c-0.15-0.24-0.18-0.55-0.08-0.82
				c0.1-0.27,0.31-0.48,0.59-0.57l1.33-0.44c0.16-0.05,0.33-0.05,0.48-0.02c0.01-0.17,0.07-0.34,0.18-0.49l0.84-1.13
				c0.18-0.23,0.44-0.37,0.73-0.37c0.29-0.01,0.56,0.12,0.74,0.33c0.05,0.05,0.1,0.06,0.13,0.06c0.03,0,0.08-0.01,0.12-0.06
				c0.19-0.23,0.46-0.35,0.75-0.33c0.22,0.01,0.41,0.08,0.58,0.22c0.05,0.05,0.1,0.09,0.15,0.16l0.84,1.13
				c0.1,0.15,0.16,0.32,0.18,0.49c0.16-0.03,0.32-0.03,0.48,0.02l1.34,0.44c0.28,0.09,0.49,0.3,0.59,0.57
				c0.1,0.27,0.07,0.57-0.08,0.82c-0.03,0.05-0.03,0.11-0.01,0.14c0.01,0.03,0.03,0.07,0.09,0.1c0.27,0.1,0.47,0.32,0.56,0.6
				c0.08,0.28,0.03,0.57-0.13,0.81l-0.8,1.15c-0.11,0.16-0.26,0.27-0.43,0.33c0.1,0.15,0.16,0.33,0.16,0.52v1.4
				c0,0.29-0.13,0.56-0.36,0.74c-0.22,0.18-0.52,0.25-0.8,0.18c-0.07-0.02-0.12,0.01-0.14,0.03c-0.02,0.01-0.06,0.05-0.07,0.12
				c-0.01,0.29-0.16,0.55-0.4,0.72c-0.16,0.12-0.35,0.17-0.54,0.17c-0.09,0-0.18-0.01-0.27-0.04l-1.34-0.4
				c-0.2-0.05-0.36-0.18-0.48-0.33c-0.12,0.16-0.29,0.28-0.48,0.33l-0.95,0.29c0.41,0.04,0.82,0.08,1.23,0.13L28.39,17l0.05,0.02
				c0.43,0.18,0.87,0.36,1.3,0.62c0.44,0.25,0.84,0.63,1.12,1.05c0.27,0.4,0.53,0.76,0.78,1.15l0.45,0.67
				c0.16-0.23,0.31-0.46,0.45-0.71c0.18-0.33,0.37-0.72,0.55-1.08c1.39-2.75,2.77-5.51,4.15-8.27c-1.87-2.15-4.22-3.88-6.86-5.03
				c-2.31-1.01-4.85-1.56-7.5-1.56C13.36,3.87,5.3,11.01,4.06,20.34"/>
		</defs>
		<clipPath id="SVGID_86_">
			<use xlink:href="#SVGID_85_"  style="overflow:visible;"/>
		</clipPath>
		
			<radialGradient id="SVGID_87_" cx="-547.746" cy="430.0193" r="0.6742" gradientTransform="matrix(30.4067 0 0 -30.4067 16675.7891 13087.8242)" gradientUnits="userSpaceOnUse">
			<stop  offset="0" style="stop-color:#EEDBE0"/>
			<stop  offset="0.162" style="stop-color:#EEDBE0"/>
			<stop  offset="0.3306" style="stop-color:#E9C9CF"/>
			<stop  offset="0.6967" style="stop-color:#E0A7B2"/>
			<stop  offset="0.8994" style="stop-color:#DD9BA8"/>
			<stop  offset="1" style="stop-color:#DD9BA8"/>
		</radialGradient>
		<rect x="4.02" y="3.87" class="st29" width="33.23" height="16.96"/>
	</g>
	<path class="st30" d="M29.65,23.1H3.03c-0.25,0-0.44,0.2-0.44,0.44v32.05v0.81v16.79c0,0.25,0.2,0.44,0.44,0.44h39.73
		c0.24,0,0.44-0.2,0.44-0.44v-9.65v-3.32V40.63v-0.74V23.54c0-0.24-0.2-0.44-0.44-0.44H30.62H29.65z M8.14,7.12
		c4.01-3.76,9.25-5.83,14.75-5.83c5.5,0,10.73,2.07,14.75,5.83c3.95,3.7,6.36,8.7,6.77,14.09l0.07,2.86v15.49v0.65v19.72v3.59v10.97
		c0,0.25-0.2,0.44-0.44,0.44H1.73c-0.24,0-0.44-0.19-0.44-0.44V24.09l0.07-2.88C1.79,15.82,4.19,10.82,8.14,7.12 M22.89,2.58
		c-10.61,0-19.51,8.28-20.25,18.86l-0.01,0.22c-0.02,0.25,0.18,0.47,0.44,0.47h27.61h0.96h11.08c0.25,0,0.46-0.22,0.44-0.47
		l-0.01-0.22C42.39,10.86,33.5,2.58,22.89,2.58"/>
	<path class="st31" d="M33.74,53.99c-0.22,0.1-0.44,0.17-0.64,0.22c0.46,0.32,1.18,0.68,2,0.69h0.01c1.17,0,3.56-0.84,4.64-1.25
		c-0.54-0.42-1.59-0.98-3.12-0.51C35.47,53.49,34.48,53.78,33.74,53.99 M29.73,67.02c1.48,0.04,2.67,0.09,3.39,0.12
		c-0.32-0.4-0.85-0.9-1.55-1.13c-1.02-0.33-3.31-0.31-4.42-0.27C27.52,66.25,28.3,66.98,29.73,67.02 M31.49,68.18
		c-0.55,0.24-1.45,1.19-2,1.82c0.43,0.12,1.1,0.17,1.68-0.4c0.63-0.62,1.15-1.12,1.5-1.46C32.32,68.06,31.88,68.02,31.49,68.18
		 M32.97,53.39l-0.01,0.03c0.15-0.04,0.31-0.09,0.5-0.14c0.05-0.03,0.1-0.05,0.16-0.08c0.46-0.27,1.19-1.1,1.71-1.72
		c-0.35,0.04-0.82,0.18-1.31,0.59c-0.4,0.32-0.74,0.72-1,1.07L32.97,53.39z M29.71,67.79c-2.71-0.07-3.54-2.19-3.57-2.28
		c-0.04-0.12-0.03-0.25,0.04-0.35c0.06-0.1,0.18-0.17,0.3-0.18c0.16-0.01,3.82-0.21,5.34,0.28c0.95,0.31,1.61,0.98,1.99,1.49
		c0.11-0.23,0.23-0.45,0.37-0.66c0.08-0.12,0.16-0.23,0.25-0.33c0.05-0.05,0.1-0.11,0.14-0.16l0.13-0.14l1.01-1.11l0.42-0.47
		c-0.33,0-0.65-0.01-0.98-0.03c-0.92-0.09-1.83-0.29-2.69-0.61l-2.32-0.89l-1.15-0.44l-0.57-0.22l-0.28-0.12l-0.14-0.06l-0.18-0.08
		c-0.48-0.21-0.92-0.52-1.29-0.88c-0.09-0.09-0.19-0.19-0.27-0.28l-0.2-0.23l-0.4-0.46l-2.08-2.41v-2.64l0.14,0.14l2.85,2.88
		c0.04-0.14,0.09-0.27,0.13-0.4l0.08-0.25c0.03-0.11,0.07-0.23,0.13-0.35c0.09-0.23,0.22-0.44,0.37-0.63
		c0.29-0.39,0.67-0.7,1.11-0.91c0.11-0.05,0.22-0.09,0.33-0.13c0.05-0.02,0.11-0.03,0.17-0.05c0.05-0.01,0.12-0.03,0.16-0.03
		l0.52-0.11l1.03-0.23l0.22-0.05c0.06-0.01,0.12-0.03,0.17-0.05c0.11-0.05,0.21-0.12,0.31-0.19c0.18-0.15,0.33-0.35,0.41-0.58
		c0.02-0.06,0.04-0.12,0.05-0.18l0.05-0.26l0.11-0.52l0.21-1.04l0.02-0.09c-0.01,0.01-0.01,0.01-0.01,0.02
		c-0.18,0.22-0.44,0.34-0.72,0.34h-0.02l-1.4-0.04c-0.2-0.01-0.4-0.08-0.55-0.2c-0.07,0.18-0.2,0.33-0.38,0.44l-1.19,0.74
		c-0.15,0.09-0.32,0.14-0.49,0.14c-0.11,0-0.22-0.02-0.33-0.06c-0.27-0.1-0.48-0.31-0.57-0.59c-0.02-0.06-0.07-0.09-0.09-0.1
		c-0.03-0.01-0.08-0.02-0.14,0.01c-0.25,0.14-0.55,0.16-0.82,0.04c-0.27-0.12-0.46-0.34-0.53-0.62l-0.37-1.36
		c-0.05-0.18-0.03-0.37,0.02-0.54c-0.18-0.02-0.35-0.09-0.5-0.21l-0.48-0.41v-0.11h1.7h0.91h0.46l-1.29,0.89
		c-0.05,0.04-0.08,0.12-0.07,0.18l0.36,1.36c0.02,0.07,0.07,0.1,0.09,0.11c0.03,0.01,0.08,0.03,0.14-0.01
		c0.14-0.08,0.29-0.11,0.45-0.11c0.12,0,0.23,0.02,0.35,0.06c0.26,0.11,0.46,0.32,0.55,0.59c0.02,0.06,0.07,0.09,0.09,0.1
		c0.03,0.01,0.08,0.02,0.14-0.01l1.19-0.74c0.06-0.03,0.09-0.1,0.08-0.17l-0.48-2.24h0.16h0.63h0.19l0.63,1.94
		c0.02,0.06,0.08,0.11,0.15,0.11l1.4,0.04c0.06,0.01,0.11-0.03,0.13-0.06c0.02-0.02,0.05-0.07,0.03-0.14
		c-0.06-0.27,0.01-0.56,0.18-0.78c0.17-0.22,0.43-0.35,0.71-0.36c0.02,0,0.03-0.01,0.05-0.01l0.05-0.23l0.02-0.11l-0.11-0.41h0.19
		h0.61h0.54l-0.14,0.74l-0.36,1.92c0.07-0.07,0.16-0.14,0.24-0.2c1.36-1.12,2.62-0.72,2.68-0.69c0.12,0.03,0.21,0.13,0.25,0.25
		c0.04,0.12,0.02,0.25-0.05,0.35c-0.09,0.12-0.58,0.75-1.15,1.37c0.36-0.11,0.74-0.23,1.15-0.35c2.76-0.84,4.29,1.08,4.35,1.16
		c0.08,0.1,0.1,0.22,0.07,0.33c-0.03,0.12-0.12,0.22-0.23,0.26c-0.16,0.07-3.8,1.53-5.49,1.53h-0.01c-1.15,0-2.09-0.55-2.63-0.96
		c-0.11,0.15-0.23,0.3-0.37,0.42c-0.17,0.16-0.37,0.29-0.58,0.4c-0.1,0.05-0.21,0.1-0.32,0.14l-0.16,0.05l-0.13,0.04l-1.02,0.3
		l-0.5,0.16c-0.05,0.01-0.07,0.03-0.09,0.03c-0.03,0.01-0.05,0.02-0.08,0.03c-0.05,0.03-0.1,0.05-0.15,0.08
		c-0.2,0.12-0.35,0.29-0.46,0.48c-0.05,0.09-0.1,0.2-0.12,0.3c-0.01,0.05-0.02,0.1-0.03,0.16l-0.05,0.26
		c-0.08,0.52-0.16,1.05-0.24,1.57c0.17,0.12,0.34,0.23,0.52,0.31l1.1,0.44l1.13,0.47l1.13,0.48l0.57,0.24l0.28,0.11
		c0.09,0.03,0.17,0.07,0.25,0.1c0.68,0.23,1.4,0.35,2.11,0.35c0.36,0,0.71-0.03,1.06-0.09l0.58-0.09l0.6-0.11
		c0.81-0.14,1.62-0.29,2.42-0.45c0.67-0.13,1.33-0.26,2-0.4v3.08c-0.56,0.03-1.11,0.05-1.66,0.07c-0.81,0.04-1.62,0.09-2.43,0.14
		l-0.29,0.26l-1.11,1.01l-1.1,1.02l-0.14,0.13c-0.04,0.04-0.08,0.07-0.12,0.12c-0.08,0.08-0.16,0.16-0.23,0.25
		c-0.14,0.17-0.27,0.36-0.36,0.57c-0.1,0.21-0.18,0.41-0.24,0.64l-0.18,0.73l-0.36,1.46c-0.2,0.79-0.39,1.58-0.57,2.36h-0.78
		c0.22-0.85,0.44-1.69,0.65-2.54l0.29-1.16c-0.34,0.33-0.89,0.85-1.55,1.52c-0.54,0.53-1.15,0.7-1.69,0.7
		c-0.57,0-1.08-0.18-1.37-0.37c-0.09-0.05-0.16-0.15-0.18-0.27c-0.02-0.11,0.01-0.22,0.08-0.31c0.14-0.17,1.16-1.42,2.07-2.09
		C30.33,67.81,30.03,67.8,29.71,67.79"/>
	<path class="st31" d="M3.07,22.13h39.65c0.25,0,0.46-0.22,0.44-0.47l-0.01-0.22C42.39,10.86,33.5,2.58,22.89,2.58
		c-10.61,0-19.51,8.28-20.25,18.86l-0.01,0.22C2.61,21.91,2.81,22.13,3.07,22.13 M41.73,20.34c0.03,0.27-0.17,0.49-0.44,0.49H32.7
		c0.15-0.23,0.3-0.46,0.44-0.7c0.2-0.38,0.38-0.73,0.57-1.1c0.37-0.72,0.74-1.45,1.11-2.16c0.3,0.22,0.8,0.5,1.35,0.5
		c0.05,0,0.1-0.01,0.15-0.01c0.86-0.08,2.41-1.1,2.59-1.22c0.09-0.06,0.15-0.16,0.16-0.27c0.02-0.12-0.01-0.23-0.09-0.31
		c-0.37-0.44-1.36-1.1-2.47-0.53c-0.39,0.2-0.74,0.38-1.02,0.52c0.76-1.49,1.53-2.98,2.3-4.47C39.86,13.71,41.27,16.88,41.73,20.34
		 M35.52,16.41c0.33-0.16,0.8-0.39,1.34-0.68c0.47-0.24,0.89-0.12,1.16,0.06c-0.61,0.36-1.39,0.77-1.78,0.8
		C35.99,16.62,35.74,16.53,35.52,16.41 M22.89,3.87c2.65,0,5.19,0.55,7.5,1.56c2.64,1.15,5,2.88,6.86,5.03
		c-1.38,2.77-2.76,5.52-4.15,8.27c-0.18,0.36-0.37,0.74-0.55,1.08c-0.14,0.25-0.29,0.48-0.45,0.71l-0.45-0.68
		c-0.25-0.39-0.51-0.76-0.78-1.15c-0.29-0.42-0.69-0.8-1.12-1.05c-0.43-0.26-0.87-0.44-1.3-0.62L28.39,17L28.34,17
		c-0.41-0.05-0.82-0.09-1.23-0.13l0.95-0.29c0.19-0.05,0.36-0.18,0.48-0.33c0.12,0.16,0.28,0.28,0.48,0.33l1.34,0.4
		c0.09,0.03,0.18,0.04,0.27,0.04c0.19,0,0.38-0.05,0.54-0.17c0.24-0.16,0.38-0.43,0.4-0.72c0.01-0.07,0.05-0.11,0.07-0.12
		c0.02-0.02,0.07-0.05,0.14-0.03c0.28,0.07,0.57,0,0.8-0.18c0.23-0.18,0.36-0.45,0.36-0.74v-1.4c-0.01-0.19-0.06-0.37-0.16-0.52
		c0.17-0.07,0.32-0.18,0.43-0.33l0.8-1.15c0.16-0.24,0.21-0.53,0.13-0.81c-0.09-0.28-0.29-0.5-0.56-0.6
		c-0.06-0.03-0.09-0.08-0.1-0.1c-0.01-0.03-0.02-0.08,0.01-0.14c0.15-0.25,0.18-0.55,0.08-0.82c-0.1-0.27-0.31-0.48-0.59-0.57
		L31.63,8.2c-0.16-0.05-0.32-0.06-0.48-0.02c-0.01-0.17-0.07-0.34-0.18-0.49l-0.84-1.12c-0.05-0.06-0.1-0.11-0.15-0.16
		c-0.16-0.14-0.36-0.21-0.58-0.22c-0.29-0.01-0.56,0.11-0.75,0.33c-0.04,0.05-0.09,0.06-0.12,0.06c-0.03,0-0.08-0.01-0.13-0.06
		c-0.18-0.22-0.46-0.34-0.74-0.33c-0.29,0.01-0.55,0.14-0.73,0.38L26.1,7.69c-0.11,0.15-0.16,0.32-0.18,0.49
		c-0.16-0.03-0.32-0.03-0.48,0.02l-1.33,0.44c-0.28,0.09-0.49,0.3-0.59,0.57c-0.1,0.27-0.07,0.57,0.08,0.82
		c0.03,0.05,0.02,0.11,0.01,0.14c-0.01,0.03-0.03,0.07-0.1,0.1c-0.27,0.1-0.47,0.32-0.56,0.6c-0.08,0.28-0.04,0.57,0.13,0.81
		l0.8,1.15c0.11,0.16,0.26,0.27,0.42,0.33c-0.1,0.15-0.16,0.33-0.16,0.52v1.4c0,0.29,0.13,0.56,0.35,0.74
		c0.23,0.18,0.52,0.25,0.8,0.18c0.06-0.02,0.11,0.01,0.14,0.03c0.02,0.01,0.06,0.05,0.06,0.12c0.01,0.22,0.1,0.43,0.25,0.59
		c-0.57-0.06-1.15-0.12-1.71-0.17c-0.41-0.04-0.82-0.08-1.23-0.12c-0.02-0.49-0.14-1.87-0.68-3.09c-0.8-1.83-2.3-2.11-2.36-2.12
		c-0.13-0.02-0.25,0.02-0.35,0.11c-0.09,0.09-0.12,0.22-0.1,0.34c0.02,0.12,0.51,2.79,1.15,3.79c0.22,0.33,0.48,0.61,0.74,0.83
		c-0.34-0.03-0.69-0.05-1.04-0.08c-0.01-0.02-0.02-0.04-0.03-0.06c-0.07-0.08-1.72-2.03-3.91-3.13c-2.62-1.32-4.54-0.25-4.62-0.2
		c-0.11,0.06-0.18,0.17-0.2,0.3c-0.01,0.12,0.04,0.25,0.14,0.33c0.11,0.1,2.29,1.93,3.99,2.86c-0.29,0.01-0.59,0.01-0.9,0.02
		c-3.33,0.06-4.37,2.64-4.41,2.75c-0.05,0.12-0.03,0.25,0.03,0.35c0.07,0.1,0.18,0.17,0.3,0.18c0.1,0.01,1.29,0.08,2.69,0.08
		c1.41,0,3.03-0.07,3.97-0.37c1.96-0.63,2.94-2.5,2.98-2.58c0.01-0.01,0.01-0.01,0.01-0.01c1.25,0.18,2.51,0.36,3.76,0.52
		c1.41,0.18,2.81,0.37,4.23,0.53c0.4,0.17,0.79,0.35,1.13,0.57c0.35,0.23,0.64,0.48,0.88,0.82c0.25,0.37,0.52,0.76,0.78,1.13
		l0.38,0.54H13.25H4.49c-0.27,0-0.47-0.23-0.44-0.49C5.3,11.01,13.36,3.87,22.89,3.87 M24.26,9.62c-0.04-0.06-0.03-0.12-0.01-0.14
		c0.01-0.03,0.03-0.08,0.1-0.1l1.34-0.43c0.01-0.01,0.03-0.01,0.05-0.01c0.05,0,0.1,0.03,0.13,0.07l1.85,2.4
		c0.05,0.06,0.03,0.12,0.03,0.15c-0.01,0.03-0.04,0.09-0.12,0.11l-2.92,0.79c-0.07,0.02-0.14-0.01-0.18-0.07l-0.8-1.15
		c-0.04-0.05-0.03-0.11-0.02-0.14c0.01-0.03,0.03-0.08,0.1-0.1c0.26-0.1,0.46-0.31,0.55-0.57C24.43,10.14,24.4,9.85,24.26,9.62
		 M32.73,10.41c0.09,0.26,0.29,0.47,0.55,0.57c0.06,0.03,0.09,0.07,0.1,0.1c0.01,0.03,0.01,0.09-0.02,0.14l-0.8,1.15
		c-0.03,0.06-0.11,0.09-0.18,0.07l-2.92-0.79c-0.07-0.02-0.1-0.08-0.11-0.11c-0.01-0.03-0.02-0.09,0.03-0.15L31.21,9
		c0.03-0.04,0.07-0.07,0.13-0.07c0.01,0,0.03,0.01,0.05,0.01l1.34,0.43c0.07,0.02,0.1,0.07,0.1,0.1c0.01,0.03,0.02,0.08-0.01,0.14
		C32.67,9.85,32.64,10.14,32.73,10.41 M32.15,13.67v1.4c0,0.07-0.04,0.11-0.06,0.13c-0.03,0.01-0.07,0.05-0.14,0.03
		c-0.27-0.06-0.55-0.01-0.78,0.16c-0.23,0.16-0.36,0.42-0.37,0.7c-0.01,0.07-0.05,0.1-0.07,0.12c-0.03,0.01-0.08,0.04-0.14,0.02
		l-1.34-0.4c-0.07-0.02-0.12-0.07-0.12-0.14l-0.15-3.03c-0.01-0.07,0.04-0.12,0.06-0.14c0.02-0.01,0.06-0.03,0.1-0.03
		c0.01,0,0.03,0.01,0.05,0.01l2.86,1.01C32.1,13.54,32.15,13.6,32.15,13.67 M30.36,8.34l-1.68,2.51c-0.04,0.07-0.1,0.07-0.14,0.07
		c-0.03,0-0.1-0.01-0.14-0.07l-1.68-2.51c-0.04-0.05-0.04-0.14,0-0.19l0.84-1.12c0.04-0.06,0.1-0.07,0.13-0.07h0.01
		c0.03,0,0.08,0.01,0.12,0.06c0.18,0.21,0.44,0.34,0.72,0.34c0.28,0,0.54-0.13,0.72-0.34c0.04-0.05,0.09-0.06,0.13-0.06
		c0.03,0,0.08,0.01,0.12,0.07l0.84,1.12C30.39,8.21,30.4,8.29,30.36,8.34 M24.92,13.67c0-0.07,0.04-0.13,0.11-0.16l2.86-1.01
		c0.07-0.03,0.12,0,0.15,0.02c0.03,0.02,0.07,0.07,0.07,0.14l-0.16,3.03c0,0.07-0.05,0.12-0.12,0.14l-1.34,0.4
		c-0.07,0.02-0.12-0.01-0.14-0.02c-0.02-0.02-0.06-0.05-0.07-0.12c-0.01-0.28-0.15-0.54-0.37-0.7c-0.16-0.12-0.36-0.19-0.56-0.19
		c-0.08,0-0.15,0.01-0.23,0.03c-0.07,0.02-0.12-0.01-0.14-0.03c-0.03-0.02-0.06-0.06-0.06-0.13V13.67z M21.99,15.93
		c-0.28-0.2-0.61-0.5-0.86-0.89c-0.36-0.55-0.7-1.88-0.91-2.81c0.38,0.23,0.86,0.65,1.2,1.42C21.78,14.45,21.93,15.33,21.99,15.93
		 M19.12,16.97c-0.41,0.53-1.12,1.27-2.13,1.6c-1.36,0.43-4.44,0.35-5.76,0.29c0.44-0.65,1.47-1.72,3.43-1.76
		C16.66,17.06,18.25,17,19.12,16.97 M16.73,16c-1.16-0.37-3.21-1.95-4.16-2.72c0.67-0.17,1.86-0.29,3.32,0.44
		c1.39,0.7,2.58,1.8,3.2,2.44C18.51,16.23,17.62,16.28,16.73,16"/>
	<path class="st31" d="M42.76,23.11H3.03c-0.25,0-0.44,0.2-0.44,0.44v32.05v0.81v16.79c0,0.25,0.2,0.44,0.44,0.44h39.73
		c0.24,0,0.44-0.2,0.44-0.44v-9.65v-3.32V40.63v-0.74V23.54C43.2,23.3,43,23.11,42.76,23.11 M23.54,24.84
		c0-0.25,0.19-0.44,0.44-0.44h4.3l-1.6,1.51l-1.79,1.68L24,28.42l-0.45,0.42c0,0-0.01,0.01-0.01,0.01V24.84z M23.54,29.89l0.1-0.11
		c0.14-0.17,0.24-0.27,0.4-0.42l0.44-0.42l0.89-0.85l1.77-1.7l2.11-2h9.54l-1.73,3.84l-0.52-0.16c-0.25-0.07-0.5-0.05-0.72,0.03
		c0.01-0.26-0.06-0.52-0.23-0.73l-1.14-1.47c-0.21-0.27-0.53-0.44-0.87-0.44c-0.35-0.01-0.67,0.15-0.89,0.42
		C32.61,25.98,32.5,26,32.44,26c-0.06-0.01-0.18-0.01-0.27-0.12c-0.23-0.26-0.55-0.4-0.9-0.38c-0.34,0.01-0.65,0.18-0.85,0.46
		l-1.09,1.51c-0.16,0.22-0.22,0.48-0.2,0.74c-0.23-0.07-0.48-0.08-0.72,0l-1.76,0.61c-0.33,0.11-0.58,0.36-0.69,0.69
		c-0.12,0.33-0.07,0.68,0.11,0.97c0.07,0.12,0.05,0.23,0.04,0.29c-0.02,0.06-0.07,0.16-0.2,0.22c-0.32,0.13-0.56,0.4-0.65,0.72
		c-0.09,0.33-0.03,0.68,0.16,0.96l1.09,1.51c0.16,0.23,0.41,0.38,0.68,0.44c-0.18,0.2-0.29,0.47-0.28,0.75l0.03,1.86
		c0.01,0.35,0.17,0.66,0.44,0.87c0.27,0.21,0.63,0.28,0.95,0.19c0.14-0.03,0.24,0.02,0.29,0.05c0.05,0.03,0.14,0.12,0.14,0.26
		c0.03,0.34,0.2,0.65,0.49,0.84c0.18,0.12,0.4,0.19,0.62,0.19c0.12,0,0.23-0.02,0.34-0.05l1.78-0.56c0.29-0.09,0.52-0.31,0.65-0.57
		c0.14,0.26,0.38,0.46,0.68,0.55l1.79,0.5c0.09,0.03,0.2,0.04,0.3,0.04c0.24,0,0.46-0.07,0.66-0.22c0.21-0.15,0.35-0.37,0.42-0.62
		l1.36,1l0.39,2.66c-0.03,0.03-0.06,0.05-0.09,0.08c-0.64,0.48-1.27,0.96-1.9,1.45c-0.63,0.48-1.26,0.96-1.89,1.45l-0.05,0.03
		l-0.03,0.03c-0.04,0.05-0.09,0.12-0.12,0.16l-0.09,0.13c-0.05,0.08-0.1,0.17-0.14,0.25c-0.1,0.16-0.18,0.32-0.27,0.48
		c-0.16,0.32-0.33,0.64-0.48,0.97c-0.05,0.11-0.1,0.22-0.15,0.33h-0.2c-0.04-0.07-0.1-0.12-0.15-0.18c0.14-0.1,0.26-0.25,0.33-0.43
		l0.47-1.32c0.09-0.27,0.07-0.57-0.09-0.82c-0.16-0.25-0.41-0.4-0.69-0.43c-0.07-0.01-0.1-0.05-0.12-0.08
		c-0.02-0.02-0.04-0.07-0.02-0.14c0.08-0.28,0.03-0.57-0.14-0.81c-0.16-0.23-0.43-0.38-0.72-0.39l-1.4-0.08
		c-0.16-0.01-0.33,0.03-0.47,0.1c-0.05-0.16-0.16-0.31-0.3-0.42l-1.1-0.87c-0.23-0.18-0.52-0.25-0.8-0.18
		c-0.28,0.07-0.51,0.26-0.63,0.52c-0.03,0.05-0.07,0.08-0.1,0.09c-0.03,0.01-0.08,0.01-0.14-0.03c-0.24-0.16-0.53-0.22-0.81-0.13
		c-0.28,0.08-0.5,0.28-0.61,0.55l-0.52,1.3c-0.06,0.17-0.07,0.35-0.05,0.52c-0.16,0.01-0.31,0.05-0.46,0.15l-0.78,0.51V29.89z
		 M38.19,30.8c0.11,0.31,0.36,0.56,0.67,0.67c0.1,0.03,0.17,0.12,0.2,0.22c0.03,0.09,0.02,0.2-0.04,0.29l-1.04,1.55
		c-0.07,0.12-0.23,0.18-0.37,0.14l-3.89-0.98c-0.11-0.03-0.2-0.11-0.24-0.22c-0.04-0.11-0.02-0.23,0.05-0.32l2.39-3.22
		c0.07-0.09,0.17-0.14,0.28-0.14c0.03,0,0.07,0.01,0.1,0.01l1.78,0.55c0.1,0.03,0.18,0.1,0.23,0.2c0.03,0.1,0.03,0.2-0.03,0.3
		C38.11,30.15,38.08,30.49,38.19,30.8 M26.72,30.06c-0.05-0.09-0.07-0.2-0.03-0.3c0.03-0.1,0.11-0.18,0.21-0.21l1.76-0.61
		c0.03-0.01,0.07-0.01,0.11-0.01c0.1,0,0.2,0.04,0.27,0.13l2.5,3.13c0.07,0.1,0.09,0.21,0.05,0.32c-0.03,0.11-0.12,0.19-0.23,0.23
		l-3.85,1.11c-0.14,0.04-0.29-0.01-0.38-0.12l-1.08-1.51c-0.06-0.09-0.08-0.2-0.05-0.29c0.03-0.1,0.1-0.18,0.2-0.23
		c0.31-0.12,0.54-0.38,0.64-0.7C26.95,30.68,26.9,30.34,26.72,30.06 M27.9,35.03l3.76-1.41c0.11-0.03,0.22-0.02,0.32,0.05
		c0.09,0.07,0.15,0.17,0.14,0.29l-0.14,4.01c-0.01,0.14-0.1,0.27-0.24,0.31l-1.77,0.57c-0.1,0.03-0.21,0.01-0.3-0.05
		c-0.08-0.05-0.14-0.15-0.14-0.26c-0.03-0.33-0.2-0.63-0.46-0.82c-0.19-0.14-0.42-0.21-0.65-0.21c-0.1,0-0.18,0.01-0.28,0.03
		c-0.1,0.03-0.21,0.01-0.29-0.05c-0.08-0.07-0.14-0.16-0.14-0.27l-0.03-1.85C27.68,35.2,27.77,35.07,27.9,35.03 M29.95,28.32
		c-0.08-0.12-0.08-0.28,0.01-0.4l1.08-1.51c0.06-0.08,0.16-0.14,0.27-0.14h0.01c0.1,0,0.19,0.05,0.26,0.12
		c0.22,0.25,0.54,0.39,0.87,0.39c0.33-0.01,0.64-0.16,0.85-0.42c0.07-0.08,0.17-0.14,0.27-0.12c0.1,0,0.2,0.05,0.27,0.13l1.14,1.47
		c0.09,0.12,0.09,0.27,0.01,0.4l-2.17,3.37c-0.06,0.1-0.16,0.16-0.29,0.16c-0.11,0-0.22-0.05-0.29-0.14L29.95,28.32z M33.14,33.64
		c0.06-0.05,0.14-0.07,0.21-0.07c0.03,0,0.07,0.01,0.11,0.02l3.81,1.27c0.14,0.05,0.23,0.18,0.23,0.32l0.03,1.86
		c0,0.1-0.05,0.2-0.13,0.27c-0.08,0.06-0.18,0.09-0.29,0.07c-0.33-0.07-0.67,0-0.93,0.2c-0.27,0.2-0.42,0.51-0.44,0.84
		c0,0.1-0.05,0.2-0.14,0.27c-0.09,0.06-0.2,0.07-0.3,0.05l-1.79-0.5c-0.14-0.04-0.25-0.16-0.25-0.31l-0.27-4.01
		C33.01,33.82,33.05,33.71,33.14,33.64 M31.94,44.9c0.16,0.23,0.4,0.38,0.68,0.42c0.07,0.01,0.1,0.05,0.12,0.07
		c0.01,0.02,0.03,0.08,0.01,0.14l-0.48,1.32c-0.02,0.07-0.08,0.11-0.15,0.11l-3.03-0.01c-0.07,0-0.12-0.04-0.14-0.07
		c-0.01-0.03-0.04-0.09-0.01-0.16l1.17-2.79c0.02-0.06,0.08-0.1,0.15-0.1h0.01l1.4,0.07c0.07,0,0.11,0.04,0.12,0.07
		c0.02,0.02,0.05,0.07,0.03,0.14C31.74,44.38,31.78,44.67,31.94,44.9 M29.12,43.52l-0.97,2.87c-0.03,0.07-0.08,0.09-0.12,0.1
		c-0.03,0.01-0.1,0.01-0.15-0.03l-2.28-2c-0.05-0.05-0.07-0.12-0.05-0.18l0.52-1.3c0.03-0.07,0.07-0.09,0.1-0.1
		c0.01-0.01,0.03-0.01,0.05-0.01c0.03,0,0.06,0.01,0.1,0.03c0.23,0.16,0.52,0.21,0.78,0.14c0.27-0.07,0.49-0.26,0.61-0.51
		c0.03-0.06,0.07-0.08,0.11-0.09c0.03-0.01,0.08-0.01,0.14,0.03l1.1,0.87C29.12,43.38,29.14,43.46,29.12,43.52 M23.54,47.7
		c0.17-0.16,0.29-0.38,0.3-0.62c0.02-0.28-0.09-0.55-0.29-0.74c0-0.01-0.01-0.01-0.01-0.01v-0.21c0.01-0.01,0.02-0.02,0.03-0.03
		l1.17-0.76c0.03-0.01,0.06-0.03,0.09-0.03c0.04,0,0.07,0.01,0.1,0.03l2.41,1.84c0.06,0.05,0.07,0.11,0.06,0.14
		c0,0.03-0.01,0.09-0.08,0.13l-0.5,0.29h-3.29V47.7z M3.88,38.94V24.84c0-0.25,0.2-0.44,0.44-0.44h0.49l1.41,0.87
		c0.32,0.19,0.66,0.35,1.01,0.47l0.51,0.18c0.17,0.05,0.33,0.12,0.49,0.18c0.65,0.26,1.27,0.56,1.85,0.94
		c0.14,0.09,0.29,0.2,0.44,0.31c-0.75-0.12-1.74-0.23-2.31-0.05c-1.04,0.33-1.56,1.6-1.59,1.66c-0.04,0.12-0.03,0.25,0.03,0.35
		c0.07,0.1,0.18,0.17,0.3,0.18c0.01,0,1,0.07,2.46,0.25c0.09,0.01,0.17,0.01,0.25,0.01c0.98,0,1.61-0.67,1.93-1.25
		c0.31,0.52,0.46,1.11,0.31,1.72c-0.13,0.73-0.18,1.45-0.16,2.19c0.03,0.74,0.15,1.49,0.44,2.22c0.16,0.41,0.41,0.8,0.72,1.14
		l-0.27-0.07c-0.16-0.04-0.33-0.04-0.48,0c-0.02-0.18-0.09-0.34-0.2-0.48l-0.89-1.09c-0.18-0.22-0.44-0.35-0.73-0.35h-0.01
		c-0.29,0.01-0.55,0.14-0.73,0.37c-0.04,0.05-0.1,0.07-0.12,0.07c-0.03,0-0.09-0.01-0.13-0.05c-0.2-0.21-0.48-0.33-0.76-0.31
		c-0.29,0.02-0.55,0.17-0.71,0.41l-0.79,1.16c-0.1,0.15-0.15,0.32-0.16,0.5c-0.16-0.03-0.33-0.01-0.48,0.04l-1.32,0.49
		c-0.27,0.1-0.48,0.31-0.57,0.59c-0.09,0.27-0.04,0.57,0.12,0.81c0.04,0.05,0.03,0.11,0.02,0.14c-0.01,0.03-0.03,0.08-0.09,0.1
		c-0.27,0.12-0.46,0.35-0.53,0.63c-0.02,0.08-0.03,0.16-0.03,0.24c0,0.2,0.07,0.4,0.19,0.57l0.85,1.12
		c0.12,0.15,0.27,0.25,0.44,0.31c-0.1,0.16-0.14,0.33-0.14,0.52l0.05,1.4c0.01,0.29,0.16,0.56,0.39,0.72
		c0.24,0.17,0.53,0.22,0.81,0.14c0.06-0.01,0.11,0.01,0.14,0.03c0.02,0.01,0.06,0.05,0.07,0.12c0.03,0.29,0.18,0.55,0.43,0.7
		c0.15,0.1,0.33,0.15,0.5,0.15c0.1,0,0.2-0.02,0.31-0.05l1.33-0.46c0.19-0.07,0.35-0.19,0.46-0.35c0.12,0.15,0.29,0.27,0.49,0.31
		l1.36,0.35c0.07,0.02,0.15,0.03,0.23,0.03c0.2,0,0.4-0.07,0.57-0.19c0.23-0.18,0.37-0.44,0.37-0.74c0-0.07,0.04-0.11,0.06-0.12
		c0.02-0.02,0.07-0.05,0.14-0.03c0.29,0.05,0.57-0.02,0.79-0.21c0.22-0.19,0.34-0.46,0.33-0.75l-0.06-1.4
		c-0.01-0.18-0.07-0.36-0.18-0.5c0.16-0.07,0.31-0.2,0.41-0.35l0.75-1.19c0.16-0.25,0.19-0.55,0.1-0.82
		c-0.1-0.27-0.31-0.48-0.59-0.57c-0.06-0.02-0.09-0.07-0.1-0.1c-0.01-0.03-0.03-0.08,0.01-0.14c0.05-0.1,0.08-0.19,0.1-0.29
		c0.24,0.19,0.48,0.38,0.72,0.57c0.27,0.22,0.55,0.45,0.82,0.67c0.18,0.15,0.35,0.3,0.52,0.46l-0.25,0.74l-0.2,0.58
		c-0.03,0.1-0.06,0.18-0.1,0.31c-0.03,0.12-0.06,0.23-0.09,0.35c-0.1,0.48-0.08,0.99,0.03,1.47c0.05,0.25,0.14,0.48,0.25,0.71
		c0.12,0.24,0.22,0.4,0.31,0.58l0.61,1.06l1.23,2.13l0.31,0.53l0.14,0.26c0.03,0.05,0.06,0.11,0.08,0.17H4.31
		c-0.24,0-0.44-0.2-0.44-0.44V38.94z M10.86,28.19c-0.21,0.36-0.64,0.84-1.36,0.76c-0.8-0.1-1.46-0.16-1.89-0.2
		c0.19-0.29,0.47-0.61,0.83-0.72C8.9,27.88,10.03,28.03,10.86,28.19 M13.82,37.85c0.1,0.26,0.31,0.46,0.57,0.55
		c0.06,0.02,0.09,0.07,0.1,0.09c0.01,0.03,0.02,0.09-0.02,0.14l-0.75,1.19c-0.03,0.06-0.11,0.09-0.17,0.07l-2.96-0.67
		c-0.07-0.02-0.1-0.07-0.12-0.1c-0.01-0.03-0.03-0.1,0.02-0.16l1.74-2.47c0.03-0.04,0.08-0.07,0.14-0.07c0.01,0,0.03,0,0.04,0.01
		l1.35,0.37c0.07,0.02,0.1,0.07,0.11,0.1c0.01,0.03,0.03,0.08-0.01,0.14C13.74,37.3,13.72,37.58,13.82,37.85 M5.32,37.4
		c-0.04-0.05-0.03-0.11-0.02-0.14c0.01-0.03,0.03-0.08,0.1-0.1l1.32-0.49c0.02-0.01,0.04-0.01,0.06-0.01c0.04,0,0.09,0.02,0.12,0.06
		l1.94,2.32v0.01c0.05,0.05,0.04,0.12,0.03,0.15c-0.01,0.03-0.03,0.08-0.11,0.11l-2.89,0.91c-0.06,0.02-0.14-0.01-0.18-0.06
		l-0.84-1.12c-0.04-0.05-0.03-0.11-0.03-0.14c0.01-0.03,0.03-0.07,0.09-0.1c0.26-0.12,0.45-0.33,0.53-0.6
		C5.52,37.93,5.47,37.64,5.32,37.4 M6.26,41.28l2.81-1.13c0.07-0.03,0.13,0,0.15,0.01c0.03,0.02,0.08,0.06,0.08,0.14l-0.03,3.03
		c0,0.07-0.05,0.13-0.11,0.15l-1.33,0.46c-0.07,0.02-0.12-0.01-0.14-0.02c-0.03-0.01-0.07-0.05-0.07-0.12
		c-0.03-0.28-0.17-0.52-0.4-0.68c-0.16-0.11-0.34-0.16-0.53-0.16c-0.08,0-0.17,0.01-0.26,0.03c-0.06,0.02-0.12-0.01-0.14-0.03
		c-0.03-0.01-0.07-0.05-0.07-0.12l-0.05-1.4C6.15,41.36,6.19,41.3,6.26,41.28 M7.73,36.03c-0.04-0.05-0.05-0.13-0.01-0.19l0.79-1.16
		c0.04-0.05,0.1-0.07,0.12-0.07h0.01c0.03,0,0.08,0.01,0.12,0.05c0.18,0.21,0.46,0.32,0.73,0.31c0.28-0.01,0.54-0.14,0.71-0.36
		c0.04-0.05,0.1-0.07,0.13-0.07c0.03,0,0.08,0.01,0.13,0.06l0.88,1.09c0.05,0.05,0.05,0.13,0.01,0.19l-1.57,2.58
		c-0.04,0.07-0.1,0.07-0.14,0.07c-0.03,0-0.1,0-0.14-0.06L7.73,36.03z M10.22,40.12c0.01-0.01,0.05-0.03,0.09-0.03
		c0.02,0,0.03,0,0.05,0.01l2.9,0.89c0.06,0.02,0.11,0.08,0.11,0.15l0.06,1.4c0.01,0.07-0.03,0.11-0.05,0.13
		c-0.02,0.02-0.07,0.05-0.14,0.03c-0.28-0.05-0.56,0.02-0.78,0.19c-0.22,0.18-0.34,0.44-0.35,0.72c0,0.07-0.03,0.11-0.06,0.12
		c-0.02,0.02-0.07,0.05-0.14,0.03l-1.36-0.35c-0.07-0.02-0.12-0.08-0.12-0.14l-0.28-3.02C10.15,40.18,10.19,40.14,10.22,40.12
		 M3.88,49.45c0-0.25,0.2-0.44,0.44-0.44h15.13l0.7,2.2L20.38,52c-0.91,0.64-1.82,1.28-2.74,1.92l-1.65,1.15l-0.18,0.12
		c-0.05,0.03-0.11,0.06-0.17,0.1c-0.12,0.05-0.23,0.11-0.35,0.15c-0.25,0.07-0.52,0.12-0.78,0.1c-0.13-0.01-0.26-0.02-0.4-0.05
		l-0.49-0.11l-0.99-0.21l-0.54-0.12c0.15-0.25,0.29-0.57,0.27-0.92c-0.03-0.66-0.75-1.79-0.89-2.02c-0.05-0.09-0.15-0.15-0.26-0.17
		c-0.11-0.01-0.22,0.01-0.3,0.07c-0.38,0.29-0.97,1.08-0.53,1.98c0.14,0.29,0.27,0.54,0.36,0.75l-0.07-0.02l-0.39-0.09
		c-0.17-0.38-0.58-1.29-1.1-2.51c-0.63-1.51-2.15-1.72-2.86-1.63c-0.11,0.01-0.21,0.08-0.27,0.17C5.98,50.78,5.97,50.89,6,51
		c0.08,0.24,0.65,2.1,1.32,3.14c-0.27,0.01-0.54,0.05-0.8,0.12L6.5,54.27H6.49c-0.87,0.31-1.74,0.6-2.61,0.89V49.45z M17.64,60.48
		c0.15,0.29,0.43,0.5,0.75,0.57c0.1,0.03,0.19,0.1,0.24,0.19c0.04,0.09,0.04,0.2,0,0.3l-0.82,1.67c-0.07,0.13-0.2,0.2-0.35,0.19
		l-3.99-0.46c-0.12-0.01-0.22-0.08-0.27-0.18c-0.05-0.1-0.05-0.22,0-0.32l1.94-3.52c0.06-0.11,0.18-0.18,0.3-0.18
		c0.02,0,0.04,0,0.05,0.01l1.84,0.3c0.1,0.02,0.19,0.08,0.24,0.18c0.05,0.09,0.06,0.2,0.02,0.29
		C17.48,59.83,17.49,60.18,17.64,60.48 M17.82,66.75c0.02,0.1-0.01,0.2-0.09,0.29c-0.07,0.07-0.17,0.12-0.28,0.1
		c-0.33-0.03-0.65,0.09-0.89,0.33c-0.23,0.23-0.35,0.56-0.32,0.89c0.01,0.1-0.03,0.2-0.1,0.28c-0.08,0.07-0.18,0.1-0.29,0.09
		l-1.84-0.26c-0.14-0.02-0.26-0.13-0.29-0.27l-0.8-3.93c-0.03-0.12,0.01-0.23,0.09-0.31c0.07-0.07,0.15-0.1,0.25-0.1
		c0.02,0,0.04,0.01,0.06,0.01l3.95,0.76c0.14,0.03,0.25,0.14,0.27,0.29L17.82,66.75z M14.12,58.36l-1.7,3.63
		c-0.05,0.1-0.14,0.18-0.26,0.19c-0.12,0.02-0.23-0.02-0.3-0.11l-2.71-2.96c-0.09-0.11-0.12-0.27-0.05-0.39l0.87-1.64
		c0.05-0.1,0.14-0.16,0.24-0.18h0.06c0.09,0,0.16,0.03,0.23,0.08c0.25,0.23,0.58,0.32,0.91,0.27c0.33-0.05,0.61-0.25,0.79-0.53
		c0.05-0.09,0.14-0.15,0.25-0.16c0.1-0.01,0.2,0.03,0.28,0.1l1.32,1.3C14.16,58.07,14.18,58.23,14.12,58.36 M6.17,61.27
		c-0.07-0.08-0.1-0.19-0.07-0.29c0.02-0.1,0.09-0.19,0.18-0.24l1.66-0.83c0.05-0.03,0.1-0.04,0.15-0.04c0.09,0,0.17,0.03,0.24,0.1
		l2.9,2.78c0.07,0.07,0.11,0.15,0.11,0.25c0,0.02,0,0.04-0.01,0.06c-0.02,0.12-0.1,0.2-0.2,0.25l-3.67,1.62
		c-0.14,0.06-0.29,0.03-0.39-0.08L5.8,63.49c-0.07-0.08-0.11-0.18-0.1-0.29c0.02-0.1,0.08-0.19,0.17-0.24
		c0.29-0.16,0.49-0.45,0.55-0.78C6.48,61.86,6.39,61.52,6.17,61.27 M8.01,66.04l3.54-1.89c0.1-0.06,0.23-0.06,0.33,0
		c0.1,0.05,0.16,0.15,0.18,0.27l0.4,3.99c0.01,0.14-0.06,0.29-0.2,0.35l-1.68,0.79c-0.1,0.05-0.21,0.05-0.3,0
		c-0.09-0.05-0.16-0.14-0.18-0.24c-0.07-0.33-0.27-0.6-0.57-0.76C9.36,68.46,9.18,68.41,9,68.41c-0.14,0-0.29,0.03-0.42,0.09
		c-0.09,0.03-0.2,0.03-0.29-0.02c-0.1-0.05-0.16-0.14-0.17-0.25l-0.28-1.84C7.81,66.25,7.88,66.1,8.01,66.04 M11.58,54.18
		c0.01,0.12-0.03,0.25-0.09,0.36c-0.11-0.24-0.25-0.53-0.42-0.87c-0.13-0.27-0.07-0.5,0.01-0.68
		C11.33,53.43,11.57,53.93,11.58,54.18 M9.33,54.44L8.7,54.29l-0.21-0.05c-0.11-0.07-0.21-0.15-0.3-0.25
		c-0.46-0.48-1-1.85-1.29-2.72c0.48,0.05,1.2,0.29,1.56,1.15C8.82,53.26,9.12,53.96,9.33,54.44 M22.25,71.9
		c0,0.25-0.2,0.44-0.44,0.44H4.31c-0.24,0-0.44-0.19-0.44-0.44V55.95c0.94-0.33,1.89-0.65,2.83-0.97C7,54.92,7.3,54.89,7.59,54.91
		c0.15,0.01,0.3,0.03,0.44,0.07c0.08,0.01,0.14,0.03,0.22,0.05l0.18,0.05c0.31,0.13,0.62,0.21,0.89,0.25l1.11,0.32l1.34,0.4
		c-0.09,0.07-0.17,0.16-0.24,0.27c-0.07,0.12-0.18,0.16-0.24,0.16c-0.06,0.01-0.18,0.01-0.28-0.08c-0.26-0.23-0.6-0.33-0.94-0.27
		c-0.34,0.06-0.63,0.27-0.79,0.58l-0.87,1.64c-0.12,0.24-0.16,0.5-0.1,0.76c-0.23-0.05-0.48-0.02-0.71,0.1l-1.66,0.84
		c-0.31,0.15-0.52,0.44-0.59,0.77c-0.07,0.34,0.01,0.68,0.24,0.95c0.09,0.11,0.09,0.22,0.07,0.28c-0.01,0.06-0.05,0.17-0.16,0.24
		c-0.3,0.17-0.5,0.46-0.55,0.8C4.89,63.43,5,63.77,5.23,64.03l1.27,1.35c0.2,0.21,0.46,0.33,0.73,0.35
		c-0.15,0.22-0.22,0.5-0.17,0.78l0.27,1.83c0.05,0.35,0.25,0.64,0.55,0.81c0.3,0.17,0.65,0.19,0.97,0.06
		C9,69.16,9.11,69.2,9.16,69.23c0.05,0.03,0.14,0.1,0.18,0.23c0.07,0.34,0.29,0.62,0.59,0.78c0.16,0.07,0.33,0.12,0.5,0.12
		c0.16,0,0.33-0.03,0.48-0.11l1.68-0.79c0.28-0.14,0.48-0.37,0.58-0.65c0.17,0.24,0.44,0.41,0.74,0.45l1.84,0.26
		c0.05,0.01,0.11,0.01,0.16,0.01c0.29,0,0.56-0.12,0.77-0.31c0.25-0.24,0.37-0.57,0.33-0.91c-0.01-0.14,0.06-0.23,0.1-0.28
		c0.04-0.04,0.14-0.11,0.27-0.1c0.35,0.03,0.68-0.1,0.91-0.35c0.24-0.25,0.34-0.59,0.29-0.93l-0.29-1.83
		c-0.04-0.28-0.18-0.52-0.4-0.7c0.25-0.1,0.46-0.29,0.59-0.55l0.82-1.67c0.15-0.31,0.15-0.67,0-0.98c-0.15-0.31-0.43-0.53-0.76-0.61
		c-0.14-0.03-0.2-0.12-0.23-0.18c-0.03-0.05-0.06-0.16-0.01-0.29c0.13-0.32,0.11-0.67-0.05-0.97c-0.16-0.31-0.46-0.51-0.8-0.57
		l-1.83-0.3c-0.25-0.04-0.5,0.01-0.71,0.12c-0.03-0.26-0.14-0.51-0.33-0.7l-0.76-0.76c0.18,0.05,0.37,0.09,0.56,0.12
		c0.4,0.05,0.82,0.02,1.22-0.07c0.2-0.05,0.4-0.11,0.59-0.19c0.1-0.04,0.18-0.08,0.28-0.13l0.25-0.14l1.74-1.01
		c0.82-0.48,1.65-0.95,2.47-1.42c0.01,0.03,0.02,0.06,0.03,0.09c0.05,0.12,0.1,0.24,0.16,0.35c0.12,0.23,0.27,0.44,0.43,0.65
		l0.67,0.77V71.9z M22.25,52.65l-0.68-1.91l-0.61-1.73h0.85c0.24,0,0.44,0.2,0.44,0.44V52.65z M22.25,47.28
		c0,0.25-0.2,0.44-0.44,0.44H20.5l-0.05-0.16c-0.04-0.12-0.09-0.23-0.14-0.35c-0.05-0.11-0.11-0.23-0.16-0.33l-0.16-0.27l-0.31-0.53
		l-1.24-2.12L17.8,42.9c-0.1-0.17-0.23-0.37-0.29-0.49c-0.07-0.14-0.14-0.29-0.18-0.44c-0.09-0.31-0.12-0.64-0.08-0.96
		c0.01-0.08,0.02-0.16,0.04-0.25c0.01-0.07,0.05-0.19,0.07-0.29l0.15-0.59l0.59-2.39c0.1-0.4,0.2-0.79,0.31-1.19
		c0.05-0.21,0.1-0.37,0.17-0.54c0.07-0.17,0.16-0.33,0.25-0.48c0.05-0.07,0.1-0.15,0.16-0.22c0.05-0.07,0.12-0.14,0.19-0.22
		l0.4-0.46l0.81-0.92l1.85-2.11V47.28z M22.25,30.26l-2.41,2.71l-0.74,0.82c-0.05-0.73-0.13-1.85-0.21-3.24
		c-0.16-2.7-2.29-3.47-2.38-3.5c-0.12-0.04-0.25-0.02-0.35,0.05c-0.1,0.07-0.16,0.18-0.16,0.31c-0.01,0.15-0.1,3.83,0.44,5.32
		c0.4,1.08,1.25,1.77,1.77,2.11c-0.01,0.01-0.01,0.01-0.01,0.02c-0.13,0.19-0.24,0.39-0.33,0.59c-0.09,0.2-0.16,0.44-0.23,0.63
		c-0.12,0.37-0.25,0.76-0.37,1.13c-0.07-0.04-0.14-0.07-0.22-0.11c-0.31-0.17-0.63-0.33-0.93-0.5c-0.31-0.17-0.62-0.34-0.93-0.52
		l-0.92-0.52l-0.06-0.03c-0.55-0.22-1-0.67-1.27-1.25c-0.29-0.57-0.42-1.24-0.48-1.92c-0.05-0.68-0.02-1.37,0.07-2.04
		c0.02-0.07,0.03-0.19,0.03-0.29l0.02-0.3c-0.01-0.1-0.02-0.2-0.03-0.3c-0.01-0.1-0.02-0.2-0.05-0.29c-0.05-0.2-0.1-0.39-0.2-0.56
		c-0.07-0.19-0.18-0.35-0.29-0.51c-0.44-0.64-1.03-1.12-1.64-1.52c-0.62-0.4-1.27-0.73-1.94-1.01c-0.17-0.06-0.33-0.14-0.5-0.2
		l-0.26-0.09l-0.24-0.09c-0.31-0.12-0.61-0.28-0.9-0.45c-0.15-0.1-0.3-0.2-0.45-0.31h15.71c0.24,0,0.44,0.2,0.44,0.44V30.26z
		 M18.33,33.98c-0.41-0.31-0.92-0.82-1.17-1.51c-0.37-1.01-0.41-3.3-0.4-4.41c0.52,0.36,1.28,1.12,1.36,2.54
		C18.2,32.07,18.28,33.26,18.33,33.98 M41.91,60.49v3.08v8.32c0,0.25-0.2,0.44-0.44,0.44h-8.36h-0.78h-8.35
		c-0.25,0-0.44-0.19-0.44-0.44V57.18v-2.64v-5.42v-0.11h1.7h0.91h0.46h1.62h0.16h0.63h0.19h3.24h0.19h0.61h0.54h7.68
		c0.25,0,0.44,0.2,0.44,0.44V60.49z M41.91,47.28c0,0.25-0.2,0.44-0.44,0.44h-7.2c0.12-0.27,0.25-0.53,0.39-0.79
		c0.07-0.15,0.16-0.31,0.24-0.45l0.12-0.21l0.05-0.09c0.01-0.02,0.02-0.03,0.03-0.03c0.6-0.48,1.21-0.95,1.8-1.44
		c0.62-0.5,1.24-0.99,1.85-1.49l0.03-0.03l0.01-0.02c0.22-0.23,0.51-0.46,0.8-0.67c0.29-0.22,0.59-0.43,0.9-0.63
		c0.31-0.2,0.62-0.39,0.94-0.57c0.16-0.08,0.32-0.17,0.46-0.23h0.01V47.28z M41.91,40.23c-0.1,0.03-0.18,0.04-0.29,0.09
		c-0.2,0.08-0.37,0.15-0.56,0.24c-0.35,0.18-0.69,0.36-1.02,0.56c-0.33,0.2-0.65,0.4-0.97,0.62c-0.03,0.03-0.07,0.05-0.11,0.07
		l-0.37-2.55l-1.51-1.11c0.3,0.04,0.6-0.05,0.83-0.24c0.27-0.22,0.42-0.55,0.42-0.89l-0.03-1.86c-0.01-0.29-0.12-0.55-0.31-0.74
		c0.27-0.06,0.5-0.23,0.66-0.46l1.04-1.55c0.19-0.29,0.24-0.63,0.13-0.97c-0.11-0.33-0.35-0.58-0.67-0.7
		c-0.13-0.05-0.18-0.15-0.2-0.2c-0.02-0.05-0.05-0.17,0.03-0.29c0.18-0.3,0.2-0.65,0.08-0.97c-0.13-0.32-0.39-0.57-0.72-0.67
		l-0.51-0.16l1.83-4.06h1.83c0.25,0,0.44,0.2,0.44,0.44V40.23z"/>
	<path class="st31" d="M45.71,21.15v-0.03c-0.44-5.71-2.99-11.02-7.18-14.94C34.28,2.19,28.72,0,22.89,0
		C17.07,0,11.51,2.19,7.26,6.18c-4.19,3.92-6.74,9.23-7.18,14.94L0,24.07v51.71c0,0.24,0.2,0.44,0.44,0.44h44.9
		c0.24,0,0.44-0.2,0.44-0.44V39.77v-0.54V24.05L45.71,21.15z M44.49,39.56v0.65v19.72v3.59v10.97c0,0.25-0.2,0.44-0.44,0.44H1.73
		c-0.24,0-0.44-0.19-0.44-0.44V24.09l0.08-2.88c0.41-5.38,2.82-10.39,6.77-14.09c4.01-3.76,9.25-5.83,14.75-5.83
		c5.5,0,10.73,2.07,14.75,5.83c3.95,3.7,6.36,8.7,6.77,14.09l0.07,2.86V39.56z"/>
	<path class="st31" d="M61.02,51.87c0.11,0,0.2,0.03,0.29,0.08c0.09,0.05,0.16,0.13,0.21,0.22l1.86,2.57
		c0.11,0.15,0.22,0.25,0.34,0.3c0.12,0.05,0.26,0.08,0.42,0.08h0.74v-3.25h0.95v3.25h0.74c0.16,0,0.29-0.02,0.41-0.08
		c0.12-0.05,0.23-0.15,0.34-0.3l1.86-2.57c0.06-0.09,0.13-0.17,0.22-0.22c0.09-0.05,0.19-0.08,0.29-0.08h0.79l-2.16,2.97
		c-0.1,0.14-0.2,0.26-0.3,0.36c-0.1,0.09-0.23,0.17-0.38,0.22c0.17,0.05,0.32,0.13,0.45,0.24c0.13,0.11,0.25,0.25,0.36,0.43
		l2.2,3.21h-0.67c-0.15,0-0.27-0.03-0.38-0.09c-0.11-0.06-0.19-0.15-0.26-0.26l-1.88-2.63c-0.09-0.14-0.2-0.25-0.32-0.31
		c-0.12-0.06-0.27-0.1-0.45-0.1h-0.86v3.39h-0.95v-3.39h-0.85c-0.19,0-0.34,0.03-0.46,0.1c-0.12,0.06-0.23,0.17-0.32,0.31
		l-1.88,2.63c-0.06,0.11-0.15,0.2-0.25,0.26c-0.11,0.06-0.23,0.09-0.38,0.09h-0.67l2.2-3.21c0.11-0.18,0.23-0.32,0.36-0.43
		s0.28-0.18,0.44-0.24c-0.14-0.05-0.27-0.12-0.37-0.22c-0.1-0.09-0.2-0.21-0.3-0.36l-2.16-2.97H61.02z"/>
	<path class="st31" d="M78.1,52.18c0.05-0.08,0.11-0.15,0.19-0.22c0.08-0.07,0.16-0.1,0.26-0.1h0.75v7.42h-1v-5.27
		c0-0.14,0-0.3,0.01-0.46c0.01-0.16,0.02-0.33,0.05-0.51c-0.06,0.15-0.12,0.3-0.19,0.43c-0.07,0.13-0.13,0.25-0.2,0.35l-3.48,5.14
		c-0.05,0.08-0.11,0.15-0.19,0.22c-0.08,0.07-0.16,0.1-0.26,0.1h-0.75v-7.42h1v5.27c0,0.15,0,0.3-0.01,0.46
		c-0.01,0.16-0.02,0.33-0.05,0.52c0.06-0.16,0.12-0.3,0.19-0.44c0.07-0.13,0.13-0.25,0.2-0.36L78.1,52.18z"/>
	<path class="st31" d="M88.42,51.87v7.42h-1v-6.62h-2.45c-0.05,0.95-0.11,1.78-0.19,2.48c-0.08,0.7-0.18,1.3-0.29,1.8
		c-0.12,0.5-0.25,0.9-0.39,1.21c-0.15,0.31-0.31,0.56-0.48,0.74c-0.17,0.18-0.36,0.3-0.56,0.37c-0.2,0.07-0.41,0.1-0.64,0.1
		c-0.19,0-0.33-0.02-0.43-0.05c-0.1-0.03-0.15-0.08-0.15-0.15v-0.64h0.36c0.14,0,0.27-0.03,0.41-0.08c0.13-0.05,0.26-0.16,0.39-0.32
		c0.12-0.16,0.24-0.39,0.35-0.69c0.11-0.3,0.21-0.7,0.3-1.19c0.09-0.49,0.17-1.1,0.23-1.81c0.06-0.71,0.12-1.56,0.15-2.55H88.42z"/>
	<path class="st31" d="M98.78,55.58c0,0.56-0.09,1.07-0.26,1.53c-0.18,0.46-0.43,0.86-0.75,1.2c-0.32,0.33-0.71,0.59-1.16,0.78
		c-0.45,0.19-0.95,0.28-1.49,0.28c-0.55,0-1.04-0.09-1.49-0.28c-0.45-0.18-0.83-0.44-1.15-0.78c-0.32-0.33-0.57-0.73-0.75-1.2
		c-0.18-0.46-0.26-0.97-0.26-1.53c0-0.56,0.09-1.07,0.26-1.53c0.18-0.46,0.42-0.86,0.75-1.2c0.32-0.34,0.71-0.6,1.15-0.78
		c0.45-0.19,0.95-0.28,1.49-0.28c0.55,0,1.04,0.09,1.49,0.28c0.45,0.19,0.84,0.45,1.16,0.78c0.32,0.34,0.57,0.74,0.75,1.2
		C98.69,54.51,98.78,55.02,98.78,55.58 M97.75,55.58c0-0.45-0.06-0.86-0.19-1.23c-0.12-0.36-0.3-0.67-0.53-0.92
		c-0.23-0.25-0.5-0.44-0.83-0.58c-0.32-0.13-0.69-0.2-1.09-0.2c-0.4,0-0.76,0.07-1.08,0.2c-0.32,0.13-0.6,0.33-0.83,0.58
		c-0.23,0.25-0.41,0.56-0.53,0.92c-0.12,0.36-0.19,0.77-0.19,1.23c0,0.46,0.06,0.86,0.19,1.22c0.12,0.36,0.3,0.67,0.53,0.92
		s0.51,0.44,0.83,0.57c0.32,0.13,0.69,0.2,1.08,0.2c0.4,0,0.76-0.07,1.09-0.2c0.32-0.13,0.6-0.32,0.83-0.57
		c0.23-0.25,0.4-0.56,0.53-0.92C97.68,56.44,97.75,56.03,97.75,55.58"/>
	<path class="st31" d="M106.64,52.18c0.05-0.08,0.11-0.15,0.19-0.22c0.08-0.07,0.16-0.1,0.26-0.1h0.75v7.42h-1v-5.27
		c0-0.15,0-0.3,0.01-0.46c0.01-0.16,0.02-0.33,0.05-0.51c-0.06,0.16-0.12,0.3-0.19,0.43c-0.07,0.13-0.13,0.25-0.2,0.35l-3.48,5.14
		c-0.05,0.08-0.11,0.15-0.19,0.22c-0.08,0.07-0.16,0.1-0.26,0.1h-0.75v-7.42h1v5.27c0,0.15,0,0.3-0.01,0.46
		c-0.01,0.16-0.02,0.33-0.05,0.51c0.06-0.16,0.12-0.3,0.19-0.44c0.07-0.13,0.13-0.25,0.2-0.36L106.64,52.18z M104.85,50.91
		c0.14,0,0.26-0.02,0.36-0.05c0.1-0.03,0.17-0.08,0.24-0.15c0.06-0.07,0.1-0.16,0.13-0.27c0.03-0.11,0.04-0.25,0.04-0.42h0.54
		c0.06,0,0.11,0.03,0.15,0.09c0.03,0.06,0.05,0.12,0.05,0.19c0,0.34-0.13,0.61-0.4,0.8c-0.27,0.19-0.64,0.28-1.11,0.28
		c-0.47,0-0.84-0.09-1.11-0.28c-0.27-0.19-0.4-0.45-0.4-0.8c0-0.07,0.02-0.14,0.05-0.19c0.04-0.06,0.08-0.09,0.15-0.09h0.54
		c0,0.17,0.01,0.3,0.04,0.42c0.03,0.11,0.07,0.2,0.13,0.27c0.06,0.07,0.14,0.12,0.24,0.15C104.59,50.9,104.71,50.91,104.85,50.91"/>
	<path class="st31" d="M116.6,55.12h0.77c0.15,0,0.29-0.02,0.4-0.07c0.11-0.05,0.22-0.14,0.32-0.28l1.94-2.61
		c0.05-0.08,0.11-0.15,0.19-0.2c0.07-0.05,0.16-0.08,0.26-0.08h0.84l-2.24,3.05c-0.09,0.12-0.18,0.23-0.29,0.31
		c-0.11,0.08-0.23,0.14-0.36,0.19c0.18,0.05,0.34,0.13,0.46,0.23c0.12,0.11,0.24,0.25,0.36,0.44l2.27,3.21h-0.9
		c-0.1,0-0.19-0.03-0.26-0.08c-0.07-0.05-0.14-0.13-0.2-0.24l-1.96-2.72c-0.09-0.13-0.19-0.23-0.29-0.28
		c-0.1-0.05-0.25-0.08-0.42-0.08h-0.89v3.39h-1v-7.42h1V55.12z"/>
	<path class="st31" d="M130.66,55.58c0,0.56-0.09,1.07-0.26,1.53c-0.18,0.46-0.43,0.86-0.75,1.2c-0.32,0.33-0.71,0.59-1.16,0.78
		c-0.45,0.19-0.95,0.28-1.49,0.28c-0.55,0-1.04-0.09-1.49-0.28c-0.45-0.18-0.83-0.44-1.15-0.78c-0.32-0.33-0.57-0.73-0.75-1.2
		c-0.18-0.46-0.26-0.97-0.26-1.53c0-0.56,0.09-1.07,0.26-1.53c0.18-0.46,0.42-0.86,0.75-1.2c0.32-0.34,0.71-0.6,1.15-0.78
		c0.45-0.19,0.95-0.28,1.49-0.28c0.55,0,1.04,0.09,1.49,0.28c0.45,0.19,0.84,0.45,1.16,0.78c0.32,0.34,0.57,0.74,0.75,1.2
		C130.57,54.51,130.66,55.02,130.66,55.58 M129.63,55.58c0-0.45-0.06-0.86-0.19-1.23c-0.12-0.36-0.3-0.67-0.53-0.92
		c-0.23-0.25-0.5-0.44-0.83-0.58c-0.32-0.13-0.69-0.2-1.09-0.2c-0.4,0-0.76,0.07-1.08,0.2c-0.32,0.13-0.6,0.33-0.83,0.58
		c-0.23,0.25-0.41,0.56-0.53,0.92c-0.12,0.36-0.19,0.77-0.19,1.23c0,0.46,0.06,0.86,0.19,1.22c0.12,0.36,0.3,0.67,0.53,0.92
		s0.51,0.44,0.83,0.57c0.32,0.13,0.69,0.2,1.08,0.2c0.4,0,0.76-0.07,1.09-0.2c0.32-0.13,0.6-0.32,0.83-0.57
		c0.23-0.25,0.4-0.56,0.53-0.92C129.57,56.44,129.63,56.03,129.63,55.58"/>
	<path class="st31" d="M137.48,56.87c0.04,0.09,0.08,0.18,0.11,0.27c0.03-0.09,0.07-0.19,0.11-0.28c0.04-0.09,0.08-0.18,0.12-0.26
		l2.51-4.56c0.04-0.08,0.09-0.13,0.14-0.14c0.05-0.02,0.12-0.03,0.21-0.03h0.74v7.42h-0.88v-5.45c0-0.07,0-0.15,0.01-0.23
		c0-0.08,0.01-0.17,0.01-0.25l-2.54,4.64c-0.08,0.15-0.2,0.23-0.36,0.23h-0.15c-0.16,0-0.28-0.08-0.36-0.23l-2.6-4.65
		c0.01,0.09,0.02,0.18,0.02,0.26c0,0.09,0.01,0.17,0.01,0.24v5.45h-0.88v-7.42h0.74c0.09,0,0.16,0.01,0.21,0.03
		c0.05,0.02,0.1,0.07,0.14,0.14l2.56,4.56C137.4,56.69,137.44,56.77,137.48,56.87"/>
	<polygon class="st31" points="150.65,59.28 149.64,59.28 149.64,52.66 145.94,52.66 145.94,59.28 144.93,59.28 144.93,51.87 
		150.65,51.87 	"/>
	<path class="st31" d="M159.77,51.87v7.42h-1v-6.62h-2.45c-0.05,0.95-0.11,1.78-0.19,2.48c-0.08,0.7-0.18,1.3-0.29,1.8
		c-0.12,0.5-0.25,0.9-0.39,1.21c-0.15,0.31-0.31,0.56-0.48,0.74c-0.17,0.18-0.36,0.3-0.56,0.37c-0.2,0.07-0.41,0.1-0.64,0.1
		c-0.19,0-0.33-0.02-0.43-0.05c-0.1-0.03-0.15-0.08-0.15-0.15v-0.64h0.36c0.14,0,0.27-0.03,0.41-0.08c0.13-0.05,0.26-0.16,0.39-0.32
		c0.12-0.16,0.24-0.39,0.35-0.69c0.11-0.3,0.21-0.7,0.3-1.19c0.09-0.49,0.17-1.1,0.23-1.81c0.06-0.71,0.12-1.56,0.15-2.55H159.77z"
		/>
	<polygon class="st31" points="167.85,51.87 167.85,52.69 164.29,52.69 164.29,55.15 167.17,55.15 167.17,55.94 164.29,55.94 
		164.29,58.47 167.86,58.47 167.85,59.28 163.28,59.28 163.28,51.87 	"/>
	<path class="st31" d="M171.87,55.12h0.77c0.16,0,0.29-0.02,0.4-0.07c0.11-0.05,0.22-0.14,0.32-0.28l1.94-2.61
		c0.05-0.08,0.11-0.15,0.19-0.2c0.07-0.05,0.16-0.08,0.26-0.08h0.84l-2.24,3.05c-0.09,0.12-0.18,0.23-0.29,0.31
		c-0.11,0.08-0.23,0.14-0.36,0.19c0.18,0.05,0.34,0.13,0.46,0.23c0.12,0.11,0.24,0.25,0.36,0.44l2.27,3.21h-0.9
		c-0.1,0-0.19-0.03-0.26-0.08c-0.07-0.05-0.14-0.13-0.2-0.24l-1.96-2.72c-0.09-0.13-0.19-0.23-0.29-0.28
		c-0.1-0.05-0.25-0.08-0.42-0.08h-0.89v3.39h-1v-7.42h1V55.12z"/>
	<path class="st31" d="M184.29,57.75c0.06,0,0.1,0.02,0.14,0.07l0.4,0.43c-0.3,0.35-0.67,0.63-1.1,0.82c-0.43,0.2-0.96,0.3-1.57,0.3
		c-0.53,0-1.01-0.09-1.45-0.28c-0.44-0.19-0.81-0.44-1.11-0.78c-0.31-0.33-0.55-0.73-0.71-1.2c-0.17-0.46-0.25-0.98-0.25-1.54
		c0-0.56,0.09-1.07,0.26-1.54c0.18-0.47,0.42-0.87,0.74-1.2c0.32-0.33,0.7-0.59,1.15-0.78c0.44-0.18,0.94-0.28,1.47-0.28
		c0.53,0,0.99,0.08,1.4,0.25c0.4,0.17,0.76,0.4,1.07,0.69l-0.33,0.46c-0.02,0.04-0.05,0.06-0.08,0.09
		c-0.03,0.02-0.08,0.03-0.13,0.03c-0.06,0-0.14-0.03-0.23-0.1c-0.09-0.07-0.21-0.14-0.35-0.23c-0.15-0.08-0.33-0.16-0.54-0.23
		c-0.22-0.07-0.48-0.1-0.8-0.1c-0.38,0-0.73,0.07-1.05,0.2c-0.32,0.13-0.59,0.33-0.82,0.58c-0.23,0.25-0.41,0.56-0.54,0.92
		c-0.13,0.36-0.19,0.77-0.19,1.23c0,0.46,0.07,0.87,0.2,1.24c0.13,0.36,0.31,0.67,0.54,0.92c0.23,0.25,0.5,0.44,0.81,0.57
		c0.31,0.13,0.65,0.2,1.01,0.2c0.22,0,0.42-0.01,0.6-0.04c0.18-0.03,0.34-0.07,0.49-0.12c0.15-0.06,0.29-0.12,0.42-0.21
		c0.13-0.08,0.26-0.19,0.39-0.3C184.17,57.78,184.23,57.75,184.29,57.75"/>
	<path class="st31" d="M72.06,30.37c-1.6-0.7-3.77-0.86-6.36-0.47V24.3h3.62c0.57,0.02,1.01,0.13,1.31,0.33
		c0.3,0.2,0.52,0.51,0.68,0.94c0.17,0.46,0.32,1.13,0.47,2c0.02,0.16,0.11,0.38,0.45,0.54c0.4,0.19,0.92,0.25,1.31-0.04
		c0.2-0.14,0.3-0.35,0.3-0.59l-0.08-3.85c0-0.57-0.34-0.89-0.95-0.89h-8.78c-0.96,0-2.05-0.03-3.23-0.08c-0.3,0-0.47,0.15-0.56,0.28
		c-0.11,0.16-0.16,0.34-0.16,0.58c0.02,0.33,0.09,0.53,0.22,0.64c0.12,0.1,0.29,0.15,0.54,0.15h0.16c0.47,0,0.82,0.08,1.04,0.24
		c0.21,0.16,0.34,0.35,0.39,0.58c0.06,0.26,0.1,0.62,0.12,1.06v10.85c-0.02,0.44-0.06,0.8-0.12,1.07c-0.05,0.23-0.18,0.42-0.39,0.57
		c-0.22,0.16-0.56,0.24-1.04,0.24c-0.31,0-0.51,0.04-0.64,0.11c-0.22,0.13-0.26,0.43-0.28,0.69c0,0.21,0.05,0.4,0.16,0.56
		c0.09,0.13,0.26,0.28,0.57,0.28h0c1.23-0.06,2.3-0.08,3.24-0.08l3.37,0.03c1.25,0,2.48-0.17,3.65-0.5
		c1.19-0.34,2.19-0.93,2.98-1.75c0.81-0.84,1.22-1.93,1.22-3.27c0-1.01-0.27-1.93-0.81-2.73C73.92,31.46,73.11,30.82,72.06,30.37
		 M71.75,35.01c0,2.59-1.39,3.86-4.25,3.9c-0.71,0-1.19-0.13-1.43-0.39c-0.17-0.18-0.36-0.61-0.36-1.65v-5.39
		c0.39-0.08,0.89-0.12,1.49-0.12c1.27,0,2.37,0.3,3.26,0.9C71.33,32.86,71.75,33.75,71.75,35.01"/>
	<path class="st31" d="M93.72,35.36c-0.76-0.11-1.07,0.23-1.19,0.55c-0.27,0.9-0.5,1.55-0.68,1.94c-0.17,0.36-0.4,0.62-0.69,0.79
		c-0.29,0.17-0.74,0.27-1.33,0.28H87.3c-0.52,0.02-0.92-0.05-1.15-0.21c-0.22-0.14-0.35-0.3-0.39-0.47
		c-0.05-0.22-0.1-0.52-0.13-0.86v-4.94h4.72c0.21,0,0.38-0.09,0.5-0.27c0.1-0.15,0.15-0.32,0.15-0.51c0-0.21-0.05-0.39-0.14-0.55
		c-0.11-0.18-0.27-0.29-0.5-0.32h-4.72V24.3h3.42c0.57,0.02,1.02,0.13,1.31,0.33c0.3,0.2,0.52,0.51,0.68,0.93
		c0.17,0.45,0.32,1.1,0.47,1.98c0.02,0.17,0.1,0.4,0.4,0.55c0.36,0.18,0.86,0.23,1.29-0.04c0.3-0.18,0.36-0.42,0.36-0.6l-0.08-3.83
		c0-0.57-0.34-0.89-0.95-0.89h-8.59c-0.95,0-2.04-0.03-3.26-0.08c-0.22,0-0.41,0.1-0.54,0.28c-0.11,0.16-0.17,0.34-0.17,0.58
		c0.02,0.33,0.09,0.53,0.22,0.64c0.12,0.11,0.29,0.16,0.54,0.16h0.16c0.48,0,0.82,0.08,1.04,0.24c0.21,0.16,0.34,0.35,0.39,0.58
		c0.06,0.26,0.1,0.62,0.12,1.06v10.85c-0.02,0.44-0.06,0.8-0.12,1.07c-0.05,0.23-0.18,0.42-0.39,0.57
		c-0.22,0.16-0.56,0.24-1.04,0.24c-0.3,0-0.51,0.04-0.64,0.11c-0.22,0.13-0.26,0.45-0.28,0.7c0,0.21,0.05,0.4,0.17,0.56
		c0.13,0.18,0.31,0.28,0.54,0.28h0c1.25-0.06,2.32-0.08,3.27-0.08H93c0.31,0,0.53-0.05,0.68-0.15c0.17-0.11,0.28-0.31,0.35-0.63
		l0.55-3.46c0.03-0.25-0.07-0.46-0.26-0.62C94.14,35.49,93.95,35.4,93.72,35.36"/>
	<path class="st31" d="M115.72,24.71c0.2-0.27,0.6-0.41,1.19-0.41c0.31,0,0.51-0.04,0.64-0.12c0.16-0.1,0.25-0.31,0.27-0.69
		c0-0.21-0.06-0.4-0.17-0.56c-0.09-0.13-0.26-0.28-0.57-0.28h0c-1.17,0.05-2.26,0.08-3.22,0.08h-6.9c-0.96,0-2.05-0.03-3.23-0.08
		c-0.31,0-0.48,0.15-0.56,0.28c-0.11,0.16-0.17,0.35-0.17,0.58c0.02,0.33,0.09,0.53,0.22,0.64c0.12,0.1,0.29,0.15,0.54,0.15h0.16
		c0.57,0,0.97,0.09,1.17,0.27c0.19,0.17,0.29,0.51,0.29,1c0,0.24-0.01,0.43-0.03,0.58c-0.35,3.04-0.65,5.36-0.89,6.88
		c-0.24,1.52-0.57,2.77-0.97,3.69c-0.37,0.86-0.84,1.28-1.41,1.28c-0.64,0-0.92-0.25-0.92-0.83c0-0.22,0.04-0.4,0.12-0.54
		c0.16-0.28,0.18-0.39,0.18-0.47v-0.07l-0.04-0.06c-0.06-0.09-0.18-0.17-0.36-0.25c-0.17-0.07-0.37-0.1-0.59-0.1
		c-0.63,0-1.16,0.22-1.58,0.65c-0.42,0.43-0.63,0.98-0.63,1.64c0,0.8,0.31,1.47,0.93,2c0.6,0.52,1.45,0.78,2.5,0.78
		c1.27,0,2.28-0.65,3.01-1.94c0.69-1.23,1.21-2.85,1.54-4.8c0.33-1.93,0.67-4.62,1.01-8c0.05-0.52,0.13-0.91,0.24-1.15
		c0.09-0.2,0.2-0.33,0.32-0.38c0.1-0.04,0.32-0.09,0.73-0.09h3.59v12.64c-0.02,0.44-0.06,0.8-0.12,1.07
		c-0.05,0.23-0.18,0.42-0.39,0.58c-0.21,0.16-0.56,0.24-1.04,0.24c-0.3,0-0.5,0.04-0.64,0.11c-0.22,0.13-0.26,0.45-0.28,0.7
		c0,0.21,0.06,0.4,0.17,0.56c0.09,0.13,0.25,0.28,0.57,0.28h0c1.23-0.05,2.34-0.08,3.38-0.08c0.97,0,2.03,0.03,3.26,0.08
		c0.3,0,0.47-0.15,0.56-0.28c0.11-0.16,0.17-0.35,0.17-0.57c-0.02-0.33-0.09-0.53-0.22-0.64c-0.12-0.1-0.29-0.15-0.54-0.15h-0.17
		c-0.47,0-0.82-0.08-1.04-0.24c-0.21-0.16-0.34-0.35-0.39-0.58c-0.06-0.27-0.1-0.63-0.12-1.06V26.18
		C115.38,25.5,115.5,25.01,115.72,24.71"/>
	<path class="st31" d="M136.34,32.2c-0.48-0.83-1.22-1.5-2.19-1.99c-0.96-0.49-2.14-0.74-3.5-0.74c-0.77,0-1.64,0.07-2.58,0.21
		v-3.49c0.02-0.44,0.06-0.8,0.12-1.07c0.05-0.23,0.18-0.42,0.39-0.58c0.21-0.16,0.56-0.24,1.04-0.24c0.3,0,0.51-0.03,0.64-0.11
		c0.25-0.13,0.27-0.46,0.27-0.7c0-0.21-0.06-0.4-0.16-0.56c-0.09-0.13-0.26-0.28-0.56-0.28c-0.45,0-1.05,0.02-1.78,0.05l-1.64,0.03
		c-1.35,0-2.43-0.03-3.2-0.08c-0.25-0.03-0.46,0.07-0.59,0.27c-0.11,0.17-0.16,0.36-0.16,0.57c0,0.34,0.07,0.55,0.21,0.66
		c0.13,0.1,0.3,0.14,0.54,0.14h0.17c0.48,0,0.82,0.08,1.04,0.24c0.21,0.16,0.34,0.34,0.39,0.57c0.06,0.26,0.1,0.62,0.12,1.06v10.85
		c-0.02,0.44-0.06,0.8-0.12,1.07c-0.05,0.23-0.18,0.42-0.39,0.58c-0.21,0.16-0.56,0.24-1.03,0.24c-0.3,0-0.51,0.04-0.65,0.11
		c-0.25,0.13-0.27,0.46-0.27,0.7c0,0.21,0.05,0.4,0.16,0.56c0.09,0.13,0.26,0.28,0.56,0.28c0.4,0,0.95-0.02,1.7-0.05l1.55-0.03h3.37
		c1.17,0,2.31-0.17,3.39-0.5c1.1-0.34,2.04-0.92,2.77-1.73c0.75-0.83,1.13-1.92,1.13-3.25C137.06,33.96,136.82,33.02,136.34,32.2
		 M133.56,35.01c0,1.43-0.36,2.45-1.06,3.02l0,0c-0.72,0.58-1.75,0.88-3.08,0.88c-0.54,0-0.91-0.11-1.09-0.34
		c-0.13-0.17-0.29-0.57-0.26-1.59v-5.72c0.4-0.08,0.89-0.12,1.49-0.12c1.09,0,2.04,0.33,2.83,0.99
		C133.16,32.77,133.56,33.74,133.56,35.01"/>
	<path class="st31" d="M142.66,25.12c0.05-0.23,0.18-0.42,0.39-0.58c0.21-0.16,0.56-0.24,1.03-0.24c0.3,0,0.51-0.04,0.64-0.12
		c0.16-0.1,0.25-0.31,0.27-0.69c0-0.21-0.06-0.4-0.17-0.56c-0.09-0.13-0.26-0.28-0.57-0.28h0c-1.17,0.05-2.26,0.08-3.24,0.08
		c-1.05,0-2.19-0.03-3.39-0.08c-0.31,0-0.47,0.15-0.56,0.28c-0.11,0.16-0.16,0.34-0.16,0.57c0.02,0.33,0.1,0.54,0.24,0.65
		c0.13,0.1,0.29,0.15,0.51,0.15h0.16c0.48,0,0.82,0.08,1.04,0.24c0.21,0.16,0.34,0.35,0.39,0.58c0.06,0.26,0.1,0.62,0.12,1.06v10.85
		c-0.02,0.44-0.06,0.8-0.12,1.07c-0.05,0.23-0.18,0.42-0.39,0.57c-0.22,0.16-0.56,0.24-1.04,0.24c-0.28,0-0.48,0.04-0.62,0.11
		c-0.18,0.1-0.27,0.32-0.3,0.7c0,0.21,0.06,0.4,0.16,0.56c0.09,0.13,0.26,0.28,0.57,0.28h0c1.23-0.06,2.35-0.08,3.41-0.08
		c0.95,0,2,0.03,3.23,0.08c0.31,0,0.48-0.15,0.56-0.28c0.11-0.16,0.17-0.34,0.17-0.58c-0.02-0.33-0.09-0.53-0.22-0.64
		c-0.12-0.11-0.29-0.16-0.54-0.16h-0.17c-0.47,0-0.83-0.08-1.04-0.24c-0.21-0.16-0.34-0.34-0.39-0.57c-0.06-0.27-0.1-0.63-0.12-1.06
		V26.19C142.55,25.75,142.59,25.39,142.66,25.12"/>
	<path class="st31" d="M155.33,20.85c1.07,0.52,2.35,0.78,3.8,0.78c1.45,0,2.73-0.26,3.8-0.78c1.12-0.54,1.69-1.34,1.69-2.36
		c0-0.5-0.15-0.9-0.44-1.19c-0.29-0.29-0.68-0.44-1.14-0.44c-0.47,0-0.84,0.15-1.13,0.46c-0.26,0.28-0.5,0.67-0.75,1.2
		c-0.28,0.56-0.57,1-0.86,1.3c-0.26,0.27-0.66,0.41-1.17,0.41c-0.52,0-0.91-0.14-1.17-0.41c-0.29-0.3-0.58-0.74-0.86-1.29
		c-0.25-0.54-0.5-0.93-0.75-1.21c-0.28-0.3-0.66-0.46-1.13-0.46c-0.46,0-0.85,0.15-1.14,0.44c-0.29,0.29-0.44,0.69-0.44,1.19
		C153.64,19.51,154.21,20.31,155.33,20.85"/>
	<path class="st31" d="M166.35,25.12c0.05-0.23,0.18-0.42,0.39-0.58c0.21-0.16,0.56-0.24,1.04-0.24c0.3,0,0.51-0.04,0.64-0.12
		c0.22-0.13,0.26-0.45,0.28-0.69c0-0.76-0.51-0.84-0.73-0.84c-0.52,0-0.98,0.02-1.42,0.05c-0.43,0.04-0.81,0.14-1.13,0.3
		c-0.32,0.16-0.7,0.45-1.12,0.86c-0.41,0.41-0.96,1.06-1.66,1.94l-7.43,9.38v-9c0.02-0.44,0.06-0.8,0.12-1.07
		c0.05-0.23,0.18-0.42,0.39-0.58c0.21-0.16,0.56-0.24,1.03-0.24c0.31,0,0.51-0.04,0.64-0.12c0.17-0.1,0.25-0.31,0.28-0.69
		c0-0.21-0.06-0.4-0.17-0.56c-0.09-0.13-0.26-0.28-0.57-0.28h0c-1.19,0.05-2.34,0.08-3.41,0.08c-0.96,0-2.05-0.03-3.23-0.08
		c-0.3,0-0.47,0.15-0.56,0.28c-0.11,0.16-0.17,0.34-0.17,0.57c0.02,0.33,0.09,0.53,0.22,0.64c0.12,0.1,0.29,0.15,0.54,0.15h0.16
		c0.48,0,0.83,0.08,1.04,0.24c0.21,0.16,0.34,0.35,0.39,0.58c0.06,0.26,0.1,0.62,0.12,1.06v10.85c-0.02,0.44-0.06,0.8-0.12,1.07
		c-0.05,0.23-0.18,0.42-0.39,0.58c-0.21,0.16-0.56,0.24-1.04,0.24c-0.3,0-0.51,0.04-0.64,0.11c-0.22,0.13-0.26,0.45-0.28,0.68v0.01
		c0,0.51,0.26,0.81,0.72,0.84c0.12,0,0.24,0.01,0.36,0.01c0.37,0,0.8-0.02,1.26-0.06c0.4-0.04,0.76-0.16,1.07-0.35
		c0.3-0.19,0.65-0.48,1.03-0.89c0.38-0.4,0.91-1.01,1.62-1.89l7.46-9.33v8.98c-0.02,0.44-0.06,0.79-0.12,1.07
		c-0.05,0.23-0.18,0.42-0.39,0.58c-0.21,0.16-0.56,0.24-1.03,0.24c-0.28,0-0.48,0.04-0.62,0.11c-0.24,0.13-0.28,0.45-0.3,0.7
		c0,0.21,0.06,0.4,0.17,0.56c0.09,0.13,0.26,0.28,0.57,0.28h0c1.23-0.06,2.34-0.08,3.38-0.08c0.95,0,2,0.03,3.23,0.08
		c0.3,0,0.47-0.15,0.56-0.28c0.11-0.16,0.17-0.34,0.17-0.57c-0.02-0.32-0.09-0.53-0.22-0.64c-0.12-0.1-0.29-0.15-0.54-0.15h-0.16
		c-0.47,0-0.82-0.08-1.04-0.24c-0.21-0.16-0.34-0.35-0.39-0.58c-0.06-0.27-0.1-0.63-0.12-1.06V26.19
		C166.25,25.75,166.29,25.39,166.35,25.12"/>
	<path class="st31" d="M197.15,36.56c-0.52-0.31-0.98-0.24-1.2,0.16c-0.54,0.87-1.15,1.51-1.82,1.91c-0.66,0.39-1.47,0.58-2.41,0.58
		c-1.16,0-2.21-0.34-3.12-1.01c-0.91-0.67-1.63-1.6-2.13-2.75c-0.5-1.16-0.76-2.47-0.76-3.89c0-1.64,0.24-3.07,0.71-4.25
		c0.47-1.17,1.12-2.06,1.95-2.66c0.82-0.6,1.77-0.9,2.83-0.9c0.92,0,1.65,0.22,2.16,0.67c0.51,0.44,0.75,1.02,0.75,1.78
		c0,0.37-0.09,0.68-0.26,0.93c-0.18,0.26-0.39,0.47-0.62,0.62c-0.39,0.25-0.49,0.35-0.49,0.45c-0.03,0.16,0.02,0.33,0.17,0.56
		c0.13,0.19,0.33,0.36,0.59,0.5c0.26,0.14,0.58,0.21,0.94,0.21c0.92,0,1.67-0.32,2.23-0.94c0.55-0.62,0.82-1.38,0.8-2.25
		c0-1.4-0.66-2.45-1.96-3.12c-1.25-0.64-2.7-0.97-4.29-0.97c-1.84,0-3.47,0.4-4.85,1.19c-1.38,0.8-2.46,1.93-3.21,3.37
		c-0.74,1.43-1.12,3.11-1.12,4.98c0,1.85,0.39,3.5,1.16,4.9c0.78,1.4,1.84,2.5,3.15,3.25c1.32,0.76,2.79,1.14,4.37,1.14
		c1.09,0,2.01-0.08,2.74-0.25c0.74-0.17,1.44-0.49,2.07-0.96c0.63-0.46,1.3-1.14,1.98-2.01c0.12-0.12,0.18-0.27,0.18-0.44
		C197.7,37.08,197.52,36.82,197.15,36.56"/>
	<path class="st31" d="M218.42,38.91h-0.15c-0.44-0.02-0.76-0.16-0.97-0.45c-0.24-0.33-0.5-0.84-0.76-1.51l-4.6-11.33
		c-0.36-0.86-0.75-1.52-1.17-1.95c-0.43-0.44-0.94-0.74-1.52-0.88c-0.56-0.14-1.29-0.21-2.23-0.21c-0.3,0-0.53,0.05-0.68,0.14
		c-0.13,0.08-0.29,0.26-0.29,0.64c0,0.34,0.06,0.55,0.2,0.65c0.08,0.06,0.21,0.13,0.67,0.21c0.43,0.09,0.76,0.2,0.99,0.33
		c0.18,0.1,0.27,0.27,0.27,0.51c0,0.09-0.03,0.26-0.15,0.56l-4.79,11.33l-0.31,0.72c-0.14,0.33-0.34,0.63-0.58,0.89
		c-0.21,0.23-0.55,0.35-1.03,0.35h-0.25c-0.17,0-0.32,0.04-0.45,0.11c-0.21,0.13-0.26,0.43-0.28,0.7c0,0.21,0.05,0.4,0.17,0.56
		c0.09,0.13,0.26,0.28,0.57,0.28h0c1.25-0.06,2.09-0.08,2.64-0.08c0.78,0,1.76,0.03,2.98,0.08c0.31,0,0.47-0.15,0.56-0.28
		c0.11-0.16,0.16-0.34,0.16-0.58c-0.02-0.33-0.09-0.53-0.22-0.64c-0.12-0.1-0.29-0.15-0.54-0.15h-0.16c-0.91,0-1.31-0.07-1.48-0.14
		c-0.18-0.07-0.26-0.19-0.26-0.4c0-0.1,0.04-0.4,0.32-1.3c0.01-0.04,0.04-0.12,0.09-0.26c0.04-0.12,0.2-0.54,0.72-1.81h6.44
		l0.87,2.11c0.26,0.74,0.32,1.06,0.32,1.21c0,0.22-0.08,0.35-0.25,0.43c-0.15,0.07-0.49,0.16-1.21,0.16c-0.25,0-0.42,0.05-0.54,0.15
		c-0.13,0.11-0.19,0.31-0.22,0.65c0,0.21,0.06,0.4,0.17,0.56c0.09,0.13,0.26,0.28,0.57,0.28h0c1.21-0.06,2.32-0.08,3.38-0.08
		c0.8,0,1.78,0.03,3.01,0.08c0.31,0,0.48-0.15,0.56-0.28c0.11-0.16,0.17-0.34,0.17-0.58c-0.02-0.33-0.09-0.53-0.22-0.64
		C218.84,38.96,218.67,38.91,218.42,38.91 M211.67,33.36h-5.05l2.59-6.27L211.67,33.36z"/>
	<path class="st31" d="M238.86,38.83c-0.65,0-1.12-0.08-1.39-0.23c-0.25-0.14-0.41-0.34-0.47-0.62c-0.08-0.32-0.12-0.83-0.12-1.52
		V26.19c0.02-0.44,0.06-0.79,0.12-1.07c0.05-0.23,0.18-0.42,0.39-0.58c0.21-0.16,0.56-0.24,1.04-0.24c0.28,0,0.48-0.03,0.62-0.11
		c0.23-0.13,0.28-0.45,0.3-0.7c0-0.21-0.06-0.4-0.17-0.56c-0.09-0.13-0.26-0.28-0.57-0.28h0c-1.17,0.05-2.26,0.08-3.25,0.08h-6.84
		c-0.96,0-2.02-0.03-3.26-0.08c-0.22,0-0.41,0.1-0.53,0.28c-0.11,0.16-0.17,0.34-0.17,0.57c0.02,0.33,0.09,0.53,0.22,0.64
		c0.12,0.1,0.29,0.15,0.54,0.15h0.17c0.47,0,0.82,0.08,1.03,0.24c0.21,0.16,0.34,0.35,0.39,0.58c0.06,0.26,0.1,0.62,0.12,1.05
		c-0.02,2.21-0.34,4.58-0.95,7.03c-0.6,2.38-1.44,4.27-2.51,5.62h-0.87c-0.73,0-1.14,0.39-1.14,1.11v4.52
		c0,0.27,0.12,0.51,0.36,0.68c0.21,0.16,0.47,0.24,0.76,0.24c0.84,0,1.09-0.43,1.16-0.8c0.18-1.17,0.36-2.04,0.55-2.59
		c0.17-0.51,0.44-0.9,0.8-1.14c0.36-0.25,0.92-0.37,1.67-0.37h7.85c0.75,0,1.31,0.12,1.67,0.37c0.36,0.24,0.62,0.62,0.8,1.14
		c0.19,0.55,0.37,1.39,0.55,2.59c0.07,0.36,0.34,0.79,1.24,0.79c0.25,0,0.48-0.08,0.69-0.24c0.22-0.17,0.34-0.41,0.34-0.68v-4.52
		C240,39.22,239.6,38.83,238.86,38.83 M233.7,24.39v12.84c0,0.51-0.05,0.89-0.16,1.12c-0.09,0.21-0.21,0.33-0.35,0.38
		c-0.19,0.06-0.46,0.1-0.81,0.1h-6.68c1.01-1.43,1.75-3.17,2.2-5.19c0.49-2.18,0.8-4.75,0.91-7.66c0-0.51,0.05-0.89,0.16-1.12
		c0.09-0.21,0.21-0.33,0.36-0.38c0.18-0.06,0.46-0.1,0.81-0.1H233.7z"/>
</g>
</svg>
