<?xml version="1.0" encoding="utf-8"?>
<!-- Generator: Adobe Illustrator 23.0.1, SVG Export Plug-In . SVG Version: 6.00 Build 0)  -->
<svg version="1.1" id="Слой_1" xmlns="http://www.w3.org/2000/svg" xmlns:xlink="http://www.w3.org/1999/xlink" x="0px" y="0px"
	 viewBox="0 0 240 96.85" style="enable-background:new 0 0 240 96.85;" xml:space="preserve">
<style type="text/css">
	.st0{fill:#723287;}
	.st1{fill:#DF1D26;}
	.st2{fill:#F8A445;}
	.st3{fill:#0A0A0A;}
	.st4{fill:#FFFFFF;}
</style>
<g>
	<path class="st0" d="M154.62,47.53l-49.1-0.01c0.07,1.06,0.42,2.03,0.98,2.84l2.69,3.94l3.11,4.56c0.51,0.74,1.2,1.38,2.05,1.83
		c0.86,0.45,1.77,0.66,2.67,0.66h41.88c0.9,0,1.82-0.21,2.67-0.66L154.62,47.53z"/>
	<path class="st1" d="M161.57,60.69L161.57,60.69c0.85-0.45,1.54-1.08,2.05-1.82l5.82-8.5c0.57-0.83,0.92-1.82,0.98-2.89
		c0.06-1.07-0.18-2.09-0.64-2.97L147.89,2.99c-0.47-0.84-1.14-1.58-2-2.11l-7.93,15.04L161.57,60.69z"/>
	<path class="st2" d="M127.99,3.06l-15.22,28.88l-6.6,12.53c-0.47,0.89-0.71,1.91-0.65,2.99c0,0.02,0.01,0.03,0.01,0.05h15.79
		l16.65-31.6l7.93-15.04c-0.02-0.01-0.03-0.02-0.05-0.03c-0.92-0.56-1.94-0.82-2.95-0.82h-9.84c-1.01,0-2.03,0.26-2.95,0.82
		C129.17,1.4,128.46,2.17,127.99,3.06"/>
	<path class="st3" d="M0,91.45v3.35c0,0.52,0.2,1.04,0.6,1.44c0.39,0.4,0.92,0.6,1.44,0.6h235.92c0.52,0,1.05-0.21,1.45-0.6
		c0.39-0.4,0.59-0.92,0.59-1.44v-3.35H0z"/>
	<path class="st1" d="M0,91.46c0,0.52,0.2,1.05,0.6,1.44C1,93.3,1.52,93.5,2.04,93.5h235.92c0.52,0,1.05-0.2,1.45-0.59
		c0.39-0.4,0.59-0.92,0.59-1.44V72.83c0-0.52-0.2-1.04-0.59-1.44c-0.4-0.4-0.92-0.6-1.45-0.6H2.04c-0.52,0-1.04,0.2-1.44,0.6
		C0.2,71.79,0,72.31,0,72.83V91.46z"/>
	<path class="st0" d="M20.98,27.48h-5.74V13.85h5.74c2.63,0,7.67,1.5,7.67,6.64C28.65,24.86,25.74,27.48,20.98,27.48 M19.54,0.03
		H2.04c-0.52,0-1.04,0.2-1.44,0.6C0.2,1.02,0,1.55,0,2.07v57.24c0,0.52,0.2,1.05,0.6,1.44c0.4,0.4,0.92,0.6,1.44,0.6H13.2
		c0.53,0,1.05-0.2,1.45-0.6c0.4-0.4,0.6-0.92,0.6-1.44V41.45h4.29c19.45,0,24.44-11.41,24.44-20.26C43.98,2,26.49,0.03,19.54,0.03z"
		/>
	<path class="st0" d="M193.09,47.52l4.94-0.04c2.64,0,7.68-1.5,7.68-6.64c0-4.36-2.92-6.98-7.68-6.98h-4.94V47.52z M177.83,2.08
		c0-0.52,0.21-1.04,0.6-1.44c0.4-0.4,0.92-0.64,1.44-0.64h11.18c0.52,0,1.05,0.24,1.44,0.64c0.4,0.4,0.6,0.92,0.6,1.44v17.96h3.8
		c19.45,0,24.45,11.4,24.45,20.25c0,8.76-4.91,21.05-24.45,21.05h-17.02c-0.52,0-1.04-0.2-1.44-0.6c-0.4-0.4-0.6-0.92-0.6-1.44V2.08
		z"/>
	<path class="st0" d="M240,47.64V34.02V2.1c0-0.52-0.2-1.04-0.59-1.44c-0.4-0.39-0.93-0.64-1.45-0.64H226.8
		c-0.53,0-1.05,0.25-1.44,0.64c-0.4,0.4-0.59,0.92-0.59,1.44v57.21c0,0.52,0.19,1.05,0.59,1.44c0.4,0.4,0.92,0.6,1.44,0.6h11.16
		c0.52,0,1.05-0.2,1.45-0.6c0.4-0.4,0.59-0.92,0.59-1.44V47.64z"/>
	<path class="st4" d="M20.72,85.69c1.53,0,2.42-1.47,2.42-3.61c0-2.03-0.91-3.58-2.46-3.58c-1.52,0-2.46,1.55-2.46,3.6
		c-0.02,2.12,0.94,3.6,2.46,3.6H20.72z M20.56,88.21c-3.66,0-5.68-2.76-5.68-6.04c0-3.44,2.25-6.18,5.88-6.18
		c3.81,0,5.74,2.82,5.74,5.98c0,3.8-2.28,6.23-5.91,6.23H20.56z"/>
	<polygon class="st4" points="55.08,76.18 55.08,88.01 51.9,88.01 51.9,78.78 48.26,78.78 48.26,88.01 45.08,88.01 45.08,76.18 	"/>
	<polygon class="st4" points="76.41,78.85 73.4,78.85 73.4,76.18 82.67,76.18 82.67,78.85 79.59,78.85 79.59,88.01 76.41,88.01 	"/>
	<path class="st4" d="M106.25,85.69c1.53,0,2.42-1.47,2.42-3.61c0-2.03-0.91-3.58-2.46-3.58c-1.52,0-2.45,1.55-2.45,3.6
		c-0.02,2.12,0.93,3.6,2.45,3.6H106.25z M106.09,88.21c-3.67,0-5.69-2.76-5.69-6.04c0-3.44,2.25-6.18,5.88-6.18
		c3.81,0,5.74,2.82,5.74,5.98c0,3.8-2.28,6.23-5.91,6.23H106.09z"/>
	<path class="st4" d="M133.74,76.18v4.78h0.14l2.91-4.78h3.86l-3.98,5.18c1.35,0.42,1.99,1.4,2.44,2.76
		c0.42,1.3,0.83,2.65,1.39,3.89h-3.4c-0.39-0.81-0.58-1.67-0.82-2.52c-0.35-1.23-0.83-2.23-2.02-2.23h-0.51v4.76h-3.13V76.18H133.74
		z"/>
	<path class="st4" d="M168.63,76.18v11.83h-3.17v-9.23h-2.14v2.47c0,3.25-0.49,5.37-2.33,6.37c-0.67,0.37-1.52,0.6-2.6,0.6
		L158,85.68c0.63-0.09,1.07-0.31,1.39-0.65c0.64-0.66,0.84-1.84,0.84-3.58v-5.26H168.63z"/>
	<path class="st4" d="M190.38,76.14l1.44,3.92c0.33,0.88,0.56,1.61,0.82,2.33h0.06c0.12-0.47,0.32-1.3,0.62-2.38l1.03-3.87h3.33
		l-2.11,5.73c-0.75,1.95-1.49,3.72-2.38,4.81c-0.78,0.98-1.81,1.62-3.35,1.62c-0.7,0-1.1-0.09-1.51-0.23l0.21-2.55
		c0.26,0.07,0.56,0.1,1.02,0.1c0.65,0,1.14-0.27,1.3-0.68c0.07-0.17,0.04-0.33-0.05-0.47l-4-8.32H190.38z"/>
	<path class="st4" d="M218.9,85.73c0.28,0.03,0.61,0.05,0.93,0.05c0.52,0,1.03-0.16,1.41-0.47c0.34-0.28,0.55-0.7,0.55-1.21
		c0-0.45-0.2-0.82-0.5-1.08c-0.42-0.35-1.03-0.5-1.56-0.5c-0.28,0-0.53,0.04-0.84,0.07V85.73z M224.16,76.18v2.58h-5.24v1.53
		c0.44-0.06,0.95-0.09,1.44-0.09c1.24,0,2.55,0.34,3.45,1.04c0.79,0.61,1.32,1.54,1.32,2.8c0,1.18-0.47,2.11-1.2,2.72
		c-1.18,1.03-3.19,1.38-5.07,1.38c-1.44,0-2.46-0.09-3.1-0.21V76.18H224.16z"/>
	<path class="st0" d="M82.49,27.45h-6.82c-1.78,0-2.91-0.03-4.41-0.21C67.92,26.82,66,24.1,66,20.51c0-3.23,2.09-5.61,5.47-6.34
		c1.35-0.29,2.91-0.33,4.3-0.33h6.71V27.45z M97.72,2.17c0-0.52-0.2-1.11-0.6-1.51c-0.4-0.39-0.92-0.64-1.44-0.64H82.49h-5.84
		c-9.25,0-26.89,2.16-26.89,21.18c0,6.09,3.62,13.62,10.48,17.18L47.9,59.33c-0.23,0.39-0.25,0.91,0,1.34
		c0.24,0.44,0.7,0.68,1.16,0.68h14.34c0.59,0,1.18-0.16,1.72-0.48c0.54-0.33,0.94-0.79,1.21-1.32l9.67-18.29l6.48,0.02v18.03
		c0,0.52,0.2,1.05,0.6,1.44c0.4,0.4,0.92,0.6,1.44,0.6h11.16c0.52,0,1.04-0.2,1.45-0.6c0.39-0.4,0.6-1.07,0.6-1.59L97.72,2.17z"/>
</g>
</svg>
